<svg width="269" height="39" viewBox="0 0 269 39" fill="none" xmlns="http://www.w3.org/2000/svg">
<rect x="0.5" y="0.5" width="268" height="38" rx="15.5" fill="#FF8C00" stroke="#6CCEFF"/>
<path d="M101.016 20.2656C101.016 23.3359 99.1562 25.1953 96.0156 25.1953C92.6484 25.1953 90.5859 22.9922 90.5859 19.3281C90.5859 15.7188 92.6484 13.5312 95.9609 13.5312C98.5938 13.5312 100.578 15.0859 100.914 17.3672H98.5469C98.2031 16.1875 97.2422 15.4844 95.9688 15.4844C94.1094 15.4844 92.9922 16.8984 92.9922 19.2969C92.9922 21.7422 94.1797 23.2344 96.0547 23.2344C97.5938 23.2344 98.6641 22.2891 98.7109 20.8906L98.7188 20.7109H96.2656V18.9922H101.016V20.2656ZM106.227 25.1797C103.695 25.1797 102.078 23.5547 102.078 20.8047C102.078 18.0938 103.719 16.4453 106.227 16.4453C108.734 16.4453 110.375 18.0859 110.375 20.8047C110.375 23.5625 108.758 25.1797 106.227 25.1797ZM106.227 23.4375C107.344 23.4375 108.055 22.4922 108.055 20.8125C108.055 19.1484 107.336 18.1875 106.227 18.1875C105.117 18.1875 104.391 19.1484 104.391 20.8125C104.391 22.4922 105.102 23.4375 106.227 23.4375ZM111.594 25V16.625H113.875V25H111.594ZM112.734 15.7031C112.047 15.7031 111.516 15.1797 111.516 14.5234C111.516 13.8594 112.047 13.3438 112.734 13.3438C113.422 13.3438 113.953 13.8594 113.953 14.5234C113.953 15.1797 113.422 15.7031 112.734 15.7031ZM115.398 25V16.625H117.602V18.1172H117.648C118.094 17.0781 118.977 16.4688 120.266 16.4688C122.125 16.4688 123.172 17.6406 123.172 19.6016V25H120.891V20.0781C120.891 18.9844 120.375 18.3594 119.352 18.3594C118.328 18.3594 117.68 19.1094 117.68 20.1953V25H115.398ZM128.484 23.2188C129.625 23.2188 130.352 22.3125 130.352 20.7969C130.352 19.2891 129.625 18.3203 128.484 18.3203C127.359 18.3203 126.648 19.2734 126.648 20.7969C126.648 22.3281 127.352 23.2188 128.484 23.2188ZM128.445 28.1562C126.242 28.1562 124.75 27.0859 124.57 25.5938H126.805C126.984 26.1719 127.641 26.5703 128.508 26.5703C129.688 26.5703 130.344 25.9141 130.344 24.9453V23.4766H130.297C129.906 24.3672 128.922 24.9766 127.711 24.9766C125.664 24.9766 124.312 23.3984 124.312 20.7812C124.312 18.125 125.625 16.4922 127.75 16.4922C128.953 16.4922 129.898 17.125 130.336 18.0859H130.375V16.625H132.625V24.8828C132.625 26.8828 130.953 28.1562 128.445 28.1562ZM137.898 14.6953H140.18V16.625H141.727V18.3438H140.18V22.3516C140.18 22.9922 140.492 23.2969 141.164 23.2969C141.367 23.2969 141.578 23.2812 141.719 23.2578V24.9375C141.484 24.9922 141.094 25.0312 140.633 25.0312C138.664 25.0312 137.898 24.375 137.898 22.7422V18.3438H136.719V16.625H137.898V14.6953ZM146.695 25.1797C144.164 25.1797 142.547 23.5547 142.547 20.8047C142.547 18.0938 144.188 16.4453 146.695 16.4453C149.203 16.4453 150.844 18.0859 150.844 20.8047C150.844 23.5625 149.227 25.1797 146.695 25.1797ZM146.695 23.4375C147.812 23.4375 148.523 22.4922 148.523 20.8125C148.523 19.1484 147.805 18.1875 146.695 18.1875C145.586 18.1875 144.859 19.1484 144.859 20.8125C144.859 22.4922 145.57 23.4375 146.695 23.4375ZM155.055 19.0859C155.055 17.4922 156.438 16.4453 158.586 16.4453C160.688 16.4453 162.055 17.5078 162.086 19.1328H159.984C159.938 18.4609 159.398 18.0469 158.555 18.0469C157.766 18.0469 157.25 18.4062 157.25 18.9453C157.25 19.3594 157.609 19.6406 158.344 19.8125L159.945 20.1562C161.625 20.5312 162.305 21.1953 162.305 22.4453C162.305 24.0938 160.789 25.1797 158.578 25.1797C156.344 25.1797 154.969 24.1016 154.844 22.4688H157.07C157.18 23.1719 157.734 23.5781 158.641 23.5781C159.508 23.5781 160.031 23.2344 160.031 22.6875C160.031 22.2656 159.75 22.0312 159 21.8516L157.453 21.5078C155.867 21.1484 155.055 20.3203 155.055 19.0859ZM171.055 19.7422H168.938C168.805 18.8594 168.219 18.2344 167.281 18.2344C166.156 18.2344 165.453 19.1875 165.453 20.8047C165.453 22.4531 166.156 23.3906 167.289 23.3906C168.203 23.3906 168.797 22.8438 168.938 21.9297H171.062C170.945 23.9062 169.469 25.1797 167.266 25.1797C164.742 25.1797 163.141 23.5391 163.141 20.8047C163.141 18.1172 164.742 16.4453 167.25 16.4453C169.516 16.4453 170.953 17.8438 171.055 19.7422ZM172.219 25V13.7266H174.461V18.1172H174.508C174.953 17.0625 175.867 16.4688 177.141 16.4688C179 16.4688 180.062 17.6719 180.062 19.6094V25H177.781V20.0938C177.781 19.0156 177.25 18.3594 176.211 18.3594C175.133 18.3594 174.5 19.1172 174.5 20.2188V25H172.219ZM185.367 25.1797C182.836 25.1797 181.219 23.5547 181.219 20.8047C181.219 18.0938 182.859 16.4453 185.367 16.4453C187.875 16.4453 189.516 18.0859 189.516 20.8047C189.516 23.5625 187.898 25.1797 185.367 25.1797ZM185.367 23.4375C186.484 23.4375 187.195 22.4922 187.195 20.8125C187.195 19.1484 186.477 18.1875 185.367 18.1875C184.258 18.1875 183.531 19.1484 183.531 20.8125C183.531 22.4922 184.242 23.4375 185.367 23.4375ZM194.539 25.1797C192.008 25.1797 190.391 23.5547 190.391 20.8047C190.391 18.0938 192.031 16.4453 194.539 16.4453C197.047 16.4453 198.688 18.0859 198.688 20.8047C198.688 23.5625 197.07 25.1797 194.539 25.1797ZM194.539 23.4375C195.656 23.4375 196.367 22.4922 196.367 20.8125C196.367 19.1484 195.648 18.1875 194.539 18.1875C193.43 18.1875 192.703 19.1484 192.703 20.8125C192.703 22.4922 193.414 23.4375 194.539 23.4375ZM199.922 25V13.7266H202.203V25H199.922Z" fill="white"/>
<circle cx="250" cy="20" r="9.5" fill="white" stroke="#6CCEFF"/>
<rect x="8" y="1" width="39" height="37" rx="9" fill="#FF8C00"/>
<g clip-path="url(#clip0_1_5830)">
<g opacity="0.22">
<path d="M36.5935 8.92993H33.6352V14.3899H36.5935V8.92993Z" fill="#5F70D6"/>
<path opacity="0.24" d="M36.5935 8.92993H33.6352V14.3899C33.6352 14.3899 36.5206 9.06493 36.5935 8.92993Z" fill="#5F70D6"/>
<path d="M16.585 15.9501V31.5051H39.1146V16.2651L27.7186 9.14014L16.585 15.9501Z" fill="#5F70D6"/>
<path d="M40.8342 17.24L27.7186 10.085H27.704L14.603 17.24L15.3608 18.71L27.7186 11.975L40.0618 18.71L40.8342 17.24Z" fill="#5F70D6"/>
<path d="M42 16.7299L27.7186 8.94493V8.92993V8.94493L27.704 8.92993V8.94493L13.4372 16.7299L14.2678 18.3349L27.7186 10.9999L41.1694 18.3349L42 16.7299Z" fill="#5F70D6"/>
<path d="M37.1909 8.30005H32.994V9.98005H37.1909V8.30005Z" fill="#5F70D6"/>
<path d="M39.1146 26.7351H16.585V31.5201H39.1146V26.7351Z" fill="#5F70D6"/>
<path d="M31.2598 31.5051H24.8915V25.5051C24.8915 23.6901 26.3196 22.2351 28.0684 22.2351C29.8317 22.2351 31.2452 23.7051 31.2452 25.5051V31.5051H31.2598Z" fill="#5F70D6"/>
<path d="M28.5493 22.2651C28.389 22.2351 28.2433 22.2351 28.083 22.2351C26.3196 22.2351 24.9061 23.7051 24.9061 25.5051V31.5051H25.8387V25.5051C25.8387 23.8551 27.0191 22.4901 28.5493 22.2651Z" fill="#5F70D6"/>
<path d="M22.8658 19.415H18.8146V24.86H22.8658V19.415Z" fill="#5F70D6"/>
<path d="M23.0699 25.0699H18.596V19.1899H23.0699V25.0699ZM19.0186 24.6349H22.6473V19.6249H19.0186V24.6349Z" fill="#5F70D6"/>
<path d="M36.8412 19.415H32.79V24.86H36.8412V19.415Z" fill="#5F70D6"/>
<path d="M37.0598 25.0699H32.5859V19.1899H37.0598V25.0699ZM33.0086 24.6349H36.6372V19.6249H33.0086V24.6349Z" fill="#5F70D6"/>
<path d="M21.0151 19.415H20.6362V24.65H21.0151V19.415Z" fill="#5F70D6"/>
<path d="M22.8658 21.05H18.8146V21.44H22.8658V21.05Z" fill="#5F70D6"/>
<path d="M22.8658 22.8501H18.8146V23.2401H22.8658V22.8501Z" fill="#5F70D6"/>
<path d="M36.8412 21.05H32.79V21.44H36.8412V21.05Z" fill="#5F70D6"/>
<path d="M36.8412 22.8501H32.79V23.2401H36.8412V22.8501Z" fill="#5F70D6"/>
<path d="M35.0051 19.415H34.6262V24.65H35.0051V19.415Z" fill="#5F70D6"/>
<path d="M30.3709 27.2451C30.3709 27.4551 30.2106 27.6201 30.0065 27.6201C29.8025 27.6201 29.6422 27.4551 29.6422 27.2451C29.6422 27.0351 29.8025 26.8701 30.0065 26.8701C30.196 26.8701 30.3709 27.0351 30.3709 27.2451Z" fill="#5F70D6"/>
<path d="M42 30.9651H14.1221V32.0001H42V30.9651Z" fill="#5F70D6"/>
<path d="M28.3787 17.2685C29.2562 16.8944 29.6728 15.859 29.3094 14.9558C28.9459 14.0527 27.94 13.6238 27.0626 13.9979C26.1851 14.372 25.7685 15.4074 26.1319 16.3106C26.4954 17.2137 27.5013 17.6426 28.3787 17.2685Z" fill="#5F70D6"/>
<path d="M29.0156 15.8434C29.1316 15.1074 28.6461 14.414 27.931 14.2945C27.216 14.1751 26.5423 14.6749 26.4263 15.4108C26.3103 16.1468 26.7958 16.8402 27.5108 16.9597C28.2258 17.0791 28.8995 16.5793 29.0156 15.8434Z" fill="#5F70D6"/>
</g>
<path d="M36.1563 8.62988H33.198V14.0899H36.1563V8.62988Z" fill="#E7DABB"/>
<path opacity="0.24" d="M36.1563 8.62988H33.198V14.0899C33.198 14.0899 36.0834 8.76488 36.1563 8.62988Z" fill="#D9D1CA"/>
<path d="M16.1478 15.6501V31.2051H38.6774V15.9651L27.2814 8.84009L16.1478 15.6501Z" fill="#E7DABB"/>
<path d="M40.397 16.9399L27.2814 9.78491H27.2668L14.1658 16.9399L14.9236 18.4099L27.2814 11.6749L39.6246 18.4099L40.397 16.9399Z" fill="#E9BE2A"/>
<path d="M41.5628 16.4299L27.2814 8.64488V8.62988V8.64488L27.2668 8.62988V8.64488L13 16.4299L13.8307 18.0349L27.2814 10.6999L40.7322 18.0349L41.5628 16.4299Z" fill="#FF443C"/>
<path d="M36.7537 8H32.5568V9.68H36.7537V8Z" fill="#FF443C"/>
<path d="M38.6774 26.4351H16.1478V31.2201H38.6774V26.4351Z" fill="#62A531"/>
<path d="M30.8226 31.2051H24.4543V25.2051C24.4543 23.3901 25.8824 21.9351 27.6312 21.9351C29.3945 21.9351 30.8081 23.4051 30.8081 25.2051V31.2051H30.8226Z" fill="#822B21"/>
<path d="M28.1121 21.9651C27.9518 21.9351 27.8061 21.9351 27.6458 21.9351C25.8824 21.9351 24.4689 23.4051 24.4689 25.2051V31.2051H25.4015V25.2051C25.4015 23.5551 26.5819 22.1901 28.1121 21.9651Z" fill="#672117"/>
<path d="M22.4286 19.115H18.3774V24.56H22.4286V19.115Z" fill="#88CCCD"/>
<path d="M22.6327 24.7699H18.1588V18.8899H22.6327V24.7699ZM18.5814 24.3349H22.2101V19.3249H18.5814V24.3349Z" fill="#0074AE"/>
<path d="M36.404 19.115H32.3528V24.56H36.404V19.115Z" fill="#88CCCD"/>
<path d="M36.6226 24.7699H32.1487V18.8899H36.6226V24.7699ZM32.5714 24.3349H36.2V19.3249H32.5714V24.3349Z" fill="#0074AE"/>
<path d="M20.5779 19.115H20.199V24.35H20.5779V19.115Z" fill="#0074AE"/>
<path d="M22.4286 20.75H18.3774V21.14H22.4286V20.75Z" fill="#0074AE"/>
<path d="M22.4286 22.55H18.3774V22.94H22.4286V22.55Z" fill="#0074AE"/>
<path d="M36.404 20.75H32.3528V21.14H36.404V20.75Z" fill="#0074AE"/>
<path d="M36.404 22.55H32.3528V22.94H36.404V22.55Z" fill="#0074AE"/>
<path d="M34.5679 19.115H34.189V24.35H34.5679V19.115Z" fill="#0074AE"/>
<path d="M29.9337 26.9451C29.9337 27.1551 29.7734 27.3201 29.5693 27.3201C29.3653 27.3201 29.205 27.1551 29.205 26.9451C29.205 26.7351 29.3653 26.5701 29.5693 26.5701C29.7588 26.5701 29.9337 26.7351 29.9337 26.9451Z" fill="#E9BE2A"/>
<path d="M41.5628 30.665H13.6849V31.7H41.5628V30.665Z" fill="#FF443C"/>
<path d="M27.9415 16.9685C28.819 16.5944 29.2356 15.5589 28.8722 14.6558C28.5087 13.7526 27.5028 13.3238 26.6254 13.6979C25.7479 14.072 25.3313 15.1074 25.6947 16.0105C26.0582 16.9137 27.0641 17.3426 27.9415 16.9685Z" fill="#0074AE"/>
<path d="M28.5784 15.5433C28.6944 14.8073 28.2089 14.1139 27.4939 13.9945C26.7788 13.875 26.1051 14.3748 25.9891 15.1108C25.8731 15.8467 26.3586 16.5402 27.0736 16.6596C27.7886 16.7791 28.4623 16.2793 28.5784 15.5433Z" fill="#88CCCD"/>
</g>
<defs>
<clipPath id="clip0_1_5830">
<rect width="29" height="24" fill="white" transform="translate(13 8)"/>
</clipPath>
</defs>
</svg>
