<svg width="335" height="181" viewBox="0 0 335 181" fill="none" xmlns="http://www.w3.org/2000/svg">
<rect x="58.5" y="0.5" width="268" height="38" rx="15.5" fill="#071292" stroke="#6CCEFF"/>
<path d="M148.516 21.7891H150.789C150.898 22.7188 151.867 23.3281 153.117 23.3281C154.375 23.3281 155.234 22.7266 155.234 21.8984C155.234 21.1641 154.695 20.7578 153.336 20.4531L151.867 20.1328C149.789 19.6875 148.766 18.6328 148.766 16.9844C148.766 14.9062 150.562 13.5312 153.078 13.5312C155.703 13.5312 157.352 14.8828 157.391 16.9219H155.18C155.102 15.9688 154.266 15.3906 153.086 15.3906C151.922 15.3906 151.141 15.9453 151.141 16.7812C151.141 17.4766 151.688 17.8672 152.984 18.1641L154.352 18.4531C156.609 18.9375 157.594 19.9062 157.594 21.625C157.594 23.8125 155.82 25.1953 153.023 25.1953C150.312 25.1953 148.586 23.9062 148.516 21.7891ZM158.906 25V13.7266H161.188V25H158.906ZM166.484 18.1328C165.484 18.1328 164.766 18.8906 164.688 19.9375H168.242C168.195 18.8672 167.5 18.1328 166.484 18.1328ZM168.273 22.4375H170.367C170.117 24.0781 168.617 25.1797 166.547 25.1797C163.969 25.1797 162.422 23.5312 162.422 20.8516C162.422 18.1797 163.984 16.4453 166.461 16.4453C168.898 16.4453 170.438 18.0938 170.438 20.6406V21.3359H164.664V21.4766C164.664 22.6719 165.422 23.4922 166.586 23.4922C167.422 23.4922 168.062 23.0781 168.273 22.4375ZM175.375 18.1328C174.375 18.1328 173.656 18.8906 173.578 19.9375H177.133C177.086 18.8672 176.391 18.1328 175.375 18.1328ZM177.164 22.4375H179.258C179.008 24.0781 177.508 25.1797 175.438 25.1797C172.859 25.1797 171.312 23.5312 171.312 20.8516C171.312 18.1797 172.875 16.4453 175.352 16.4453C177.789 16.4453 179.328 18.0938 179.328 20.6406V21.3359H173.555V21.4766C173.555 22.6719 174.312 23.4922 175.477 23.4922C176.312 23.4922 176.953 23.0781 177.164 22.4375ZM185.398 16.4922C187.523 16.4922 188.828 18.1094 188.828 20.8125C188.828 23.5078 187.531 25.1328 185.438 25.1328C184.219 25.1328 183.281 24.5391 182.836 23.5938H182.789V27.7344H180.508V16.625H182.758V18.0859H182.805C183.258 17.1016 184.188 16.4922 185.398 16.4922ZM184.633 23.2969C185.773 23.2969 186.492 22.3359 186.492 20.8125C186.492 19.2969 185.773 18.3203 184.633 18.3203C183.516 18.3203 182.781 19.3125 182.781 20.8125C182.781 22.3281 183.516 23.2969 184.633 23.2969Z" fill="white"/>
<circle cx="308" cy="20" r="9.5" fill="white" stroke="#6CCEFF"/>
<rect x="66" y="1" width="39" height="37" rx="9" fill="#071292"/>
<g clip-path="url(#clip0_3_726)">
<path d="M97.3262 18.1444L98.2132 19.357C98.3156 19.4304 99.032 19.3202 99.1002 19.1732C99.2708 18.8793 99.339 18.5118 99.2367 18.1444C99.1002 17.5932 98.9638 17.189 99.1343 16.4541C99.2708 15.8294 98.9638 15.4619 98.5203 16.1969L97.3262 18.1444Z" fill="#F4BA7C"/>
<path d="M98.0426 18.3281L98.8273 19.6142C98.9296 19.7244 99.6461 19.6142 99.7484 19.5039C99.9531 19.2467 100.021 18.8793 99.9531 18.5118C99.8507 17.9606 99.7484 17.5564 99.9531 16.8215C100.124 16.1969 99.8507 15.8294 99.3731 16.4908L98.0426 18.3281Z" fill="#FECE92"/>
<path d="M77.9829 18.5486C77.6418 18.3648 77.2665 18.2546 76.8913 18.2546H75.1173H73.3433C72.968 18.2546 72.5927 18.3648 72.2516 18.5486L71.5352 18.9528L72.2516 19.357C72.5927 19.5407 72.968 19.6509 73.3433 19.6509H75.1173H76.8913C77.2665 19.6509 77.6418 19.5407 77.9829 19.357L78.6994 18.9528L77.9829 18.5486Z" fill="#DFC8C2"/>
<path d="M77.9147 16.895L79.2452 16.748L79.9957 16.6745V18.3281L78.5288 18.1811L77.9147 18.1076V16.895Z" fill="#FCC083"/>
<path d="M77.9147 18.1076L79.1429 18.2178C79.2793 17.8871 79.2452 16.748 79.2452 16.748L77.9147 16.895V18.1076Z" fill="#E8AA63"/>
<path d="M76.7207 18.622C77.7783 18.8058 78.7335 18.1076 78.8358 17.1155C78.9723 16.1234 78.1876 15.315 77.1642 15.0945C76.6525 14.9843 76.0384 14.9108 75.7313 14.8373C75.0149 14.6535 75.1514 15.6824 75.049 16.5276C74.9467 17.5197 75.6631 18.4751 76.7207 18.622Z" fill="#FCC083"/>
<path d="M74.5373 14.3596C74.5373 14.3596 77.1642 13.8819 75.7313 17.5197C75.7313 17.5197 77.3689 18.0341 77.6418 18.769C77.6418 18.769 74.8785 19.8346 74.5714 18.1076C74.5714 18.1076 73.4797 17.4094 74.2644 16.0499C74.6738 15.3885 74.6738 15.0577 74.5373 14.3596Z" fill="#3C3C3C"/>
<path d="M79.9957 19.1732C79.6546 18.916 79.4158 18.5853 79.3134 18.2546C79.4499 18.0709 79.5864 17.6667 79.5864 17.3727C79.5864 17.0787 79.5181 16.8583 79.4158 16.6745C79.6546 16.1234 80.2345 15.9764 80.951 15.7192C81.1556 15.6457 84.4989 15.6457 84.4989 15.6457L84.3966 19.5407C84.3625 19.5407 80.4733 19.5774 79.9957 19.1732Z" fill="#FCEBCC"/>
<path d="M99.8166 21.3412H72.0469C71.7058 21.3412 71.4669 21.0472 71.4669 20.6798V20.3491C71.4669 19.9816 71.7399 19.6877 72.0469 19.6877H99.8166C100.158 19.6877 100.397 19.9816 100.397 20.3491V20.6798C100.397 21.0472 100.158 21.3412 99.8166 21.3412Z" fill="#F0D8BF"/>
<path d="M100.431 21.3412H71.0917V23.4357H100.431V21.3412Z" fill="#AB5228"/>
<path d="M102 15.168H100.397V27H102V15.168Z" fill="#8C3923"/>
<path d="M71.6034 13H70V27H71.6034V13Z" fill="#8C3923"/>
<path d="M87.0235 15.021C85.8635 14.874 83.6461 14.6903 82.2132 15.2415H82.1791C81.1556 15.6457 80.5416 16.7848 80.678 17.9974L81.6674 26.4121H99.4755V19.6509C99.4755 18.916 99.2026 18.2178 98.7249 17.7034C98.7249 17.7034 98.7249 17.7034 98.6908 17.7034C98.3497 17.336 97.9062 17.1155 97.4627 17.042C94.1194 16.4541 92.7548 15.9764 87.0235 15.021Z" fill="#61C2CB"/>
<path opacity="0.45" d="M98.7249 17.7034C98.6908 17.6667 98.6567 17.6299 98.6226 17.6299C93.8465 21.7454 86.3411 20.4226 80.7122 18.0709L81.6674 26.4488H99.4755V19.6509C99.4755 18.916 99.2026 18.2178 98.7249 17.7034Z" fill="#61C2CB"/>
</g>
<rect x="66.5" y="142.5" width="268" height="38" rx="15.5" fill="#FF8C00" stroke="#6CCEFF"/>
<path d="M167.016 162.266C167.016 165.336 165.156 167.195 162.016 167.195C158.648 167.195 156.586 164.992 156.586 161.328C156.586 157.719 158.648 155.531 161.961 155.531C164.594 155.531 166.578 157.086 166.914 159.367H164.547C164.203 158.188 163.242 157.484 161.969 157.484C160.109 157.484 158.992 158.898 158.992 161.297C158.992 163.742 160.18 165.234 162.055 165.234C163.594 165.234 164.664 164.289 164.711 162.891L164.719 162.711H162.266V160.992H167.016V162.266ZM172.227 167.18C169.695 167.18 168.078 165.555 168.078 162.805C168.078 160.094 169.719 158.445 172.227 158.445C174.734 158.445 176.375 160.086 176.375 162.805C176.375 165.562 174.758 167.18 172.227 167.18ZM172.227 165.438C173.344 165.438 174.055 164.492 174.055 162.812C174.055 161.148 173.336 160.188 172.227 160.188C171.117 160.188 170.391 161.148 170.391 162.812C170.391 164.492 171.102 165.438 172.227 165.438ZM177.594 167V158.625H179.875V167H177.594ZM178.734 157.703C178.047 157.703 177.516 157.18 177.516 156.523C177.516 155.859 178.047 155.344 178.734 155.344C179.422 155.344 179.953 155.859 179.953 156.523C179.953 157.18 179.422 157.703 178.734 157.703ZM181.398 167V158.625H183.602V160.117H183.648C184.094 159.078 184.977 158.469 186.266 158.469C188.125 158.469 189.172 159.641 189.172 161.602V167H186.891V162.078C186.891 160.984 186.375 160.359 185.352 160.359C184.328 160.359 183.68 161.109 183.68 162.195V167H181.398ZM194.484 165.219C195.625 165.219 196.352 164.312 196.352 162.797C196.352 161.289 195.625 160.32 194.484 160.32C193.359 160.32 192.648 161.273 192.648 162.797C192.648 164.328 193.352 165.219 194.484 165.219ZM194.445 170.156C192.242 170.156 190.75 169.086 190.57 167.594H192.805C192.984 168.172 193.641 168.57 194.508 168.57C195.688 168.57 196.344 167.914 196.344 166.945V165.477H196.297C195.906 166.367 194.922 166.977 193.711 166.977C191.664 166.977 190.312 165.398 190.312 162.781C190.312 160.125 191.625 158.492 193.75 158.492C194.953 158.492 195.898 159.125 196.336 160.086H196.375V158.625H198.625V166.883C198.625 168.883 196.953 170.156 194.445 170.156ZM203.898 156.695H206.18V158.625H207.727V160.344H206.18V164.352C206.18 164.992 206.492 165.297 207.164 165.297C207.367 165.297 207.578 165.281 207.719 165.258V166.938C207.484 166.992 207.094 167.031 206.633 167.031C204.664 167.031 203.898 166.375 203.898 164.742V160.344H202.719V158.625H203.898V156.695ZM212.695 167.18C210.164 167.18 208.547 165.555 208.547 162.805C208.547 160.094 210.188 158.445 212.695 158.445C215.203 158.445 216.844 160.086 216.844 162.805C216.844 165.562 215.227 167.18 212.695 167.18ZM212.695 165.438C213.812 165.438 214.523 164.492 214.523 162.812C214.523 161.148 213.805 160.188 212.695 160.188C211.586 160.188 210.859 161.148 210.859 162.812C210.859 164.492 211.57 165.438 212.695 165.438ZM221.055 161.086C221.055 159.492 222.438 158.445 224.586 158.445C226.688 158.445 228.055 159.508 228.086 161.133H225.984C225.938 160.461 225.398 160.047 224.555 160.047C223.766 160.047 223.25 160.406 223.25 160.945C223.25 161.359 223.609 161.641 224.344 161.812L225.945 162.156C227.625 162.531 228.305 163.195 228.305 164.445C228.305 166.094 226.789 167.18 224.578 167.18C222.344 167.18 220.969 166.102 220.844 164.469H223.07C223.18 165.172 223.734 165.578 224.641 165.578C225.508 165.578 226.031 165.234 226.031 164.688C226.031 164.266 225.75 164.031 225 163.852L223.453 163.508C221.867 163.148 221.055 162.32 221.055 161.086ZM237.055 161.742H234.938C234.805 160.859 234.219 160.234 233.281 160.234C232.156 160.234 231.453 161.188 231.453 162.805C231.453 164.453 232.156 165.391 233.289 165.391C234.203 165.391 234.797 164.844 234.938 163.93H237.062C236.945 165.906 235.469 167.18 233.266 167.18C230.742 167.18 229.141 165.539 229.141 162.805C229.141 160.117 230.742 158.445 233.25 158.445C235.516 158.445 236.953 159.844 237.055 161.742ZM238.219 167V155.727H240.461V160.117H240.508C240.953 159.062 241.867 158.469 243.141 158.469C245 158.469 246.062 159.672 246.062 161.609V167H243.781V162.094C243.781 161.016 243.25 160.359 242.211 160.359C241.133 160.359 240.5 161.117 240.5 162.219V167H238.219ZM251.367 167.18C248.836 167.18 247.219 165.555 247.219 162.805C247.219 160.094 248.859 158.445 251.367 158.445C253.875 158.445 255.516 160.086 255.516 162.805C255.516 165.562 253.898 167.18 251.367 167.18ZM251.367 165.438C252.484 165.438 253.195 164.492 253.195 162.812C253.195 161.148 252.477 160.188 251.367 160.188C250.258 160.188 249.531 161.148 249.531 162.812C249.531 164.492 250.242 165.438 251.367 165.438ZM260.539 167.18C258.008 167.18 256.391 165.555 256.391 162.805C256.391 160.094 258.031 158.445 260.539 158.445C263.047 158.445 264.688 160.086 264.688 162.805C264.688 165.562 263.07 167.18 260.539 167.18ZM260.539 165.438C261.656 165.438 262.367 164.492 262.367 162.812C262.367 161.148 261.648 160.188 260.539 160.188C259.43 160.188 258.703 161.148 258.703 162.812C258.703 164.492 259.414 165.438 260.539 165.438ZM265.922 167V155.727H268.203V167H265.922Z" fill="white"/>
<circle cx="316" cy="162" r="9.5" fill="white" stroke="#6CCEFF"/>
<rect x="74" y="143" width="39" height="37" rx="9" fill="#FF8C00"/>
<g clip-path="url(#clip1_3_726)">
<g opacity="0.22">
<path d="M102.593 150.93H99.6352V156.39H102.593V150.93Z" fill="#5F70D6"/>
<path opacity="0.24" d="M102.593 150.93H99.6352V156.39C99.6352 156.39 102.521 151.065 102.593 150.93Z" fill="#5F70D6"/>
<path d="M82.5849 157.95V173.505H105.115V158.265L93.7186 151.14L82.5849 157.95Z" fill="#5F70D6"/>
<path d="M106.834 159.24L93.7186 152.085H93.704L80.603 159.24L81.3608 160.71L93.7186 153.975L106.062 160.71L106.834 159.24Z" fill="#5F70D6"/>
<path d="M108 158.73L93.7186 150.945V150.93V150.945L93.704 150.93V150.945L79.4372 158.73L80.2678 160.335L93.7186 153L107.169 160.335L108 158.73Z" fill="#5F70D6"/>
<path d="M103.191 150.3H98.994V151.98H103.191V150.3Z" fill="#5F70D6"/>
<path d="M105.115 168.735H82.5849V173.52H105.115V168.735Z" fill="#5F70D6"/>
<path d="M97.2598 173.505H90.8915V167.505C90.8915 165.69 92.3196 164.235 94.0683 164.235C95.8317 164.235 97.2452 165.705 97.2452 167.505V173.505H97.2598Z" fill="#5F70D6"/>
<path d="M94.5492 164.265C94.3889 164.235 94.2432 164.235 94.0829 164.235C92.3196 164.235 90.906 165.705 90.906 167.505V173.505H91.8387V167.505C91.8387 165.855 93.0191 164.49 94.5492 164.265Z" fill="#5F70D6"/>
<path d="M88.8658 161.415H84.8146V166.86H88.8658V161.415Z" fill="#5F70D6"/>
<path d="M89.0698 167.07H84.596V161.19H89.0698V167.07ZM85.0186 166.635H88.6472V161.625H85.0186V166.635Z" fill="#5F70D6"/>
<path d="M102.841 161.415H98.7899V166.86H102.841V161.415Z" fill="#5F70D6"/>
<path d="M103.06 167.07H98.5859V161.19H103.06V167.07ZM99.0085 166.635H102.637V161.625H99.0085V166.635Z" fill="#5F70D6"/>
<path d="M87.0151 161.415H86.6362V166.65H87.0151V161.415Z" fill="#5F70D6"/>
<path d="M88.8658 163.05H84.8146V163.44H88.8658V163.05Z" fill="#5F70D6"/>
<path d="M88.8658 164.85H84.8146V165.24H88.8658V164.85Z" fill="#5F70D6"/>
<path d="M102.841 163.05H98.7899V163.44H102.841V163.05Z" fill="#5F70D6"/>
<path d="M102.841 164.85H98.7899V165.24H102.841V164.85Z" fill="#5F70D6"/>
<path d="M101.005 161.415H100.626V166.65H101.005V161.415Z" fill="#5F70D6"/>
<path d="M96.3709 169.245C96.3709 169.455 96.2106 169.62 96.0065 169.62C95.8025 169.62 95.6422 169.455 95.6422 169.245C95.6422 169.035 95.8025 168.87 96.0065 168.87C96.196 168.87 96.3709 169.035 96.3709 169.245Z" fill="#5F70D6"/>
<path d="M108 172.965H80.1221V174H108V172.965Z" fill="#5F70D6"/>
<path d="M94.3787 159.268C95.2562 158.894 95.6728 157.859 95.3094 156.956C94.9459 156.053 93.94 155.624 93.0626 155.998C92.1851 156.372 91.7685 157.407 92.1319 158.311C92.4954 159.214 93.5013 159.643 94.3787 159.268Z" fill="#5F70D6"/>
<path d="M95.0156 157.843C95.1316 157.107 94.6461 156.414 93.931 156.295C93.216 156.175 92.5423 156.675 92.4263 157.411C92.3103 158.147 92.7958 158.84 93.5108 158.96C94.2258 159.079 94.8995 158.579 95.0156 157.843Z" fill="#5F70D6"/>
</g>
<path d="M102.156 150.63H99.198V156.09H102.156V150.63Z" fill="#E7DABB"/>
<path opacity="0.24" d="M102.156 150.63H99.198V156.09C99.198 156.09 102.083 150.765 102.156 150.63Z" fill="#D9D1CA"/>
<path d="M82.1477 157.65V173.205H104.677V157.965L93.2814 150.84L82.1477 157.65Z" fill="#E7DABB"/>
<path d="M106.397 158.94L93.2814 151.785H93.2668L80.1658 158.94L80.9236 160.41L93.2814 153.675L105.625 160.41L106.397 158.94Z" fill="#E9BE2A"/>
<path d="M107.563 158.43L93.2814 150.645V150.63V150.645L93.2668 150.63V150.645L79 158.43L79.8307 160.035L93.2814 152.7L106.732 160.035L107.563 158.43Z" fill="#FF443C"/>
<path d="M102.754 150H98.5568V151.68H102.754V150Z" fill="#FF443C"/>
<path d="M104.677 168.435H82.1477V173.22H104.677V168.435Z" fill="#62A531"/>
<path d="M96.8226 173.205H90.4543V167.205C90.4543 165.39 91.8824 163.935 93.6312 163.935C95.3945 163.935 96.808 165.405 96.808 167.205V173.205H96.8226Z" fill="#822B21"/>
<path d="M94.1121 163.965C93.9518 163.935 93.806 163.935 93.6457 163.935C91.8824 163.935 90.4688 165.405 90.4688 167.205V173.205H91.4015V167.205C91.4015 165.555 92.5819 164.19 94.1121 163.965Z" fill="#672117"/>
<path d="M88.4286 161.115H84.3774V166.56H88.4286V161.115Z" fill="#88CCCD"/>
<path d="M88.6327 166.77H84.1588V160.89H88.6327V166.77ZM84.5814 166.335H88.2101V161.325H84.5814V166.335Z" fill="#0074AE"/>
<path d="M102.404 161.115H98.3528V166.56H102.404V161.115Z" fill="#88CCCD"/>
<path d="M102.623 166.77H98.1487V160.89H102.623V166.77ZM98.5714 166.335H102.2V161.325H98.5714V166.335Z" fill="#0074AE"/>
<path d="M86.5779 161.115H86.199V166.35H86.5779V161.115Z" fill="#0074AE"/>
<path d="M88.4286 162.75H84.3774V163.14H88.4286V162.75Z" fill="#0074AE"/>
<path d="M88.4286 164.55H84.3774V164.94H88.4286V164.55Z" fill="#0074AE"/>
<path d="M102.404 162.75H98.3528V163.14H102.404V162.75Z" fill="#0074AE"/>
<path d="M102.404 164.55H98.3528V164.94H102.404V164.55Z" fill="#0074AE"/>
<path d="M100.568 161.115H100.189V166.35H100.568V161.115Z" fill="#0074AE"/>
<path d="M95.9337 168.945C95.9337 169.155 95.7734 169.32 95.5693 169.32C95.3653 169.32 95.205 169.155 95.205 168.945C95.205 168.735 95.3653 168.57 95.5693 168.57C95.7588 168.57 95.9337 168.735 95.9337 168.945Z" fill="#E9BE2A"/>
<path d="M107.563 172.665H79.6849V173.7H107.563V172.665Z" fill="#FF443C"/>
<path d="M93.9415 158.968C94.819 158.594 95.2356 157.559 94.8722 156.656C94.5087 155.753 93.5028 155.324 92.6254 155.698C91.7479 156.072 91.3313 157.107 91.6947 158.011C92.0582 158.914 93.0641 159.343 93.9415 158.968Z" fill="#0074AE"/>
<path d="M94.5784 157.543C94.6944 156.807 94.2089 156.114 93.4938 155.995C92.7788 155.875 92.1051 156.375 91.9891 157.111C91.8731 157.847 92.3586 158.54 93.0736 158.66C93.7886 158.779 94.4623 158.279 94.5784 157.543Z" fill="#88CCCD"/>
</g>
<rect x="0.5" y="71.5" width="268" height="38" rx="15.5" fill="#4E5AF0" stroke="#6CCEFF"/>
<path d="M98.2266 94.0469V96H90.9375V84.7266H93.2969V94.0469H98.2266ZM107.164 87.625V96H104.961V94.4922H104.914C104.5 95.5469 103.672 96.1562 102.406 96.1562C100.594 96.1562 99.3906 94.9766 99.3906 93.0234V87.625H101.672V92.5469C101.672 93.6641 102.227 94.2578 103.234 94.2578C104.25 94.2578 104.883 93.5312 104.883 92.4219V87.625H107.164ZM108.648 96V87.625H110.852V89.1172H110.898C111.344 88.0781 112.227 87.4688 113.516 87.4688C115.375 87.4688 116.422 88.6406 116.422 90.6016V96H114.141V91.0781C114.141 89.9844 113.625 89.3594 112.602 89.3594C111.578 89.3594 110.93 90.1094 110.93 91.1953V96H108.648ZM125.477 90.7422H123.359C123.227 89.8594 122.641 89.2344 121.703 89.2344C120.578 89.2344 119.875 90.1875 119.875 91.8047C119.875 93.4531 120.578 94.3906 121.711 94.3906C122.625 94.3906 123.219 93.8438 123.359 92.9297H125.484C125.367 94.9062 123.891 96.1797 121.688 96.1797C119.164 96.1797 117.562 94.5391 117.562 91.8047C117.562 89.1172 119.164 87.4453 121.672 87.4453C123.938 87.4453 125.375 88.8438 125.477 90.7422ZM126.641 96V84.7266H128.883V89.1172H128.93C129.375 88.0625 130.289 87.4688 131.562 87.4688C133.422 87.4688 134.484 88.6719 134.484 90.6094V96H132.203V91.0938C132.203 90.0156 131.672 89.3594 130.633 89.3594C129.555 89.3594 128.922 90.1172 128.922 91.2188V96H126.641Z" fill="white"/>
<circle cx="250" cy="91" r="9.5" fill="white" stroke="#6CCEFF"/>
<rect x="8" y="72" width="39" height="37" rx="9" fill="#4E5AF0"/>
<g clip-path="url(#clip2_3_726)">
<path d="M27.9827 99.6714L12.6306 97.0156C13.7716 103.496 27.9827 103.035 27.9827 103.035C27.9827 103.035 42.1938 103.496 43.3348 97.0156L27.9827 99.6714Z" fill="#F05C87"/>
<path d="M47 94.8555C47 91.3853 38.4941 88.5524 27.9827 88.5524C17.5059 88.5524 9 91.3853 9 94.8555C9 98.3258 17.5059 101.159 27.9827 101.159C38.4941 101.159 47 98.3258 47 94.8555Z" fill="#F05C87"/>
<path d="M27.9827 100.698C16.8835 100.698 9.4495 97.6884 9.4495 94.8555C9.4495 92.0227 16.8835 89.0127 27.9827 89.0127C39.0819 89.0127 46.5159 92.0227 46.5159 94.8555C46.5159 97.6884 39.0819 100.698 27.9827 100.698Z" fill="#F7D4D0"/>
<path d="M27.9827 100.132C16.9527 100.132 10.2102 97.051 10.2102 94.8555C10.2102 92.6601 16.9873 89.5793 27.9827 89.5793C39.0127 89.5793 45.7552 92.6601 45.7552 94.8555C45.7552 97.051 39.0127 100.132 27.9827 100.132Z" fill="#F05C87"/>
<path d="M44.545 95.2096C44.303 94.3952 43.7844 93.7224 43.0582 93.1558C43.1965 93.5807 43.3349 93.9703 43.4386 94.3598C43.9227 96.2365 33.9991 97.9363 28.0519 97.9363C22.2429 97.9363 12.1811 96.2365 12.6651 94.3598C12.7689 94.0057 12.8726 93.6516 13.0109 93.262C12.2848 93.7932 11.7662 94.4306 11.5587 95.2096C11.0055 97.228 21.828 99.034 28.0519 99.034C34.4486 99.034 45.1329 97.228 44.545 95.2096Z" fill="#F05C87"/>
<path d="M43.4386 94.3244C42.0209 88.8711 35.5896 80.5496 28.0519 80.5496C21.1019 80.585 14.1174 88.8711 12.6652 94.3244C12.1811 96.2011 20.3066 98.255 28.0864 98.255C35.1401 98.255 43.9227 96.2365 43.4386 94.3244Z" fill="#7DDCFF"/>
<path d="M25.0091 82.7805C25.0091 82.7805 17.99 86.3569 15.293 94.3244C15.293 94.3244 17.5405 95.6346 18.4741 95.2805C19.3385 94.8909 19.7534 87.4547 25.0091 82.7805Z" fill="#8EE7FF"/>
<path d="M26.5305 83.4178C26.5305 83.4178 23.3494 85.0822 21.3094 90.4646C21.3094 90.5 24.6288 89.7918 26.5305 83.4178Z" fill="#8EE7FF"/>
<path d="M30.1956 80.1601C30.1956 81.364 29.2621 82.3201 28.0864 82.3201C26.9108 82.3201 25.9773 81.364 25.9773 80.1601C25.9773 78.9561 26.9108 78 28.0864 78C29.2621 78 30.1956 78.9561 30.1956 80.1601Z" fill="#6D1D28"/>
<path d="M26.8763 81.2932C26.8763 81.2932 24.9399 78.6374 28.5705 78.2125C28.5359 78.2125 26.8417 79.3102 26.8763 81.2932Z" fill="#8EE7FF"/>
</g>
<defs>
<clipPath id="clip0_3_726">
<rect width="32" height="14" fill="white" transform="translate(70 13)"/>
</clipPath>
<clipPath id="clip1_3_726">
<rect width="29" height="24" fill="white" transform="translate(79 150)"/>
</clipPath>
<clipPath id="clip2_3_726">
<rect width="38" height="25" fill="white" transform="translate(9 78)"/>
</clipPath>
</defs>
</svg>
