<svg width="269" height="39" viewBox="0 0 269 39" fill="none" xmlns="http://www.w3.org/2000/svg">
<rect x="0.5" y="0.5" width="268" height="38" rx="15.5" fill="#4E5AF0" stroke="#6CCEFF"/>
<path d="M98.2266 23.0469V25H90.9375V13.7266H93.2969V23.0469H98.2266ZM107.164 16.625V25H104.961V23.4922H104.914C104.5 24.5469 103.672 25.1562 102.406 25.1562C100.594 25.1562 99.3906 23.9766 99.3906 22.0234V16.625H101.672V21.5469C101.672 22.6641 102.227 23.2578 103.234 23.2578C104.25 23.2578 104.883 22.5312 104.883 21.4219V16.625H107.164ZM108.648 25V16.625H110.852V18.1172H110.898C111.344 17.0781 112.227 16.4688 113.516 16.4688C115.375 16.4688 116.422 17.6406 116.422 19.6016V25H114.141V20.0781C114.141 18.9844 113.625 18.3594 112.602 18.3594C111.578 18.3594 110.93 19.1094 110.93 20.1953V25H108.648ZM125.477 19.7422H123.359C123.227 18.8594 122.641 18.2344 121.703 18.2344C120.578 18.2344 119.875 19.1875 119.875 20.8047C119.875 22.4531 120.578 23.3906 121.711 23.3906C122.625 23.3906 123.219 22.8438 123.359 21.9297H125.484C125.367 23.9062 123.891 25.1797 121.688 25.1797C119.164 25.1797 117.562 23.5391 117.562 20.8047C117.562 18.1172 119.164 16.4453 121.672 16.4453C123.938 16.4453 125.375 17.8438 125.477 19.7422ZM126.641 25V13.7266H128.883V18.1172H128.93C129.375 17.0625 130.289 16.4688 131.562 16.4688C133.422 16.4688 134.484 17.6719 134.484 19.6094V25H132.203V20.0938C132.203 19.0156 131.672 18.3594 130.633 18.3594C129.555 18.3594 128.922 19.1172 128.922 20.2188V25H126.641Z" fill="white"/>
<circle cx="250" cy="20" r="9.5" fill="white" stroke="#6CCEFF"/>
<rect x="8" y="1" width="39" height="37" rx="9" fill="#4E5AF0"/>
<g clip-path="url(#clip0_1_5891)">
<path d="M27.9827 28.6714L12.6306 26.0156C13.7716 32.4958 27.9827 32.0355 27.9827 32.0355C27.9827 32.0355 42.1938 32.4958 43.3348 26.0156L27.9827 28.6714Z" fill="#F05C87"/>
<path d="M47 23.8556C47 20.3854 38.4941 17.5525 27.9827 17.5525C17.5059 17.5525 9 20.3854 9 23.8556C9 27.3259 17.5059 30.1587 27.9827 30.1587C38.4941 30.1587 47 27.3259 47 23.8556Z" fill="#F05C87"/>
<path d="M27.9827 29.6982C16.8836 29.6982 9.44952 26.6883 9.44952 23.8555C9.44952 21.0226 16.8836 18.0127 27.9827 18.0127C39.0819 18.0127 46.5159 21.0226 46.5159 23.8555C46.5159 26.6883 39.0819 29.6982 27.9827 29.6982Z" fill="#F7D4D0"/>
<path d="M27.9827 29.1318C16.9527 29.1318 10.2102 26.051 10.2102 23.8555C10.2102 21.6601 16.9873 18.5793 27.9827 18.5793C39.0128 18.5793 45.7552 21.6601 45.7552 23.8555C45.7552 26.051 39.0128 29.1318 27.9827 29.1318Z" fill="#F05C87"/>
<path d="M44.545 24.2096C44.303 23.3951 43.7843 22.7223 43.0582 22.1558C43.1965 22.5807 43.3348 22.9702 43.4386 23.3597C43.9227 25.2365 33.9991 26.9362 28.0519 26.9362C22.2429 26.9362 12.1811 25.2365 12.6651 23.3597C12.7689 23.0056 12.8726 22.6515 13.0109 22.262C12.2848 22.7932 11.7661 23.4305 11.5587 24.2096C11.0055 26.228 21.828 28.0339 28.0519 28.0339C34.4486 28.0339 45.1328 26.228 44.545 24.2096Z" fill="#F05C87"/>
<path d="M43.4386 23.3243C42.0209 17.8711 35.5896 9.54956 28.0519 9.54956C21.1019 9.58497 14.1174 17.8711 12.6651 23.3243C12.1811 25.2011 20.3066 27.2549 28.0864 27.2549C35.1401 27.2549 43.9227 25.2365 43.4386 23.3243Z" fill="#7DDCFF"/>
<path d="M25.0091 11.7805C25.0091 11.7805 17.99 15.357 15.293 23.3244C15.293 23.3244 17.5405 24.6346 18.474 24.2805C19.3385 23.891 19.7534 16.4547 25.0091 11.7805Z" fill="#8EE7FF"/>
<path d="M26.5305 12.418C26.5305 12.418 23.3494 14.0823 21.3094 19.4647C21.3094 19.5001 24.6288 18.7919 26.5305 12.418Z" fill="#8EE7FF"/>
<path d="M30.1956 9.16006C30.1956 10.364 29.262 11.3201 28.0864 11.3201C26.9108 11.3201 25.9772 10.364 25.9772 9.16006C25.9772 7.95609 26.9108 7 28.0864 7C29.262 7 30.1956 7.95609 30.1956 9.16006Z" fill="#6D1D28"/>
<path d="M26.8762 10.2931C26.8762 10.2931 24.9399 7.63733 28.5705 7.2124C28.5359 7.2124 26.8416 8.31014 26.8762 10.2931Z" fill="#8EE7FF"/>
</g>
<defs>
<clipPath id="clip0_1_5891">
<rect width="38" height="25" fill="white" transform="translate(9 7)"/>
</clipPath>
</defs>
</svg>
