<svg width="230" height="298" viewBox="0 0 230 298" fill="none" xmlns="http://www.w3.org/2000/svg">
<path d="M165.303 286.307V206.541H169.486V286.307H165.303Z" fill="white" stroke="black"/>
<path d="M165.303 239.431V234.999H169.438V239.508L165.303 239.431Z" fill="white" stroke="black"/>
<path d="M226.193 195.178L226.194 195.181C227.785 199.384 228.56 203.449 228.537 206.613C228.525 208.197 228.314 209.529 227.923 210.533C227.532 211.537 226.984 212.165 226.324 212.443L226.322 212.443C225.703 212.706 224.957 212.653 224.085 212.241C223.21 211.828 222.252 211.073 221.268 210.019L220.528 209.226L220.406 210.304C220.17 212.382 219.713 214.117 219.083 215.359C218.449 216.611 217.69 217.27 216.889 217.401C216.04 217.532 215.066 217.12 214.031 216.068C213.003 215.023 211.989 213.415 211.091 211.36L210.631 210.307L210.174 211.361C209.566 212.765 208.866 213.854 208.136 214.568C207.407 215.28 206.69 215.58 206.02 215.525L206.02 215.525L206.013 215.524C205.338 215.477 204.65 215.069 203.986 214.244C203.323 213.42 202.723 212.225 202.23 210.726C201.246 207.731 200.721 203.619 200.911 199.105C201.126 194.568 202.143 185.181 203.199 176.879C203.727 172.73 204.263 168.861 204.712 166.012C204.936 164.587 205.138 163.423 205.305 162.61C205.389 162.201 205.462 161.892 205.523 161.685C205.528 161.665 205.534 161.646 205.539 161.629C205.591 161.638 205.66 161.658 205.749 161.696C205.972 161.792 206.256 161.978 206.601 162.272C207.289 162.857 208.129 163.791 209.08 165.005C210.975 167.426 213.247 170.881 215.526 174.657C220.086 182.214 224.626 190.976 226.193 195.178Z" fill="white" stroke="black"/>
<path d="M205.973 215.471L203.821 182.115L203.832 182.113L205.975 215.471C205.975 215.471 205.974 215.471 205.973 215.471Z" fill="white" stroke="black"/>
<path d="M207.162 180.083L208.255 184.224L207.161 180.083L207.162 180.083Z" fill="white" stroke="black"/>
<path d="M209.352 171.081L222.404 202.6L209.322 171.093L209.352 171.081Z" fill="white" stroke="black"/>
<path d="M130.236 231.383L130.777 227.287L183.932 234.466L184.866 234.592L184.447 233.748L171.52 207.707L175.278 205.847L192.059 239.779L130.236 231.383Z" fill="white" stroke="black"/>
<path d="M155.33 70.9752L155.829 70.952C155.837 71.1189 155.844 71.2855 155.85 71.4516L155.35 71.4748C155.344 71.3087 155.337 71.1421 155.33 70.9752ZM126.204 110.916C126.204 110.916 126.204 110.916 126.205 110.916L126.205 110.915L125.788 110.639L126.204 110.916ZM114.563 177.083L114.095 177.259C114.153 177.415 114.212 177.571 114.271 177.728L114.738 177.551C114.679 177.395 114.621 177.239 114.563 177.083ZM128.12 171.965C128.178 172.121 128.236 172.277 128.296 172.433L128.763 172.257L128.587 171.789L128.12 171.965ZM140.848 72.1482C140.842 71.9825 140.836 71.8162 140.828 71.6493L140.329 71.6718L140.352 72.1713L140.848 72.1482Z" fill="white" stroke="black"/>
<path d="M209.653 165.634C209.653 191.289 188.107 212.116 161.492 212.116C134.877 212.116 113.331 191.289 113.331 165.634C113.331 139.98 134.877 119.153 161.492 119.153C188.107 119.153 209.653 139.98 209.653 165.634Z" fill="white" stroke="black"/>
<path d="M101.073 114.46L101.073 114.46C69.675 111.511 46.6025 83.6332 49.5996 52.2358L49.5996 52.2351C52.5491 20.8373 80.4266 -2.2351 111.824 0.761919L111.825 0.76199C143.222 3.71141 166.247 31.5884 163.298 62.9871C160.348 94.3848 132.471 117.457 101.073 114.46Z" fill="white" stroke="black"/>
<path d="M107.618 5.66932L107.61 5.66124L107.602 5.65353C105.561 3.79148 103.412 3.45185 101.771 3.58701C100.956 3.65415 100.268 3.83775 99.7808 4.00439C99.5367 4.08789 99.342 4.16743 99.2061 4.22647C99.1633 4.24503 99.1266 4.26151 99.0965 4.27516H99.073L98.9597 4.33808C98.7631 4.4473 98.5424 4.38089 98.4399 4.19642C98.3307 3.9998 98.3971 3.77906 98.5815 3.67659L98.6427 3.64258L98.6442 3.64115C98.6792 3.62303 98.7321 3.59681 98.8019 3.56463C98.9481 3.49726 99.164 3.40574 99.4382 3.30926C99.9874 3.116 100.763 2.90541 101.675 2.82583C103.488 2.66771 105.843 3.02416 108.068 5.08628C108.226 5.24921 108.237 5.47583 108.088 5.64564L108.076 5.65981L108.064 5.67489C108.034 5.71511 107.958 5.76282 107.841 5.76282C107.78 5.76282 107.667 5.71844 107.618 5.66932Z" fill="white" stroke="black"/>
<path d="M101.406 17.954L101.405 17.954C98.9536 17.7389 97.1804 15.5423 97.3965 13.1217L97.3965 13.121C97.6116 10.6695 99.8082 8.89619 102.229 9.11232L102.23 9.11238C104.683 9.32764 106.455 11.4787 106.238 13.9454C106.023 16.3969 103.827 18.1702 101.406 17.954Z" fill="white" stroke="black"/>
<path d="M117.434 20.4974L117.434 20.4974C114.982 20.2823 113.209 18.0857 113.425 15.6652L113.425 15.6644C113.64 13.2129 115.837 11.4396 118.257 11.6557C120.668 11.8709 122.483 14.026 122.267 16.4888C122.052 18.9403 119.855 20.7136 117.434 20.4974Z" fill="white" stroke="black"/>
<path d="M104.976 114.204C104.977 114.209 104.977 114.215 104.978 114.22C104.924 114.216 104.867 114.212 104.806 114.207C104.301 114.169 103.558 114.115 102.602 114.05C100.69 113.919 97.9297 113.747 94.5318 113.578C87.7365 113.241 78.3901 112.916 68.1868 112.97C57.9848 113.024 46.9187 113.457 36.686 114.634C26.6293 115.791 17.3411 117.67 10.4654 120.638C10.2315 120.329 9.91436 119.821 9.53159 119.105C9.02575 118.158 8.42917 116.894 7.78717 115.353C6.50346 112.271 5.04518 108.1 3.77212 103.182C1.22507 93.3416 -0.572746 80.5402 1.2302 67.5053C3.03209 54.4782 8.42827 41.2259 20.2665 30.4425C32.0784 19.6831 50.3482 11.3412 77.9788 8.17557C80.1086 9.98913 82.1455 12.938 84.0742 16.7669C86.0474 20.684 87.888 25.4823 89.5931 30.8386C93.003 41.5509 95.8569 54.45 98.1468 66.8974C100.436 79.3422 102.159 91.3227 103.311 100.193C103.886 104.628 104.318 108.284 104.607 110.832C104.751 112.106 104.859 113.102 104.931 113.78C104.948 113.939 104.963 114.08 104.976 114.204Z" fill="white" stroke="black"/>
<path d="M35.4072 114.797C25.8458 115.955 17.0496 117.79 10.467 120.637C10.2387 120.333 9.93089 119.839 9.55997 119.146C9.06617 118.224 8.48366 116.993 7.85563 115.493C6.59986 112.494 5.16906 108.435 3.90609 103.643C1.40546 94.1549 -0.429785 81.8193 1.03451 69.1549C20.1129 67.3254 34.4874 71.9252 44.8984 80.1798C55.2266 88.3687 61.7007 100.192 64.9717 113.026C55.2593 113.159 44.9362 113.644 35.4072 114.797Z" fill="white" stroke="black"/>
<path d="M130.864 297.104C132.181 287.833 142.69 280.444 155.685 280.444C162.29 280.444 169.002 282.375 174.172 285.513C179.152 288.535 182.62 292.622 183.289 297.104H130.864Z" fill="white" stroke="black"/>
<path d="M130.454 227.215L120.051 272.948C112.271 269.949 107.888 259.323 110.487 247.999C111.811 242.232 114.827 236.759 118.589 232.873C122.197 229.146 126.423 226.943 130.454 227.215Z" fill="white" stroke="black"/>
<path d="M140.837 27.378C140.837 30.5571 138.23 33.1645 135.051 33.1645C131.871 33.1645 129.264 30.557 129.264 27.378C129.264 24.1989 131.871 21.5914 135.051 21.5914C138.275 21.5914 140.837 24.1964 140.837 27.378Z" fill="white" stroke="black"/>
<path d="M114.418 5.78811L114.479 5.7541L114.481 5.75226C114.517 5.73343 114.572 5.70584 114.646 5.67188C114.796 5.6022 115.018 5.50753 115.3 5.40772C115.865 5.20781 116.663 4.98985 117.602 4.90732C119.47 4.74316 121.9 5.11221 124.2 7.25268L124.206 7.25791L124.212 7.26296C124.373 7.40399 124.371 7.64464 124.235 7.78084C124.196 7.8202 124.088 7.87434 123.965 7.87434C123.88 7.87434 123.796 7.84779 123.659 7.74775C121.576 5.85286 119.375 5.50368 117.691 5.64459C116.851 5.71483 116.141 5.90616 115.637 6.08359C115.385 6.17243 115.182 6.25844 115.037 6.32541C114.965 6.35882 114.907 6.38807 114.863 6.41123C114.842 6.42263 114.821 6.4337 114.804 6.44389C114.798 6.44751 114.79 6.45205 114.782 6.45721C114.589 6.55553 114.376 6.48794 114.276 6.30793C114.167 6.11142 114.233 5.89064 114.418 5.78811Z" fill="white" stroke="black"/>
<path d="M151.784 137.626C152.098 137.687 152.283 137.936 152.26 138.235C150.806 152.453 156.097 165.766 166.787 174.609C177.398 183.459 191.537 186.564 205.993 183.413C205.825 183.823 205.643 184.225 205.446 184.627C201.958 185.311 198.521 185.674 195.132 185.674C184.35 185.674 174.242 182.16 166.082 175.423C155.133 166.323 149.677 152.723 151.19 138.11C151.248 137.797 151.49 137.61 151.784 137.626Z" fill="white" stroke="black"/>
<path d="M118.759 243.41L118.756 243.417L118.753 243.424C118.625 243.732 117.291 246.975 117.113 251.009C116.939 254.974 117.882 259.772 122.256 263.251L122.012 264.323C117.172 260.725 116.052 255.619 116.187 251.268C116.321 246.978 117.674 243.499 117.848 243.053C117.853 243.039 117.857 243.028 117.861 243.02L117.861 243.02C117.95 242.773 118.21 242.653 118.48 242.776L118.497 242.784L118.516 242.791C118.762 242.88 118.882 243.14 118.759 243.41Z" fill="white" stroke="black"/>
<path d="M154.918 286.211H154.918H154.918H154.918H154.918H154.918H154.918H154.917H154.917H154.917H154.917H154.917H154.917H154.917H154.917H154.917H154.917H154.917H154.917H154.917H154.917H154.917H154.917H154.917H154.917H154.917H154.917H154.917H154.916H154.916H154.916H154.916H154.916H154.916H154.916H154.916H154.916H154.916H154.916H154.916H154.915H154.915H154.915H154.915H154.915H154.915H154.915H154.915H154.915H154.915H154.914H154.914H154.914H154.914H154.914H154.914H154.914H154.914H154.913H154.913H154.913H154.913H154.913H154.913H154.913H154.913H154.912H154.912H154.912H154.912H154.912H154.912H154.911H154.911H154.911H154.911H154.911H154.911H154.911H154.91H154.91H154.91H154.91H154.91H154.909H154.909H154.909H154.909H154.909H154.909H154.908H154.908H154.908H154.908H154.908H154.907H154.907H154.907H154.907H154.907H154.906H154.906H154.906H154.906H154.906H154.905H154.905H154.905H154.905H154.904H154.904H154.904H154.904H154.904H154.903H154.903H154.903H154.903H154.902H154.902H154.902H154.902H154.901H154.901H154.901H154.901H154.9H154.9H154.9H154.9H154.899H154.899H154.899H154.899H154.898H154.898H154.898H154.898H154.897H154.897H154.897H154.896H154.896H154.896H154.896H154.895H154.895H154.895H154.895H154.894H154.894H154.894H154.893H154.893H154.893H154.892H154.892H154.892H154.892H154.891H154.891H154.891H154.89H154.89H154.89H154.889H154.889H154.889H154.888H154.888H154.888H154.888H154.887H154.887H154.887H154.886H154.886H154.886H154.885H154.885H154.885H154.884H154.884H154.884H154.883H154.883H154.883H154.882H154.882H154.882H154.881H154.881H154.881H154.88H154.88H154.879H154.879H154.879H154.878H154.878H154.878H154.877H154.877H154.877H154.876H154.876H154.875H154.875H154.875H154.874H154.874H154.874H154.873H154.873H154.873H154.872H154.872H154.871H154.871H154.871H154.87H154.87H154.869H154.869H154.869H154.868H154.868H154.867H154.867H154.867H154.866H154.866H154.866H154.865H154.865H154.864H154.864H154.863H154.863H154.863H154.862H154.862H154.861H154.861H154.861H154.86H154.86H154.859H154.859H154.859H154.858H154.858H154.857H154.857H154.856H154.856H154.856H154.855H154.855H154.854H154.854H154.853H154.853H154.853H154.852H154.852H154.851H154.851H154.85H154.85H154.849H154.849H154.849H154.848H154.848H154.847H154.847H154.846H154.846H154.845H154.845H154.845H154.844H154.844H154.843H154.843H154.842H154.842H154.841H154.841H154.84H154.84H154.84H154.839H154.839H154.838H154.838H154.837H154.837H154.836H154.836H154.835H154.835H154.834H154.834H154.833H154.833H154.832H154.832H154.832H154.831H154.831H154.83H154.83H154.829H154.829H154.828H154.828H154.827H154.827H154.826H154.826H154.825H154.825H154.824H154.824H154.823H154.823H154.822H154.822H154.821H154.821H154.82H154.82H154.819H154.819H154.818H154.818H154.817H154.817H154.816H154.816H154.815H154.815H154.814H154.814H154.813H154.813H154.812H154.812H154.811H154.811H154.81H154.81H154.809H154.809H154.808H154.808H154.807H154.807H154.806H154.806H154.805H154.805H154.804H154.804H154.803H154.803H154.802H154.801H154.801H154.8H154.8H154.799H154.799H154.798H154.798H154.797H154.797H154.796H154.796H154.795H154.795H154.794H154.794H154.793H154.793H154.792H154.791H154.791H154.79H154.79H154.789H154.789H154.788H154.788H154.787H154.787H154.786H154.786H154.785H154.785H154.784H154.783H154.783H154.782H154.782H154.781H154.781H154.78H154.78H154.779H154.779H154.778H154.777H154.777H154.776H154.776H154.775H154.775H154.774H154.774H154.773H154.773H154.772H154.771H154.771H154.77H154.77H154.769H154.769H154.768H154.768H154.767H154.767H154.766H154.765H154.765H154.764H154.764H154.763H154.763H154.762H154.762H154.761H154.76H154.76H154.759H154.759H154.758H154.758H154.757H154.757H154.756H154.755H154.755H154.754H154.754H154.753H154.753H154.752H154.752H154.751H154.75H154.75H154.749H154.749H154.748H154.748H154.747H154.747H154.746H154.745H154.745H154.744H154.744H154.743H154.743H154.742H154.741H154.741H154.74H154.74H154.739H154.739H154.738H154.738H154.737H154.736H154.736H154.735H154.735H154.734H154.734H154.733H154.732H154.732H154.731H154.731H154.73H154.73H154.729H154.729H154.728H154.727H154.727H154.726H154.726C153.814 286.211 150.165 286.308 146.504 287.757C142.922 289.176 139.274 291.916 138.233 297.152H137.225C138.342 291.208 142.553 288.236 146.638 286.736C150.784 285.214 154.728 285.242 154.957 285.243C154.961 285.243 154.964 285.243 154.966 285.243C155.202 285.243 155.425 285.435 155.425 285.751C155.425 285.972 155.201 286.211 154.918 286.211Z" fill="white" stroke="black"/>
</svg>
