<svg width="25" height="29" viewBox="0 0 25 29" fill="none" xmlns="http://www.w3.org/2000/svg">
<path d="M24.3192 19.8857L21.7263 18.3469L22.539 17.8735C23.1969 17.4789 23.3904 16.6503 23.0421 16.019C22.6551 15.3878 21.8424 15.151 21.2232 15.5061L19.0947 16.7687L17.1211 15.6245C17.1985 15.2694 17.2372 14.8748 17.2372 14.5197C17.2372 14.1252 17.1985 13.7701 17.1211 13.415L19.0947 12.2707L21.2232 13.5333C21.4167 13.6517 21.6489 13.7306 21.8811 13.7306C22.3455 13.7306 22.8099 13.4939 23.0421 13.0599C23.4291 12.4286 23.1969 11.5605 22.539 11.2054L21.7263 10.6531L24.3192 9.11429C24.9384 8.71973 25.1706 7.89116 24.8223 7.25986C24.4353 6.58912 23.6226 6.39184 23.0034 6.74694L20.4105 8.28571V7.33878C20.4105 6.58912 19.83 5.99728 19.0947 5.99728C18.3594 5.99728 17.779 6.58912 17.779 7.33878V9.86395L15.8053 11.0082C15.2635 10.4952 14.6056 10.1007 13.909 9.86395V7.53605L16.0375 6.27347C16.6954 5.87891 16.8889 5.05034 16.5406 4.41905C16.1536 3.7483 15.3409 3.55102 14.7217 3.90612L13.909 4.37959V1.3415C13.909 0.591837 13.3285 0 12.5932 0C11.8579 0 11.2774 0.591837 11.2774 1.3415V4.41905L10.3486 3.94558C9.72942 3.55102 8.87802 3.78776 8.52973 4.4585C8.14273 5.0898 8.37493 5.95782 9.03282 6.31293L11.1613 7.57551V9.9034C10.426 10.1401 9.80681 10.4952 9.26502 11.0476L7.29133 9.86395V7.33878C7.29133 6.58912 6.71084 5.99728 5.97555 5.99728C5.24025 5.99728 4.65976 6.58912 4.65976 7.33878V8.28571L2.06688 6.74694C1.40898 6.35238 0.596289 6.58912 0.247992 7.25986C-0.139005 7.89116 0.0931927 8.75918 0.751087 9.11429L3.26657 10.6531L2.45387 11.1265C1.83468 11.5211 1.60248 12.3497 1.95078 12.981C2.18298 13.415 2.64737 13.6517 3.11177 13.6517C3.34397 13.6517 3.57616 13.6122 3.76966 13.4544L5.89815 12.1918L7.87183 13.3361C7.79443 13.6912 7.71703 14.0857 7.71703 14.4408C7.71703 14.8354 7.75573 15.1905 7.87183 15.5456L5.89815 16.6898L3.76966 15.4272C3.11177 15.0327 2.29908 15.2694 1.95078 15.9401C1.56378 16.5714 1.79598 17.4395 2.45387 17.7946L3.26657 18.268L0.673688 19.8068C0.0157934 20.2014 -0.177705 21.0299 0.170592 21.6612C0.40279 22.0952 0.867187 22.332 1.33158 22.332C1.56378 22.332 1.79598 22.2925 1.98948 22.1347L4.58236 20.5959V21.5429C4.58236 22.2925 5.16285 22.8844 5.89815 22.8844C6.63344 22.8844 7.25264 22.2925 7.25264 21.5429V19.0177L9.22632 17.834C9.76812 18.3469 10.426 18.7415 11.1226 18.9782V21.3061L8.99412 22.5687C8.33623 22.9633 8.14273 23.7918 8.49102 24.4231C8.87802 25.0939 9.69072 25.2912 10.3099 24.9361L11.1226 24.4626V27.619C11.1226 28.3687 11.7031 28.9605 12.4384 28.9605C13.1737 28.9605 13.7542 28.3687 13.7542 27.619V24.5415L14.5669 25.015C14.7604 25.1333 14.9926 25.2122 15.2248 25.2122C15.6892 25.2122 16.1536 24.9755 16.3858 24.5415C16.7728 23.9102 16.5406 23.0422 15.8827 22.6871L13.7542 21.4245V19.0966C14.4895 18.8599 15.1087 18.5048 15.6505 17.9524L17.6242 19.0966V21.6218C17.6242 22.3714 18.2046 22.9633 18.9399 22.9633C19.6752 22.9633 20.2557 22.3714 20.2557 21.6218V20.6748L22.8486 22.2136C23.0421 22.332 23.2743 22.4109 23.5065 22.4109C23.9709 22.4109 24.4353 22.1742 24.6675 21.7401C25.1706 21.0694 24.9771 20.2408 24.3192 19.8857ZM12.5158 16.5714C11.3935 16.5714 10.4647 15.6245 10.4647 14.4803C10.4647 13.3361 11.3935 12.3891 12.5158 12.3891C13.6381 12.3891 14.5669 13.3361 14.5669 14.4803C14.5669 15.6245 13.6381 16.5714 12.5158 16.5714Z" fill="url(#paint0_radial_1_4317)"/>
<defs>
<radialGradient id="paint0_radial_1_4317" cx="0" cy="0" r="1" gradientUnits="userSpaceOnUse" gradientTransform="translate(20.6605 8.71081) scale(24.2471 24.7209)">
<stop stop-color="#28CBE9"/>
<stop offset="1" stop-color="#0A4FBB"/>
</radialGradient>
</defs>
</svg>
