<svg width="250" height="250" viewBox="0 0 250 250" fill="none" xmlns="http://www.w3.org/2000/svg">
<path d="M124.998 0.5C142.747 0.5 159.13 7.75932 173.12 20.6003L124.998 123.817L76.8773 20.6007C90.5257 8.10383 107.255 0.5 124.998 0.5Z" fill="white" stroke="black"/>
<path d="M124.998 249.5C107.25 249.5 90.867 242.241 76.8772 229.4L124.998 126.183L173.119 229.399C159.471 241.896 142.742 249.5 124.998 249.5Z" fill="white" stroke="black"/>
<path d="M249.501 125C249.501 142.749 242.242 159.132 229.401 173.122L126.184 125L229.4 76.8794C241.897 90.5278 249.501 107.257 249.501 125Z" fill="white" stroke="black"/>
<path d="M0.5 125C0.5 107.252 7.75931 90.8691 20.6002 76.8792L123.817 125L20.6006 173.122C8.10381 159.473 0.5 142.744 0.5 125Z" fill="white" stroke="black"/>
</svg>
