<svg width="250" height="250" viewBox="0 0 250 250" fill="none" xmlns="http://www.w3.org/2000/svg">
<path d="M79.7711 27.9259C94.3272 42.9522 94.3272 67.3147 79.7711 82.341C65.215 97.3673 41.6149 97.3673 27.0588 82.341C12.5027 67.3147 12.5027 42.9522 27.0588 27.9259C41.6149 12.8995 65.215 12.8995 79.7711 27.9259Z" fill="white" stroke="black"/>
<path d="M137.603 17.701C157.616 22.6037 170.013 43.3357 165.256 64.0295C160.498 84.7233 140.4 97.495 120.387 92.5923C100.374 87.6897 87.9779 66.9577 92.735 46.2639C97.4921 25.5701 117.59 12.7984 137.603 17.701Z" fill="white" stroke="black"/>
<path d="M213.141 17.706C233.155 22.6087 245.551 43.3407 240.794 64.0345C236.037 84.7283 215.938 97.5 195.925 92.5974C175.912 87.6947 163.516 66.9627 168.273 46.2689C173.03 25.5751 193.128 12.8034 213.141 17.706Z" fill="white" stroke="black"/>
<path d="M79.7643 105.899C94.3204 120.925 94.3204 145.287 79.7643 160.314C65.2082 175.34 41.608 175.34 27.0519 160.314C12.4958 145.287 12.4958 120.925 27.0519 105.899C41.608 90.8723 65.2082 90.8723 79.7643 105.899Z" fill="white" stroke="black"/>
<path d="M137.598 95.6788C157.611 100.581 170.007 121.313 165.25 142.007C160.493 162.701 140.394 175.473 120.381 170.57C100.368 165.667 87.972 144.935 92.7292 124.242C97.4863 103.548 117.584 90.7761 137.598 95.6788Z" fill="white" stroke="black"/>
<path d="M213.135 95.6838C233.148 100.586 245.544 121.318 240.787 142.012C236.03 162.706 215.932 175.478 195.919 170.575C175.905 165.672 163.509 144.94 168.266 124.247C173.023 103.553 193.122 90.7811 213.135 95.6838Z" fill="white" stroke="black"/>
<path d="M90.6748 211.014C90.6748 232.284 73.9755 249.5 53.4092 249.5C32.8428 249.5 16.1436 232.284 16.1436 211.014C16.1436 189.744 32.8428 172.529 53.4092 172.529C73.9755 172.529 90.6748 189.744 90.6748 211.014Z" fill="white" stroke="black"/>
<path d="M166.206 211.014C166.206 232.284 149.507 249.5 128.94 249.5C108.374 249.5 91.6748 232.284 91.6748 211.014C91.6748 189.744 108.374 172.529 128.94 172.529C149.507 172.529 166.206 189.744 166.206 211.014Z" fill="white" stroke="black"/>
<path d="M241.737 211.014C241.737 232.284 225.038 249.5 204.472 249.5C183.905 249.5 167.206 232.284 167.206 211.014C167.206 189.744 183.905 172.529 204.472 172.529C225.038 172.529 241.737 189.744 241.737 211.014Z" fill="white" stroke="black"/>
</svg>
