<svg width="277" height="315" viewBox="0 0 277 315" fill="none" xmlns="http://www.w3.org/2000/svg">
<path d="M17.6706 220.926L17.6715 220.926C20.1026 222.539 22.8052 223.32 25.2807 223.456C27.5322 223.58 29.6311 223.173 31.1781 222.335L33.1337 225.343C30.8992 226.642 28.0128 227.191 24.9991 226.993C21.7941 226.782 18.4851 225.729 15.7316 223.886C14.142 222.81 12.8382 221.599 11.721 220.156C8.64396 216.174 7.4382 210.798 8.37739 204.728L11.9006 205.365C10.8072 212.149 12.8313 217.699 17.6706 220.926Z" fill="white" stroke="black"/>
<path d="M10.1225 204.993L10.4035 205.252L10.7275 205.049C12.7494 203.779 18.0887 200.138 21.0418 194.642L22.692 195.483C18.8143 202.642 11.4719 206.757 10.7823 207.143C10.7686 207.151 10.7575 207.157 10.7491 207.162L10.2298 207.437L9.78102 207.078C9.74948 207.049 9.69941 207.005 9.63262 206.946C9.05391 206.434 7.21931 204.814 5.28997 202.351C3.33641 199.807 1.31897 196.375 0.580881 192.516L2.37115 192.238C2.91713 195.217 4.33967 197.917 5.85234 200.088C7.45075 202.382 9.16928 204.113 10.1225 204.993Z" fill="white" stroke="black"/>
<path d="M10.7179 202.687C12.6302 198.816 15.7242 191.773 16.0731 185.85L17.9064 185.912C17.6623 190.325 16.0137 195.263 14.3437 199.23C12.6145 203.339 10.8862 206.353 10.7526 206.575L10.7525 206.575L10.7477 206.584L9.78633 208.258L9.10545 206.463L9.10552 206.463L9.10219 206.455C9.01511 206.237 7.95621 203.421 7.09909 199.463C6.27101 195.638 5.63958 190.786 6.23186 186.194L8.0287 186.472C7.29483 192.357 8.71032 198.852 9.78904 202.604L10.1459 203.845L10.7179 202.687Z" fill="white" stroke="black"/>
<path d="M142.259 313.54L133.983 275.477H196.122L181.393 313.54H142.259Z" fill="white" stroke="black"/>
<path d="M59.3821 313.54L51.1055 275.477H113.29L101.132 313.54H59.3821Z" fill="white" stroke="black"/>
<path d="M24.8311 248.631C24.8311 198.554 64.3545 158 113.063 158C161.771 158 201.294 198.554 201.294 248.631C201.294 266.097 196.482 282.427 188.124 296.264H38.0024C29.6906 282.427 24.8311 266.143 24.8311 248.631Z" fill="white" stroke="black"/>
<path d="M57.053 187.102L228.926 236.677C207.233 256.535 175.681 265.486 142.268 260.374C98.8822 253.729 65.5056 225.37 57.053 187.102Z" fill="white" stroke="black"/>
<path d="M119.364 313.54L110.666 275.477H176.164L167.42 313.54H119.364Z" fill="white" stroke="black"/>
<path d="M119.364 313.54L117.577 305.71H169.207L167.42 313.54H119.364Z" fill="white" stroke="black"/>
<path d="M41.6223 313.54L32.9716 275.477H97.9437L89.293 313.54H41.6223Z" fill="white" stroke="black"/>
<path d="M41.6218 313.54L39.8345 305.71H91.0805L89.2932 313.54H41.6218Z" fill="white" stroke="black"/>
<path d="M124.796 31.516C119.495 19.7057 123.289 6.1501 133.029 0.696534L152.522 44.3331C142.357 48.8163 130.1 43.3348 124.796 31.516Z" fill="white" stroke="black"/>
<path d="M199.055 52.1734L228.204 20.5875C235.12 27.667 234.599 39.9817 226.717 48.5131C218.786 57.0473 206.568 58.5244 199.055 52.1734Z" fill="white" stroke="black"/>
<path d="M144.907 247.801C86.5677 238.859 45.2711 193.282 53.9539 136.653C62.6535 79.9139 118.536 30.9682 176.764 39.8932C234.992 48.8183 273.681 112.251 264.981 168.99C256.298 225.619 203.245 256.743 144.907 247.801Z" fill="white" stroke="black"/>
<path d="M201.731 204.379C219.739 219.358 238.532 216.652 252.796 210.198C259.984 206.945 266.036 202.737 270.289 199.345C272.417 197.649 274.096 196.154 275.245 195.083C275.52 194.827 275.764 194.595 275.977 194.391C275.881 195.061 275.745 195.95 275.556 197.026C275.105 199.593 274.357 203.22 273.169 207.449C270.793 215.912 266.665 226.765 259.655 236.375C252.649 245.98 242.775 254.333 228.897 257.839C215.121 261.319 197.334 260.039 174.395 250.362L201.731 204.379Z" fill="white" stroke="black"/>
<path d="M120.986 242.19C96.194 244.561 78.834 240.46 66.7268 233.018C54.5303 225.521 47.6069 214.598 43.7959 203.337C39.9826 192.07 39.2911 180.48 39.557 171.694C39.6899 167.304 40.0617 163.62 40.3999 161.035C40.5415 159.953 40.6772 159.064 40.787 158.397C40.9286 158.656 41.092 158.95 41.277 159.277C42.0521 160.644 43.2069 162.574 44.7282 164.832C47.7696 169.345 52.2828 175.176 58.1656 180.434C69.841 190.868 86.9614 199.075 108.633 190.149L120.986 242.19Z" fill="white" stroke="black"/>
<path d="M202.709 201.713L201.204 202.466C188.825 177.353 183.114 145.761 180.51 120.258C179.201 107.436 178.679 96.1661 178.486 88.051C178.39 83.9936 178.376 80.7255 178.388 78.447C178.394 77.3078 178.406 76.4162 178.418 75.7972C178.422 75.5978 178.425 75.4267 178.429 75.2849L180.074 75.3447C180.072 75.4872 180.069 75.6597 180.066 75.8611C180.058 76.4767 180.048 77.363 180.045 78.4951C180.038 80.7591 180.056 84.006 180.156 88.0362C180.355 96.0962 180.879 107.291 182.179 120.023C184.763 145.325 190.417 176.749 202.709 201.713Z" fill="white" stroke="black"/>
<path d="M163.027 72.7444L164.609 73.1923C164.57 73.3282 164.522 73.4922 164.466 73.6834C164.291 74.276 164.036 75.129 163.7 76.2164C163.028 78.3912 162.034 81.5029 160.725 85.3431C158.107 93.0239 154.227 103.617 149.135 115.456C139.006 139.004 124.096 167.435 104.796 187.695L103.64 186.569C122.828 166.418 137.629 138.116 147.666 114.741C156.903 93.2296 162.124 75.8488 163.027 72.7444Z" fill="white" stroke="black"/>
<path d="M186.652 68.111L186.652 68.1111C190.598 68.694 193.294 72.3715 192.709 76.3254C192.127 80.2712 188.449 82.9665 184.495 82.3824C180.55 81.7996 177.856 78.124 178.438 74.1713C179.068 70.2634 182.754 67.5286 186.652 68.111Z" fill="white" stroke="black"/>
<path d="M158.77 63.84L158.771 63.8401C162.717 64.423 165.412 68.1005 164.828 72.0544C164.245 76.0002 160.568 78.6955 156.614 78.1114C152.669 77.5286 149.974 73.853 150.556 69.9003C151.187 65.9924 154.872 63.2575 158.77 63.84Z" fill="white" stroke="black"/>
<path d="M144.14 252.504C115.01 248.022 94.6066 224.509 98.3444 200.046C100.242 187.81 108.237 174.932 119.422 165.665C130.604 156.402 144.91 150.799 159.393 153.003C173.875 155.232 185.857 164.851 193.757 177.034C201.658 189.22 205.429 203.903 203.556 216.163C199.818 240.626 173.269 256.985 144.14 252.504Z" fill="white" stroke="black"/>
<path d="M180.025 187.747L180.028 187.747C184.829 188.486 188.813 191.745 191.36 196.494C193.908 201.242 194.999 207.453 194.006 214.003C192.989 220.529 190.083 226.125 186.227 229.894C182.37 233.662 177.59 235.583 172.789 234.844C167.988 234.105 164.004 230.846 161.457 226.098C158.909 221.349 157.818 215.138 158.811 208.588C159.828 202.038 162.734 196.43 166.59 192.662C170.446 188.894 175.226 186.986 180.025 187.747Z" fill="white" stroke="black"/>
<path d="M122.688 227.166C117.887 226.427 113.903 223.168 111.356 218.42C108.808 213.671 107.717 207.46 108.71 200.91C109.727 194.36 112.633 188.764 116.489 185.002C120.345 181.239 125.126 179.33 129.927 180.069C134.728 180.808 138.712 184.067 141.259 188.815C143.807 193.564 144.898 199.775 143.905 206.325C142.888 212.85 139.982 218.447 136.126 222.215C132.269 225.984 127.489 227.904 122.688 227.166Z" fill="white" stroke="black"/>
<path d="M222.11 95.656L222.114 95.6565C227.79 96.5263 231.731 101.885 230.861 107.612C229.991 113.288 224.633 117.229 218.906 116.359C213.229 115.489 209.288 110.131 210.159 104.403C211.029 98.6775 216.388 94.7403 222.11 95.656Z" fill="white" stroke="black"/>
<path d="M124.757 92.3511C123.888 98.0274 118.529 101.969 112.802 101.099C107.126 100.229 103.184 94.8703 104.055 89.1431C104.925 83.4669 110.283 79.5256 116.01 80.396C121.686 81.2659 125.628 86.6241 124.757 92.3511Z" fill="white" stroke="black"/>
<path d="M195.15 57.8328L195.13 57.8449L195.112 57.8587C195.039 57.9132 194.921 57.9506 194.74 57.9506C194.434 57.9506 194.173 57.8028 194.025 57.536L193.991 57.4748L193.969 57.4532L193.964 57.4455C193.95 57.4252 193.93 57.3969 193.906 57.3633C193.85 57.2831 193.768 57.1708 193.662 57.0358C193.451 56.7662 193.144 56.4053 192.745 56.025C191.95 55.268 190.768 54.4135 189.233 54.0752L189.233 54.0751L189.223 54.0732C187.134 53.6555 184.887 54.2433 182.557 55.8298L182.548 55.8363L182.538 55.8431C182.204 56.094 181.707 56.0284 181.426 55.6226L181.421 55.6148L181.415 55.6072C181.164 55.273 181.229 54.7766 181.634 54.4955C184.429 52.586 187.074 51.9687 189.596 52.5089C193.236 53.2986 195.194 56.3486 195.411 56.6874C195.415 56.6928 195.418 56.6974 195.42 56.7014C195.657 57.0908 195.535 57.5953 195.15 57.8328ZM193.985 57.475L193.984 57.4736C193.99 57.4816 193.991 57.4837 193.985 57.475Z" fill="white" stroke="black"/>
<path d="M167.968 53.7178L167.987 53.7058C168.373 53.4683 168.495 52.9638 168.258 52.5743C168.256 52.5704 168.253 52.5657 168.249 52.5604C168.032 52.2215 166.074 49.1716 162.433 48.3818C159.912 47.8417 157.267 48.4589 154.472 50.3685C154.067 50.6496 154.002 51.1459 154.253 51.4802L154.258 51.4878L154.264 51.4956C154.545 51.9014 155.042 51.967 155.376 51.7161L155.385 51.7092L155.395 51.7028C157.717 50.1221 159.97 49.4756 162.073 49.9486L167.968 53.7178ZM167.968 53.7178L167.949 53.7316M167.968 53.7178L167.949 53.7316M167.949 53.7316C167.877 53.7862 167.759 53.8236 167.578 53.8236C167.347 53.8236 167.057 53.6981 166.792 53.3234M167.949 53.7316L166.792 53.3234M166.792 53.3234L166.791 53.322L166.774 53.296C166.759 53.2741 166.738 53.2432 166.711 53.2045C166.656 53.1271 166.576 53.018 166.472 52.8863C166.263 52.6231 165.956 52.2671 165.557 51.8906C164.764 51.1416 163.583 50.2873 162.073 49.9487L166.792 53.3234Z" fill="white" stroke="black"/>
<path d="M141.905 313.54L144.16 309.62L146.415 313.54H141.905Z" fill="white" stroke="black"/>
<path d="M64.7449 313.54L67.0378 309.615L69.2959 313.54H64.7449Z" fill="white" stroke="black"/>
<path d="M39.7354 245.3C36.7483 245.3 34.3328 242.884 34.3328 239.897C34.3328 236.91 36.7483 234.495 39.7354 234.495C42.7225 234.495 45.1381 236.91 45.1381 239.897C45.1381 242.884 42.7225 245.3 39.7354 245.3Z" fill="white" stroke="black"/>
<path d="M190.133 275.389C188.346 275.389 186.89 273.933 186.89 272.146C186.89 270.358 188.346 268.903 190.133 268.903C191.921 268.903 193.376 270.358 193.376 272.146C193.376 273.933 191.921 275.389 190.133 275.389Z" fill="white" stroke="black"/>
<path d="M184.662 287.386C183.451 287.386 182.475 286.41 182.475 285.199C182.475 283.987 183.451 283.011 184.662 283.011C185.874 283.011 186.85 283.987 186.85 285.199C186.85 286.41 185.874 287.386 184.662 287.386Z" fill="white" stroke="black"/>
<path d="M38.6315 256.001C37.1321 256.001 35.9163 254.786 35.9163 253.286C35.9163 251.787 37.1321 250.571 38.6315 250.571C40.131 250.571 41.3468 251.787 41.3468 253.286C41.3468 254.786 40.131 256.001 38.6315 256.001Z" fill="white" stroke="black"/>
</svg>
