<svg width="250" height="250" viewBox="0 0 250 250" fill="none" xmlns="http://www.w3.org/2000/svg">
<path d="M41.6619 82.5512L0.739331 41.6292L41.6619 0.707094L82.5844 41.6292L41.6619 82.5512Z" fill="white" stroke="black"/>
<path d="M125.015 82.5658L84.0928 41.6437L125.015 0.72162L165.938 41.6437L125.015 82.5658Z" fill="white" stroke="black"/>
<path d="M208.372 82.5803L167.449 41.6582L208.372 0.736185L249.294 41.6583L208.372 82.5803Z" fill="white" stroke="black"/>
<path d="M41.6462 165.905L0.723706 124.983L41.6462 84.061L82.5687 124.983L41.6462 165.905Z" fill="white" stroke="black"/>
<path d="M125.003 165.92L84.0802 124.998L125.003 84.0755L165.925 124.998L125.003 165.92Z" fill="white" stroke="black"/>
<path d="M208.355 165.934L167.433 125.012L208.355 84.0901L249.278 125.012L208.355 165.934Z" fill="white" stroke="black"/>
<path d="M41.6297 249.262L0.707104 208.34L41.6296 167.418L82.5522 208.34L41.6297 249.262Z" fill="white" stroke="black"/>
<path d="M124.983 249.278L84.0606 208.356L124.983 167.434L165.906 208.356L124.983 249.278Z" fill="white" stroke="black"/>
<path d="M208.34 249.293L167.417 208.371L208.34 167.449L249.262 208.371L208.34 249.293Z" fill="white" stroke="black"/>
</svg>
