<svg width="262" height="249" viewBox="0 0 262 249" fill="none" xmlns="http://www.w3.org/2000/svg">
<path d="M106.571 45.2815H95.4767L101.002 3.77444L106.571 45.2815Z" fill="white" stroke="black"/>
<path d="M123.718 49.6828L112.711 48.4212L122.978 7.7887L123.718 49.6828Z" fill="white" stroke="black"/>
<path d="M139.422 57.8876L129.212 55.638L142.797 18.5191L139.422 57.8876Z" fill="white" stroke="black"/>
<path d="M152.764 69.8496L142.771 66.778L159.167 30.827L152.764 69.8496Z" fill="white" stroke="black"/>
<path d="M161.21 84.9574L151.842 80.4248L171.57 51.6751L161.21 84.9574Z" fill="white" stroke="black"/>
<path d="M180.729 179.682L175.431 175.246L192.682 160.049L180.729 179.682Z" fill="white" stroke="black"/>
<path d="M187.782 185.875L182.823 181.77L198.96 167.502L187.782 185.875Z" fill="white" stroke="black"/>
<path d="M194.837 192.112L190.211 188.25L205.296 174.935L194.837 192.112Z" fill="white" stroke="black"/>
<path d="M201.892 198.303L197.603 194.729L211.583 182.417L201.892 198.303Z" fill="white" stroke="black"/>
<path d="M208.9 204.54L204.99 201.256L217.853 189.879L208.9 204.54Z" fill="white" stroke="black"/>
<path d="M215.954 210.731L212.381 207.734L224.137 197.322L215.954 210.731Z" fill="white" stroke="black"/>
<path d="M223.01 216.967L219.769 214.215L230.473 204.755L223.01 216.967Z" fill="white" stroke="black"/>
<path d="M230.063 223.161L227.116 220.693L236.769 212.218L230.063 223.161Z" fill="white" stroke="black"/>
<path d="M237.116 229.4L234.505 227.218L243.055 219.67L237.116 229.4Z" fill="white" stroke="black"/>
<path d="M244.17 235.591L241.895 233.695L249.34 227.113L244.17 235.591Z" fill="white" stroke="black"/>
<path d="M251.227 241.825L249.283 240.178L255.642 234.577L251.227 241.825Z" fill="white" stroke="black"/>
<path d="M165.671 162.964L259.747 248.131H197.89H157.82H83.932C75.5876 236.541 70.6436 222.324 70.6436 206.929C70.6436 174.521 92.4892 147.23 122.239 139.047L164.03 173.1L164.765 173.699L164.844 172.755L165.671 162.964Z" fill="white" stroke="black"/>
<path d="M220.858 248.083H204.966V198.555L220.858 212.957V248.083Z" fill="white" stroke="black"/>
<path d="M241.589 248.083H230.208V221.395L241.589 231.673V248.083Z" fill="white" stroke="black"/>
<path d="M255.122 248.083H250.268V239.534L255.122 243.911V248.083Z" fill="white" stroke="black"/>
<path d="M203.508 238.382C201.777 241.769 199.844 245.026 197.636 248.083H83.9316C81.7205 245.024 79.7859 241.803 78.0549 238.382H203.508Z" fill="white" stroke="black"/>
<path d="M61.7229 248.083C61.888 234.171 63.996 223.826 67.2893 216.959C70.6225 210.008 75.1155 206.709 79.9815 206.709C84.8724 206.709 89.377 210.009 92.7158 216.959C96.0149 223.826 98.1229 234.171 98.2881 248.083H61.7229Z" fill="white" stroke="black"/>
<mask id="path-23-inside-1_1_8250" fill="white">
<path d="M79.5499 235.674C75.7107 235.674 72.5435 233.275 72.5435 230.299C72.5435 227.324 75.6627 224.925 79.5499 224.925C83.389 224.925 86.5563 227.324 86.5563 230.299C86.5563 233.275 83.437 235.674 79.5499 235.674ZM79.5499 225.692C76.1426 225.692 73.3113 227.756 73.3113 230.299C73.3113 232.843 76.0946 234.906 79.5499 234.906C83.0051 234.906 85.7884 232.843 85.7884 230.299C85.7884 227.756 83.0051 225.692 79.5499 225.692Z"/>
</mask>
<path d="M79.5499 235.674C75.7107 235.674 72.5435 233.275 72.5435 230.299C72.5435 227.324 75.6627 224.925 79.5499 224.925C83.389 224.925 86.5563 227.324 86.5563 230.299C86.5563 233.275 83.437 235.674 79.5499 235.674ZM79.5499 225.692C76.1426 225.692 73.3113 227.756 73.3113 230.299C73.3113 232.843 76.0946 234.906 79.5499 234.906C83.0051 234.906 85.7884 232.843 85.7884 230.299C85.7884 227.756 83.0051 225.692 79.5499 225.692Z" fill="white"/>
<path d="M79.5499 234.674C77.8317 234.674 76.2977 234.136 75.2142 233.308C74.1314 232.48 73.5435 231.408 73.5435 230.299H71.5435C71.5435 232.166 72.5391 233.781 73.9998 234.897C75.4597 236.013 77.4289 236.674 79.5499 236.674V234.674ZM73.5435 230.299C73.5435 228.106 75.9534 225.925 79.5499 225.925V223.925C75.3721 223.925 71.5435 226.542 71.5435 230.299H73.5435ZM79.5499 225.925C81.268 225.925 82.802 226.463 83.8856 227.291C84.9683 228.118 85.5563 229.19 85.5563 230.299H87.5563C87.5563 228.433 86.5606 226.818 85.0999 225.702C83.64 224.586 81.6708 223.925 79.5499 223.925V225.925ZM85.5563 230.299C85.5563 232.493 83.1463 234.674 79.5499 234.674V236.674C83.7276 236.674 87.5563 234.056 87.5563 230.299H85.5563ZM79.5499 224.692C77.6525 224.692 75.8809 225.265 74.5604 226.236C73.2414 227.206 72.3113 228.631 72.3113 230.299H74.3113C74.3113 229.425 74.7968 228.545 75.7453 227.848C76.6924 227.151 78.04 226.692 79.5499 226.692V224.692ZM72.3113 230.299C72.3113 231.962 73.2233 233.387 74.5404 234.361C75.8575 235.334 77.6307 235.906 79.5499 235.906V233.906C78.0138 233.906 76.6678 233.446 75.7294 232.752C74.7909 232.059 74.3113 231.18 74.3113 230.299H72.3113ZM79.5499 235.906C81.469 235.906 83.2423 235.334 84.5594 234.361C85.8764 233.387 86.7884 231.962 86.7884 230.299H84.7884C84.7884 231.18 84.3088 232.059 83.3703 232.752C82.432 233.446 81.086 233.906 79.5499 233.906V235.906ZM86.7884 230.299C86.7884 228.637 85.8764 227.212 84.5594 226.238C83.2423 225.264 81.469 224.692 79.5499 224.692V226.692C81.086 226.692 82.432 227.152 83.3703 227.846C84.3088 228.54 84.7884 229.418 84.7884 230.299H86.7884Z" fill="black" mask="url(#path-23-inside-1_1_8250)"/>
<mask id="path-25-inside-2_1_8250" fill="white">
<path d="M79.4543 233.323C77.0548 233.323 75.1353 231.883 75.1353 230.107C75.1353 228.332 77.0548 226.892 79.4543 226.892C81.8537 226.892 83.7733 228.332 83.7733 230.107C83.7733 231.883 81.8537 233.323 79.4543 233.323ZM79.4543 227.708C77.4867 227.708 75.9031 228.812 75.9031 230.155C75.9031 231.499 77.4867 232.603 79.4543 232.603C81.4218 232.603 83.0055 231.499 83.0055 230.155C83.0055 228.764 81.4218 227.708 79.4543 227.708Z"/>
</mask>
<path d="M79.4543 233.323C77.0548 233.323 75.1353 231.883 75.1353 230.107C75.1353 228.332 77.0548 226.892 79.4543 226.892C81.8537 226.892 83.7733 228.332 83.7733 230.107C83.7733 231.883 81.8537 233.323 79.4543 233.323ZM79.4543 227.708C77.4867 227.708 75.9031 228.812 75.9031 230.155C75.9031 231.499 77.4867 232.603 79.4543 232.603C81.4218 232.603 83.0055 231.499 83.0055 230.155C83.0055 228.764 81.4218 227.708 79.4543 227.708Z" fill="white"/>
<path d="M79.4543 232.323C78.4473 232.323 77.5827 232.019 76.993 231.579C76.4039 231.14 76.1353 230.609 76.1353 230.107H74.1353C74.1353 231.381 74.8264 232.458 75.7969 233.182C76.7669 233.906 78.0618 234.323 79.4543 234.323V232.323ZM76.1353 230.107C76.1353 229.605 76.4039 229.075 76.993 228.635C77.5827 228.195 78.4473 227.892 79.4543 227.892V225.892C78.0618 225.892 76.7669 226.309 75.7969 227.032C74.8264 227.756 74.1353 228.834 74.1353 230.107H76.1353ZM79.4543 227.892C80.4612 227.892 81.3258 228.195 81.9155 228.635C82.5046 229.075 82.7733 229.605 82.7733 230.107H84.7733C84.7733 228.834 84.0821 227.756 83.1116 227.032C82.1416 226.309 80.8468 225.892 79.4543 225.892V227.892ZM82.7733 230.107C82.7733 230.609 82.5046 231.14 81.9155 231.579C81.3258 232.019 80.4612 232.323 79.4543 232.323V234.323C80.8468 234.323 82.1416 233.906 83.1116 233.182C84.0821 232.458 84.7733 231.381 84.7733 230.107H82.7733ZM79.4543 226.708C78.2927 226.708 77.2008 227.032 76.372 227.605C75.5482 228.175 74.9031 229.061 74.9031 230.155H76.9031C76.9031 229.906 77.0497 229.568 77.5097 229.25C77.9646 228.936 78.6483 228.708 79.4543 228.708V226.708ZM74.9031 230.155C74.9031 231.25 75.5482 232.136 76.372 232.705C77.2008 233.279 78.2927 233.603 79.4543 233.603V231.603C78.6483 231.603 77.9646 231.375 77.5097 231.06C77.0497 230.742 76.9031 230.405 76.9031 230.155H74.9031ZM79.4543 233.603C80.6158 233.603 81.7077 233.279 82.5365 232.705C83.3603 232.136 84.0055 231.25 84.0055 230.155H82.0055C82.0055 230.405 81.8588 230.742 81.3989 231.06C80.944 231.375 80.2603 231.603 79.4543 231.603V233.603ZM84.0055 230.155C84.0055 229.043 83.3668 228.154 82.5313 227.584C81.6981 227.015 80.6063 226.708 79.4543 226.708V228.708C80.2698 228.708 80.9535 228.928 81.4041 229.236C81.8523 229.542 82.0055 229.876 82.0055 230.155H84.0055Z" fill="black" mask="url(#path-25-inside-2_1_8250)"/>
<mask id="path-27-inside-3_1_8250" fill="white">
<path d="M79.6937 231.499C78.6859 231.499 77.8701 230.875 77.8701 230.059C77.8701 229.244 78.6859 228.668 79.6937 228.668C80.7015 228.668 81.5173 229.292 81.5173 230.059C81.5173 230.875 80.7015 231.499 79.6937 231.499ZM79.6937 229.436C79.0698 229.436 78.6379 229.771 78.6379 230.059C78.6379 230.347 79.0698 230.683 79.6937 230.683C80.3176 230.683 80.7495 230.347 80.7495 230.059C80.7495 229.771 80.3176 229.436 79.6937 229.436Z"/>
</mask>
<path d="M79.6937 231.499C78.6859 231.499 77.8701 230.875 77.8701 230.059C77.8701 229.244 78.6859 228.668 79.6937 228.668C80.7015 228.668 81.5173 229.292 81.5173 230.059C81.5173 230.875 80.7015 231.499 79.6937 231.499ZM79.6937 229.436C79.0698 229.436 78.6379 229.771 78.6379 230.059C78.6379 230.347 79.0698 230.683 79.6937 230.683C80.3176 230.683 80.7495 230.347 80.7495 230.059C80.7495 229.771 80.3176 229.436 79.6937 229.436Z" fill="white"/>
<path d="M81.5173 230.059H82.5173H81.5173ZM79.6937 230.499C79.3896 230.499 79.1564 230.404 79.0199 230.297C78.8892 230.195 78.8701 230.109 78.8701 230.059H76.8701C76.8701 231.643 78.3768 232.499 79.6937 232.499V230.499ZM78.8701 230.059C78.8701 230.018 78.8814 229.949 79.0017 229.859C79.1334 229.761 79.371 229.668 79.6937 229.668V227.668C78.4255 227.668 76.8701 228.439 76.8701 230.059H78.8701ZM79.6937 229.668C79.9978 229.668 80.2358 229.763 80.3765 229.87C80.5164 229.977 80.5173 230.053 80.5173 230.059H82.5173C82.5173 229.298 82.1103 228.678 81.5903 228.281C81.0711 227.884 80.3973 227.668 79.6937 227.668V229.668ZM80.5173 230.059C80.5173 230.109 80.4982 230.195 80.3675 230.297C80.231 230.404 79.9978 230.499 79.6937 230.499V232.499C81.0106 232.499 82.5173 231.643 82.5173 230.059H80.5173ZM79.6937 228.436C79.2077 228.436 78.7519 228.565 78.3897 228.799C78.0732 229.003 77.6379 229.425 77.6379 230.059H79.6379C79.6379 230.24 79.5716 230.361 79.5352 230.413C79.4978 230.466 79.4687 230.483 79.474 230.48C79.4837 230.474 79.5559 230.436 79.6937 230.436V228.436ZM77.6379 230.059C77.6379 230.693 78.0732 231.115 78.3897 231.32C78.7519 231.553 79.2077 231.683 79.6937 231.683V229.683C79.5559 229.683 79.4837 229.645 79.474 229.639C79.4688 229.636 79.4978 229.652 79.5352 229.706C79.5716 229.758 79.6379 229.879 79.6379 230.059H77.6379ZM79.6937 231.683C80.1797 231.683 80.6355 231.553 80.9977 231.32C81.3142 231.115 81.7495 230.693 81.7495 230.059H79.7495C79.7495 229.879 79.8158 229.758 79.8522 229.706C79.8896 229.652 79.9186 229.636 79.9134 229.639C79.9037 229.645 79.8315 229.683 79.6937 229.683V231.683ZM81.7495 230.059C81.7495 229.425 81.3142 229.003 80.9976 228.799C80.6354 228.565 80.1797 228.436 79.6937 228.436V230.436C79.8315 230.436 79.9037 230.474 79.9134 230.48C79.9187 230.483 79.8896 230.466 79.8522 230.413C79.8158 230.361 79.7495 230.24 79.7495 230.059H81.7495Z" fill="black" mask="url(#path-27-inside-3_1_8250)"/>
<path d="M106.305 248.131C106.498 234.391 108.748 224.184 112.26 217.41C115.811 210.562 120.611 207.285 125.859 207.285C131.107 207.285 135.907 210.551 139.458 217.393C142.97 224.16 145.22 234.367 145.412 248.131H106.305Z" fill="white" stroke="black"/>
<path d="M37.7683 143.539L37.7683 143.539C41.7219 105.242 76.7377 77.4989 115.97 81.5508C155.201 85.6027 183.782 119.919 179.829 158.216C175.875 196.513 140.86 224.256 101.628 220.204C62.3962 216.152 33.8148 181.788 37.7683 143.539Z" fill="white" stroke="black"/>
<mask id="path-31-inside-4_1_8250" fill="white">
<path d="M124.755 235.674C120.916 235.674 117.749 233.275 117.749 230.299C117.749 227.324 120.868 224.925 124.755 224.925C128.595 224.925 131.762 227.324 131.762 230.299C131.762 233.275 128.643 235.674 124.755 235.674ZM124.755 225.692C121.3 225.692 118.517 227.756 118.517 230.299C118.517 232.843 121.3 234.906 124.755 234.906C128.163 234.906 130.994 232.843 130.994 230.299C130.994 227.756 128.211 225.692 124.755 225.692Z"/>
</mask>
<path d="M124.755 235.674C120.916 235.674 117.749 233.275 117.749 230.299C117.749 227.324 120.868 224.925 124.755 224.925C128.595 224.925 131.762 227.324 131.762 230.299C131.762 233.275 128.643 235.674 124.755 235.674ZM124.755 225.692C121.3 225.692 118.517 227.756 118.517 230.299C118.517 232.843 121.3 234.906 124.755 234.906C128.163 234.906 130.994 232.843 130.994 230.299C130.994 227.756 128.211 225.692 124.755 225.692Z" fill="white"/>
<path d="M124.755 234.674C123.037 234.674 121.503 234.136 120.42 233.308C119.337 232.481 118.749 231.408 118.749 230.299H116.749C116.749 232.166 117.745 233.781 119.205 234.897C120.665 236.013 122.634 236.674 124.755 236.674V234.674ZM118.749 230.299C118.749 228.106 121.159 225.925 124.755 225.925V223.925C120.578 223.925 116.749 226.542 116.749 230.299H118.749ZM124.755 225.925C126.474 225.925 128.008 226.463 129.091 227.291C130.174 228.118 130.762 229.19 130.762 230.299H132.762C132.762 228.433 131.766 226.818 130.305 225.702C128.846 224.586 126.876 223.925 124.755 223.925V225.925ZM130.762 230.299C130.762 232.493 128.352 234.674 124.755 234.674V236.674C128.933 236.674 132.762 234.056 132.762 230.299H130.762ZM124.755 224.692C122.836 224.692 121.063 225.264 119.746 226.238C118.429 227.212 117.517 228.637 117.517 230.299H119.517C119.517 229.418 119.997 228.54 120.935 227.846C121.873 227.152 123.219 226.692 124.755 226.692V224.692ZM117.517 230.299C117.517 231.962 118.429 233.387 119.746 234.361C121.063 235.334 122.836 235.906 124.755 235.906V233.906C123.219 233.906 121.873 233.446 120.935 232.752C119.997 232.059 119.517 231.18 119.517 230.299H117.517ZM124.755 235.906C126.653 235.906 128.424 235.333 129.745 234.362C131.064 233.392 131.994 231.968 131.994 230.299H129.994C129.994 231.174 129.508 232.053 128.56 232.751C127.613 233.447 126.265 233.906 124.755 233.906V235.906ZM131.994 230.299C131.994 228.637 131.082 227.212 129.765 226.238C128.448 225.264 126.675 224.692 124.755 224.692V226.692C126.292 226.692 127.638 227.152 128.576 227.846C129.514 228.54 129.994 229.418 129.994 230.299H131.994Z" fill="black" mask="url(#path-31-inside-4_1_8250)"/>
<mask id="path-33-inside-5_1_8250" fill="white">
<path d="M124.66 233.323C122.26 233.323 120.341 231.883 120.341 230.107C120.341 228.332 122.26 226.892 124.66 226.892C127.059 226.892 128.979 228.332 128.979 230.107C128.979 231.883 127.059 233.323 124.66 233.323ZM124.66 227.708C122.692 227.708 121.109 228.812 121.109 230.155C121.109 231.499 122.692 232.603 124.66 232.603C126.627 232.603 128.211 231.499 128.211 230.155C128.211 228.764 126.627 227.708 124.66 227.708Z"/>
</mask>
<path d="M124.66 233.323C122.26 233.323 120.341 231.883 120.341 230.107C120.341 228.332 122.26 226.892 124.66 226.892C127.059 226.892 128.979 228.332 128.979 230.107C128.979 231.883 127.059 233.323 124.66 233.323ZM124.66 227.708C122.692 227.708 121.109 228.812 121.109 230.155C121.109 231.499 122.692 232.603 124.66 232.603C126.627 232.603 128.211 231.499 128.211 230.155C128.211 228.764 126.627 227.708 124.66 227.708Z" fill="white"/>
<path d="M124.66 232.323C123.653 232.323 122.788 232.019 122.199 231.579C121.609 231.14 121.341 230.609 121.341 230.107H119.341C119.341 231.381 120.032 232.458 121.003 233.182C121.972 233.906 123.267 234.323 124.66 234.323V232.323ZM121.341 230.107C121.341 229.605 121.609 229.075 122.199 228.635C122.788 228.195 123.653 227.892 124.66 227.892V225.892C123.267 225.892 121.972 226.309 121.003 227.032C120.032 227.757 119.341 228.834 119.341 230.107H121.341ZM124.66 227.892C125.667 227.892 126.531 228.195 127.121 228.635C127.71 229.075 127.979 229.605 127.979 230.107H129.979C129.979 228.834 129.288 227.757 128.317 227.032C127.347 226.309 126.052 225.892 124.66 225.892V227.892ZM127.979 230.107C127.979 230.609 127.71 231.14 127.121 231.579C126.531 232.019 125.667 232.323 124.66 232.323V234.323C126.052 234.323 127.347 233.906 128.317 233.182C129.288 232.458 129.979 231.381 129.979 230.107H127.979ZM124.66 226.708C123.498 226.708 122.406 227.032 121.578 227.605C120.754 228.175 120.109 229.061 120.109 230.155H122.109C122.109 229.906 122.255 229.568 122.715 229.25C123.17 228.936 123.854 228.708 124.66 228.708V226.708ZM120.109 230.155C120.109 231.25 120.754 232.136 121.578 232.705C122.406 233.279 123.498 233.603 124.66 233.603V231.603C123.854 231.603 123.17 231.375 122.715 231.06C122.255 230.742 122.109 230.405 122.109 230.155H120.109ZM124.66 233.603C125.821 233.603 126.913 233.279 127.742 232.705C128.566 232.136 129.211 231.25 129.211 230.155H127.211C127.211 230.405 127.064 230.742 126.604 231.06C126.15 231.375 125.466 231.603 124.66 231.603V233.603ZM129.211 230.155C129.211 229.043 128.572 228.154 127.737 227.584C126.904 227.015 125.812 226.708 124.66 226.708V228.708C125.475 228.708 126.159 228.928 126.61 229.236C127.058 229.542 127.211 229.876 127.211 230.155H129.211Z" fill="black" mask="url(#path-33-inside-5_1_8250)"/>
<mask id="path-35-inside-6_1_8250" fill="white">
<path d="M124.899 231.499C123.891 231.499 123.076 230.875 123.076 230.059C123.076 229.244 123.891 228.668 124.899 228.668C125.907 228.668 126.723 229.292 126.723 230.059C126.723 230.875 125.907 231.499 124.899 231.499ZM124.899 229.436C124.275 229.436 123.844 229.771 123.844 230.059C123.844 230.347 124.275 230.683 124.899 230.683C125.523 230.683 125.955 230.347 125.955 230.059C125.955 229.771 125.523 229.436 124.899 229.436Z"/>
</mask>
<path d="M124.899 231.499C123.891 231.499 123.076 230.875 123.076 230.059C123.076 229.244 123.891 228.668 124.899 228.668C125.907 228.668 126.723 229.292 126.723 230.059C126.723 230.875 125.907 231.499 124.899 231.499ZM124.899 229.436C124.275 229.436 123.844 229.771 123.844 230.059C123.844 230.347 124.275 230.683 124.899 230.683C125.523 230.683 125.955 230.347 125.955 230.059C125.955 229.771 125.523 229.436 124.899 229.436Z" fill="white"/>
<path d="M125.955 230.059H124.955H125.955ZM124.899 230.499C124.595 230.499 124.362 230.404 124.225 230.297C124.095 230.195 124.076 230.109 124.076 230.059H122.076C122.076 231.643 123.582 232.499 124.899 232.499V230.499ZM124.076 230.059C124.076 230.018 124.087 229.949 124.207 229.859C124.339 229.761 124.577 229.668 124.899 229.668V227.668C123.631 227.668 122.076 228.439 122.076 230.059H124.076ZM124.899 229.668C125.203 229.668 125.441 229.763 125.582 229.87C125.722 229.977 125.723 230.053 125.723 230.059H127.723C127.723 229.298 127.316 228.678 126.796 228.281C126.277 227.884 125.603 227.668 124.899 227.668V229.668ZM125.723 230.059C125.723 230.109 125.704 230.195 125.573 230.297C125.437 230.404 125.203 230.499 124.899 230.499V232.499C126.216 232.499 127.723 231.643 127.723 230.059H125.723ZM124.899 228.436C124.413 228.436 123.958 228.565 123.595 228.799C123.279 229.003 122.844 229.425 122.844 230.059H124.844C124.844 230.24 124.777 230.361 124.741 230.413C124.703 230.466 124.674 230.483 124.68 230.48C124.689 230.474 124.761 230.436 124.899 230.436V228.436ZM122.844 230.059C122.844 230.693 123.279 231.115 123.595 231.32C123.958 231.553 124.413 231.683 124.899 231.683V229.683C124.761 229.683 124.689 229.645 124.68 229.639C124.674 229.636 124.703 229.652 124.741 229.706C124.777 229.758 124.844 229.879 124.844 230.059H122.844ZM124.899 231.683C125.385 231.683 125.841 231.553 126.203 231.32C126.52 231.115 126.955 230.693 126.955 230.059H124.955C124.955 229.879 125.021 229.758 125.058 229.706C125.095 229.652 125.124 229.636 125.119 229.639C125.109 229.645 125.037 229.683 124.899 229.683V231.683ZM126.955 230.059C126.955 229.425 126.52 229.003 126.203 228.799C125.841 228.565 125.385 228.436 124.899 228.436V230.436C125.037 230.436 125.109 230.474 125.119 230.48C125.124 230.483 125.095 230.466 125.058 230.413C125.021 230.361 124.955 230.24 124.955 230.059H126.955Z" fill="black" mask="url(#path-35-inside-6_1_8250)"/>
<path d="M185.941 200.95C200.883 200.95 213.083 214.263 213.083 230.779C213.083 237.252 211.203 243.216 207.987 248.131H163.85C160.68 243.215 158.8 237.251 158.8 230.779C158.8 214.263 171 200.95 185.941 200.95Z" fill="white" stroke="black"/>
<path d="M185.317 206.229C188.016 206.229 190.354 207.186 191.869 208.636C191.653 208.432 191.421 208.238 191.176 208.057C189.649 206.926 187.575 206.237 185.317 206.237C183.863 206.237 182.487 206.517 181.285 207.014C182.47 206.516 183.84 206.229 185.317 206.229ZM181.285 218.169C182.487 218.666 183.863 218.946 185.317 218.946C186.772 218.946 188.148 218.666 189.35 218.169C188.165 218.667 186.795 218.954 185.317 218.954C183.84 218.954 182.47 218.667 181.285 218.169Z" fill="white" stroke="black"/>
<path d="M185.173 208.828C184.483 208.828 183.821 208.927 183.217 209.11C183.815 208.924 184.475 208.82 185.173 208.82C185.872 208.82 186.532 208.924 187.13 209.11C186.525 208.927 185.864 208.828 185.173 208.828Z" fill="white" stroke="black"/>
<path d="M185.462 213.627C184.814 213.627 184.324 213.418 184.019 213.126C184.079 213.18 184.142 213.228 184.207 213.271C184.533 213.489 184.968 213.619 185.462 213.619C185.936 213.619 186.368 213.486 186.694 213.275C186.719 213.259 186.743 213.242 186.768 213.224C186.46 213.461 186.018 213.627 185.462 213.627Z" fill="white" stroke="black"/>
<path d="M115.298 42.4141C163.08 50.2034 195.5 95.2526 187.71 143.034C179.921 190.816 134.872 223.236 87.0903 215.447C39.3086 207.657 6.88845 162.608 14.6778 114.827C22.4671 67.0449 67.5163 34.6247 115.298 42.4141Z" fill="white" stroke="black"/>
<path d="M101.077 50.7724C101.077 59.178 94.8761 65.9168 87.2758 65.9168C79.6756 65.9168 73.4751 59.178 73.4751 50.7724C73.4751 42.3667 79.6756 35.6279 87.2758 35.6279C94.8291 35.6279 101.077 42.3679 101.077 50.7724Z" fill="white" stroke="black"/>
<path d="M127.422 50.7724C127.422 59.178 121.222 65.9168 113.622 65.9168C106.021 65.9168 99.8208 59.178 99.8208 50.7724C99.8208 42.3667 106.021 35.6279 113.622 35.6279C121.175 35.6279 127.422 42.3679 127.422 50.7724Z" fill="white" stroke="black"/>
<path d="M94.2626 57.5868C94.2626 61.1978 91.3192 64.1412 87.7082 64.1412C84.0972 64.1412 81.1538 61.1978 81.1538 57.5868C81.1538 53.9759 84.0972 51.0324 87.7082 51.0324C91.3192 51.0324 94.2626 53.9759 94.2626 57.5868Z" fill="white" stroke="black"/>
<path d="M121.232 57.5868C121.232 61.1978 118.289 64.1412 114.678 64.1412C111.067 64.1412 108.124 61.1978 108.124 57.5868C108.124 53.9759 111.067 51.0324 114.678 51.0324C118.289 51.0324 121.232 53.9759 121.232 57.5868Z" fill="white" stroke="black"/>
<path d="M96.3738 204.481C96.3738 206.793 94.4895 208.636 92.2189 208.636C89.907 208.636 88.064 206.752 88.064 204.481C88.064 202.169 89.9483 200.326 92.2189 200.326C94.5308 200.326 96.3738 202.211 96.3738 204.481Z" fill="white" stroke="black"/>
<path d="M114.322 204.481C114.322 206.79 112.441 208.636 110.119 208.636C107.807 208.636 105.964 206.752 105.964 204.481C105.964 202.169 107.848 200.326 110.119 200.326C112.482 200.326 114.322 202.214 114.322 204.481Z" fill="white" stroke="black"/>
<path d="M50.6126 92.6467C46.2338 92.6467 42.6665 89.0794 42.6665 84.7006C42.6665 80.3199 46.1876 76.7545 50.6126 76.7545C54.9914 76.7545 58.5586 80.3218 58.5586 84.7006C58.5586 89.0794 54.9914 92.6467 50.6126 92.6467Z" fill="white" stroke="black"/>
<path d="M151.773 92.6467C147.394 92.6467 143.827 89.0794 143.827 84.7006C143.827 80.3218 147.394 76.7545 151.773 76.7545C156.152 76.7545 159.719 80.3218 159.719 84.7006C159.719 89.0794 156.152 92.6467 151.773 92.6467Z" fill="white" stroke="black"/>
<path d="M72.5239 248.083H70.546L71.5349 244.186L72.5239 248.083Z" fill="white" stroke="black"/>
<path d="M77.8989 248.083H75.921L76.91 244.186L77.8989 248.083Z" fill="white" stroke="black"/>
<path d="M83.3212 248.083H81.3434L82.3323 244.186L83.3212 248.083Z" fill="white" stroke="black"/>
<path d="M121.473 248.083H119.495L120.484 244.186L121.473 248.083Z" fill="white" stroke="black"/>
<path d="M126.896 248.083H124.918L125.907 244.186L126.896 248.083Z" fill="white" stroke="black"/>
<path d="M132.319 248.083H130.341L131.33 244.186L132.319 248.083Z" fill="white" stroke="black"/>
<path d="M174.741 248.083H172.763L173.752 244.186L174.741 248.083Z" fill="white" stroke="black"/>
<path d="M180.164 248.083H178.186L179.175 244.186L180.164 248.083Z" fill="white" stroke="black"/>
<path d="M185.586 248.083H183.609L184.597 244.186L185.586 248.083Z" fill="white" stroke="black"/>
<path d="M210.06 226.604C210.06 228.587 208.456 230.231 206.433 230.231C204.45 230.231 202.806 228.628 202.806 226.604C202.806 224.623 204.406 222.98 206.427 222.977C208.422 223.022 210.06 224.636 210.06 226.604Z" fill="white" stroke="black"/>
<path d="M207.756 234.906C207.756 235.734 207.068 236.422 206.241 236.422C205.413 236.422 204.725 235.734 204.725 234.906C204.725 234.079 205.413 233.391 206.241 233.391C207.068 233.391 207.756 234.079 207.756 234.906Z" fill="white" stroke="black"/>
<path d="M35.3795 153.133C35.3795 156.504 32.676 159.207 29.305 159.207C25.9339 159.207 23.2305 156.504 23.2305 153.133C23.2305 149.762 25.9339 147.058 29.305 147.058C32.676 147.058 35.3795 149.762 35.3795 153.133Z" fill="white" stroke="black"/>
<path d="M36.9154 167.05C36.9154 168.309 35.8915 169.333 34.632 169.333C33.3725 169.333 32.3486 168.309 32.3486 167.05C32.3486 165.79 33.3725 164.766 34.632 164.766C35.8915 164.766 36.9154 165.79 36.9154 167.05Z" fill="white" stroke="black"/>
</svg>
