<svg width="279" height="301" viewBox="0 0 279 301" fill="none" xmlns="http://www.w3.org/2000/svg">
<rect y="19.1846" width="121" height="120" rx="13" transform="rotate(-9.12272 0 19.1846)" fill="white"/>
<path d="M109.428 70.4493C109.453 48.3996 91.6584 30.4849 69.6837 30.4357C47.7089 30.3865 29.8752 48.2215 29.8509 70.2712C29.8265 92.3209 47.6209 110.236 69.5956 110.285C91.5704 110.334 109.404 92.499 109.428 70.4493Z" fill="#FFE500"/>
<path d="M63.5045 32.1573C84.5335 28.7804 104.305 43.1347 107.694 64.2393C111.083 85.344 96.7997 105.167 75.7707 108.544C54.7417 111.921 34.9702 97.5662 31.5813 76.4616C28.1923 55.357 42.4755 35.5341 63.5045 32.1573ZM63.1097 29.6985C40.774 33.2852 25.5317 54.4391 29.1313 76.855C32.7308 99.271 53.8299 114.589 76.1656 111.002C98.5012 107.416 113.744 86.2619 110.144 63.8459C106.544 41.43 85.4454 26.1118 63.1097 29.6985Z" fill="#F5D11D"/>
<path d="M44.9513 90.0786C44.9513 90.0786 44.7551 89.8999 44.3692 89.5836C44.0176 89.2197 43.4486 88.8066 42.827 88.0657C42.5228 87.7362 42.1646 87.3313 41.7998 86.8855C41.435 86.4396 41.0636 85.9528 40.6856 85.425C40.3077 84.8971 39.9574 84.2808 39.5663 83.671C39.2094 83.0137 38.8525 82.3564 38.4825 81.6171C38.3008 81.268 38.1533 80.8713 37.965 80.4812C37.8913 80.2828 37.7767 80.091 37.703 79.8927C37.6292 79.6944 37.5555 79.496 37.4752 79.2567C37.3277 78.86 37.1737 78.4223 37.0196 77.9847C36.8655 77.547 36.7523 77.1028 36.6391 76.6586C36.5588 76.4193 36.5259 76.2144 36.4456 75.975L36.4193 75.8111L36.4061 75.7292L36.3995 75.6882C36.4061 75.7292 36.3863 75.6062 36.3863 75.6062L36.3798 75.5652L36.3271 75.2374C36.2547 74.7866 36.1415 74.3424 36.0626 73.8506C35.9836 73.3589 35.898 72.8261 35.8533 72.2869C35.8152 71.7885 35.7705 71.2492 35.7323 70.7509C35.6495 69.7133 35.6483 68.6626 35.7222 67.5578C35.7619 66.5005 35.8766 65.3891 36.0387 64.3122C36.363 62.1583 36.9323 59.965 37.7321 57.9029C38.5319 55.8408 39.549 53.8279 40.7624 51.9936C41.3658 51.056 42.0231 50.1938 42.6871 49.3725C43.3511 48.5513 44.0624 47.7645 44.8278 47.053C46.3111 45.5958 47.8747 44.3779 49.4647 43.3239C49.8875 43.0878 50.263 42.8173 50.645 42.5879C51.027 42.3584 51.4498 42.1223 51.8384 41.9338C52.6156 41.5568 53.3928 41.1798 54.1423 40.8913C54.8852 40.5618 55.6479 40.3552 56.3223 40.1208C56.6832 40.0208 57.0033 39.9274 57.3642 39.8274C57.6843 39.734 58.0044 39.6405 58.331 39.5881C59.6245 39.2963 60.7336 39.1602 61.6385 39.057C62.0942 39.0258 62.5092 39.0012 62.8832 38.9832C63.2573 38.9652 63.5563 39.0012 63.8013 38.9619C64.3045 38.9652 64.556 38.9668 64.556 38.9668C64.556 38.9668 64.3176 39.0471 63.8474 39.2487C63.609 39.3291 63.3363 39.4569 63.0228 39.5913C62.7093 39.7258 62.3207 39.9143 61.9255 40.0618C61.1009 40.4044 60.1327 40.8962 59.0486 41.4486C58.5099 41.7453 57.9303 42.0485 57.3573 42.3928C56.7909 42.778 56.177 43.1288 55.5763 43.5615C53.1196 45.2171 50.5442 47.4382 48.2244 50.2068C47.9438 50.5462 47.6632 50.8855 47.3891 51.2658C47.1151 51.6461 46.8345 51.9854 46.5605 52.3657C46.2865 52.746 46.0125 53.1263 45.7793 53.5C45.5461 53.8737 45.2721 54.254 45.0455 54.6687C44.0916 56.2932 43.2326 57.9865 42.5909 59.729C41.9084 61.478 41.3681 63.3303 40.9912 65.1563C40.9002 65.6333 40.8027 66.0694 40.7526 66.5398C40.7025 67.0103 40.605 67.4463 40.5549 67.9167C40.448 68.8167 40.3887 69.751 40.3227 70.6444C40.3134 71.1082 40.2975 71.5312 40.2883 71.9951C40.3132 72.4114 40.2974 72.8343 40.3223 73.2507C40.3473 73.667 40.3855 74.1653 40.417 74.6227L40.4288 74.9571L40.4354 74.9981C40.4354 74.9981 40.4222 74.9161 40.4288 74.9571L40.442 75.039L40.4683 75.203C40.5012 75.4079 40.4933 75.6193 40.5262 75.8242C40.592 76.234 40.617 76.6504 40.6828 77.0602C40.7486 77.47 40.8078 77.8388 40.8736 78.2486C40.9065 78.4535 40.9394 78.6584 40.9657 78.8223C40.9986 79.0272 41.0658 79.1846 41.0987 79.3895C41.1987 79.7517 41.258 80.1205 41.358 80.4828C41.5173 81.2139 41.7517 81.8909 41.8978 82.54C42.1256 83.176 42.3125 83.8185 42.4863 84.3792C42.7075 84.9742 42.9156 85.4872 43.1236 86.0003C43.2909 86.5199 43.5266 86.9445 43.7149 87.3346C44.0572 88.1624 44.4141 88.8197 44.609 89.2508C44.871 89.8393 44.9513 90.0786 44.9513 90.0786Z" fill="#FFF073"/>
<path d="M92.8934 51.1053C92.8934 51.1053 93.0897 51.284 93.4756 51.6003C93.8272 51.9642 94.3962 52.3773 95.0178 53.1182C95.322 53.4477 95.6802 53.8526 96.045 54.2984C96.4098 54.7443 96.7812 55.2311 97.1591 55.7589C97.5371 56.2868 97.8874 56.9031 98.2785 57.5129C98.6354 58.1702 98.9922 58.8275 99.3623 59.5668C99.544 59.9159 99.6915 60.3126 99.8798 60.7027C99.9535 60.9011 100.068 61.0929 100.142 61.2912C100.216 61.4896 100.289 61.6879 100.37 61.9272C100.517 62.3239 100.671 62.7616 100.825 63.1992C100.979 63.6369 101.092 64.0811 101.206 64.5253C101.286 64.7647 101.319 64.9696 101.399 65.2089L101.426 65.3728L101.439 65.4548L101.445 65.4957C101.439 65.4548 101.458 65.5777 101.458 65.5777L101.465 65.6187L101.518 65.9465C101.59 66.3973 101.703 66.8415 101.782 67.3333C101.861 67.825 101.947 68.3578 101.991 68.8971C102.03 69.3954 102.074 69.9347 102.112 70.433C102.195 71.4706 102.196 72.5213 102.123 73.6261C102.083 74.6834 101.968 75.7948 101.806 76.8717C101.482 79.0256 100.912 81.2189 100.113 83.281C99.3129 85.3431 98.2957 87.356 97.0824 89.1903C96.479 90.1279 95.8216 90.9902 95.1577 91.8114C94.4937 92.6326 93.7824 93.4194 93.017 94.1309C91.5337 95.5881 89.97 96.806 88.3801 97.8601C87.9572 98.0961 87.5818 98.3666 87.1998 98.5961C86.8178 98.8256 86.395 99.0616 86.0064 99.2501C85.2292 99.6271 84.452 100.004 83.7025 100.293C82.9596 100.622 82.1969 100.829 81.5225 101.063C81.1616 101.163 80.8415 101.257 80.4806 101.357C80.1605 101.45 79.8404 101.543 79.5138 101.596C78.2203 101.888 77.1112 102.024 76.2063 102.127C75.7505 102.158 75.3356 102.183 74.9615 102.201C74.5875 102.219 74.2885 102.183 74.0435 102.222C73.5403 102.219 73.2887 102.217 73.2887 102.217C73.2887 102.217 73.5272 102.137 73.9974 101.935C74.2358 101.855 74.5085 101.727 74.822 101.593C75.1355 101.458 75.5241 101.27 75.9193 101.122C76.7439 100.78 77.712 100.288 78.7961 99.7353C79.3349 99.4387 79.9145 99.1354 80.4875 98.7912C81.0539 98.4059 81.6678 98.0552 82.2685 97.6224C84.7252 95.9668 87.3005 93.7457 89.6204 90.9771C89.901 90.6378 90.1816 90.2984 90.4556 89.9181C90.7297 89.5379 91.0103 89.1985 91.2843 88.8182C91.5583 88.4379 91.8323 88.0577 92.0655 87.6839C92.2987 87.3102 92.5727 86.9299 92.7993 86.5152C93.7532 84.8907 94.6122 83.1974 95.2539 81.455C95.9364 79.7059 96.4766 77.8536 96.8536 76.0276C96.9445 75.5506 97.0421 75.1146 97.0922 74.6441C97.1423 74.1737 97.2398 73.7376 97.2899 73.2672C97.3967 72.3673 97.4561 71.4329 97.5221 70.5396C97.5314 70.0757 97.5472 69.6528 97.5565 69.1889C97.5315 68.7725 97.5474 68.3496 97.5224 67.9332C97.4975 67.5169 97.4593 67.0186 97.4278 66.5612L97.416 66.2268L97.4094 66.1859C97.4094 66.1859 97.4225 66.2678 97.416 66.2268L97.4028 66.1449L97.3765 65.981C97.3436 65.7761 97.3515 65.5646 97.3186 65.3597C97.2528 64.9499 97.2278 64.5336 97.162 64.1238C97.0962 63.714 97.037 63.3451 96.9712 62.9353C96.9383 62.7304 96.9054 62.5255 96.8791 62.3616C96.8462 62.1567 96.779 61.9994 96.7461 61.7945C96.646 61.4322 96.5868 61.0634 96.4867 60.7011C96.3275 59.97 96.0931 59.2931 95.947 58.6439C95.7192 58.0079 95.5322 57.3654 95.3584 56.8048C95.1372 56.2097 94.9292 55.6967 94.7211 55.1836C94.5539 54.664 94.3182 54.2394 94.1299 53.8493C93.7875 53.0215 93.4307 52.3642 93.2358 51.9331C93.0146 51.3381 92.8934 51.1053 92.8934 51.1053Z" fill="#F5D11D"/>
<path d="M51.2194 62.3373C56.3592 61.2177 57.65 71.6036 52.9501 73.115C48.2503 74.6263 47.7407 63.1061 51.2194 62.3373Z" fill="black"/>
<path d="M84.0084 57.0719C89.1481 55.9523 90.4389 66.3383 85.7391 67.8496C81.0392 69.361 80.5296 57.8407 84.0084 57.0719Z" fill="black"/>
<path d="M55.2001 82.1701C62.155 90.0071 78.5691 93.8869 87.4052 79.2686" stroke="black" stroke-width="2" stroke-miterlimit="10" stroke-linecap="round"/>
<rect x="158" y="70" width="121" height="120" rx="13" fill="white"/>
<path d="M255.74 147.45C264.148 127.077 254.508 103.719 234.208 95.2804C213.908 86.8413 190.634 96.5159 182.226 116.889C173.817 137.263 183.457 160.62 203.757 169.059C224.057 177.498 247.331 167.823 255.74 147.45Z" fill="#FF8C00"/>
<path d="M218.986 93.4932C240.284 93.4932 257.53 110.801 257.53 132.176C257.53 153.551 240.284 170.858 218.986 170.858C197.687 170.858 180.442 153.551 180.442 132.176C180.442 110.801 197.687 93.4932 218.986 93.4932ZM218.986 91.003C196.364 91.003 177.96 109.473 177.96 132.176C177.96 154.879 196.364 173.348 218.986 173.348C241.607 173.348 260.011 154.879 260.011 132.176C260.011 109.473 241.607 91.003 218.986 91.003Z" fill="#DB5400"/>
<path d="M192.228 147.615C192.228 147.615 192.063 147.408 191.732 147.034C191.442 146.619 190.946 146.121 190.45 145.291C190.202 144.917 189.912 144.461 189.623 143.963C189.333 143.465 189.044 142.925 188.754 142.344C188.465 141.763 188.217 141.099 187.927 140.435C187.679 139.729 187.431 139.024 187.183 138.235C187.059 137.861 186.976 137.446 186.852 137.031C186.811 136.824 186.728 136.616 186.687 136.409C186.645 136.201 186.604 135.994 186.562 135.745C186.48 135.33 186.397 134.873 186.314 134.417C186.232 133.96 186.19 133.503 186.149 133.047C186.108 132.798 186.108 132.59 186.066 132.341V132.175V132.092V132.051C186.066 132.092 186.066 131.968 186.066 131.968V131.926V131.594C186.066 131.138 186.025 130.681 186.025 130.183C186.025 129.685 186.025 129.145 186.066 128.606C186.108 128.108 186.149 127.568 186.19 127.07C186.273 126.033 186.438 124.995 186.687 123.916C186.893 122.878 187.183 121.799 187.514 120.761C188.175 118.686 189.085 116.611 190.202 114.702C191.318 112.792 192.642 110.966 194.131 109.348C194.875 108.518 195.661 107.77 196.447 107.065C197.232 106.359 198.059 105.695 198.928 105.114C200.624 103.91 202.36 102.956 204.097 102.167C204.552 102.001 204.966 101.794 205.38 101.628C205.793 101.462 206.248 101.296 206.662 101.171C207.489 100.922 208.316 100.673 209.102 100.507C209.887 100.3 210.673 100.217 211.376 100.092C211.748 100.051 212.079 100.009 212.451 99.9675C212.782 99.926 213.113 99.8845 213.444 99.8845C214.767 99.8015 215.884 99.843 216.794 99.8845C217.249 99.926 217.662 99.9675 218.034 100.009C218.407 100.051 218.696 100.134 218.944 100.134C219.441 100.217 219.689 100.258 219.689 100.258C219.689 100.258 219.441 100.3 218.944 100.424C218.696 100.466 218.407 100.549 218.076 100.632C217.745 100.715 217.331 100.839 216.918 100.922C216.049 101.13 215.015 101.462 213.858 101.835C213.279 102.043 212.658 102.25 212.038 102.499C211.417 102.79 210.756 103.039 210.094 103.371C207.406 104.616 204.511 106.401 201.782 108.767C201.451 109.057 201.12 109.348 200.789 109.68C200.458 110.012 200.127 110.302 199.796 110.634C199.466 110.966 199.135 111.298 198.845 111.63C198.556 111.962 198.225 112.294 197.935 112.668C196.736 114.121 195.619 115.656 194.71 117.275C193.758 118.894 192.931 120.637 192.27 122.38C192.104 122.837 191.939 123.252 191.815 123.708C191.691 124.165 191.525 124.58 191.401 125.036C191.153 125.908 190.946 126.821 190.739 127.693C190.657 128.149 190.574 128.564 190.491 129.021C190.45 129.436 190.367 129.851 190.326 130.266C190.285 130.681 190.243 131.179 190.202 131.636L190.16 131.968V132.009C190.16 132.009 190.16 131.926 190.16 131.968V132.051V132.217C190.16 132.424 190.119 132.632 190.119 132.839C190.119 133.254 190.078 133.669 190.078 134.084C190.078 134.5 190.078 134.873 190.078 135.288C190.078 135.496 190.078 135.703 190.078 135.869C190.078 136.077 190.119 136.243 190.119 136.45C190.16 136.824 190.16 137.197 190.202 137.571C190.243 138.318 190.367 139.024 190.409 139.688C190.533 140.352 190.615 141.016 190.698 141.597C190.822 142.219 190.946 142.759 191.07 143.299C191.153 143.838 191.318 144.295 191.442 144.71C191.649 145.581 191.897 146.287 192.021 146.743C192.146 147.366 192.228 147.615 192.228 147.615Z" fill="#FFAD47"/>
<path d="M245.743 116.736C245.743 116.736 245.909 116.943 246.239 117.317C246.529 117.732 247.025 118.23 247.521 119.06C247.77 119.434 248.059 119.89 248.349 120.388C248.638 120.886 248.928 121.426 249.217 122.007C249.506 122.588 249.755 123.252 250.044 123.916C250.292 124.622 250.54 125.327 250.789 126.116C250.913 126.49 250.995 126.905 251.119 127.32C251.161 127.527 251.243 127.735 251.285 127.942C251.326 128.15 251.368 128.357 251.409 128.606C251.492 129.021 251.574 129.478 251.657 129.934C251.74 130.391 251.781 130.848 251.822 131.304C251.864 131.553 251.864 131.761 251.905 132.01V132.176V132.259V132.3C251.905 132.259 251.905 132.383 251.905 132.383V132.425V132.757C251.905 133.213 251.946 133.67 251.946 134.168C251.946 134.666 251.947 135.206 251.905 135.745C251.864 136.243 251.822 136.783 251.781 137.281C251.698 138.318 251.533 139.356 251.285 140.435C251.078 141.473 250.789 142.552 250.458 143.59C249.796 145.665 248.886 147.74 247.77 149.649C246.653 151.558 245.33 153.385 243.841 155.003C243.096 155.833 242.311 156.581 241.525 157.286C240.739 157.992 239.912 158.656 239.043 159.237C237.348 160.44 235.611 161.395 233.874 162.184C233.419 162.35 233.005 162.557 232.592 162.723C232.178 162.889 231.723 163.055 231.31 163.18C230.483 163.429 229.656 163.678 228.87 163.844C228.084 164.051 227.298 164.134 226.595 164.259C226.223 164.3 225.892 164.342 225.52 164.383C225.189 164.425 224.858 164.466 224.527 164.466C223.204 164.549 222.087 164.508 221.178 164.466C220.723 164.425 220.309 164.383 219.937 164.342C219.565 164.3 219.275 164.217 219.027 164.217C218.531 164.134 218.283 164.093 218.283 164.093C218.283 164.093 218.531 164.051 219.027 163.927C219.275 163.885 219.565 163.802 219.895 163.719C220.226 163.636 220.64 163.512 221.053 163.429C221.922 163.221 222.956 162.889 224.114 162.516C224.693 162.308 225.313 162.101 225.933 161.852C226.554 161.561 227.216 161.312 227.877 160.98C230.565 159.735 233.46 157.95 236.19 155.584C236.521 155.294 236.852 155.003 237.182 154.671C237.513 154.339 237.844 154.049 238.175 153.717C238.506 153.385 238.837 153.053 239.126 152.721C239.416 152.389 239.746 152.056 240.036 151.683C241.235 150.23 242.352 148.695 243.262 147.076C244.213 145.457 245.04 143.714 245.702 141.971C245.867 141.514 246.033 141.099 246.157 140.643C246.281 140.186 246.446 139.771 246.57 139.315C246.818 138.443 247.025 137.53 247.232 136.658C247.315 136.202 247.397 135.787 247.48 135.33C247.521 134.915 247.604 134.5 247.645 134.085C247.687 133.67 247.728 133.172 247.77 132.715L247.811 132.383V132.342C247.811 132.342 247.811 132.425 247.811 132.383V132.3V132.134C247.811 131.927 247.852 131.719 247.852 131.512C247.852 131.097 247.894 130.682 247.894 130.266C247.894 129.851 247.894 129.478 247.894 129.063C247.894 128.855 247.894 128.648 247.894 128.482C247.894 128.274 247.852 128.108 247.852 127.901C247.811 127.527 247.811 127.154 247.77 126.78C247.728 126.033 247.604 125.327 247.563 124.663C247.439 123.999 247.356 123.335 247.273 122.754C247.149 122.132 247.025 121.592 246.901 121.052C246.818 120.513 246.653 120.056 246.529 119.641C246.322 118.77 246.074 118.064 245.95 117.607C245.784 116.985 245.743 116.736 245.743 116.736Z" fill="#DB5400"/>
<path d="M225.355 126.364C230.607 132.382 237.844 133.13 241.318 125.617" stroke="black" stroke-width="2" stroke-miterlimit="10" stroke-linecap="round"/>
<path d="M212.617 126.364C207.365 132.382 200.127 133.13 196.653 125.617" stroke="black" stroke-width="2" stroke-miterlimit="10" stroke-linecap="round"/>
<path d="M198.142 113.789C202.154 110.8 207.861 110.8 210.632 113.29" stroke="black" stroke-width="2" stroke-miterlimit="10" stroke-linecap="round"/>
<path d="M238.299 113.789C234.287 110.8 228.58 110.8 225.809 113.29" stroke="black" stroke-width="2" stroke-miterlimit="10" stroke-linecap="round"/>
<path d="M204.263 149.815C209.019 157.078 225.479 160.564 233.708 149.068" stroke="black" stroke-width="2" stroke-miterlimit="10" stroke-linecap="round"/>
<rect x="96.0913" y="181" width="98.9967" height="98.1785" rx="13" transform="rotate(14.2045 96.0913 181)" fill="white"/>
<path d="M162.716 251.54C168.838 234.571 160.097 215.859 143.192 209.746C126.286 203.633 107.618 212.434 101.495 229.403C95.3727 246.373 104.114 265.085 121.02 271.198C137.925 277.311 156.593 268.51 162.716 251.54Z" fill="#59AFFF"/>
<path d="M139.873 209.788C156.766 214.064 166.969 231.253 162.678 248.207C158.387 265.16 141.234 275.425 124.341 271.149C107.449 266.873 97.2454 249.684 101.537 232.73C105.828 215.777 122.981 205.512 139.873 209.788ZM140.373 207.813C122.431 203.271 104.126 214.226 99.5685 232.232C95.0106 250.239 105.899 268.583 123.841 273.124C141.784 277.666 160.088 266.712 164.646 248.705C169.204 230.698 158.316 212.354 140.373 207.813Z" fill="#3692E8"/>
<path d="M107.785 247.343C107.785 247.343 107.696 247.145 107.508 246.782C107.362 246.395 107.068 245.9 106.841 245.142C106.72 244.796 106.582 244.376 106.452 243.923C106.322 243.47 106.201 242.984 106.088 242.465C105.975 241.946 105.912 241.369 105.815 240.784C105.76 240.175 105.705 239.565 105.667 238.89C105.643 238.569 105.661 238.223 105.646 237.869C105.655 237.696 105.631 237.515 105.64 237.342C105.649 237.169 105.657 236.996 105.675 236.79C105.692 236.445 105.718 236.066 105.744 235.687C105.77 235.308 105.829 234.938 105.888 234.568C105.905 234.362 105.947 234.197 105.964 233.991L105.998 233.86L106.014 233.794L106.023 233.761C106.014 233.794 106.039 233.695 106.039 233.695L106.048 233.662L106.114 233.399C106.206 233.037 106.265 232.666 106.365 232.271C106.465 231.876 106.573 231.448 106.714 231.029C106.847 230.642 106.988 230.222 107.121 229.836C107.395 229.029 107.734 228.239 108.148 227.433C108.52 226.652 108.966 225.854 109.437 225.098C110.379 223.584 111.517 222.121 112.786 220.831C114.055 219.541 115.471 218.358 116.977 217.373C117.734 216.864 118.507 216.429 119.272 216.028C120.037 215.626 120.826 215.265 121.632 214.979C123.218 214.364 124.787 213.956 126.323 213.679C126.717 213.639 127.087 213.557 127.449 213.509C127.81 213.46 128.204 213.42 128.557 213.404C129.263 213.372 129.969 213.341 130.626 213.367C131.29 213.36 131.93 213.452 132.513 213.494C132.817 213.536 133.087 213.57 133.391 213.612C133.662 213.645 133.932 213.679 134.195 213.745C135.261 213.945 136.138 214.202 136.852 214.418C137.204 214.542 137.524 214.658 137.811 214.765C138.098 214.873 138.31 214.997 138.507 215.047C138.884 215.212 139.073 215.295 139.073 215.295C139.073 215.295 138.868 215.278 138.449 215.277C138.244 215.26 137.998 215.268 137.718 215.267C137.439 215.267 137.086 215.283 136.742 215.265C136.011 215.256 135.125 215.311 134.131 215.375C133.63 215.424 133.097 215.464 132.555 215.537C132.004 215.642 131.429 215.707 130.838 215.838C128.456 216.286 125.801 217.12 123.162 218.448C122.841 218.612 122.52 218.776 122.191 218.973C121.862 219.17 121.541 219.334 121.212 219.531C120.883 219.728 120.554 219.925 120.258 220.13C119.962 220.335 119.632 220.532 119.328 220.771C118.085 221.682 116.891 222.676 115.844 223.777C114.765 224.87 113.759 226.086 112.884 227.336C112.661 227.665 112.447 227.961 112.257 228.298C112.067 228.635 111.852 228.931 111.662 229.269C111.29 229.91 110.943 230.593 110.604 231.243C110.447 231.588 110.298 231.901 110.141 232.246C110.024 232.567 109.876 232.88 109.759 233.201C109.643 233.521 109.51 233.908 109.386 234.262L109.287 234.517L109.278 234.55C109.278 234.55 109.295 234.484 109.287 234.517L109.27 234.583L109.237 234.715C109.195 234.879 109.12 235.035 109.079 235.2C108.995 235.529 108.879 235.85 108.796 236.179C108.713 236.509 108.638 236.805 108.554 237.134C108.513 237.299 108.471 237.463 108.438 237.595C108.396 237.759 108.396 237.899 108.354 238.064C108.312 238.369 108.237 238.665 108.194 238.969C108.077 239.57 108.034 240.155 107.934 240.69C107.899 241.241 107.831 241.785 107.78 242.262C107.753 242.781 107.743 243.234 107.733 243.687C107.691 244.131 107.73 244.527 107.745 244.881C107.734 245.613 107.789 246.223 107.796 246.61C107.802 247.137 107.785 247.343 107.785 247.343Z" fill="#8AC7FF"/>
<path d="M156.429 233.595C156.429 233.595 156.519 233.792 156.706 234.155C156.853 234.542 157.146 235.037 157.373 235.795C157.495 236.141 157.633 236.562 157.763 237.015C157.892 237.468 158.013 237.954 158.126 238.473C158.239 238.992 158.303 239.568 158.399 240.153C158.454 240.763 158.509 241.372 158.548 242.047C158.571 242.369 158.554 242.714 158.569 243.068C158.56 243.241 158.584 243.423 158.575 243.595C158.566 243.768 158.557 243.941 158.54 244.147C158.522 244.493 158.496 244.872 158.47 245.25C158.444 245.629 158.385 245.999 158.326 246.37C158.309 246.576 158.268 246.74 158.25 246.946L158.217 247.078L158.2 247.144L158.192 247.176C158.2 247.144 158.175 247.242 158.175 247.242L158.167 247.275L158.1 247.539C158.009 247.901 157.95 248.271 157.85 248.666C157.75 249.061 157.642 249.489 157.5 249.909C157.368 250.295 157.227 250.715 157.094 251.102C156.82 251.908 156.48 252.698 156.067 253.504C155.695 254.286 155.248 255.083 154.778 255.84C153.836 257.353 152.698 258.816 151.429 260.106C150.16 261.397 148.744 262.579 147.238 263.564C146.481 264.073 145.708 264.508 144.943 264.91C144.178 265.312 143.389 265.672 142.583 265.959C140.997 266.573 139.427 266.982 137.891 267.258C137.497 267.299 137.127 267.38 136.766 267.429C136.405 267.477 136.011 267.518 135.658 267.534C134.952 267.565 134.246 267.596 133.589 267.57C132.924 267.577 132.284 267.485 131.702 267.443C131.398 267.401 131.127 267.368 130.824 267.326C130.553 267.292 130.282 267.259 130.02 267.192C128.954 266.993 128.076 266.735 127.363 266.52C127.011 266.396 126.691 266.28 126.404 266.172C126.117 266.064 125.904 265.94 125.707 265.891C125.33 265.725 125.142 265.642 125.142 265.642C125.142 265.642 125.347 265.659 125.766 265.66C125.971 265.677 126.217 265.669 126.496 265.67C126.775 265.671 127.128 265.655 127.473 265.672C128.203 265.682 129.09 265.626 130.084 265.562C130.584 265.514 131.118 265.474 131.66 265.401C132.21 265.295 132.785 265.23 133.377 265.1C135.759 264.652 138.413 263.817 141.053 262.489C141.374 262.325 141.694 262.161 142.024 261.964C142.353 261.767 142.673 261.603 143.002 261.406C143.332 261.209 143.661 261.012 143.957 260.807C144.253 260.602 144.582 260.405 144.887 260.167C146.13 259.255 147.324 258.262 148.37 257.16C149.45 256.068 150.456 254.851 151.33 253.601C151.553 253.272 151.768 252.976 151.958 252.639C152.148 252.302 152.362 252.006 152.552 251.669C152.924 251.027 153.272 250.345 153.611 249.695C153.768 249.349 153.917 249.037 154.074 248.691C154.19 248.37 154.339 248.058 154.455 247.737C154.571 247.416 154.704 247.029 154.829 246.675L154.928 246.42L154.936 246.387C154.936 246.387 154.92 246.453 154.928 246.42L154.945 246.354L154.978 246.223C155.02 246.058 155.094 245.902 155.136 245.737C155.219 245.408 155.335 245.087 155.419 244.758C155.502 244.429 155.577 244.133 155.66 243.803C155.702 243.639 155.744 243.474 155.777 243.343C155.819 243.178 155.819 243.038 155.861 242.873C155.903 242.569 155.978 242.273 156.02 241.968C156.137 241.367 156.181 240.783 156.281 240.248C156.316 239.696 156.384 239.153 156.435 238.675C156.461 238.156 156.471 237.704 156.481 237.251C156.524 236.806 156.484 236.411 156.469 236.057C156.48 235.324 156.425 234.715 156.418 234.328C156.445 233.809 156.429 233.595 156.429 233.595Z" fill="#3692E8"/>
<path d="M120.375 230.423C124.599 231.247 122.204 239.468 118.184 239.081C114.163 238.693 117.521 229.84 120.375 230.423Z" fill="black"/>
<path d="M146.714 237.09C150.938 237.914 148.543 246.135 144.523 245.748C140.502 245.36 143.86 236.507 146.714 237.09Z" fill="black"/>
<path d="M129.588 249.183C129.588 249.183 137.146 251.726 137.442 258.141" stroke="black" stroke-width="2" stroke-miterlimit="10" stroke-linecap="round"/>
</svg>
