<svg width="121" height="120" viewBox="0 0 121 120" fill="none" xmlns="http://www.w3.org/2000/svg">
<rect x="24.0913" width="98.9967" height="98.1785" rx="13" transform="rotate(14.2045 24.0913 0)" fill="white"/>
<path d="M90.7158 70.5404C96.8385 53.5709 88.0971 34.8588 71.1916 28.7458C54.286 22.6328 35.6179 31.4337 29.4953 48.4032C23.3727 65.3727 32.114 84.0847 49.0196 90.1978C65.9252 96.3108 84.5932 87.5099 90.7158 70.5404Z" fill="#59AFFF"/>
<path d="M67.8733 28.7881C84.7659 33.064 94.9694 50.2535 90.6781 67.2068C86.3868 84.1602 69.2341 94.4252 52.3414 90.1493C35.4488 85.8735 25.2454 68.6839 29.5366 51.7306C33.8279 34.7772 50.9807 24.5122 67.8733 28.7881ZM68.3733 26.8129C50.431 22.2714 32.1265 33.2257 27.5686 51.2324C23.0107 69.2392 33.8992 87.5829 51.8415 92.1245C69.7837 96.6661 88.0883 85.7118 92.6462 67.705C97.2041 49.6982 86.3155 31.3545 68.3733 26.8129Z" fill="#3692E8"/>
<path d="M35.7853 66.3428C35.7853 66.3428 35.6957 66.145 35.5083 65.7823C35.362 65.395 35.0684 64.9003 34.8414 64.1423C34.7196 63.7962 34.5817 63.376 34.4521 62.9229C34.3224 62.4697 34.2012 61.9836 34.0882 61.4647C33.9753 60.9457 33.9118 60.3691 33.8155 59.7843C33.7603 59.1749 33.7052 58.5654 33.6667 57.8902C33.6433 57.569 33.661 57.2232 33.6459 56.8691C33.6548 56.6962 33.6308 56.515 33.6397 56.3421C33.6486 56.1692 33.6574 55.9963 33.6746 55.7905C33.6923 55.4447 33.7184 55.066 33.7445 54.6872C33.7705 54.3085 33.8294 53.9381 33.8882 53.5677C33.9054 53.3619 33.9471 53.1973 33.9643 52.9915L33.9976 52.8598L34.0143 52.7939L34.0226 52.761C34.0143 52.794 34.0393 52.6952 34.0393 52.6952L34.0476 52.6623L34.1143 52.3989C34.2059 52.0368 34.2648 51.6664 34.3648 51.2714C34.4648 50.8763 34.5731 50.4484 34.7142 50.0288C34.847 49.642 34.9881 49.2224 35.1209 48.8356C35.3948 48.0293 35.7343 47.2395 36.1478 46.4334C36.5201 45.652 36.9664 44.8542 37.4371 44.0976C38.3785 42.5845 39.5168 41.1212 40.7857 39.8311C42.0547 38.541 43.4709 37.3582 44.9767 36.3733C45.7338 35.8644 46.507 35.4296 47.2719 35.0277C48.0368 34.6258 48.8261 34.2652 49.6316 33.9787C51.2181 33.3644 52.7874 32.956 54.3234 32.6792C54.7175 32.6389 55.0872 32.5573 55.4485 32.5087C55.8099 32.46 56.204 32.4197 56.557 32.4039C57.263 32.3725 57.9691 32.341 58.6256 32.3671C59.2905 32.3603 59.9304 32.4522 60.513 32.4946C60.8166 32.5364 61.0873 32.5699 61.3908 32.6117C61.6616 32.6452 61.9323 32.6787 62.1947 32.7451C63.261 32.9449 64.1383 33.202 64.8516 33.4176C65.2041 33.5419 65.5238 33.6578 65.8107 33.7655C66.0976 33.8731 66.3105 33.9971 66.5073 34.0469C66.8843 34.2123 67.0727 34.2951 67.0727 34.2951C67.0727 34.2951 66.8676 34.2782 66.449 34.2773C66.2438 34.2604 65.9976 34.2681 65.7185 34.2675C65.4394 34.267 65.0864 34.2827 64.7417 34.2655C64.0112 34.2557 63.1245 34.3115 62.1311 34.3753C61.6302 34.4237 61.0966 34.4637 60.5545 34.5367C60.0042 34.6426 59.4294 34.7073 58.8379 34.8378C56.4558 35.2857 53.8015 36.12 51.1616 37.4484C50.8409 37.6125 50.5202 37.7764 50.1911 37.9734C49.862 38.1703 49.5413 38.3343 49.2122 38.5313C48.8831 38.7282 48.5541 38.9251 48.2578 39.1304C47.9615 39.3356 47.6325 39.5325 47.3279 39.7707C46.085 40.6821 44.891 41.6759 43.8444 42.7771C42.765 43.87 41.7591 45.0865 40.8843 46.3363C40.6614 46.6652 40.4469 46.9612 40.2568 47.2984C40.0667 47.6356 39.8522 47.9315 39.6622 48.2687C39.2904 48.9102 38.943 49.5929 38.6041 50.2427C38.4468 50.5882 38.2979 50.9008 38.1406 51.2463C38.0245 51.5672 37.8756 51.8798 37.7594 52.2007C37.6433 52.5216 37.5105 52.9083 37.386 53.2621L37.2866 53.5172L37.2783 53.5501C37.2783 53.5501 37.2949 53.4842 37.2866 53.5172L37.2699 53.583L37.2366 53.7147C37.1949 53.8793 37.1205 54.0356 37.0788 54.2002C36.9955 54.5294 36.8793 54.8503 36.796 55.1794C36.7127 55.5086 36.6377 55.8049 36.5544 56.1341C36.5127 56.2987 36.4711 56.4633 36.4377 56.595C36.3961 56.7596 36.3955 56.8995 36.3539 57.0641C36.3117 57.3687 36.2367 57.665 36.1945 57.9695C36.0773 58.5704 36.0341 59.1549 35.9335 59.6899C35.8986 60.2416 35.8309 60.7849 35.7798 61.2623C35.7533 61.781 35.7433 62.2339 35.7334 62.6867C35.6907 63.1313 35.7302 63.5266 35.7453 63.8807C35.7343 64.6135 35.7895 65.223 35.7962 65.61C35.8025 66.137 35.7853 66.3428 35.7853 66.3428Z" fill="#8AC7FF"/>
<path d="M84.4294 52.5948C84.4294 52.5948 84.519 52.7926 84.7064 53.1553C84.8527 53.5426 85.1463 54.0373 85.3732 54.7953C85.4951 55.1414 85.633 55.5616 85.7626 56.0148C85.8922 56.4679 86.0135 56.954 86.1265 57.4729C86.2394 57.9919 86.3029 58.5685 86.3992 59.1533C86.4544 59.7627 86.5095 60.3722 86.548 61.0475C86.5714 61.3686 86.5537 61.7144 86.5688 62.0685C86.5599 62.2414 86.5839 62.4226 86.575 62.5955C86.5661 62.7684 86.5573 62.9413 86.5401 63.1471C86.5223 63.4929 86.4963 63.8717 86.4702 64.2504C86.4442 64.6291 86.3853 64.9995 86.3265 65.3699C86.3093 65.5757 86.2676 65.7403 86.2504 65.9461L86.2171 66.0778L86.2004 66.1437L86.1921 66.1766C86.2004 66.1436 86.1754 66.2424 86.1754 66.2424L86.1671 66.2753L86.1004 66.5387C86.0088 66.9008 85.9499 67.2712 85.8499 67.6662C85.7499 68.0613 85.6416 68.4892 85.5005 68.9089C85.3677 69.2956 85.2266 69.7152 85.0938 70.102C84.8199 70.9083 84.4803 71.6981 84.0669 72.5042C83.6946 73.2857 83.2483 74.0834 82.7776 74.84C81.8361 76.3531 80.6979 77.8164 79.429 79.1065C78.16 80.3966 76.7438 81.5794 75.2379 82.5643C74.4809 83.0732 73.7077 83.508 72.9428 83.9099C72.1779 84.3118 71.3886 84.6724 70.5831 84.9589C68.9966 85.5732 67.4273 85.9816 65.8913 86.2584C65.4972 86.2987 65.1275 86.3803 64.7662 86.4289C64.4048 86.4776 64.0107 86.5179 63.6577 86.5337C62.9516 86.5651 62.2456 86.5966 61.5891 86.5705C60.9242 86.5773 60.2843 86.4854 59.7017 86.443C59.3981 86.4012 59.1274 86.3677 58.8238 86.3259C58.5531 86.2924 58.2824 86.2589 58.02 86.1925C56.9537 85.9927 56.0764 85.7356 55.3631 85.52C55.0106 85.3957 54.6909 85.2798 54.404 85.1721C54.1171 85.0645 53.9042 84.9405 53.7074 84.8907C53.3304 84.7253 53.142 84.6425 53.142 84.6425C53.142 84.6425 53.3471 84.6594 53.7657 84.6603C53.9709 84.6772 54.2171 84.6695 54.4962 84.6701C54.7753 84.6706 55.1283 84.6549 55.473 84.6721C56.2035 84.6819 57.0901 84.6261 58.0836 84.5623C58.5844 84.5139 59.1181 84.4739 59.6601 84.4009C60.2105 84.295 60.7853 84.2303 61.3768 84.0998C63.7588 83.6519 66.4132 82.8176 69.0531 81.4892C69.3738 81.3252 69.6945 81.1612 70.0236 80.9642C70.3527 80.7673 70.6734 80.6033 71.0025 80.4063C71.3316 80.2094 71.6606 80.0125 71.9569 79.8072C72.2532 79.602 72.5822 79.4051 72.8868 79.1669C74.1297 78.2555 75.3236 77.2617 76.3702 76.1605C77.4496 75.0676 78.4556 73.8511 79.3304 72.6013C79.5533 72.2724 79.7678 71.9764 79.9579 71.6392C80.1479 71.302 80.3625 71.0061 80.5525 70.6689C80.9243 70.0274 81.2716 69.3447 81.6106 68.6949C81.7679 68.3494 81.9168 68.0368 82.0741 67.6913C82.1902 67.3704 82.3391 67.0578 82.4553 66.7369C82.5714 66.416 82.7042 66.0293 82.8286 65.6755L82.9281 65.4204L82.9364 65.3875C82.9364 65.3875 82.9198 65.4534 82.9281 65.4204L82.9448 65.3546L82.9781 65.2229C83.0198 65.0583 83.0942 64.902 83.1359 64.7374C83.2192 64.4083 83.3353 64.0874 83.4187 63.7582C83.502 63.429 83.577 63.1327 83.6603 62.8035C83.702 62.6389 83.7436 62.4743 83.777 62.3427C83.8186 62.1781 83.8192 62.0381 83.8608 61.8735C83.903 61.5689 83.978 61.2726 84.0202 60.9681C84.1374 60.3672 84.1806 59.7827 84.2812 59.2477C84.3161 58.6961 84.3838 58.1527 84.4348 57.6753C84.4614 57.1566 84.4713 56.7037 84.4813 56.2509C84.524 55.8063 84.4844 55.411 84.4694 55.0569C84.4803 54.3241 84.4252 53.7146 84.4184 53.3276C84.445 52.8089 84.4294 52.5948 84.4294 52.5948Z" fill="#3692E8"/>
<path d="M48.375 49.423C52.5991 50.247 50.2041 58.4679 46.1836 58.0808C42.163 57.6936 45.5208 48.8407 48.375 49.423Z" fill="black"/>
<path d="M74.7145 56.09C78.9386 56.914 76.5436 65.1349 72.523 64.7478C68.5025 64.3606 71.8603 55.5077 74.7145 56.09Z" fill="black"/>
<path d="M57.5875 68.1829C57.5875 68.1829 65.1458 70.7266 65.4417 77.1416" stroke="black" stroke-width="2" stroke-miterlimit="10" stroke-linecap="round"/>
</svg>
