<svg width="244" height="224" viewBox="0 0 244 224" fill="none" xmlns="http://www.w3.org/2000/svg">
<path d="M69.8999 178.579L59.0816 195.888L48.9547 188.564L48.0544 175.871L69.8999 178.579Z" fill="white" stroke="black"/>
<path d="M64.4507 175.701L64.6544 175.722L64.8139 175.593C77.6361 165.276 87.1175 162.22 89.3241 161.61L91.3564 170.302C91.3514 170.303 91.3464 170.305 91.3413 170.307C91.043 170.4 90.6097 170.542 90.0518 170.747C88.936 171.156 87.3234 171.814 85.2965 172.825C81.2427 174.846 75.5343 178.275 68.8326 183.94L68.7689 183.994L68.7261 184.065L60.7626 197.402C60.7621 197.403 60.7617 197.403 60.7613 197.404C60.3744 198.035 59.5299 198.241 58.9065 197.86C58.2742 197.474 58.0672 196.628 58.4486 196.004L58.4486 196.004L58.4518 195.999L66.322 182.754L66.5205 182.419L66.2457 182.145L66.0538 181.953L65.7967 181.696L65.4729 181.861L49.3965 190.067L49.3965 190.067L49.391 190.07C48.7407 190.412 47.9314 190.149 47.5709 189.464C47.229 188.814 47.4916 188.006 48.1749 187.645C48.1756 187.644 48.1764 187.644 48.1771 187.644L63.4328 179.824L63.9932 179.537L63.5864 179.056L63.0585 178.432L62.9279 178.278L62.7267 178.258L47.4183 176.722L47.4183 176.722L47.4136 176.721C46.6393 176.651 46.1162 175.989 46.1865 175.251L46.1867 175.249C46.257 174.475 46.9185 173.952 47.6558 174.022C47.6561 174.022 47.6565 174.022 47.6569 174.022L64.4507 175.701ZM91.7858 170.173C91.7905 170.171 91.7933 170.17 91.7935 170.17C91.7936 170.17 91.7919 170.171 91.788 170.172L91.7858 170.173Z" fill="white" stroke="black"/>
<path d="M233.954 127.896L240.758 140.733L216.799 147.961L220.069 124.983L233.954 127.896Z" fill="white" stroke="black"/>
<path d="M191.603 154.281C191.603 178.381 171.962 197.979 147.714 197.979C123.465 197.979 103.824 178.429 103.824 154.281C103.824 130.18 123.466 110.583 147.714 110.583C171.962 110.583 191.603 130.18 191.603 154.281Z" fill="white" stroke="black"/>
<path d="M74.6979 171.974C52.5621 168.738 34.1484 155.157 22.381 135.925L135.125 152.415C118.387 167.459 96.8337 175.21 74.6979 171.974Z" fill="white" stroke="black"/>
<path d="M171.597 103.532L171.597 103.532C168.316 126.07 156.553 145.244 140.085 158.362L15.9334 140.236C3.89817 122.945 -1.87159 101.213 1.40937 78.6739L1.4094 78.6738C8.23206 31.6785 51.9356 -0.861143 98.9318 6.00937L98.9323 6.00944C145.928 12.8321 178.467 56.5356 171.597 103.532Z" fill="white" stroke="black"/>
<path d="M98.0299 15.1363C97.014 22.109 90.5017 26.959 83.5282 25.943C76.5555 24.9271 71.7055 18.4148 72.7215 11.4413C73.7374 4.46861 80.2497 -0.381422 87.2232 0.634578C94.1959 1.65047 99.0459 8.16283 98.0299 15.1363Z" fill="white" stroke="black"/>
<path d="M122.505 18.7327L122.505 18.7355C121.489 25.7082 114.976 30.5582 108.003 29.5422C101.03 28.5263 96.1801 22.014 97.1961 15.0405C98.212 8.06779 104.724 3.21776 111.698 4.23376L111.698 4.23383C118.721 5.25025 123.567 11.7154 122.505 18.7327Z" fill="white" stroke="black"/>
<path d="M85.0647 23.8317L85.0637 23.8316C81.7358 23.3435 79.4322 20.2368 79.919 16.9615L79.9192 16.9606C80.4073 13.6326 83.514 11.329 86.7892 11.8158L86.7902 11.816C90.1197 12.3043 92.4221 15.3645 91.9348 18.687C91.4467 22.015 88.34 24.3186 85.0647 23.8317Z" fill="white" stroke="black"/>
<path d="M114.442 21.8053L114.442 21.8063C113.954 25.1343 110.847 27.4379 107.572 26.951L107.571 26.9509C104.243 26.4628 101.939 23.3561 102.426 20.0808L102.426 20.0798C102.914 16.7519 106.021 14.4482 109.296 14.9351L109.297 14.9353C112.625 15.4234 114.929 18.53 114.442 21.8053Z" fill="white" stroke="black"/>
<path d="M57.3354 32.5073L57.3353 32.5081C56.7516 36.5042 53.024 39.2439 49.0731 38.6602L49.0723 38.6601C45.0762 38.0764 42.3365 34.3489 42.9202 30.398L42.9203 30.3972C43.504 26.4011 47.2315 23.6614 51.1824 24.245L51.1833 24.2452C55.1794 24.8289 57.919 28.5564 57.3354 32.5073Z" fill="white" stroke="black"/>
<path d="M137.373 51.5693L137.372 51.5692C133.376 50.9855 130.636 47.258 131.22 43.307L131.22 43.3062C131.804 39.3101 135.531 36.5704 139.482 37.1541L139.483 37.1542C143.48 37.7381 146.219 41.419 145.635 45.4172C145.051 49.4133 141.324 52.153 137.373 51.5693Z" fill="white" stroke="black"/>
<path d="M74.1314 139.52L74.1311 139.522C73.884 141.169 72.3625 142.275 70.7665 142.029L70.7647 142.029C69.1169 141.782 68.0118 140.26 68.2574 138.664L68.2576 138.662C68.5048 137.015 70.0263 135.91 71.6222 136.155L71.6241 136.155C73.2718 136.402 74.3769 137.924 74.1314 139.52Z" fill="white" stroke="black"/>
<path d="M87.0351 144.429L87.0332 144.428C85.3855 144.181 84.2804 142.66 84.5259 141.064L84.5262 141.062C84.7733 139.414 86.2948 138.309 87.8908 138.555L87.8908 138.555L87.9032 138.556C89.492 138.76 90.6468 140.274 90.3997 141.921C90.1525 143.569 88.631 144.674 87.0351 144.429Z" fill="white" stroke="black"/>
<path d="M91.3592 65.7177C90.7264 69.9565 86.8045 72.8834 82.5699 72.2527C78.3297 71.6211 75.4015 67.6985 76.0324 63.463C76.6639 59.2229 80.5863 56.2948 84.8217 56.9254C89.0111 57.5563 91.9442 61.4774 91.3592 65.7177Z" fill="white" stroke="black"/>
<path d="M113.05 78.2901C112.658 80.9902 110.13 82.8666 107.426 82.4741C104.726 82.0821 102.85 79.5541 103.242 76.8501C103.634 74.15 106.162 72.2736 108.866 72.6661C111.566 73.0581 113.443 75.5862 113.05 78.2901Z" fill="white" stroke="black"/>
<path d="M108.876 97.9599L108.876 97.9614C108.532 100.194 106.476 101.722 104.313 101.383L104.311 101.382C102.079 101.039 100.551 98.9829 100.89 96.8192L100.89 96.8177C101.234 94.5853 103.29 93.0571 105.454 93.3966L105.455 93.3968C107.687 93.7402 109.216 95.7963 108.876 97.9599Z" fill="white" stroke="black"/>
<path d="M110.267 59.7664C109.875 62.4665 107.347 64.3428 104.643 63.9503C101.943 63.5584 100.067 61.0303 100.459 58.3264C100.851 55.6262 103.379 53.7499 106.083 54.1424C108.783 54.5344 110.66 57.0624 110.267 59.7664Z" fill="white" stroke="black"/>
<path d="M72.8838 77.7142C72.4918 80.4144 69.9638 82.2907 67.2598 81.8982C64.5597 81.5063 62.6834 78.9782 63.0759 76.2743C63.4678 73.5741 65.9959 71.6978 68.6998 72.0903C71.4 72.4823 73.2763 75.0103 72.8838 77.7142Z" fill="white" stroke="black"/>
<path d="M69.4774 94.5982L69.4772 94.5982L69.4755 94.6113C69.2735 96.1062 67.8518 97.17 66.3428 96.9661C64.8479 96.7641 63.784 95.3424 63.9879 93.8334C64.1899 92.3385 65.6116 91.2746 67.1206 91.4786L67.1224 91.4788C68.6701 91.6824 69.7196 93.1046 69.4774 94.5982Z" fill="white" stroke="black"/>
<path d="M87.0892 42.818L87.0891 42.818L87.0873 42.8311C86.8853 44.326 85.4636 45.3898 83.9546 45.1859C82.4597 44.9839 81.3958 43.5623 81.5998 42.0532C81.8018 40.5583 83.2234 39.4945 84.7325 39.6984L84.7342 39.6986C86.2819 39.9023 87.3314 41.3244 87.0892 42.818Z" fill="white" stroke="black"/>
<path d="M90.6869 110.304C90.4849 111.799 89.0632 112.862 87.5542 112.659C86.0593 112.456 84.9954 111.035 85.1994 109.526C85.4014 108.031 86.823 106.967 88.3321 107.171C89.827 107.373 90.8908 108.795 90.6869 110.304Z" fill="white" stroke="black"/>
<path d="M94.5746 88.0308C93.9427 92.3191 89.9716 95.2946 85.6884 94.6634C81.4001 94.0315 78.4245 90.0603 79.0557 85.7771C79.6869 81.4946 83.6538 78.5591 87.9446 79.1449C92.2315 79.778 95.2057 83.7484 94.5746 88.0308Z" fill="white" stroke="black"/>
<path d="M184.414 147.07C189.764 141.678 201.956 134.85 215.017 141.15L215.647 141.454L215.731 140.76L217.746 124.158C217.746 124.157 217.746 124.157 217.746 124.157C217.856 123.281 218.66 122.658 219.539 122.768C220.415 122.878 221.039 123.682 220.929 124.561L220.929 124.563L218.769 142.367L218.56 144.092L219.654 142.742L232.795 126.531C233.392 125.867 234.377 125.766 235.068 126.303C235.733 126.903 235.831 127.892 235.287 128.582C235.286 128.583 235.286 128.584 235.285 128.585L222.38 144.512L221.313 145.829L222.924 145.302L240.968 139.399L240.968 139.399L240.977 139.396C241.792 139.113 242.671 139.561 242.976 140.423C243.23 141.274 242.785 142.131 241.963 142.381L241.963 142.381L241.953 142.384L213.929 151.567C208.093 147.387 202.631 147.687 198.489 149.198C194.888 150.512 192.291 152.736 191.287 153.682L184.414 147.07Z" fill="white" stroke="black"/>
<path d="M210.806 205.949L215.761 181.447L234.423 195.205L225.273 206.039L210.806 205.949Z" fill="white" stroke="black"/>
<path d="M236.205 193.465L236.206 193.465C236.955 193.99 237.093 194.993 236.551 195.603L236.532 195.625L236.515 195.648C235.999 196.386 235.014 196.564 234.284 196.053C234.284 196.053 234.284 196.053 234.284 196.053L219.6 185.736L218.184 184.741L218.852 186.338L226.914 205.63L226.917 205.637L226.92 205.644C227.278 206.432 226.885 207.381 226.082 207.71L226.073 207.713L226.064 207.717C225.276 208.075 224.327 207.682 223.999 206.879L223.997 206.875L216.079 187.968L215.422 186.399L215.125 188.074L211.814 206.79L211.814 206.791C211.672 207.608 210.791 208.211 209.945 208.064C209.125 207.921 208.525 207.086 208.672 206.193C208.672 206.193 208.673 206.192 208.673 206.191L211.599 189.688L211.747 188.856L210.947 189.127C207.877 190.166 204.908 190.636 202.085 190.636C191.793 190.636 183.129 184.671 178.798 179.902L185.973 173.597C187.092 174.771 190.191 177.734 194.599 179.559C199.532 181.601 206.097 182.21 213.294 177.345L236.205 193.465Z" fill="white" stroke="black"/>
<path d="M102.697 199.408L97.449 220.49L84.8394 216.453L79.7334 203.892L102.697 199.408Z" fill="white" stroke="black"/>
<path d="M125.682 174.662L117.129 170.495C117.095 170.559 117.058 170.63 117.016 170.707C116.798 171.116 116.472 171.706 116.033 172.456C115.156 173.956 113.826 176.097 112 178.706C108.348 183.924 102.712 191.017 94.7428 198.601L94.642 198.697L94.5061 198.727L78.6725 202.229C78.6722 202.23 78.6718 202.23 78.6715 202.23C77.8829 202.409 77.3835 203.199 77.5616 203.983C77.741 204.772 78.5309 205.272 79.3147 205.093L79.3188 205.092L96.4509 201.349L96.7842 201.277L96.9736 201.56L97.0696 201.704L97.2962 202.044L97.0084 202.334L83.6194 215.819L83.6182 215.82C83.0456 216.393 83.0456 217.324 83.6182 217.897C84.1905 218.469 85.1212 218.469 85.6939 217.897C85.694 217.897 85.6942 217.897 85.6944 217.897L98.9861 204.509L99.3397 204.153L99.6945 204.508L100.03 204.844L100.225 205.038L100.165 205.307L96.6615 220.855L96.6613 220.856C96.4831 221.64 96.9829 222.43 97.7721 222.609C98.5555 222.787 99.3451 222.288 99.525 221.5L125.682 174.662ZM125.682 174.662C124.392 177.141 117.785 189.156 103.739 203.115L103.636 203.218L103.604 203.36L99.5252 221.499L125.682 174.662Z" fill="white" stroke="black"/>
<path d="M181.574 132.302C181.574 135.097 179.302 137.368 176.507 137.368C173.712 137.368 171.44 135.097 171.44 132.302C171.44 129.507 173.712 127.235 176.507 127.235C179.302 127.235 181.574 129.507 181.574 132.302Z" fill="white" stroke="black"/>
<path d="M181.834 139.568V139.568L181.848 139.568C183.281 139.528 184.453 140.68 184.453 142.187C184.453 143.639 183.286 144.807 181.834 144.807C180.383 144.807 179.215 143.639 179.215 142.187C179.215 140.736 180.383 139.568 181.834 139.568Z" fill="white" stroke="black"/>
<path d="M186.421 150.106C186.421 150.789 185.877 151.333 185.193 151.333C184.509 151.333 183.965 150.789 183.965 150.106C183.965 149.422 184.509 148.878 185.193 148.878C185.877 148.878 186.421 149.422 186.421 150.106Z" fill="white" stroke="black"/>
<path d="M173.848 142.283C173.848 143.639 172.728 144.759 171.372 144.759C170.017 144.759 168.897 143.639 168.897 142.283C168.897 140.928 170.017 139.808 171.372 139.808C172.728 139.808 173.848 140.928 173.848 142.283Z" fill="white" stroke="black"/>
<path d="M168.185 135.517C168.185 136.297 167.545 136.937 166.765 136.937C165.986 136.937 165.346 136.297 165.346 135.517C165.346 134.737 165.986 134.097 166.765 134.097C167.545 134.097 168.185 134.737 168.185 135.517Z" fill="white" stroke="black"/>
<path d="M178.311 150.538C178.311 151.077 177.863 151.525 177.323 151.525C176.783 151.525 176.335 151.077 176.335 150.538C176.335 149.998 176.783 149.55 177.323 149.55C177.863 149.55 178.311 149.998 178.311 150.538Z" fill="white" stroke="black"/>
<path d="M174.088 123.664C174.088 124.443 173.448 125.083 172.668 125.083C171.888 125.083 171.249 124.443 171.249 123.664C171.249 122.884 171.888 122.244 172.668 122.244C173.448 122.244 174.088 122.884 174.088 123.664Z" fill="white" stroke="black"/>
</svg>
