<svg width="26" height="26" viewBox="0 0 26 26" fill="none" xmlns="http://www.w3.org/2000/svg">
<path d="M25.8144 20.5955C25.8144 23.4741 23.4744 25.8141 20.5958 25.8141H5.40436C2.52579 25.8141 0.185791 23.4741 0.185791 20.5955V5.40412C0.185791 2.52555 2.52579 0.185547 5.40436 0.185547H20.5772C23.4744 0.185547 25.8144 2.52555 25.8144 5.40412V20.5955Z" fill="#C72100"/>
<path d="M20.5957 26H5.40429C2.43286 26 0 23.5671 0 20.5957V5.40429C0 2.43286 2.43286 0 5.40429 0H20.5771C23.5671 0 26 2.43286 26 5.40429V20.5771C26 23.5671 23.5671 26 20.5957 26ZM5.40429 0.371429C2.63714 0.371429 0.371429 2.63714 0.371429 5.40429V20.5771C0.371429 23.3629 2.63714 25.61 5.40429 25.61H20.5771C23.3629 25.61 25.61 23.3443 25.61 20.5771V5.40429C25.61 2.61857 23.3443 0.371429 20.5771 0.371429H5.40429Z" fill="#790C00"/>
<path opacity="0.9" d="M5.47866 0.798591C0.85437 1.41145 0.85437 6.46288 0.85437 6.46288V16.2686C0.85437 0.724305 19.1844 0.798591 19.1844 0.798591H5.47866Z" fill="url(#paint0_radial_1_1909)"/>
<g opacity="0.6">
<path d="M13.3343 9.23047C10.9757 9.23047 9.06286 11.069 8.93286 13.3905C8.93286 13.4648 8.93286 13.5576 8.93286 13.6319C8.93286 14.0962 9.00715 14.5605 9.13715 14.9876C9.71286 16.7519 11.3657 18.0333 13.3157 18.0333C15.7486 18.0333 17.7171 16.0648 17.7171 13.6319C17.7357 11.199 15.7671 9.23047 13.3343 9.23047ZM16.9743 14.9505C16.6957 15.229 16.3429 15.619 16.0086 16.009C15.6743 16.399 15.34 16.8076 15.0986 17.1233C15.0243 17.2162 14.9686 17.2905 14.9129 17.3648C14.5971 17.5133 14.2814 17.6062 13.9286 17.6805C14.04 17.569 14.1886 17.4205 14.3743 17.2162C14.56 17.0119 14.7829 16.789 15.0057 16.529C15.2286 16.269 15.47 15.9905 15.7114 15.7305C15.9529 15.4519 16.1943 15.1733 16.4171 14.9133C16.64 14.6533 16.8443 14.3933 17.0114 14.189C17.1229 14.059 17.2157 13.929 17.29 13.8362C17.2714 14.1705 17.2157 14.5048 17.1229 14.8205C17.0671 14.839 17.03 14.8948 16.9743 14.9505ZM11.9414 17.309C12.09 17.1419 12.3129 16.919 12.5543 16.6405C12.8143 16.3619 13.1114 16.0462 13.4086 15.6933C13.7243 15.3405 14.0586 14.969 14.3743 14.5976C14.7086 14.2262 15.0243 13.8362 15.3214 13.4833C15.6186 13.1305 15.8971 12.7962 16.1386 12.499C16.38 12.2205 16.5657 11.9605 16.7143 11.7933C16.7514 11.7562 16.77 11.719 16.7886 11.7005C16.8814 11.8676 16.9557 12.0533 17.03 12.239C17.0114 12.2576 17.0114 12.2762 16.9929 12.2762C16.8443 12.4248 16.64 12.629 16.4171 12.9076C16.1757 13.1676 15.8971 13.4648 15.6186 13.799C15.3214 14.1333 15.0243 14.4862 14.7086 14.839C14.4114 15.1919 14.0957 15.5448 13.8171 15.8976C13.5386 16.2319 13.2786 16.5662 13.0557 16.8262C12.8329 17.1048 12.6471 17.3276 12.5357 17.4948C12.48 17.569 12.4429 17.6062 12.4057 17.6433C12.1829 17.6062 11.96 17.5505 11.7557 17.4576C11.8114 17.439 11.8671 17.3833 11.9414 17.309ZM11.7557 17.4762C11.57 17.4019 11.4029 17.3276 11.2357 17.2533C11.2729 17.2162 11.3286 17.1605 11.4029 17.0862C11.5514 16.919 11.7929 16.6776 12.0529 16.3805C12.3129 16.0833 12.6286 15.749 12.9443 15.3776C13.26 15.0062 13.6129 14.6162 13.9471 14.2262C14.2814 13.8176 14.6157 13.4276 14.9314 13.0562C15.2471 12.6848 15.5257 12.3319 15.7857 12.0162C16.0271 11.719 16.2314 11.459 16.38 11.2733C16.4171 11.2362 16.4357 11.199 16.4729 11.1619C16.6029 11.329 16.7143 11.4962 16.8071 11.6819C16.77 11.719 16.7514 11.7376 16.7143 11.7748C16.5657 11.9419 16.3429 12.1648 16.1014 12.4433C15.8414 12.7219 15.5443 13.0376 15.2471 13.3905C14.9129 13.7433 14.5786 14.1148 14.2629 14.4862C13.9286 14.8576 13.6129 15.2476 13.3157 15.6005C13.0186 15.9533 12.74 16.2876 12.4986 16.5848C12.2571 16.8633 12.0714 17.1233 11.9229 17.2905C11.8486 17.3648 11.7929 17.439 11.7557 17.4762ZM12.5729 17.5319C12.7214 17.3833 12.9257 17.179 13.1486 16.9005C13.39 16.6405 13.6686 16.3433 13.9471 16.009C14.2443 15.6748 14.5414 15.3219 14.8571 14.969C15.1543 14.6162 15.47 14.2633 15.7486 13.9105C16.0271 13.5762 16.2871 13.2419 16.51 12.9819C16.7329 12.7033 16.9186 12.4805 17.03 12.3133C17.0486 12.2948 17.0486 12.2948 17.0486 12.2762C17.1229 12.4805 17.1786 12.7033 17.2157 12.9262C17.0857 13.0562 16.9 13.2419 16.6957 13.4833C16.4729 13.7248 16.2314 13.9848 15.9529 14.2819C15.6929 14.579 15.4143 14.8948 15.1357 15.2105C14.8571 15.5262 14.5786 15.8419 14.3371 16.1576C14.0771 16.4548 13.8543 16.7519 13.65 16.9933C13.4457 17.2348 13.2971 17.4576 13.1671 17.5876C13.1114 17.6433 13.0743 17.699 13.0557 17.7362C12.8514 17.7362 12.6286 17.699 12.4243 17.6619C12.4614 17.6248 12.5171 17.5876 12.5729 17.5319ZM16.4543 11.1433C16.4171 11.1805 16.3986 11.199 16.3614 11.2548C16.2129 11.4219 15.9714 11.6633 15.7114 11.9605C15.4514 12.2576 15.1357 12.5919 14.82 12.9633C14.5043 13.3348 14.1514 13.7248 13.8171 14.1148C13.4829 14.5233 13.1486 14.9133 12.8329 15.2848C12.5171 15.6562 12.2386 16.009 11.9786 16.3248C11.7371 16.6219 11.5329 16.8819 11.3843 17.0676C11.3286 17.1419 11.2729 17.2162 11.2357 17.2533C11.05 17.1419 10.8643 17.0305 10.6971 16.9005C10.7343 16.8819 10.7714 16.8448 10.8086 16.789C10.92 16.6776 11.0686 16.5476 11.2357 16.3619C11.4029 16.1762 11.6071 15.9719 11.83 15.749C12.0529 15.5262 12.2757 15.2848 12.4986 15.0433C12.7214 14.8019 12.9443 14.5419 13.1486 14.319C13.3529 14.0776 13.5386 13.8548 13.6871 13.669C13.8543 13.4833 13.9657 13.3162 14.0586 13.2048C14.1514 13.0933 14.2071 13.019 14.2071 13.019C14.2071 13.019 14.1514 13.0748 14.04 13.1676C14.0214 13.1862 14.0029 13.2048 13.9657 13.2419C14.1329 13.0376 14.3186 12.8333 14.4857 12.6476C14.8014 12.2762 15.0986 11.9048 15.34 11.6076C15.6 11.3105 15.7857 11.0505 15.9343 10.8648C15.99 10.7905 16.0271 10.7533 16.0643 10.6976C16.2129 10.8462 16.3429 10.9948 16.4543 11.1433ZM15.6371 10.3262C15.6 10.3633 15.5629 10.4005 15.5071 10.4562C15.3586 10.6233 15.1171 10.8648 14.8571 11.1619C14.5971 11.459 14.2814 11.7933 13.9471 12.1648C13.6129 12.5362 13.2786 12.9262 12.9257 13.3348C12.5914 13.7433 12.2386 14.1333 11.9229 14.5048C11.6071 14.8762 11.31 15.2476 11.05 15.5448C10.79 15.8419 10.5857 16.1019 10.4557 16.2876C10.3629 16.399 10.3071 16.4733 10.27 16.529C10.14 16.399 10.0286 16.269 9.93572 16.139C9.97286 16.1019 10.0471 16.0276 10.14 15.9348C10.2886 15.7676 10.5114 15.5262 10.7714 15.2476C11.0314 14.9505 11.3286 14.6348 11.6443 14.2633C11.96 13.9105 12.2943 13.5019 12.6286 13.1119C12.9629 12.7219 13.2971 12.3319 13.5943 11.9605C13.91 11.589 14.1886 11.2362 14.43 10.939C14.6714 10.6419 14.8757 10.3819 15.0057 10.2148C15.0614 10.1405 15.0986 10.0848 15.1357 10.0476C15.3029 10.1033 15.47 10.2148 15.6371 10.3262ZM12.3686 9.6019C12.35 9.62047 12.35 9.62047 12.3314 9.63904C12.22 9.75047 12.0714 9.88047 11.9043 10.0662C11.7371 10.2519 11.5329 10.4562 11.31 10.679C11.0871 10.9019 10.8643 11.1433 10.6414 11.3848C10.4186 11.6262 10.1957 11.8862 9.99143 12.109C9.78715 12.3505 9.60143 12.5733 9.43429 12.759C9.28572 12.9448 9.17429 13.0933 9.08143 13.2048C9.1 12.9633 9.15572 12.7219 9.21143 12.499C9.23 12.4805 9.23 12.4805 9.24858 12.4619C9.32286 12.3876 9.43429 12.2762 9.56429 12.1462C9.82429 11.8862 10.14 11.5333 10.4557 11.1805C10.7714 10.8276 11.0686 10.4562 11.2914 10.159C11.3843 10.0476 11.4586 9.93618 11.5143 9.8619C11.7929 9.75047 12.0714 9.65761 12.3686 9.6019ZM11.4029 9.91761C11.3471 9.97333 11.2914 10.029 11.2171 10.1033C10.9571 10.3633 10.6414 10.7162 10.3257 11.069C10.01 11.4219 9.71286 11.7933 9.49 12.0905C9.37858 12.2205 9.30429 12.3505 9.23 12.4248C9.58286 11.3105 10.3814 10.419 11.4029 9.91761ZM9.1 14.1333C9.13715 14.0962 9.17429 14.059 9.23 14.0033C9.34143 13.8733 9.52715 13.7062 9.73143 13.5019C9.93572 13.2976 10.1771 13.0376 10.4186 12.7776C10.66 12.5176 10.92 12.2205 11.18 11.9233C11.44 11.6262 11.7 11.329 11.9229 11.0505C12.1643 10.7719 12.3686 10.5119 12.5543 10.289C12.74 10.0662 12.8886 9.8619 13 9.7319C13.1114 9.6019 13.1671 9.52761 13.1671 9.52761C13.1671 9.52761 13.0929 9.6019 12.9814 9.71333C12.87 9.84333 12.6843 10.0105 12.48 10.2148C12.2757 10.4376 12.0343 10.679 11.7929 10.939C11.5514 11.199 11.2914 11.4962 11.0314 11.7933C10.7714 12.0905 10.5114 12.3876 10.2886 12.6662C10.0471 12.9448 9.84286 13.2048 9.65715 13.4276C9.47143 13.6505 9.32286 13.8548 9.21143 13.9848C9.17429 14.0405 9.13715 14.0776 9.1 14.1333C9.08143 13.9662 9.06286 13.799 9.06286 13.6319C9.06286 13.5019 9.06286 13.3719 9.08143 13.2605C9.08143 13.2605 9.08143 13.2605 9.1 13.2419C9.21143 13.1305 9.36 13.0005 9.52715 12.8148C9.69429 12.629 9.89858 12.4248 10.1214 12.2019C10.3443 11.979 10.5671 11.7376 10.79 11.4962C11.0129 11.2548 11.2357 10.9948 11.44 10.7719C11.6443 10.5305 11.83 10.3076 11.9971 10.1219C12.1643 9.93618 12.2757 9.76904 12.3686 9.65761C12.3871 9.63904 12.4057 9.62047 12.4243 9.6019C12.6843 9.54618 12.9443 9.52761 13.2043 9.52761C13.4643 9.52761 13.7057 9.54618 13.9657 9.6019C13.9286 9.63904 13.8914 9.67618 13.8543 9.71333C13.7057 9.8619 13.5014 10.0662 13.2786 10.3076C13.0371 10.5676 12.7586 10.8462 12.48 11.1619C12.1829 11.4776 11.8857 11.8305 11.57 12.1648C11.2729 12.5176 10.9571 12.8519 10.6786 13.1862C10.4 13.5205 10.14 13.8176 9.91715 14.0962C9.69429 14.3562 9.50858 14.579 9.37858 14.7462C9.34143 14.7833 9.32286 14.8205 9.28572 14.8576C9.19286 14.6162 9.13715 14.3748 9.1 14.1333ZM9.37858 14.7648C9.52715 14.6162 9.73143 14.4119 9.95429 14.1705C10.1957 13.9105 10.4743 13.6319 10.7529 13.3162C11.05 13.0005 11.3471 12.6476 11.6629 12.3133C11.96 11.9605 12.2757 11.6262 12.5543 11.2919C12.8329 10.9576 13.0929 10.6605 13.3157 10.3819C13.5386 10.1219 13.7243 9.89904 13.8543 9.7319C13.8914 9.67618 13.9286 9.63904 13.9657 9.6019C14.1514 9.63904 14.3186 9.67618 14.4857 9.7319C14.4671 9.75047 14.4486 9.76904 14.43 9.78761C14.2814 9.95475 14.0771 10.159 13.8171 10.4376C13.5757 10.7162 13.2786 11.0319 12.9814 11.3662C12.6843 11.7005 12.35 12.0719 12.0343 12.4433C11.7186 12.8148 11.4029 13.1862 11.1057 13.539C10.8086 13.8919 10.5486 14.2262 10.3071 14.5048C10.0657 14.7833 9.88 15.0248 9.75 15.2105C9.62 15.3776 9.54572 15.4705 9.54572 15.4705C9.54572 15.4705 9.63858 15.3776 9.78715 15.229C9.93572 15.0805 10.14 14.8576 10.4 14.579C10.6414 14.3005 10.9386 13.9848 11.2357 13.6505C11.5329 13.3162 11.8671 12.9448 12.1829 12.5733C12.4986 12.2019 12.8143 11.8305 13.1114 11.4776C13.4086 11.1248 13.6686 10.7905 13.91 10.5119C14.1514 10.2333 14.3371 9.9919 14.4671 9.80618C14.4857 9.76904 14.5043 9.75047 14.5229 9.7319C14.7457 9.80618 14.95 9.89904 15.1357 10.0105C15.0986 10.0476 15.0429 10.1033 14.9871 10.159C14.8386 10.3262 14.6157 10.5676 14.3557 10.8462C14.0957 11.1433 13.7986 11.459 13.4829 11.8305C13.1671 12.1833 12.8329 12.5919 12.4986 12.9819C12.1643 13.3719 11.83 13.7619 11.5329 14.1333C11.2171 14.5048 10.9386 14.8576 10.6971 15.1548C10.4557 15.4519 10.2514 15.7119 10.1214 15.879C10.0471 15.9905 9.99143 16.0648 9.95429 16.1019C9.67572 15.7305 9.45286 15.3033 9.30429 14.8576C9.30429 14.839 9.32286 14.8019 9.37858 14.7648ZM10.27 16.529C10.3071 16.4919 10.3814 16.4176 10.4743 16.3062C10.6229 16.139 10.8643 15.8976 11.1243 15.6005C11.3843 15.3033 11.7 14.969 12.0343 14.5976C12.3686 14.2262 12.7029 13.8362 13.0557 13.4276C13.39 13.019 13.7429 12.629 14.0586 12.2576C14.3743 11.8862 14.6714 11.5148 14.9314 11.2176C15.1914 10.9205 15.3957 10.6605 15.5257 10.4748C15.5629 10.419 15.6 10.3819 15.6371 10.3262C15.7857 10.4376 15.9157 10.549 16.0457 10.679C16.0086 10.7162 15.9529 10.7719 15.8971 10.8276C15.7486 10.9948 15.5071 11.2362 15.2471 11.5333C14.9871 11.8305 14.6714 12.1648 14.3371 12.5362C14.0029 12.9076 13.6686 13.2976 13.3157 13.7062C12.9814 14.1148 12.6286 14.5048 12.3129 14.8762C11.9971 15.2476 11.7 15.619 11.4586 15.9162C11.31 16.1019 11.1614 16.269 11.05 16.4176C10.9386 16.5476 10.8457 16.6776 10.7714 16.7705C10.7343 16.8262 10.6971 16.8633 10.6786 16.9005C10.53 16.7705 10.4 16.659 10.27 16.529ZM13.1857 17.7362C13.1486 17.7362 13.1114 17.7362 13.0743 17.7362C13.1114 17.699 13.1486 17.6619 13.2043 17.6062C13.3343 17.4762 13.52 17.2905 13.7243 17.049C13.9471 16.8076 14.1886 16.5476 14.4486 16.2505C14.7086 15.9533 14.9871 15.6376 15.2657 15.3219C15.5443 15.0062 15.8229 14.6905 16.0643 14.3748C16.3243 14.0776 16.5471 13.7805 16.7514 13.539C16.9371 13.2976 17.1043 13.1119 17.2157 12.9633C17.2529 13.1676 17.2714 13.3905 17.2714 13.6133C17.2714 13.6505 17.2714 13.6876 17.2714 13.7062C17.1786 13.8176 17.0486 13.929 16.9 14.0776C16.7143 14.2819 16.4914 14.5048 16.2686 14.7648C16.0457 15.0248 15.8043 15.3033 15.5629 15.5633C15.3214 15.8419 15.08 16.1205 14.8571 16.3805C14.6343 16.6405 14.43 16.9005 14.2629 17.1048C14.0957 17.309 13.9471 17.4948 13.8543 17.6248C13.8543 17.6248 13.8543 17.6248 13.8543 17.6433C13.65 17.7176 13.4086 17.7362 13.1857 17.7362ZM15.08 17.2719C15.0986 17.2533 15.1357 17.2162 15.1543 17.1976C15.4329 16.919 15.7857 16.529 16.12 16.139C16.4543 15.749 16.7886 15.3405 17.03 15.0248C16.6957 15.9905 15.99 16.789 15.08 17.2719Z" fill="url(#paint1_linear_1_1909)"/>
<path d="M13.4086 8.20903C13.6314 8.20903 13.8171 8.00474 13.8171 7.76331V6.98331C13.8171 6.74188 13.6314 6.5376 13.4086 6.5376C13.1857 6.5376 13 6.74188 13 6.98331V7.76331C13 8.02331 13.1857 8.20903 13.4086 8.20903Z" fill="url(#paint2_linear_1_1909)"/>
<path d="M13.4086 18.572C13.1857 18.572 13 18.7763 13 19.0177V19.7977C13 20.0392 13.1857 20.2435 13.4086 20.2435C13.6314 20.2435 13.8171 20.0392 13.8171 19.7977V19.0177C13.8171 18.7763 13.6314 18.572 13.4086 18.572Z" fill="url(#paint3_linear_1_1909)"/>
<path d="M19.8156 12.9819H19.0356C18.7941 12.9819 18.5898 13.1676 18.5898 13.3905C18.5898 13.6134 18.7941 13.7991 19.0356 13.7991H19.8156C20.057 13.7991 20.2613 13.6134 20.2613 13.3905C20.2613 13.1676 20.057 12.9819 19.8156 12.9819Z" fill="url(#paint4_linear_1_1909)"/>
<path d="M7.78138 12.9819H7.00138C6.75995 12.9819 6.55566 13.1676 6.55566 13.3905C6.55566 13.6134 6.75995 13.7991 7.00138 13.7991H7.78138C8.02281 13.7991 8.22709 13.6134 8.22709 13.3905C8.22709 13.1676 8.02281 12.9819 7.78138 12.9819Z" fill="url(#paint5_linear_1_1909)"/>
<path d="M17.6429 8.56203L17.0857 9.11917C16.9186 9.28632 16.9 9.56489 17.0671 9.73203C17.2343 9.89917 17.4943 9.8806 17.68 9.71346L18.2371 9.15632C18.4043 8.98917 18.4229 8.7106 18.2557 8.54346C18.0886 8.37632 17.8286 8.39489 17.6429 8.56203Z" fill="url(#paint6_linear_1_1909)"/>
<path d="M9.137 17.086L8.57985 17.6432C8.41271 17.8103 8.39414 18.0889 8.56128 18.256C8.72842 18.4232 8.98842 18.4046 9.17414 18.2375L9.73128 17.6803C9.89842 17.5132 9.917 17.2346 9.74985 17.0675C9.58271 16.9003 9.30414 16.9003 9.137 17.086Z" fill="url(#paint7_linear_1_1909)"/>
<path d="M17.68 17.0862C17.5129 16.9191 17.2343 16.9005 17.0671 17.0676C16.9 17.2348 16.9186 17.4948 17.0857 17.6805L17.6429 18.2376C17.81 18.4048 18.0886 18.4233 18.2557 18.2562C18.4229 18.0891 18.4043 17.8291 18.2371 17.6433L17.68 17.0862Z" fill="url(#paint8_linear_1_1909)"/>
<path d="M9.137 9.71346C9.30414 9.8806 9.58271 9.89917 9.74985 9.73203C9.917 9.56489 9.89842 9.30489 9.73128 9.11917L9.17414 8.56203C9.007 8.39489 8.72842 8.37632 8.56128 8.54346C8.39414 8.7106 8.41271 8.9706 8.57985 9.15632L9.137 9.71346Z" fill="url(#paint9_linear_1_1909)"/>
</g>
<g opacity="0.6">
<path d="M13.1486 9.02612C10.7901 9.02612 8.87719 10.8647 8.74719 13.1861C8.74719 13.2604 8.74719 13.3533 8.74719 13.4276C8.74719 13.8918 8.82148 14.3561 8.95148 14.7833C9.52719 16.5476 11.18 17.829 13.13 17.829C15.5629 17.829 17.5315 15.8604 17.5315 13.4276C17.5315 10.9947 15.5629 9.02612 13.1486 9.02612ZM16.7701 14.7647C16.4915 15.0433 16.1386 15.4333 15.8043 15.8233C15.47 16.2133 15.1358 16.6218 14.8943 16.9376C14.82 17.0304 14.7643 17.1047 14.7086 17.179C14.3929 17.3276 14.0772 17.4204 13.7243 17.4947C13.8358 17.3833 13.9843 17.2347 14.1701 17.0304C14.3558 16.8261 14.5786 16.6033 14.8015 16.3433C15.0243 16.0833 15.2658 15.8233 15.5072 15.5447C15.7486 15.2661 15.9901 14.9876 16.2129 14.7276C16.4358 14.4676 16.64 14.2076 16.8072 14.0033C16.9186 13.8733 17.0115 13.7433 17.0858 13.6504C17.0672 13.9847 17.0115 14.319 16.9186 14.6347C16.8815 14.6533 16.8258 14.6904 16.7701 14.7647ZM11.7372 17.1047C11.8858 16.9376 12.1086 16.7147 12.35 16.4361C12.61 16.1576 12.9072 15.8418 13.2043 15.489C13.52 15.1361 13.8543 14.7647 14.1701 14.3933C14.5043 14.0218 14.8201 13.6318 15.1172 13.279C15.4143 12.9261 15.6929 12.5918 15.9343 12.2947C16.1758 12.0161 16.3615 11.7561 16.5101 11.589C16.5472 11.5518 16.5658 11.5147 16.5843 11.4961C16.6772 11.6633 16.7515 11.849 16.8258 12.0347C16.8072 12.0533 16.8072 12.0718 16.7886 12.0718C16.6401 12.2204 16.4358 12.4247 16.2129 12.7033C15.9715 12.9633 15.6929 13.2604 15.4143 13.5947C15.1172 13.929 14.82 14.2818 14.5043 14.6347C14.2072 14.9876 13.8915 15.3404 13.6129 15.6933C13.3343 16.0276 13.0743 16.3618 12.8515 16.6218C12.6286 16.9004 12.4429 17.1233 12.3315 17.2904C12.2758 17.3647 12.2386 17.4018 12.2015 17.439C11.9786 17.4018 11.7558 17.3461 11.5515 17.2533C11.6072 17.2533 11.6629 17.1976 11.7372 17.1047ZM11.57 17.2904C11.3843 17.2161 11.2172 17.1418 11.05 17.0676C11.0872 17.0304 11.1429 16.9747 11.2172 16.9004C11.3658 16.7333 11.6072 16.4918 11.8672 16.1947C12.1272 15.8976 12.4429 15.5633 12.7586 15.1918C13.0743 14.8204 13.4272 14.4304 13.7615 14.0404C14.0958 13.6318 14.4301 13.2418 14.7458 12.8704C15.0615 12.499 15.34 12.1461 15.6 11.8304C15.8415 11.5333 16.0458 11.2733 16.1943 11.0876C16.2315 11.0504 16.25 11.0133 16.2872 10.9761C16.4172 11.1433 16.5286 11.3104 16.6215 11.4961C16.5843 11.5333 16.5658 11.5518 16.5286 11.589C16.3801 11.7561 16.1572 11.979 15.9158 12.239C15.6558 12.5176 15.3586 12.8333 15.0615 13.1861C14.7458 13.539 14.4115 13.9104 14.0958 14.2818C13.7615 14.6533 13.4458 15.0433 13.1486 15.3961C12.8515 15.749 12.5729 16.0833 12.3315 16.3804C12.0901 16.659 11.9043 16.919 11.7558 17.0861C11.6443 17.179 11.6072 17.2347 11.57 17.2904ZM12.3686 17.3276C12.5172 17.179 12.7215 16.9747 12.9443 16.6961C13.1858 16.4361 13.4643 16.139 13.7429 15.8047C14.0401 15.4704 14.3372 15.1176 14.6529 14.7647C14.9501 14.4118 15.2658 14.059 15.5443 13.7061C15.8229 13.3718 16.0829 13.0376 16.3058 12.7776C16.5286 12.499 16.7143 12.2761 16.8258 12.109C16.8443 12.0904 16.8443 12.0904 16.8443 12.0718C16.9186 12.2761 16.9743 12.499 17.0115 12.7218C16.8815 12.8518 16.6958 13.0376 16.4915 13.279C16.2686 13.5204 16.0272 13.7804 15.7486 14.0776C15.4886 14.3747 15.2101 14.6904 14.9315 15.0061C14.6529 15.3218 14.3743 15.6376 14.1329 15.9533C13.8729 16.2504 13.6501 16.5476 13.4458 16.789C13.2415 17.0304 13.0929 17.2533 12.9629 17.3833C12.9072 17.439 12.87 17.4947 12.8515 17.5318C12.6472 17.5318 12.4243 17.4947 12.2201 17.4576C12.2758 17.439 12.3129 17.3833 12.3686 17.3276ZM16.2686 10.9576C16.2315 10.9947 16.2129 11.0133 16.1758 11.069C16.0272 11.2361 15.7858 11.4776 15.5258 11.7747C15.2658 12.0718 14.9501 12.4061 14.6343 12.7776C14.3186 13.149 13.9658 13.539 13.6315 13.929C13.2972 14.3376 12.9629 14.7276 12.6472 15.099C12.3315 15.4704 12.0529 15.8233 11.7929 16.139C11.5515 16.4361 11.3472 16.6961 11.1986 16.8818C11.1429 16.9561 11.0872 17.0304 11.05 17.0676C10.8643 16.9561 10.6786 16.8447 10.5115 16.7147C10.5486 16.6961 10.5858 16.659 10.6229 16.6033C10.7343 16.4918 10.8829 16.3618 11.05 16.1761C11.2172 15.9904 11.4215 15.7861 11.6443 15.5633C11.8672 15.3404 12.0901 15.099 12.3129 14.8576C12.5358 14.6161 12.7586 14.3561 12.9629 14.1333C13.1672 13.8918 13.3529 13.669 13.5201 13.4833C13.6872 13.2976 13.7986 13.1304 13.8915 13.019C13.9843 12.9076 14.04 12.8333 14.04 12.8333C14.04 12.8333 13.9843 12.889 13.8729 12.9818C13.8543 13.0004 13.8358 13.019 13.7986 13.0561C13.9658 12.8518 14.1515 12.6476 14.3186 12.4618C14.6343 12.0904 14.9315 11.719 15.1729 11.4218C15.4329 11.1247 15.6186 10.8647 15.7672 10.679C15.8229 10.6047 15.86 10.5676 15.8972 10.5118C16.0086 10.6418 16.1386 10.7904 16.2686 10.9576ZM15.4329 10.1218C15.3958 10.159 15.3586 10.1961 15.3029 10.2518C15.1543 10.419 14.9129 10.6604 14.6529 10.9576C14.3929 11.2547 14.0772 11.589 13.7429 11.9604C13.4086 12.3318 13.0743 12.7218 12.7215 13.1304C12.3872 13.539 12.0343 13.929 11.7186 14.3004C11.4029 14.6718 11.1058 15.0433 10.8458 15.3404C10.5858 15.6376 10.3815 15.8976 10.2515 16.0833C10.1586 16.1947 10.1029 16.269 10.0658 16.3247C9.93576 16.1947 9.82434 16.0647 9.73148 15.9347C9.76862 15.8976 9.84291 15.8233 9.93576 15.7304C10.0843 15.5633 10.3072 15.3218 10.5672 15.0433C10.8272 14.7461 11.1243 14.4304 11.44 14.059C11.7558 13.6876 12.0901 13.2976 12.4243 12.9076C12.7586 12.5176 13.0929 12.1276 13.39 11.7561C13.7058 11.3847 13.9843 11.0318 14.2258 10.7347C14.4672 10.4376 14.6715 10.1776 14.8015 10.0104C14.8572 9.93612 14.8943 9.88041 14.9315 9.84327C15.1172 9.89898 15.2843 10.0104 15.4329 10.1218ZM12.1643 9.39755C12.1458 9.41612 12.1458 9.41612 12.1272 9.43469C12.0343 9.52755 11.8858 9.67612 11.7 9.84327C11.5329 10.029 11.3286 10.2333 11.1058 10.4561C10.8829 10.679 10.6601 10.9204 10.4372 11.1618C10.2143 11.4033 9.99148 11.6633 9.78719 11.8861C9.58291 12.1276 9.39719 12.3504 9.23005 12.5361C9.08148 12.7218 8.97005 12.8704 8.87719 12.9818C8.89576 12.7404 8.95148 12.499 9.00719 12.2761C9.02576 12.2576 9.02576 12.2576 9.04434 12.239C9.11862 12.1647 9.23005 12.0533 9.36005 11.9233C9.62005 11.6633 9.93576 11.3104 10.2515 10.9576C10.5672 10.6047 10.8643 10.2333 11.0872 9.93612C11.18 9.82469 11.2543 9.71327 11.3101 9.63898C11.5886 9.54612 11.8672 9.45327 12.1643 9.39755ZM11.2172 9.71327C11.1615 9.76898 11.1058 9.82469 11.05 9.89898C10.79 10.159 10.4743 10.5118 10.1586 10.8647C9.84291 11.2361 9.54576 11.6076 9.32291 11.8861C9.21148 12.0161 9.13719 12.1461 9.06291 12.2204C9.39719 11.1247 10.1772 10.2147 11.2172 9.71327ZM8.91434 13.929C8.95148 13.8918 8.98862 13.8547 9.04434 13.799C9.15576 13.669 9.34148 13.5018 9.54576 13.2976C9.75005 13.0933 9.99148 12.8333 10.2329 12.5733C10.4743 12.3133 10.7343 12.0161 10.9943 11.719C11.2543 11.4218 11.5143 11.1247 11.7372 10.8461C11.9786 10.5676 12.1829 10.3076 12.3686 10.0847C12.5543 9.86184 12.7029 9.65755 12.8143 9.52755C12.9258 9.39755 12.9815 9.32327 12.9815 9.32327C12.9815 9.32327 12.9072 9.39755 12.7958 9.50898C12.6843 9.63898 12.4986 9.80612 12.2943 10.0104C12.09 10.2147 11.8486 10.4747 11.6072 10.7347C11.3658 10.9947 11.1058 11.2918 10.8458 11.589C10.5858 11.8861 10.3258 12.1833 10.1029 12.4618C9.86148 12.7404 9.65719 13.0004 9.47148 13.2233C9.28576 13.4461 9.13719 13.6504 9.02576 13.7804C8.97005 13.8361 8.93291 13.8733 8.91434 13.929C8.89576 13.7618 8.87719 13.5947 8.87719 13.4276C8.87719 13.2976 8.87719 13.1676 8.89576 13.0561C8.89576 13.0561 8.89576 13.0561 8.91434 13.0376C9.02576 12.9447 9.17434 12.7961 9.34148 12.6104C9.50862 12.4247 9.71291 12.2204 9.93576 11.9976C10.1586 11.7747 10.3815 11.5333 10.6043 11.2918C10.8272 11.0504 11.05 10.7904 11.2543 10.5676C11.4586 10.3261 11.6443 10.1033 11.8115 9.91755C11.9786 9.73184 12.09 9.5647 12.1829 9.45327C12.2015 9.4347 12.2201 9.41612 12.2386 9.39755C12.4986 9.34184 12.7586 9.32327 13.0186 9.32327C13.2786 9.32327 13.52 9.34184 13.78 9.39755C13.7429 9.43469 13.7058 9.47184 13.6686 9.50898C13.52 9.65755 13.3158 9.86184 13.0929 10.1033C12.8515 10.3633 12.5729 10.6418 12.2943 10.9761C11.9972 11.2918 11.7 11.6447 11.3843 11.979C11.0872 12.3318 10.7715 12.6661 10.4929 13.0004C10.2143 13.3347 9.95434 13.6318 9.73148 13.9104C9.50862 14.1704 9.32291 14.3933 9.19291 14.5604C9.15576 14.5976 9.13719 14.6347 9.10005 14.6718C8.98862 14.4118 8.93291 14.1704 8.91434 13.929ZM9.17434 14.5604C9.32291 14.4118 9.52719 14.2076 9.75005 13.9661C9.99148 13.7061 10.27 13.4276 10.5486 13.1118C10.8458 12.7961 11.1429 12.4433 11.4586 12.109C11.7558 11.7561 12.0715 11.4218 12.35 11.0876C12.6286 10.7533 12.8886 10.4561 13.1115 10.1776C13.3343 9.91755 13.5201 9.69469 13.65 9.52755C13.6872 9.47184 13.7243 9.43469 13.7615 9.39755C13.9472 9.43469 14.1143 9.47184 14.2815 9.52755C14.2629 9.54612 14.2443 9.56469 14.2258 9.58327C14.0772 9.73184 13.8729 9.95469 13.6129 10.2333C13.3715 10.5118 13.0743 10.8276 12.7772 11.1618C12.4615 11.5147 12.1458 11.8861 11.83 12.2576C11.5143 12.629 11.1986 13.0004 10.9015 13.3533C10.6043 13.7061 10.3443 14.0404 10.1029 14.319C9.86148 14.5976 9.67576 14.839 9.54576 15.0247C9.41576 15.1918 9.34148 15.2847 9.34148 15.2847C9.34148 15.2847 9.43434 15.1918 9.58291 15.0433C9.73148 14.8947 9.93576 14.6718 10.1958 14.3933C10.4372 14.1147 10.7343 13.799 11.0315 13.4647C11.3286 13.1118 11.6629 12.759 11.9786 12.3876C12.2943 12.0161 12.61 11.6447 12.9072 11.2918C13.2043 10.939 13.4643 10.6047 13.7058 10.3261C13.9472 10.0476 14.1329 9.80612 14.2629 9.62041C14.2815 9.58327 14.3 9.5647 14.3186 9.54612C14.5415 9.62041 14.7458 9.71327 14.9315 9.8247C14.8943 9.86184 14.8386 9.91755 14.7829 9.97327C14.6343 10.1404 14.4115 10.3818 14.1515 10.6604C13.8915 10.9576 13.5943 11.2733 13.2786 11.6447C12.9629 11.9976 12.6286 12.4061 12.2943 12.7961C11.96 13.1861 11.6258 13.5761 11.3286 13.9476C11.0129 14.319 10.7343 14.6718 10.4929 14.969C10.2515 15.2661 10.0472 15.5261 9.91719 15.6933C9.84291 15.8047 9.78719 15.879 9.75005 15.9161C9.47148 15.5447 9.24862 15.1176 9.10005 14.6718C9.10005 14.6347 9.13719 14.5976 9.17434 14.5604ZM10.0658 16.3247C10.1029 16.2876 10.1772 16.2133 10.27 16.1018C10.4186 15.9347 10.66 15.6933 10.92 15.3961C11.18 15.099 11.4958 14.7647 11.83 14.3933C12.1643 14.0218 12.4986 13.6318 12.8515 13.2233C13.1858 12.8147 13.5386 12.4247 13.8543 12.0533C14.17 11.6818 14.4672 11.3104 14.7272 11.0133C14.9872 10.7161 15.1915 10.4561 15.3215 10.2704C15.3586 10.2147 15.3958 10.1776 15.4329 10.1218C15.5815 10.2333 15.7115 10.3447 15.8415 10.4747C15.8043 10.5118 15.7486 10.5676 15.6929 10.6233C15.5443 10.7904 15.3029 11.0318 15.0429 11.329C14.7829 11.6261 14.4672 11.9604 14.1329 12.3318C13.7986 12.7033 13.4643 13.0933 13.1115 13.5018C12.7958 13.8918 12.4429 14.3004 12.1272 14.6718C11.8115 15.0433 11.5143 15.4147 11.2729 15.7118C11.1243 15.8976 10.9758 16.0647 10.8643 16.2133C10.7529 16.3433 10.66 16.4733 10.5858 16.5661C10.5486 16.6218 10.5115 16.659 10.4929 16.6961C10.3443 16.5847 10.1958 16.4547 10.0658 16.3247ZM12.9815 17.5318C12.9443 17.5318 12.9072 17.5318 12.8701 17.5318C12.9072 17.4947 12.9443 17.4576 13.0001 17.4018C13.13 17.2718 13.3158 17.0861 13.5201 16.8447C13.7429 16.6033 13.9843 16.3433 14.2443 16.0461C14.5043 15.749 14.7829 15.4333 15.0615 15.1176C15.34 14.8018 15.6186 14.4861 15.8601 14.1704C16.1201 13.8733 16.3429 13.5761 16.5472 13.3347C16.7329 13.0933 16.9001 12.9076 17.0115 12.759C17.0486 12.9633 17.0672 13.1861 17.0672 13.409C17.0672 13.4461 17.0672 13.4833 17.0672 13.5018C16.9743 13.6133 16.8443 13.7247 16.6958 13.8733C16.5101 14.0776 16.2872 14.3004 16.0643 14.5604C15.8415 14.8204 15.6 15.099 15.3586 15.359C15.1172 15.6376 14.8758 15.9161 14.6529 16.1761C14.4301 16.4361 14.2258 16.6961 14.0586 16.9004C13.8915 17.1047 13.7429 17.2904 13.65 17.4204C13.65 17.4204 13.65 17.4204 13.65 17.439C13.4458 17.5133 13.2229 17.5318 12.9815 17.5318ZM14.8943 17.0676C14.9129 17.049 14.95 17.0118 14.9686 16.9933C15.2472 16.7147 15.6001 16.3247 15.9343 15.9347C16.2686 15.5447 16.6029 15.1361 16.8443 14.8204C16.51 15.7861 15.8043 16.6033 14.8943 17.0676Z" fill="url(#paint10_linear_1_1909)"/>
<path d="M13.2045 8.02348C13.4273 8.02348 13.613 7.81919 13.613 7.57776V6.79776C13.613 6.55634 13.4273 6.35205 13.2045 6.35205C12.9816 6.35205 12.7959 6.55634 12.7959 6.79776V7.57776C12.7959 7.81919 12.9816 8.02348 13.2045 8.02348Z" fill="url(#paint11_linear_1_1909)"/>
<path d="M13.2045 18.3677C12.9816 18.3677 12.7959 18.572 12.7959 18.8134V19.5934C12.7959 19.8348 12.9816 20.0391 13.2045 20.0391C13.4273 20.0391 13.613 19.8348 13.613 19.5934V18.8134C13.613 18.572 13.4273 18.3677 13.2045 18.3677Z" fill="url(#paint12_linear_1_1909)"/>
<path d="M19.6301 12.7776H18.8501C18.6087 12.7776 18.4044 12.9633 18.4044 13.1862C18.4044 13.409 18.6087 13.5947 18.8501 13.5947H19.6301C19.8716 13.5947 20.0758 13.409 20.0758 13.1862C20.0758 12.9633 19.8716 12.7776 19.6301 12.7776Z" fill="url(#paint13_linear_1_1909)"/>
<path d="M7.57728 12.7776H6.79728C6.55585 12.7776 6.35156 12.9633 6.35156 13.1862C6.35156 13.409 6.55585 13.5947 6.79728 13.5947H7.57728C7.81871 13.5947 8.02299 13.409 8.02299 13.1862C8.02299 12.9633 7.83728 12.7776 7.57728 12.7776Z" fill="url(#paint14_linear_1_1909)"/>
<path d="M17.4572 8.37632L16.9 8.93346C16.7329 9.1006 16.7143 9.37918 16.8815 9.54632C17.0486 9.71346 17.3086 9.69489 17.4943 9.52775L18.0515 8.9706C18.2186 8.80346 18.2372 8.52489 18.07 8.35775C17.9029 8.1906 17.6243 8.1906 17.4572 8.37632Z" fill="url(#paint15_linear_1_1909)"/>
<path d="M8.93289 16.8819L8.37575 17.439C8.20861 17.6061 8.19004 17.8847 8.35718 18.0519C8.52432 18.219 8.78432 18.2004 8.97004 18.0333L9.52718 17.4761C9.69432 17.309 9.71289 17.0304 9.54575 16.8633C9.37861 16.6961 9.11861 16.7147 8.93289 16.8819Z" fill="url(#paint16_linear_1_1909)"/>
<path d="M17.4758 16.8819C17.3086 16.7147 17.0301 16.6961 16.8629 16.8633C16.7143 17.0119 16.7143 17.2904 16.9001 17.4761L17.4572 18.0333C17.6243 18.2004 17.9029 18.219 18.0701 18.0519C18.2372 17.8847 18.2186 17.6247 18.0515 17.439L17.4758 16.8819Z" fill="url(#paint17_linear_1_1909)"/>
<path d="M8.93289 9.50911C9.10004 9.67626 9.37861 9.69483 9.54575 9.52768C9.71289 9.36054 9.69432 9.10054 9.52718 8.91483L8.97004 8.35769C8.80289 8.19054 8.52432 8.17197 8.35718 8.33911C8.19004 8.50626 8.20861 8.76626 8.37575 8.95197L8.93289 9.50911Z" fill="url(#paint18_linear_1_1909)"/>
</g>
<g opacity="0.6">
<path d="M12.9444 8.82153C10.5858 8.82153 8.67297 10.6787 8.54297 13.0001C8.54297 13.0744 8.54297 13.1672 8.54297 13.2415C8.54297 13.7058 8.61725 14.1701 8.74725 14.5972C9.32297 16.3615 10.9758 17.643 12.9258 17.643C15.3587 17.643 17.3273 15.6744 17.3273 13.2415C17.3458 10.8087 15.3773 8.82153 12.9444 8.82153ZM16.5658 14.5601C16.2873 14.8387 15.9344 15.2287 15.6001 15.6187C15.2658 16.0087 14.9315 16.4172 14.6901 16.733C14.6158 16.8258 14.5601 16.9001 14.5044 16.9744C14.1887 17.123 13.873 17.2158 13.5201 17.2901C13.6315 17.1787 13.7801 17.0301 13.9658 16.8258C14.1515 16.6215 14.3744 16.3987 14.5973 16.1387C14.8201 15.8787 15.0615 15.6001 15.303 15.3401C15.5444 15.0615 15.7858 14.783 16.0087 14.523C16.2315 14.263 16.4358 14.003 16.603 13.7987C16.7144 13.6687 16.8073 13.5387 16.8815 13.4458C16.863 13.7801 16.8073 14.1144 16.7144 14.4301C16.6773 14.4487 16.6215 14.5044 16.5658 14.5601ZM11.5515 16.9187C11.7001 16.7515 11.923 16.5287 12.1644 16.2501C12.4244 15.9715 12.7215 15.6558 13.0187 15.303C13.3344 14.9501 13.6687 14.5787 13.9844 14.2072C14.3187 13.8358 14.6344 13.4458 14.9315 13.093C15.2287 12.7401 15.5073 12.4058 15.7487 12.1087C15.9901 11.8301 16.1758 11.5701 16.3244 11.403C16.3615 11.3658 16.3801 11.3287 16.3987 11.3101C16.4915 11.4772 16.5658 11.663 16.6401 11.8487C16.6215 11.8672 16.6215 11.8858 16.603 11.8858C16.4544 12.0344 16.2501 12.2387 16.0273 12.5172C15.7858 12.7772 15.5073 13.0744 15.2287 13.4087C14.9315 13.743 14.6344 14.0958 14.3187 14.4487C14.0215 14.8015 13.7058 15.1544 13.4273 15.5072C13.1487 15.8415 12.8887 16.1758 12.6658 16.4358C12.443 16.7144 12.2573 16.9372 12.1458 17.1044C12.0901 17.1787 12.053 17.2158 12.0158 17.253C11.793 17.2158 11.5701 17.1601 11.3658 17.0672C11.4215 17.0487 11.4773 16.993 11.5515 16.9187ZM11.3658 17.0858C11.1801 17.0115 11.013 16.9372 10.8458 16.863C10.883 16.8258 10.9387 16.7701 11.013 16.6958C11.1615 16.5287 11.403 16.2872 11.663 15.9901C11.923 15.693 12.2387 15.3587 12.5544 14.9872C12.8701 14.6158 13.223 14.2258 13.5573 13.8358C13.8915 13.4272 14.2258 13.0372 14.5415 12.6658C14.8573 12.2944 15.1358 11.9415 15.3958 11.6258C15.6373 11.3287 15.8415 11.0687 15.9901 10.883C16.0273 10.8458 16.0458 10.8087 16.083 10.7715C16.213 10.9387 16.3244 11.1058 16.4173 11.2915C16.3987 11.3287 16.3615 11.3472 16.3244 11.3844C16.1758 11.5515 15.953 11.7744 15.7115 12.053C15.4515 12.3315 15.1544 12.6472 14.8573 13.0001C14.5415 13.353 14.2073 13.7244 13.8915 14.0958C13.5573 14.4672 13.2415 14.8572 12.9444 15.2101C12.6473 15.563 12.3687 15.8972 12.1273 16.1944C11.8487 16.473 11.663 16.7144 11.5144 16.9001C11.4587 16.9744 11.403 17.0487 11.3658 17.0858ZM12.1644 17.1415C12.313 16.993 12.5173 16.7887 12.7401 16.5101C12.9815 16.2501 13.2601 15.953 13.5387 15.6187C13.8358 15.2844 14.133 14.9315 14.4487 14.5787C14.7458 14.2258 15.0615 13.873 15.3401 13.5201C15.6187 13.1858 15.8787 12.8515 16.1015 12.5915C16.3244 12.313 16.5101 12.0901 16.6215 11.923C16.6401 11.9044 16.6401 11.9044 16.6401 11.8858C16.7144 12.0901 16.7701 12.313 16.8073 12.5358C16.6773 12.6658 16.4915 12.8515 16.2873 13.093C16.0644 13.3344 15.823 13.5944 15.5444 13.8915C15.2844 14.1887 15.0058 14.5044 14.7273 14.8201C14.4487 15.1358 14.1701 15.4515 13.9287 15.7672C13.6687 16.0644 13.4458 16.3615 13.2415 16.603C13.0373 16.8444 12.8887 17.0672 12.7587 17.1972C12.703 17.253 12.6658 17.3087 12.6473 17.3458C12.443 17.3458 12.2201 17.3087 12.0158 17.2715C12.0715 17.2344 12.1087 17.1972 12.1644 17.1415ZM16.0644 10.753C16.0273 10.7901 16.0087 10.8087 15.9715 10.8644C15.823 11.0315 15.5815 11.273 15.3215 11.5701C15.0615 11.8672 14.7458 12.2015 14.4301 12.573C14.1144 12.9444 13.7615 13.3344 13.4273 13.7244C13.093 14.133 12.7587 14.523 12.443 14.8944C12.1273 15.2658 11.8487 15.6187 11.5887 15.9344C11.3473 16.2315 11.143 16.4915 10.9944 16.6772C10.9387 16.7515 10.883 16.8258 10.8458 16.863C10.6601 16.7515 10.4744 16.6401 10.3073 16.5101C10.3444 16.4915 10.3815 16.4544 10.4187 16.3987C10.5301 16.2872 10.6787 16.1572 10.8458 15.9715C11.013 15.7858 11.2173 15.5815 11.4401 15.3587C11.663 15.1358 11.8858 14.8944 12.1087 14.653C12.3315 14.4115 12.5544 14.1515 12.7587 13.9287C12.963 13.6872 13.1487 13.4644 13.3158 13.2787C13.483 13.093 13.5944 12.9258 13.6873 12.8144C13.7801 12.703 13.8358 12.6287 13.8358 12.6287C13.8358 12.6287 13.7801 12.6844 13.6687 12.7772C13.6501 12.7958 13.6315 12.8144 13.5944 12.8515C13.7615 12.6472 13.9473 12.443 14.1144 12.2572C14.4301 11.8858 14.7273 11.5144 14.9687 11.2172C15.2287 10.9201 15.4144 10.6601 15.563 10.4744C15.6187 10.4001 15.6558 10.363 15.693 10.3072C15.823 10.4372 15.953 10.5858 16.0644 10.753ZM15.2287 9.93582C15.1915 9.97296 15.1544 10.0101 15.0987 10.0658C14.9501 10.233 14.7087 10.4744 14.4487 10.7715C14.1887 11.0687 13.873 11.403 13.5387 11.7744C13.2044 12.1458 12.8701 12.5358 12.5173 12.9444C12.183 13.353 11.8301 13.743 11.5144 14.1144C11.1987 14.4858 10.9015 14.8572 10.6415 15.1544C10.3815 15.4515 10.1773 15.7115 10.0473 15.8972C9.9544 16.0087 9.89868 16.083 9.86154 16.1387C9.73154 16.0087 9.62011 15.8787 9.52725 15.7487C9.5644 15.7115 9.63868 15.6372 9.73154 15.5444C9.88011 15.3772 10.103 15.1358 10.363 14.8572C10.623 14.5601 10.9201 14.2444 11.2358 13.873C11.5515 13.5201 11.8858 13.1115 12.2201 12.7215C12.5544 12.3315 12.8887 11.9415 13.1858 11.5701C13.5015 11.1987 13.7801 10.8458 14.0215 10.5487C14.263 10.2515 14.4673 9.99153 14.5973 9.82439C14.653 9.7501 14.6901 9.69439 14.7273 9.65725C14.913 9.71296 15.0801 9.80582 15.2287 9.93582ZM11.9601 9.21153C11.9415 9.2301 11.9415 9.2301 11.923 9.24868C11.8301 9.34153 11.6815 9.47153 11.5144 9.65725C11.3473 9.84296 11.143 10.0472 10.9201 10.2701C10.6973 10.493 10.4744 10.7344 10.2515 10.9758C10.0287 11.2172 9.80583 11.4772 9.60154 11.7001C9.39725 11.9415 9.21154 12.1644 9.06297 12.3501C8.9144 12.5358 8.80297 12.6844 8.71011 12.7958C8.72868 12.5544 8.7844 12.313 8.84011 12.0901C8.85868 12.0715 8.85868 12.0715 8.87725 12.053C8.95154 11.9787 9.06297 11.8672 9.19297 11.7372C9.45297 11.4772 9.76868 11.1244 10.0844 10.7715C10.4001 10.4187 10.6973 10.0472 10.9201 9.7501C11.013 9.63868 11.0873 9.52725 11.143 9.45296C11.403 9.3601 11.6815 9.26725 11.9601 9.21153ZM11.013 9.52725C10.9573 9.58296 10.9015 9.63868 10.8273 9.71296C10.5673 9.97296 10.2515 10.3258 9.93583 10.6787C9.62011 11.0315 9.32297 11.403 9.10011 11.7001C8.98868 11.8301 8.9144 11.9601 8.84011 12.0344C9.19297 10.9201 9.99154 10.0101 11.013 9.52725ZM8.71011 13.743C8.74725 13.7058 8.7844 13.6687 8.84011 13.613C8.95154 13.483 9.13725 13.3158 9.34154 13.1115C9.54583 12.9072 9.78725 12.6472 10.0287 12.3872C10.2701 12.1272 10.5301 11.8301 10.7901 11.533C11.0501 11.2358 11.3101 10.9387 11.533 10.6601C11.7744 10.3815 11.9787 10.1215 12.1644 9.89868C12.3501 9.67582 12.4987 9.47153 12.6101 9.34153C12.7215 9.21153 12.7773 9.13725 12.7773 9.13725C12.7773 9.13725 12.703 9.21153 12.5915 9.32296C12.4801 9.45296 12.2944 9.6201 12.0901 9.82439C11.8858 10.0472 11.6444 10.2887 11.403 10.5487C11.1615 10.8087 10.9015 11.1058 10.6415 11.403C10.3815 11.7001 10.1215 11.9972 9.89868 12.2758C9.65725 12.5544 9.45297 12.8144 9.26725 13.0372C9.08154 13.2601 8.93297 13.4644 8.82154 13.5944C8.76583 13.6315 8.72868 13.6872 8.71011 13.743C8.69154 13.5758 8.67297 13.4087 8.67297 13.2415C8.67297 13.1115 8.67297 12.9815 8.69154 12.8701C8.69154 12.8701 8.69154 12.8701 8.71011 12.8515C8.82154 12.7401 8.97011 12.6101 9.13725 12.4244C9.3044 12.2387 9.50868 12.0344 9.73154 11.8115C9.9544 11.5887 10.1773 11.3472 10.4001 11.1058C10.623 10.8644 10.8458 10.6044 11.0501 10.3815C11.2544 10.1401 11.4401 9.91725 11.6073 9.73153C11.7744 9.54582 11.8858 9.37868 11.9787 9.26725C11.9973 9.24868 12.0158 9.2301 12.0344 9.21153C12.2944 9.15582 12.5544 9.13725 12.8144 9.13725C13.0744 9.13725 13.3158 9.15582 13.5758 9.21153C13.5387 9.24868 13.5015 9.28582 13.4644 9.32296C13.3158 9.47153 13.1115 9.67582 12.8887 9.91725C12.6473 10.1772 12.3687 10.4558 12.0901 10.7715C11.793 11.0872 11.4958 11.4401 11.1801 11.7744C10.883 12.1272 10.5673 12.4615 10.2887 12.7958C10.0101 13.1301 9.75011 13.4272 9.52725 13.7058C9.3044 13.9658 9.11868 14.1887 8.98868 14.3558C8.95154 14.393 8.93297 14.4301 8.89583 14.4672C8.7844 14.2258 8.74725 13.9844 8.71011 13.743ZM8.97011 14.3558C9.11868 14.2072 9.32297 14.003 9.54583 13.7615C9.78725 13.5015 10.0658 13.223 10.3444 12.9072C10.6415 12.5915 10.9387 12.2387 11.2544 11.9044C11.5515 11.5515 11.8673 11.2172 12.1458 10.883C12.4244 10.5487 12.6844 10.2515 12.9073 9.97296C13.1301 9.71296 13.3158 9.4901 13.4458 9.32296C13.483 9.26725 13.5201 9.2301 13.5573 9.19296C13.743 9.2301 13.9101 9.26725 14.0773 9.32296C14.0587 9.34153 14.0401 9.3601 14.0215 9.37868C13.873 9.54582 13.6687 9.7501 13.4087 10.0287C13.1673 10.3072 12.8701 10.623 12.573 10.9572C12.2758 11.3287 11.9415 11.7001 11.6258 12.0715C11.3101 12.443 10.9944 12.8144 10.6973 13.1672C10.4001 13.5201 10.1401 13.8544 9.89868 14.133C9.65725 14.4115 9.47154 14.653 9.34154 14.8387C9.21154 15.0058 9.13725 15.0987 9.13725 15.0987C9.13725 15.0987 9.23011 15.0058 9.37868 14.8572C9.52725 14.7087 9.73154 14.4858 9.99154 14.2072C10.233 13.9287 10.5301 13.613 10.8273 13.2787C11.1244 12.9444 11.4587 12.573 11.7744 12.2015C12.0901 11.8301 12.4058 11.4587 12.703 11.1058C13.0001 10.753 13.2601 10.4187 13.5015 10.1401C13.743 9.86153 13.9287 9.6201 14.0587 9.43439C14.0773 9.39725 14.0958 9.37868 14.1144 9.3601C14.3373 9.43439 14.5415 9.52725 14.7273 9.63868C14.6901 9.67582 14.6344 9.73153 14.5787 9.78725C14.4301 9.95439 14.2073 10.1958 13.9473 10.4744C13.6873 10.7715 13.3901 11.0872 13.0744 11.4587C12.7587 11.8115 12.4244 12.2201 12.0901 12.6101C11.7558 13.0001 11.4215 13.3901 11.1244 13.7615C10.8087 14.133 10.5301 14.4858 10.2887 14.783C10.0473 15.0801 9.84297 15.3401 9.71297 15.5072C9.63868 15.6187 9.58297 15.693 9.54583 15.7301C9.26725 15.3587 9.0444 14.9315 8.89583 14.4858C8.89583 14.4487 8.93297 14.4115 8.97011 14.3558ZM9.86154 16.1201C9.89868 16.083 9.97297 16.0087 10.0658 15.8972C10.2144 15.7301 10.4558 15.4887 10.7158 15.1915C10.9758 14.8944 11.2915 14.5601 11.6258 14.1887C11.9601 13.8172 12.2944 13.4272 12.6473 13.0187C12.9815 12.6101 13.3344 12.2201 13.6501 11.8487C13.9658 11.4772 14.263 11.1058 14.523 10.8087C14.783 10.5115 14.9873 10.2515 15.1173 10.0658C15.1544 10.0101 15.1915 9.97296 15.2287 9.91725C15.3773 10.0287 15.5073 10.1401 15.6373 10.2701C15.6001 10.3072 15.5444 10.363 15.4887 10.4187C15.3401 10.5858 15.0987 10.8272 14.8387 11.1244C14.5787 11.4215 14.263 11.7558 13.9287 12.1272C13.5944 12.4987 13.2601 12.8887 12.9073 13.2972C12.573 13.7058 12.2201 14.0958 11.9044 14.4672C11.5887 14.8387 11.2915 15.2101 11.0501 15.5072C10.9015 15.693 10.753 15.8601 10.6415 16.0087C10.5301 16.1387 10.4373 16.2687 10.363 16.3615C10.3258 16.4172 10.2887 16.4544 10.2701 16.4915C10.1401 16.3801 9.99154 16.2501 9.86154 16.1201ZM12.7958 17.3458C12.7587 17.3458 12.7215 17.3458 12.6844 17.3458C12.7215 17.3087 12.7587 17.2715 12.8144 17.2158C12.9444 17.0858 13.1301 16.9001 13.3344 16.6587C13.5573 16.4172 13.7987 16.1572 14.0773 15.8601C14.3373 15.563 14.6158 15.2472 14.8944 14.9315C15.173 14.6158 15.4515 14.3001 15.693 13.9844C15.953 13.6872 16.1758 13.3901 16.3801 13.1487C16.5658 12.9072 16.733 12.7215 16.8444 12.573C16.8815 12.7772 16.9001 13.0001 16.9001 13.223C16.9001 13.2601 16.9001 13.2972 16.9001 13.3158C16.8073 13.4272 16.6773 13.5387 16.5287 13.6872C16.343 13.8915 16.1201 14.1144 15.8973 14.3744C15.6744 14.6344 15.433 14.913 15.1915 15.173C14.9501 15.4515 14.7087 15.7301 14.4858 15.9901C14.263 16.2501 14.0587 16.5101 13.8915 16.7144C13.7244 16.9187 13.5758 17.1044 13.483 17.2344C13.483 17.2344 13.483 17.2344 13.483 17.253C13.2415 17.3272 13.0187 17.3458 12.7958 17.3458ZM14.6901 16.8815C14.7087 16.863 14.7458 16.8258 14.7644 16.8072C15.043 16.5287 15.3958 16.1387 15.7301 15.7487C16.0644 15.3587 16.3987 14.9501 16.6401 14.6344C16.3058 15.6001 15.6001 16.3987 14.6901 16.8815Z" fill="url(#paint19_linear_1_1909)"/>
<path d="M13.0186 7.81889C13.2415 7.81889 13.4272 7.6146 13.4272 7.37318V6.59318C13.4272 6.35175 13.2415 6.14746 13.0186 6.14746C12.7958 6.14746 12.61 6.35175 12.61 6.59318V7.37318C12.5915 7.6146 12.7772 7.81889 13.0186 7.81889Z" fill="url(#paint20_linear_1_1909)"/>
<path d="M13.0187 18.1819C12.7958 18.1819 12.6101 18.3862 12.6101 18.6276V19.4076C12.6101 19.649 12.7958 19.8533 13.0187 19.8533C13.2415 19.8533 13.4273 19.649 13.4273 19.4076V18.6276C13.4273 18.3862 13.2415 18.1819 13.0187 18.1819Z" fill="url(#paint21_linear_1_1909)"/>
<path d="M19.4257 12.5918H18.6457C18.4042 12.5918 18.2 12.7775 18.2 13.0004C18.2 13.2232 18.4042 13.4089 18.6457 13.4089H19.4257C19.6671 13.4089 19.8714 13.2232 19.8714 13.0004C19.8714 12.7775 19.6671 12.5918 19.4257 12.5918Z" fill="url(#paint22_linear_1_1909)"/>
<path d="M7.39149 12.5918H6.61149C6.37006 12.5918 6.16577 12.7775 6.16577 13.0004C6.16577 13.2232 6.37006 13.4089 6.61149 13.4089H7.39149C7.63291 13.4089 7.8372 13.2232 7.8372 13.0004C7.8372 12.7775 7.63291 12.5918 7.39149 12.5918Z" fill="url(#paint23_linear_1_1909)"/>
<path d="M17.253 8.17189L16.6958 8.72904C16.5287 8.89618 16.5101 9.17475 16.6772 9.34189C16.8444 9.50904 17.1044 9.49047 17.2901 9.32332L17.8472 8.76618C18.0144 8.59904 18.033 8.32047 17.8658 8.15332C17.6987 7.98618 17.4201 8.00475 17.253 8.17189Z" fill="url(#paint24_linear_1_1909)"/>
<path d="M8.7471 16.6773L8.18996 17.2344C8.02282 17.4016 8.00425 17.6801 8.17139 17.8473C8.33853 18.0144 8.59853 17.9958 8.78425 17.8287L9.34139 17.2716C9.50853 17.1044 9.5271 16.8258 9.35996 16.6587C9.19282 16.4916 8.91425 16.5101 8.7471 16.6773Z" fill="url(#paint25_linear_1_1909)"/>
<path d="M17.2713 16.6773C17.1042 16.5101 16.8256 16.4916 16.6585 16.6587C16.5099 16.8258 16.5285 17.0858 16.6956 17.2716L17.2528 17.8287C17.4199 17.9958 17.6985 18.0144 17.8656 17.8473C18.0328 17.6801 18.0142 17.4201 17.8471 17.2344L17.2713 16.6773Z" fill="url(#paint26_linear_1_1909)"/>
<path d="M8.7471 9.30452C8.91425 9.47167 9.19282 9.49024 9.35996 9.3231C9.5271 9.15595 9.50853 8.89595 9.34139 8.71024L8.78425 8.1531C8.6171 7.98595 8.33853 7.96738 8.17139 8.13452C8.00425 8.30167 8.02282 8.56167 8.18996 8.74738L8.7471 9.30452Z" fill="url(#paint27_linear_1_1909)"/>
</g>
<g opacity="0.6">
<path d="M12.7401 8.63574C10.3815 8.63574 8.46862 10.4743 8.33862 12.7957C8.33862 12.87 8.33862 12.9629 8.33862 13.0372C8.33862 13.5015 8.41291 13.9657 8.54291 14.3929C9.11862 16.1572 10.7715 17.4386 12.7215 17.4386C15.1543 17.4386 17.1229 15.47 17.1229 13.0372C17.1229 10.6043 15.1729 8.63574 12.7401 8.63574ZM16.3801 14.3557C16.1015 14.6343 15.7486 15.0243 15.4143 15.4143C15.0801 15.8043 14.7458 16.2129 14.5043 16.5286C14.4301 16.6215 14.3743 16.6957 14.3186 16.77C14.0029 16.9186 13.6872 17.0115 13.3343 17.0857C13.4458 16.9743 13.5943 16.8257 13.7801 16.6215C13.9658 16.4172 14.1886 16.1943 14.4115 15.9343C14.6343 15.6743 14.8758 15.4143 15.1172 15.1357C15.3586 14.8572 15.6001 14.5786 15.8229 14.3186C16.0458 14.0586 16.2501 13.7986 16.4172 13.5943C16.5286 13.4643 16.6215 13.3343 16.6958 13.2415C16.6772 13.5757 16.6215 13.91 16.5286 14.2257C16.4915 14.2443 16.4358 14.3 16.3801 14.3557ZM11.3472 16.7143C11.4958 16.5472 11.7186 16.3243 11.9601 16.0457C12.2201 15.7672 12.5172 15.4515 12.8143 15.0986C13.1301 14.7457 13.4643 14.3743 13.7801 14.0029C14.1143 13.6315 14.4301 13.2415 14.7272 12.8886C15.0243 12.5357 15.3029 12.2015 15.5443 11.9043C15.7858 11.6257 15.9715 11.3657 16.1201 11.1986C16.1572 11.1615 16.1758 11.1243 16.1943 11.1057C16.2872 11.2729 16.3615 11.4586 16.4358 11.6443C16.4172 11.6629 16.4172 11.6815 16.3986 11.6815C16.2501 11.83 16.0458 12.0343 15.8229 12.3129C15.5815 12.5729 15.3029 12.87 15.0243 13.2043C14.7272 13.5386 14.4301 13.8915 14.1143 14.2443C13.8172 14.5972 13.5015 14.95 13.2229 15.3029C12.9443 15.6372 12.6843 15.9715 12.4615 16.2315C12.2386 16.51 12.0529 16.7329 11.9415 16.9C11.8858 16.9743 11.8486 17.0115 11.8115 17.0486C11.5886 17.0115 11.3658 16.9557 11.1615 16.8629C11.2172 16.8443 11.2729 16.7886 11.3472 16.7143ZM11.1615 16.8815C10.9758 16.8072 10.8086 16.7329 10.6415 16.6586C10.6786 16.6215 10.7343 16.5657 10.8086 16.4915C10.9572 16.3243 11.1986 16.0829 11.4586 15.7857C11.7186 15.4886 12.0343 15.1543 12.3501 14.7829C12.6658 14.4115 13.0186 14.0215 13.3529 13.6315C13.6872 13.2229 14.0215 12.8329 14.3372 12.4615C14.6529 12.09 14.9315 11.7372 15.1915 11.4215C15.4329 11.1243 15.6372 10.8643 15.7858 10.6786C15.8229 10.6415 15.8415 10.6043 15.8786 10.5672C16.0086 10.7343 16.1201 10.9015 16.2129 11.0872C16.1758 11.1243 16.1572 11.1429 16.1201 11.18C15.9715 11.3472 15.7486 11.57 15.5072 11.83C15.2472 12.1086 14.9501 12.4243 14.6529 12.7772C14.3372 13.13 14.0029 13.5015 13.6872 13.8729C13.3529 14.2443 13.0372 14.6343 12.7401 14.9872C12.4429 15.34 12.1643 15.6743 11.9229 15.9715C11.6815 16.25 11.4958 16.51 11.3472 16.6772C11.2543 16.77 11.1986 16.8443 11.1615 16.8815ZM11.9786 16.9372C12.1272 16.7886 12.3315 16.5843 12.5543 16.3057C12.7958 16.0457 13.0743 15.7486 13.3529 15.4143C13.6501 15.08 13.9472 14.7272 14.2629 14.3743C14.5601 14.0215 14.8758 13.6686 15.1543 13.3157C15.4329 12.9815 15.6929 12.6472 15.9158 12.3872C16.1386 12.1086 16.3243 11.8857 16.4358 11.7186C16.4543 11.7 16.4543 11.7 16.4543 11.6815C16.5286 11.8857 16.5843 12.1086 16.6215 12.3315C16.4915 12.4615 16.3058 12.6472 16.1015 12.8886C15.8786 13.13 15.6372 13.39 15.3586 13.6872C15.0986 13.9843 14.8201 14.3 14.5415 14.6157C14.2629 14.9315 13.9843 15.2472 13.7429 15.5629C13.4829 15.86 13.2601 16.1572 13.0558 16.3986C12.8515 16.64 12.7029 16.8629 12.5729 16.9929C12.5172 17.0486 12.4801 17.1043 12.4615 17.1415C12.2572 17.1415 12.0343 17.1043 11.8301 17.0672C11.8672 17.03 11.9229 16.9929 11.9786 16.9372ZM15.8786 10.5486C15.8415 10.5857 15.8229 10.6043 15.7858 10.66C15.6372 10.8272 15.3958 11.0686 15.1358 11.3657C14.8758 11.6629 14.5601 11.9972 14.2443 12.3686C13.9286 12.74 13.5758 13.13 13.2415 13.52C12.9072 13.9286 12.5729 14.3186 12.2572 14.69C11.9415 15.0615 11.6629 15.4143 11.4029 15.73C11.1615 16.0272 10.9572 16.2872 10.8086 16.4729C10.7529 16.5472 10.6972 16.6215 10.6601 16.6586C10.4743 16.5472 10.2886 16.4357 10.1215 16.3057C10.1586 16.2872 10.1958 16.25 10.2329 16.1943C10.3443 16.0829 10.4929 15.9529 10.6601 15.7672C10.8272 15.5815 11.0315 15.3772 11.2543 15.1543C11.4772 14.9315 11.7001 14.69 11.9229 14.4486C12.1458 14.2072 12.3686 13.9472 12.5729 13.7243C12.7772 13.4829 12.9629 13.26 13.1301 13.0743C13.2972 12.8886 13.4086 12.7215 13.5015 12.61C13.5943 12.4986 13.6501 12.4243 13.6501 12.4243C13.6501 12.4243 13.5943 12.48 13.4829 12.5729C13.4643 12.5915 13.4458 12.61 13.4086 12.6472C13.5758 12.4429 13.7615 12.2386 13.9286 12.0529C14.2443 11.6815 14.5415 11.31 14.7829 11.0129C15.0429 10.7157 15.2286 10.4557 15.3772 10.27C15.4329 10.1957 15.4701 10.1586 15.5072 10.1029C15.6186 10.2515 15.7486 10.4 15.8786 10.5486ZM15.0429 9.73146C15.0058 9.7686 14.9686 9.80574 14.9129 9.86146C14.7643 10.0286 14.5229 10.27 14.2629 10.5672C14.0029 10.8643 13.6872 11.1986 13.3529 11.57C13.0186 11.9415 12.6843 12.3315 12.3315 12.74C11.9972 13.1486 11.6443 13.5386 11.3286 13.91C11.0129 14.2815 10.7158 14.6529 10.4558 14.95C10.1958 15.2472 9.99148 15.5072 9.86148 15.6929C9.76862 15.8043 9.71291 15.8786 9.67577 15.9343C9.54577 15.8043 9.43434 15.6743 9.34148 15.5443C9.37862 15.5072 9.45291 15.4329 9.54577 15.34C9.69434 15.1729 9.91719 14.9315 10.1772 14.6529C10.4372 14.3557 10.7343 14.04 11.0501 13.6686C11.3658 13.2972 11.7001 12.9072 12.0343 12.5172C12.3686 12.1272 12.7029 11.7372 13.0001 11.3657C13.3158 10.9943 13.5943 10.6415 13.8358 10.3443C14.0772 10.0472 14.2815 9.78717 14.4115 9.62003C14.4672 9.54574 14.5043 9.49003 14.5415 9.45289C14.7086 9.5086 14.8758 9.62003 15.0429 9.73146ZM11.7743 9.00717C11.7558 9.02574 11.7558 9.02574 11.7372 9.04431C11.6258 9.13717 11.4772 9.28574 11.3101 9.47146C11.1429 9.65717 10.9386 9.86146 10.7158 10.0843C10.4929 10.3072 10.2701 10.5486 10.0472 10.79C9.82434 11.0315 9.60148 11.2915 9.39719 11.5143C9.19291 11.7557 9.00719 11.9786 8.84005 12.1643C8.69148 12.35 8.58005 12.4986 8.48719 12.61C8.50577 12.3686 8.56148 12.1272 8.61719 11.9043C8.63577 11.8857 8.63577 11.8857 8.65434 11.8672C8.72862 11.7929 8.84005 11.6815 8.97005 11.5515C9.23005 11.2915 9.54577 10.9386 9.86148 10.5857C10.1772 10.2329 10.4743 9.86146 10.6972 9.56431C10.7901 9.45289 10.8643 9.34146 10.9201 9.26717C11.1986 9.15574 11.4772 9.06289 11.7743 9.00717ZM10.8086 9.32289C10.7529 9.3786 10.6972 9.43431 10.6229 9.5086C10.3629 9.7686 10.0472 10.1215 9.73148 10.4743C9.41577 10.8457 9.11862 11.2172 8.89577 11.4957C8.78434 11.6257 8.71005 11.7557 8.63577 11.83C9.00719 10.7157 9.78719 9.82431 10.8086 9.32289ZM8.50577 13.5386C8.54291 13.5015 8.58005 13.4643 8.63577 13.4086C8.74719 13.2786 8.93291 13.1115 9.13719 12.9072C9.34148 12.7029 9.58291 12.4429 9.82434 12.1829C10.0658 11.9229 10.3258 11.6257 10.5858 11.3286C10.8458 11.0315 11.1058 10.7343 11.3286 10.4557C11.5701 10.1772 11.7743 9.91717 11.9601 9.69431C12.1458 9.47146 12.2943 9.26717 12.4058 9.13717C12.5172 9.00717 12.5729 8.93288 12.5729 8.93288C12.5729 8.93288 12.4986 9.00717 12.3872 9.1186C12.2758 9.2486 12.0901 9.41574 11.8858 9.62003C11.6815 9.82431 11.4401 10.0843 11.1986 10.3443C10.9572 10.6043 10.6972 10.9015 10.4372 11.1986C10.1772 11.4957 9.91719 11.7929 9.69434 12.0715C9.45291 12.35 9.24862 12.61 9.06291 12.8329C8.87719 13.0557 8.72862 13.26 8.61719 13.39C8.58005 13.4457 8.54291 13.4829 8.50577 13.5386C8.48719 13.3715 8.46862 13.2043 8.46862 13.0372C8.46862 12.9072 8.46862 12.7772 8.48719 12.6657C8.48719 12.6657 8.48719 12.6657 8.50577 12.6472C8.61719 12.5543 8.76577 12.4057 8.93291 12.22C9.10005 12.0343 9.30434 11.83 9.52719 11.6072C9.75005 11.3843 9.97291 11.1429 10.1958 10.9015C10.4186 10.66 10.6415 10.4 10.8458 10.1772C11.0501 9.93574 11.2358 9.71288 11.4029 9.52717C11.5701 9.34146 11.6815 9.17431 11.7743 9.06288C11.7929 9.04431 11.8115 9.02574 11.8301 9.00717C12.0901 8.95146 12.3501 8.93288 12.6101 8.93288C12.8701 8.93288 13.1115 8.95146 13.3715 9.00717C13.3343 9.04431 13.2972 9.08146 13.2601 9.1186C13.1115 9.26717 12.9072 9.47146 12.6843 9.71288C12.4429 9.97288 12.1643 10.2515 11.8858 10.5857C11.5886 10.9015 11.2915 11.2543 10.9758 11.5886C10.6786 11.9415 10.3629 12.2757 10.0843 12.61C9.80577 12.9443 9.54577 13.2415 9.32291 13.52C9.10005 13.78 8.91434 14.0029 8.78434 14.17C8.74719 14.2072 8.72862 14.2443 8.69148 14.2815C8.59862 14.0215 8.54291 13.78 8.50577 13.5386ZM8.78434 14.17C8.93291 14.0215 9.13719 13.8172 9.36005 13.5757C9.60148 13.3157 9.88005 13.0372 10.1586 12.7215C10.4558 12.4057 10.7529 12.0529 11.0686 11.7186C11.3658 11.3657 11.6815 11.0315 11.9601 10.6972C12.2386 10.3629 12.4986 10.0657 12.7215 9.78717C12.9443 9.52717 13.1301 9.30431 13.2601 9.13717C13.2972 9.08146 13.3343 9.04431 13.3715 9.00717C13.5572 9.04431 13.7243 9.08146 13.8915 9.13717C13.8729 9.15574 13.8543 9.17431 13.8358 9.19289C13.6872 9.34146 13.4829 9.56431 13.2229 9.84289C12.9815 10.1215 12.6843 10.4372 12.3872 10.7715C12.0901 11.1057 11.7558 11.4772 11.4401 11.8486C11.1243 12.22 10.8086 12.5915 10.5115 12.9443C10.2143 13.2972 9.95434 13.6315 9.71291 13.91C9.47148 14.1886 9.28577 14.43 9.15577 14.6157C9.02577 14.7829 8.95148 14.8757 8.95148 14.8757C8.95148 14.8757 9.04434 14.7829 9.19291 14.6343C9.34148 14.4857 9.54577 14.2629 9.80577 13.9843C10.0472 13.7057 10.3443 13.39 10.6415 13.0557C10.9386 12.7029 11.2729 12.35 11.5886 11.9786C11.9043 11.6072 12.2201 11.2357 12.5172 10.8829C12.8143 10.53 13.0743 10.1957 13.3158 9.91717C13.5572 9.6386 13.7429 9.39717 13.8729 9.21146C13.8915 9.17431 13.9101 9.15574 13.9286 9.13717C14.1515 9.21146 14.3558 9.30431 14.5415 9.41574C14.5043 9.45289 14.4486 9.5086 14.3929 9.56431C14.2443 9.73146 14.0215 9.97289 13.7615 10.2515C13.5015 10.5486 13.2043 10.8643 12.8886 11.2357C12.5729 11.5886 12.2386 11.9972 11.9043 12.3872C11.5701 12.7772 11.2358 13.1672 10.9386 13.5386C10.6229 13.91 10.3443 14.2629 10.1029 14.56C9.86148 14.8572 9.65719 15.1172 9.52719 15.2843C9.45291 15.3957 9.39719 15.47 9.36005 15.5072C9.08148 15.1357 8.85862 14.7086 8.71005 14.2629C8.71005 14.2443 8.72862 14.2072 8.78434 14.17ZM9.67577 15.9343C9.71291 15.8972 9.78719 15.8229 9.88005 15.7115C10.0286 15.5443 10.2701 15.3029 10.5301 15.0057C10.7901 14.7086 11.1058 14.3743 11.4401 14.0029C11.7743 13.6315 12.1086 13.2415 12.4615 12.8329C12.7958 12.4243 13.1486 12.0343 13.4643 11.6629C13.7801 11.2915 14.0772 10.92 14.3372 10.6229C14.5972 10.3257 14.8015 10.0657 14.9315 9.88003C14.9686 9.82431 15.0058 9.78717 15.0429 9.73146C15.1915 9.84289 15.3215 9.95431 15.4515 10.0843C15.4143 10.1215 15.3586 10.1772 15.3029 10.2329C15.1543 10.4 14.9129 10.6415 14.6529 10.9386C14.3929 11.2357 14.0772 11.57 13.7429 11.9415C13.4086 12.3129 13.0743 12.7029 12.7215 13.1115C12.3872 13.52 12.0343 13.91 11.7186 14.2815C11.4029 14.6529 11.1058 15.0243 10.8643 15.3215C10.7158 15.5072 10.5672 15.6743 10.4558 15.8229C10.3443 15.9529 10.2515 16.0829 10.1772 16.1757C10.1401 16.2315 10.1029 16.2686 10.0843 16.3057C9.93577 16.1757 9.80577 16.0643 9.67577 15.9343ZM12.5915 17.1415C12.5543 17.1415 12.5172 17.1415 12.4801 17.1415C12.5172 17.1043 12.5543 17.0672 12.6101 17.0115C12.7401 16.8815 12.9258 16.6957 13.1301 16.4543C13.3529 16.2129 13.5943 15.9529 13.8543 15.6557C14.1143 15.3586 14.3929 15.0429 14.6715 14.7272C14.9501 14.4115 15.2286 14.0957 15.4701 13.78C15.7301 13.4829 15.9529 13.1857 16.1572 12.9443C16.3429 12.7029 16.5101 12.5172 16.6215 12.3686C16.6586 12.5729 16.6772 12.7957 16.6772 13.0186C16.6772 13.0557 16.6772 13.0929 16.6772 13.1115C16.5843 13.2229 16.4543 13.3343 16.3058 13.4829C16.1201 13.6872 15.8972 13.91 15.6743 14.17C15.4515 14.43 15.2101 14.7086 14.9686 14.9686C14.7272 15.2472 14.4858 15.5257 14.2629 15.7857C14.0401 16.0457 13.8358 16.3057 13.6686 16.51C13.5015 16.7143 13.3529 16.9 13.2601 17.03C13.2601 17.03 13.2601 17.03 13.2601 17.0486C13.0558 17.1229 12.8329 17.1415 12.5915 17.1415ZM14.4858 16.6772C14.5043 16.6586 14.5415 16.6215 14.5601 16.6029C14.8386 16.3243 15.1915 15.9343 15.5258 15.5443C15.8601 15.1543 16.1943 14.7457 16.4358 14.43C16.1015 15.3957 15.3958 16.1943 14.4858 16.6772Z" fill="url(#paint28_linear_1_1909)"/>
<path d="M12.8143 7.6143C13.0372 7.6143 13.2229 7.41001 13.2229 7.16859V6.38859C13.2229 6.14716 13.0372 5.94287 12.8143 5.94287C12.5915 5.94287 12.4058 6.14716 12.4058 6.38859V7.16859C12.4058 7.42859 12.5915 7.6143 12.8143 7.6143Z" fill="url(#paint29_linear_1_1909)"/>
<path d="M12.8143 17.9773C12.5915 17.9773 12.4058 18.1816 12.4058 18.423V19.203C12.4058 19.4444 12.5915 19.6487 12.8143 19.6487C13.0372 19.6487 13.2229 19.4444 13.2229 19.203V18.423C13.2229 18.1816 13.0372 17.9773 12.8143 17.9773Z" fill="url(#paint30_linear_1_1909)"/>
<path d="M19.2213 12.3872H18.4413C18.1999 12.3872 17.9956 12.5729 17.9956 12.7958C17.9956 13.0186 18.1999 13.2044 18.4413 13.2044H19.2213C19.4627 13.2044 19.667 13.0186 19.667 12.7958C19.667 12.5729 19.4627 12.3872 19.2213 12.3872Z" fill="url(#paint31_linear_1_1909)"/>
<path d="M7.18714 12.3872H6.40714C6.16571 12.3872 5.96143 12.5729 5.96143 12.7958C5.96143 13.0186 6.16571 13.2044 6.40714 13.2044H7.18714C7.42857 13.2044 7.63285 13.0186 7.63285 12.7958C7.63285 12.5729 7.42857 12.3872 7.18714 12.3872Z" fill="url(#paint32_linear_1_1909)"/>
<path d="M17.0486 7.9673L16.4915 8.52445C16.3243 8.69159 16.3058 8.97016 16.4729 9.1373C16.64 9.30445 16.9 9.28588 17.0858 9.11873L17.6429 8.56159C17.81 8.39445 17.8286 8.11588 17.6615 7.94873C17.4943 7.78159 17.2343 7.80016 17.0486 7.9673Z" fill="url(#paint33_linear_1_1909)"/>
<path d="M8.54276 16.4913L7.98561 17.0485C7.81847 17.2156 7.7999 17.4942 7.96704 17.6613C8.13419 17.8285 8.39419 17.8099 8.5799 17.6427L9.13704 17.0856C9.30419 16.9185 9.32276 16.6399 9.15561 16.4727C8.98847 16.3056 8.7099 16.3056 8.54276 16.4913Z" fill="url(#paint34_linear_1_1909)"/>
<path d="M17.0858 16.4915C16.9186 16.3243 16.64 16.3058 16.4729 16.4729C16.3058 16.64 16.3243 16.9 16.4915 17.0858L17.0486 17.6429C17.2158 17.81 17.4943 17.8286 17.6615 17.6615C17.8286 17.4943 17.81 17.2343 17.6429 17.0486L17.0858 16.4915Z" fill="url(#paint35_linear_1_1909)"/>
<path d="M8.54276 9.11873C8.7099 9.28588 8.98847 9.30445 9.15561 9.1373C9.32276 8.97016 9.30419 8.71016 9.13704 8.52445L8.5799 7.9673C8.41276 7.80016 8.13419 7.78159 7.96704 7.94873C7.7999 8.11588 7.81847 8.37588 7.98561 8.56159L8.54276 9.11873Z" fill="url(#paint36_linear_1_1909)"/>
</g>
<path d="M12.5543 8.43164C10.1957 8.43164 8.28283 10.2702 8.15283 12.5916C8.15283 12.6659 8.15283 12.7588 8.15283 12.8331C8.15283 13.2974 8.22712 13.7616 8.35712 14.1888C8.93283 15.9531 10.5857 17.2345 12.5357 17.2345C14.9685 17.2345 16.9371 15.2659 16.9371 12.8331C16.9557 10.4002 14.9871 8.43164 12.5543 8.43164ZM16.1757 14.1702C15.8971 14.4488 15.5443 14.8388 15.21 15.2288C14.8757 15.6188 14.5414 16.0274 14.3 16.3431C14.2257 16.4359 14.17 16.5102 14.1143 16.5845C13.7985 16.7331 13.4828 16.8259 13.13 16.9002C13.2414 16.7888 13.39 16.6402 13.5757 16.4359C13.7614 16.2316 13.9843 16.0088 14.2071 15.7488C14.43 15.4888 14.6714 15.2102 14.9128 14.9502C15.1543 14.6716 15.3957 14.3931 15.6185 14.1331C15.8414 13.8731 16.0457 13.6131 16.2128 13.4088C16.3243 13.2788 16.4171 13.1488 16.4914 13.0559C16.4728 13.3902 16.4171 13.7245 16.3243 14.0402C16.2871 14.0588 16.2314 14.0959 16.1757 14.1702ZM11.1428 16.5102C11.2914 16.3431 11.5143 16.1202 11.7557 15.8416C12.0157 15.5631 12.3128 15.2474 12.61 14.8945C12.9257 14.5416 13.26 14.1702 13.5757 13.7988C13.91 13.4274 14.2257 13.0374 14.5228 12.6845C14.82 12.3316 15.0985 11.9974 15.34 11.7002C15.5814 11.4216 15.7671 11.1616 15.9157 10.9945C15.9528 10.9574 15.9714 10.9202 15.99 10.9016C16.0828 11.0688 16.1571 11.2545 16.2314 11.4402C16.2128 11.4588 16.2128 11.4774 16.1943 11.4774C16.0457 11.6259 15.8414 11.8302 15.6185 12.1088C15.3771 12.3688 15.0985 12.6659 14.82 13.0002C14.5228 13.3345 14.2257 13.6874 13.91 14.0402C13.6128 14.3931 13.2971 14.7459 13.0185 15.0988C12.74 15.4331 12.48 15.7674 12.2571 16.0274C12.0343 16.3059 11.8485 16.5288 11.7371 16.6959C11.6814 16.7702 11.6443 16.8074 11.6071 16.8445C11.3843 16.8074 11.1614 16.7516 10.9571 16.6588C11.0128 16.6588 11.0685 16.6031 11.1428 16.5102ZM10.9757 16.6959C10.79 16.6216 10.6228 16.5474 10.4557 16.4731C10.4928 16.4359 10.5485 16.3802 10.6228 16.3059C10.7714 16.1388 11.0128 15.8974 11.2728 15.6002C11.5328 15.3031 11.8485 14.9688 12.1643 14.5974C12.48 14.2259 12.8328 13.8359 13.1671 13.4459C13.5014 13.0374 13.8357 12.6474 14.1514 12.2759C14.4671 11.9045 14.7457 11.5516 15.0057 11.2359C15.2471 10.9388 15.4514 10.6788 15.6 10.4931C15.6371 10.4559 15.6557 10.4188 15.6928 10.3816C15.8228 10.5488 15.9343 10.7159 16.0271 10.9016C15.99 10.9388 15.9714 10.9574 15.9343 10.9945C15.7857 11.1616 15.5628 11.3845 15.3214 11.6631C15.0614 11.9416 14.7643 12.2574 14.4671 12.6102C14.1514 12.9631 13.8171 13.3345 13.5014 13.7059C13.1671 14.0774 12.8514 14.4674 12.5543 14.8202C12.2571 15.1731 11.9785 15.5074 11.7371 15.8045C11.4957 16.0831 11.31 16.3431 11.1614 16.5102C11.05 16.5845 11.0128 16.6402 10.9757 16.6959ZM11.7743 16.7331C11.9228 16.5845 12.1271 16.3802 12.35 16.1016C12.5914 15.8416 12.87 15.5445 13.1485 15.2102C13.4457 14.8759 13.7428 14.5231 14.0585 14.1702C14.3557 13.8174 14.6714 13.4645 14.95 13.1116C15.2285 12.7774 15.4885 12.4431 15.7114 12.1831C15.9343 11.9045 16.12 11.6816 16.2314 11.5145C16.25 11.4959 16.25 11.4959 16.25 11.4774C16.3243 11.6816 16.38 11.9045 16.4171 12.1274C16.2871 12.2574 16.1014 12.4431 15.8971 12.6845C15.6743 12.9259 15.4328 13.1859 15.1543 13.4831C14.8943 13.7802 14.6157 14.0959 14.3371 14.4116C14.0585 14.7274 13.78 15.0431 13.5385 15.3588C13.2785 15.6559 13.0557 15.9531 12.8514 16.1945C12.6471 16.4359 12.4985 16.6588 12.3685 16.7888C12.3128 16.8445 12.2757 16.9002 12.2571 16.9374C12.0528 16.9374 11.83 16.9002 11.6257 16.8631C11.6814 16.8445 11.7185 16.7888 11.7743 16.7331ZM15.6743 10.3631C15.6371 10.4002 15.6185 10.4188 15.5814 10.4745C15.4328 10.6416 15.1914 10.8831 14.9314 11.1802C14.6714 11.4774 14.3557 11.8116 14.04 12.1831C13.7243 12.5545 13.3714 12.9445 13.0371 13.3345C12.7028 13.7431 12.3685 14.1331 12.0528 14.5045C11.7371 14.8759 11.4585 15.2288 11.1985 15.5445C10.9571 15.8416 10.7528 16.1016 10.6043 16.2874C10.5485 16.3616 10.4928 16.4359 10.4557 16.4731C10.27 16.3616 10.0843 16.2502 9.91712 16.1202C9.95426 16.1016 9.9914 16.0645 10.0285 16.0088C10.14 15.8974 10.2885 15.7674 10.4557 15.5816C10.6228 15.3959 10.8271 15.1916 11.05 14.9688C11.2728 14.7459 11.4957 14.5045 11.7185 14.2631C11.9414 14.0216 12.1643 13.7616 12.3685 13.5388C12.5728 13.2974 12.7585 13.0745 12.9257 12.8888C13.0928 12.7031 13.2043 12.5359 13.2971 12.4245C13.39 12.3131 13.4457 12.2388 13.4457 12.2388C13.4457 12.2388 13.39 12.2945 13.2785 12.3874C13.26 12.4059 13.2414 12.4245 13.2043 12.4616C13.3714 12.2574 13.5571 12.0531 13.7243 11.8674C14.04 11.4959 14.3371 11.1245 14.5785 10.8274C14.8385 10.5302 15.0243 10.2702 15.1728 10.0845C15.2285 10.0102 15.2657 9.97307 15.3028 9.91735C15.4143 10.0474 15.5443 10.1959 15.6743 10.3631ZM14.8385 9.52735C14.8014 9.5645 14.7643 9.60164 14.7085 9.65735C14.56 9.8245 14.3185 10.0659 14.0585 10.3631C13.7985 10.6602 13.4828 10.9945 13.1485 11.3659C12.8143 11.7374 12.48 12.1274 12.1271 12.5359C11.7928 12.9445 11.44 13.3345 11.1243 13.7059C10.8085 14.0774 10.5114 14.4488 10.2514 14.7459C9.9914 15.0431 9.78712 15.3031 9.65712 15.4888C9.56426 15.6002 9.50855 15.6745 9.4714 15.7302C9.3414 15.6002 9.22997 15.4702 9.13712 15.3402C9.17426 15.3031 9.24855 15.2288 9.3414 15.1359C9.48997 14.9688 9.71283 14.7274 9.97283 14.4488C10.2328 14.1516 10.53 13.8359 10.8457 13.4645C11.1614 13.1116 11.4957 12.7031 11.83 12.3131C12.1643 11.9231 12.4985 11.5331 12.7957 11.1616C13.1114 10.7902 13.39 10.4374 13.6314 10.1402C13.8728 9.84307 14.0771 9.58307 14.2071 9.41593C14.2628 9.34164 14.3 9.28593 14.3371 9.24878C14.5228 9.3045 14.69 9.41593 14.8385 9.52735ZM11.57 8.80307C11.5514 8.82164 11.5514 8.82164 11.5328 8.84021C11.4214 8.95164 11.2728 9.08164 11.1057 9.26735C10.9385 9.45307 10.7343 9.65735 10.5114 9.88021C10.2885 10.1031 10.0657 10.3445 9.84283 10.5859C9.61997 10.8274 9.39712 11.0874 9.19283 11.3102C8.98855 11.5516 8.80283 11.7745 8.63569 11.9602C8.48712 12.1459 8.37569 12.2945 8.28283 12.4059C8.3014 12.1645 8.35712 11.9231 8.41283 11.7002C8.4314 11.6816 8.4314 11.6816 8.44997 11.6631C8.52426 11.5888 8.63569 11.4774 8.76569 11.3474C9.02569 11.0874 9.3414 10.7345 9.65712 10.3816C9.97283 10.0288 10.27 9.65735 10.4928 9.36021C10.5857 9.24878 10.66 9.13735 10.7157 9.06307C10.9943 8.95164 11.2728 8.85878 11.57 8.80307ZM10.6228 9.11878C10.5671 9.1745 10.5114 9.23021 10.4557 9.3045C10.1957 9.5645 9.87997 9.91735 9.56426 10.2702C9.24855 10.6231 8.9514 10.9945 8.72855 11.2916C8.61712 11.4216 8.54283 11.5516 8.46855 11.6259C8.80283 10.5302 9.58283 9.62021 10.6228 9.11878ZM8.31997 13.3345C8.35712 13.2974 8.39426 13.2602 8.44997 13.2045C8.5614 13.0745 8.74712 12.9074 8.9514 12.7031C9.15569 12.4988 9.39712 12.2388 9.63855 11.9788C9.87997 11.7188 10.14 11.4216 10.4 11.1245C10.66 10.8274 10.92 10.5302 11.1428 10.2516C11.3843 9.97307 11.5885 9.71307 11.7743 9.49021C11.96 9.26735 12.1085 9.06307 12.22 8.93307C12.3314 8.80307 12.3871 8.72878 12.3871 8.72878C12.3871 8.72878 12.3128 8.80307 12.2014 8.9145C12.09 9.0445 11.9043 9.21164 11.7 9.41593C11.4957 9.63878 11.2543 9.88021 11.0128 10.1402C10.7714 10.4002 10.5114 10.6974 10.2514 10.9945C9.9914 11.2916 9.7314 11.5888 9.50855 11.8674C9.26712 12.1459 9.06283 12.4059 8.87712 12.6288C8.6914 12.8516 8.54283 13.0559 8.4314 13.1859C8.37569 13.2416 8.33855 13.2788 8.31997 13.3345C8.3014 13.1674 8.28283 13.0002 8.28283 12.8331C8.28283 12.7031 8.28283 12.5731 8.3014 12.4616C8.3014 12.4616 8.3014 12.4616 8.31997 12.4431C8.4314 12.3316 8.57997 12.2016 8.74712 12.0159C8.91426 11.8302 9.11855 11.6259 9.3414 11.4031C9.56426 11.1802 9.78712 10.9388 10.01 10.6974C10.2328 10.4559 10.4557 10.1959 10.66 9.97307C10.8643 9.73164 11.05 9.50878 11.2171 9.32307C11.3843 9.13735 11.4957 8.97021 11.5885 8.85878C11.6071 8.84021 11.6257 8.82164 11.6443 8.80307C11.9043 8.74735 12.1643 8.72878 12.4243 8.72878C12.6843 8.72878 12.9257 8.74735 13.1857 8.80307C13.1485 8.84021 13.1114 8.87735 13.0743 8.9145C12.9257 9.06307 12.7214 9.26735 12.4985 9.50878C12.2571 9.76878 11.9785 10.0474 11.7 10.3631C11.4028 10.6788 11.1057 11.0316 10.79 11.3659C10.4928 11.7188 10.1771 12.0531 9.89855 12.3874C9.61997 12.7216 9.35997 13.0188 9.13712 13.2974C8.91426 13.5574 8.72855 13.7802 8.59855 13.9474C8.5614 13.9845 8.54283 14.0216 8.50569 14.0588C8.39426 13.8174 8.33855 13.5759 8.31997 13.3345ZM8.57997 13.9659C8.72855 13.8174 8.93283 13.6131 9.15569 13.3716C9.39712 13.1116 9.67569 12.8331 9.95426 12.5174C10.2514 12.2016 10.5485 11.8488 10.8643 11.5145C11.1614 11.1616 11.4771 10.8274 11.7557 10.4931C12.0343 10.1588 12.2943 9.86164 12.5171 9.58307C12.74 9.32307 12.9257 9.10021 13.0557 8.93307C13.0928 8.87735 13.13 8.84021 13.1671 8.80307C13.3528 8.84021 13.52 8.87735 13.6871 8.93307C13.6685 8.95164 13.65 8.97021 13.6314 8.98878C13.4828 9.15593 13.2785 9.36021 13.0185 9.63878C12.7771 9.91735 12.48 10.2331 12.1828 10.5674C11.8857 10.9016 11.5514 11.2731 11.2357 11.6445C10.92 12.0159 10.6043 12.3874 10.3071 12.7402C10.01 13.0931 9.74997 13.4274 9.50855 13.7059C9.26712 13.9845 9.0814 14.2259 8.9514 14.4116C8.8214 14.5788 8.74712 14.6716 8.74712 14.6716C8.74712 14.6716 8.83997 14.5788 8.98855 14.4302C9.13712 14.2816 9.3414 14.0588 9.6014 13.7802C9.84283 13.5016 10.14 13.1859 10.4371 12.8516C10.7343 12.5174 11.0685 12.1459 11.3843 11.7745C11.7 11.4031 12.0157 11.0316 12.3128 10.6788C12.61 10.3259 12.87 9.99164 13.1114 9.71307C13.3528 9.4345 13.5385 9.19307 13.6685 9.00735C13.6871 8.97021 13.7057 8.95164 13.7243 8.93307C13.9471 9.00735 14.1514 9.10021 14.3371 9.21164C14.3 9.24878 14.2443 9.3045 14.1885 9.36021C14.04 9.52735 13.8171 9.76878 13.5571 10.0474C13.2971 10.3445 13 10.6602 12.6843 11.0316C12.3685 11.3845 12.0343 11.7931 11.7 12.1831C11.3657 12.5731 11.0314 12.9631 10.7343 13.3345C10.4185 13.7059 10.14 14.0588 9.89855 14.3559C9.65712 14.6531 9.45283 14.9131 9.32283 15.0802C9.24855 15.1916 9.19283 15.2659 9.15569 15.3031C8.87712 14.9316 8.65426 14.5045 8.50569 14.0588C8.50569 14.0402 8.54283 14.0031 8.57997 13.9659ZM9.4714 15.7302C9.50855 15.6931 9.58283 15.6188 9.67569 15.5074C9.82426 15.3402 10.0657 15.0988 10.3257 14.8016C10.5857 14.5045 10.9014 14.1702 11.2357 13.7988C11.57 13.4274 11.9043 13.0374 12.2571 12.6288C12.5914 12.2202 12.9443 11.8302 13.26 11.4588C13.5757 11.0874 13.8728 10.7159 14.1328 10.4188C14.3928 10.1216 14.5971 9.86164 14.7271 9.67593C14.7643 9.62021 14.8014 9.58307 14.8385 9.52735C14.9871 9.63878 15.1171 9.75021 15.2471 9.88021C15.21 9.91735 15.1543 9.97307 15.0985 10.0288C14.95 10.1959 14.7085 10.4374 14.4485 10.7345C14.1885 11.0316 13.8728 11.3659 13.5385 11.7374C13.2043 12.1088 12.87 12.4988 12.5171 12.9074C12.1828 13.3159 11.83 13.7059 11.5143 14.0774C11.1985 14.4488 10.9014 14.8202 10.66 15.1174C10.5114 15.3031 10.3628 15.4702 10.2514 15.6188C10.14 15.7488 10.0471 15.8788 9.97283 15.9716C9.93569 16.0274 9.89855 16.0645 9.87997 16.1016C9.74997 15.9902 9.6014 15.8602 9.4714 15.7302ZM12.3871 16.9374C12.35 16.9374 12.3128 16.9374 12.2757 16.9374C12.3128 16.9002 12.35 16.8631 12.4057 16.8074C12.5357 16.6774 12.7214 16.4916 12.9257 16.2502C13.1485 16.0088 13.39 15.7488 13.65 15.4516C13.91 15.1545 14.1885 14.8388 14.4671 14.5231C14.7457 14.2074 15.0243 13.8916 15.2657 13.5759C15.5257 13.2788 15.7485 12.9816 15.9528 12.7402C16.1385 12.4988 16.3057 12.3131 16.4171 12.1645C16.4543 12.3688 16.4728 12.5916 16.4728 12.8145C16.4728 12.8516 16.4728 12.8888 16.4728 12.9074C16.38 13.0188 16.25 13.1302 16.1014 13.2788C15.9157 13.4831 15.6928 13.7059 15.47 13.9659C15.2471 14.2259 15.0057 14.5045 14.7643 14.7645C14.5228 15.0431 14.2814 15.3216 14.0585 15.5816C13.8357 15.8416 13.6314 16.1016 13.4643 16.3059C13.2971 16.5102 13.1485 16.6959 13.0557 16.8259C13.0557 16.8259 13.0557 16.8259 13.0557 16.8445C12.8514 16.9188 12.6285 16.9374 12.3871 16.9374ZM14.3 16.4731C14.3185 16.4545 14.3557 16.4174 14.3743 16.3988C14.6528 16.1202 15.0057 15.7302 15.34 15.3402C15.6743 14.9502 16.0085 14.5416 16.25 14.2259C15.9157 15.1916 15.21 16.0088 14.3 16.4731Z" fill="white"/>
<path d="M12.6101 7.42875C12.833 7.42875 13.0187 7.22447 13.0187 6.98304V6.20304C13.0187 5.96161 12.833 5.75732 12.6101 5.75732C12.3873 5.75732 12.2015 5.96161 12.2015 6.20304V6.98304C12.2015 7.22447 12.3873 7.42875 12.6101 7.42875Z" fill="white"/>
<path d="M12.6101 17.7917C12.3873 17.7917 12.2015 17.996 12.2015 18.2375V19.0175C12.2015 19.2589 12.3873 19.4632 12.6101 19.4632C12.833 19.4632 13.0187 19.2589 13.0187 19.0175V18.2375C13.0187 17.9775 12.8515 17.7917 12.6101 17.7917Z" fill="white"/>
<path d="M19.0358 12.1831H18.2558C18.0143 12.1831 17.8101 12.3688 17.8101 12.5917C17.8101 12.8145 18.0143 13.0002 18.2558 13.0002H19.0358C19.2772 13.0002 19.4815 12.8145 19.4815 12.5917C19.4815 12.3688 19.2772 12.1831 19.0358 12.1831Z" fill="white"/>
<path d="M6.98279 12.1831H6.20279C5.96137 12.1831 5.75708 12.3688 5.75708 12.5917C5.75708 12.8145 5.96137 13.0002 6.20279 13.0002H6.98279C7.22422 13.0002 7.42851 12.8145 7.42851 12.5917C7.42851 12.3688 7.24279 12.1831 6.98279 12.1831Z" fill="white"/>
<path d="M16.8628 7.78177L16.3057 8.33891C16.1385 8.50605 16.12 8.78462 16.2871 8.95177C16.4357 9.10034 16.7143 9.10034 16.8814 8.91462L17.4385 8.35748C17.6057 8.19034 17.6243 7.91177 17.4571 7.74462C17.3085 7.59605 17.03 7.59605 16.8628 7.78177Z" fill="white"/>
<path d="M8.33853 16.2871L7.78139 16.8443C7.61425 17.0114 7.59568 17.29 7.76282 17.4571C7.92996 17.6243 8.18996 17.6057 8.37568 17.4386L8.93282 16.8814C9.09996 16.7143 9.11853 16.4357 8.95139 16.2686C8.78425 16.1014 8.52425 16.12 8.33853 16.2871Z" fill="white"/>
<path d="M16.8815 16.2871C16.7144 16.12 16.4358 16.1014 16.2687 16.2686C16.1015 16.4357 16.1201 16.6957 16.2873 16.8814L16.8444 17.4386C17.0115 17.6057 17.2901 17.6243 17.4573 17.4571C17.6244 17.29 17.6058 17.03 17.4387 16.8443L16.8815 16.2871Z" fill="white"/>
<path d="M8.33853 8.91439C8.50568 9.08153 8.78425 9.1001 8.95139 8.93296C9.11853 8.76582 9.09996 8.50582 8.93282 8.3201L8.37568 7.76296C8.20853 7.59582 7.92996 7.57724 7.76282 7.74439C7.59568 7.91153 7.61425 8.17153 7.78139 8.35724L8.33853 8.91439Z" fill="white"/>
<defs>
<radialGradient id="paint0_radial_1_1909" cx="0" cy="0" r="1" gradientUnits="userSpaceOnUse" gradientTransform="translate(18.3026 21.2837) scale(30.1723 30.1723)">
<stop offset="0.5603" stop-color="#CECECE"/>
<stop offset="0.6366" stop-color="#D3D3D3"/>
<stop offset="0.7222" stop-color="#E0E0E0"/>
<stop offset="0.8121" stop-color="#F6F6F6"/>
<stop offset="0.84" stop-color="white"/>
</radialGradient>
<linearGradient id="paint1_linear_1_1909" x1="8.93788" y1="13.628" x2="17.7397" y2="13.628" gradientUnits="userSpaceOnUse">
<stop stop-color="#7E7E7E"/>
<stop offset="1" stop-color="#CECECE"/>
</linearGradient>
<linearGradient id="paint2_linear_1_1909" x1="12.9928" y1="7.37652" x2="13.8176" y2="7.37652" gradientUnits="userSpaceOnUse">
<stop stop-color="#7E7E7E"/>
<stop offset="1" stop-color="#CECECE"/>
</linearGradient>
<linearGradient id="paint3_linear_1_1909" x1="12.9928" y1="19.4153" x2="13.8176" y2="19.4153" gradientUnits="userSpaceOnUse">
<stop stop-color="#7E7E7E"/>
<stop offset="1" stop-color="#CECECE"/>
</linearGradient>
<linearGradient id="paint4_linear_1_1909" x1="18.584" y1="13.3959" x2="20.2648" y2="13.3959" gradientUnits="userSpaceOnUse">
<stop stop-color="#7E7E7E"/>
<stop offset="1" stop-color="#CECECE"/>
</linearGradient>
<linearGradient id="paint5_linear_1_1909" x1="6.5453" y1="13.3959" x2="8.22652" y2="13.3959" gradientUnits="userSpaceOnUse">
<stop stop-color="#7E7E7E"/>
<stop offset="1" stop-color="#CECECE"/>
</linearGradient>
<linearGradient id="paint6_linear_1_1909" x1="16.953" y1="9.13957" x2="18.37" y2="9.13957" gradientUnits="userSpaceOnUse">
<stop stop-color="#7E7E7E"/>
<stop offset="1" stop-color="#CECECE"/>
</linearGradient>
<linearGradient id="paint7_linear_1_1909" x1="8.44018" y1="17.652" x2="9.85716" y2="17.652" gradientUnits="userSpaceOnUse">
<stop stop-color="#7E7E7E"/>
<stop offset="1" stop-color="#CECECE"/>
</linearGradient>
<linearGradient id="paint8_linear_1_1909" x1="16.953" y1="17.652" x2="18.3699" y2="17.652" gradientUnits="userSpaceOnUse">
<stop stop-color="#7E7E7E"/>
<stop offset="1" stop-color="#CECECE"/>
</linearGradient>
<linearGradient id="paint9_linear_1_1909" x1="8.44018" y1="9.13957" x2="9.85716" y2="9.13957" gradientUnits="userSpaceOnUse">
<stop stop-color="#7E7E7E"/>
<stop offset="1" stop-color="#CECECE"/>
</linearGradient>
<linearGradient id="paint10_linear_1_1909" x1="8.74023" y1="13.43" x2="17.5424" y2="13.43" gradientUnits="userSpaceOnUse">
<stop stop-color="#7E7E7E"/>
<stop offset="1" stop-color="#CECECE"/>
</linearGradient>
<linearGradient id="paint11_linear_1_1909" x1="12.7952" y1="7.17863" x2="13.6201" y2="7.17863" gradientUnits="userSpaceOnUse">
<stop stop-color="#7E7E7E"/>
<stop offset="1" stop-color="#CECECE"/>
</linearGradient>
<linearGradient id="paint12_linear_1_1909" x1="12.7952" y1="19.2172" x2="13.6201" y2="19.2172" gradientUnits="userSpaceOnUse">
<stop stop-color="#7E7E7E"/>
<stop offset="1" stop-color="#CECECE"/>
</linearGradient>
<linearGradient id="paint13_linear_1_1909" x1="18.3866" y1="13.1979" x2="20.0674" y2="13.1979" gradientUnits="userSpaceOnUse">
<stop stop-color="#7E7E7E"/>
<stop offset="1" stop-color="#CECECE"/>
</linearGradient>
<linearGradient id="paint14_linear_1_1909" x1="6.34779" y1="13.1979" x2="8.02901" y2="13.1979" gradientUnits="userSpaceOnUse">
<stop stop-color="#7E7E7E"/>
<stop offset="1" stop-color="#CECECE"/>
</linearGradient>
<linearGradient id="paint15_linear_1_1909" x1="16.7554" y1="8.94154" x2="18.1725" y2="8.94154" gradientUnits="userSpaceOnUse">
<stop stop-color="#7E7E7E"/>
<stop offset="1" stop-color="#CECECE"/>
</linearGradient>
<linearGradient id="paint16_linear_1_1909" x1="8.24265" y1="17.4541" x2="9.65984" y2="17.4541" gradientUnits="userSpaceOnUse">
<stop stop-color="#7E7E7E"/>
<stop offset="1" stop-color="#CECECE"/>
</linearGradient>
<linearGradient id="paint17_linear_1_1909" x1="16.7554" y1="17.4542" x2="18.1725" y2="17.4542" gradientUnits="userSpaceOnUse">
<stop stop-color="#7E7E7E"/>
<stop offset="1" stop-color="#CECECE"/>
</linearGradient>
<linearGradient id="paint18_linear_1_1909" x1="8.24265" y1="8.94148" x2="9.65984" y2="8.94148" gradientUnits="userSpaceOnUse">
<stop stop-color="#7E7E7E"/>
<stop offset="1" stop-color="#CECECE"/>
</linearGradient>
<linearGradient id="paint19_linear_1_1909" x1="8.54224" y1="13.2319" x2="17.3445" y2="13.2319" gradientUnits="userSpaceOnUse">
<stop stop-color="#7E7E7E"/>
<stop offset="1" stop-color="#CECECE"/>
</linearGradient>
<linearGradient id="paint20_linear_1_1909" x1="12.5971" y1="6.98072" x2="13.4219" y2="6.98072" gradientUnits="userSpaceOnUse">
<stop stop-color="#7E7E7E"/>
<stop offset="1" stop-color="#CECECE"/>
</linearGradient>
<linearGradient id="paint21_linear_1_1909" x1="12.5971" y1="19.0195" x2="13.422" y2="19.0195" gradientUnits="userSpaceOnUse">
<stop stop-color="#7E7E7E"/>
<stop offset="1" stop-color="#CECECE"/>
</linearGradient>
<linearGradient id="paint22_linear_1_1909" x1="18.1883" y1="13" x2="19.8696" y2="13" gradientUnits="userSpaceOnUse">
<stop stop-color="#7E7E7E"/>
<stop offset="1" stop-color="#CECECE"/>
</linearGradient>
<linearGradient id="paint23_linear_1_1909" x1="6.14967" y1="13" x2="7.83126" y2="13" gradientUnits="userSpaceOnUse">
<stop stop-color="#7E7E7E"/>
<stop offset="1" stop-color="#CECECE"/>
</linearGradient>
<linearGradient id="paint24_linear_1_1909" x1="16.5576" y1="8.74369" x2="17.9746" y2="8.74369" gradientUnits="userSpaceOnUse">
<stop stop-color="#7E7E7E"/>
<stop offset="1" stop-color="#CECECE"/>
</linearGradient>
<linearGradient id="paint25_linear_1_1909" x1="8.04473" y1="17.2561" x2="9.46175" y2="17.2561" gradientUnits="userSpaceOnUse">
<stop stop-color="#7E7E7E"/>
<stop offset="1" stop-color="#CECECE"/>
</linearGradient>
<linearGradient id="paint26_linear_1_1909" x1="16.5574" y1="17.2559" x2="17.9744" y2="17.2559" gradientUnits="userSpaceOnUse">
<stop stop-color="#7E7E7E"/>
<stop offset="1" stop-color="#CECECE"/>
</linearGradient>
<linearGradient id="paint27_linear_1_1909" x1="8.04473" y1="8.74346" x2="9.46175" y2="8.74346" gradientUnits="userSpaceOnUse">
<stop stop-color="#7E7E7E"/>
<stop offset="1" stop-color="#CECECE"/>
</linearGradient>
<linearGradient id="paint28_linear_1_1909" x1="8.34486" y1="13.0339" x2="17.1467" y2="13.0339" gradientUnits="userSpaceOnUse">
<stop stop-color="#7E7E7E"/>
<stop offset="1" stop-color="#CECECE"/>
</linearGradient>
<linearGradient id="paint29_linear_1_1909" x1="12.3997" y1="6.78239" x2="13.2246" y2="6.78239" gradientUnits="userSpaceOnUse">
<stop stop-color="#7E7E7E"/>
<stop offset="1" stop-color="#CECECE"/>
</linearGradient>
<linearGradient id="paint30_linear_1_1909" x1="12.3997" y1="18.8211" x2="13.2246" y2="18.8211" gradientUnits="userSpaceOnUse">
<stop stop-color="#7E7E7E"/>
<stop offset="1" stop-color="#CECECE"/>
</linearGradient>
<linearGradient id="paint31_linear_1_1909" x1="17.9906" y1="12.8018" x2="19.6718" y2="12.8018" gradientUnits="userSpaceOnUse">
<stop stop-color="#7E7E7E"/>
<stop offset="1" stop-color="#CECECE"/>
</linearGradient>
<linearGradient id="paint32_linear_1_1909" x1="5.95229" y1="12.8018" x2="7.63315" y2="12.8018" gradientUnits="userSpaceOnUse">
<stop stop-color="#7E7E7E"/>
<stop offset="1" stop-color="#CECECE"/>
</linearGradient>
<linearGradient id="paint33_linear_1_1909" x1="16.3598" y1="8.54545" x2="17.777" y2="8.54545" gradientUnits="userSpaceOnUse">
<stop stop-color="#7E7E7E"/>
<stop offset="1" stop-color="#CECECE"/>
</linearGradient>
<linearGradient id="paint34_linear_1_1909" x1="7.84694" y1="17.0578" x2="9.26411" y2="17.0578" gradientUnits="userSpaceOnUse">
<stop stop-color="#7E7E7E"/>
<stop offset="1" stop-color="#CECECE"/>
</linearGradient>
<linearGradient id="paint35_linear_1_1909" x1="16.3598" y1="17.0581" x2="17.7768" y2="17.0581" gradientUnits="userSpaceOnUse">
<stop stop-color="#7E7E7E"/>
<stop offset="1" stop-color="#CECECE"/>
</linearGradient>
<linearGradient id="paint36_linear_1_1909" x1="7.847" y1="8.54545" x2="9.26411" y2="8.54545" gradientUnits="userSpaceOnUse">
<stop stop-color="#7E7E7E"/>
<stop offset="1" stop-color="#CECECE"/>
</linearGradient>
</defs>
</svg>
