<svg width="279" height="261" viewBox="0 0 279 261" fill="none" xmlns="http://www.w3.org/2000/svg">
<path d="M265.918 132.905L265.918 132.905L265.921 132.901C269.247 128.548 269.34 123.03 266.39 117.392L269.254 115.813C271.88 120.895 272.437 125.957 270.906 130.418C270.347 132 269.556 133.488 268.486 134.884C266.599 137.33 263.984 139.258 261.211 140.408C258.614 141.485 255.912 141.867 253.561 141.392L254.372 138.221C255.985 138.485 257.963 138.202 259.915 137.417C262.077 136.547 264.251 135.044 265.918 132.905Z" fill="white" stroke="black"/>
<path d="M251.176 109.86L251.176 109.858C249.791 104.988 251.702 99.1161 254.046 94.3741C255.21 92.0194 256.465 89.9759 257.428 88.5207C257.91 87.7935 258.318 87.2142 258.606 86.8176C258.692 86.6983 258.767 86.5955 258.831 86.5103C258.92 86.5468 259.025 86.5905 259.146 86.6412C259.575 86.8218 260.193 87.092 260.946 87.4488C262.454 88.1628 264.499 89.222 266.651 90.6023C270.978 93.3772 275.64 97.3898 277.335 102.428L277.335 102.429C279.73 109.521 275.218 117.214 267.979 119.255C260.756 121.293 253.212 117.125 251.176 109.86Z" fill="white" stroke="black"/>
<path d="M194.957 260.037H152.723C152.786 240.095 153.766 225.006 155.433 213.682C157.087 202.45 159.41 194.956 162.157 190.109H185.477C188.246 194.955 190.57 202.449 192.223 213.682C193.89 225.006 194.871 240.095 194.957 260.037Z" fill="white" stroke="black"/>
<path d="M120.444 213.741C123.544 225.055 126.407 240.125 128.955 260.037H86.0079C83.6021 240.064 82.7202 224.956 83.0052 213.622C83.2869 202.419 84.708 194.945 86.8928 190.109H110.598C114.045 194.965 117.358 202.477 120.444 213.741Z" fill="white" stroke="black"/>
<path d="M86.0515 260.036C85.7127 257.395 85.4327 254.816 85.1616 252.32C85.1296 252.025 85.0977 251.731 85.0658 251.439H127.84C128.227 254.201 128.614 257.044 129.001 260.036H86.0515Z" fill="white" stroke="black"/>
<path d="M181.328 260.037H134.631C134.719 240.096 135.796 225.01 137.634 213.689C139.46 202.445 142.032 194.951 145.104 190.109H170.903C173.951 194.952 176.512 202.445 178.332 213.689C180.164 225.01 181.241 240.096 181.328 260.037Z" fill="white" stroke="black"/>
<path d="M198.007 260.037C201.458 236.722 205.061 219.085 208.772 205.85C212.48 192.627 216.288 183.826 220.141 178.151L254.215 170.382C254.186 170.701 254.147 171.13 254.098 171.662C253.98 172.946 253.804 174.834 253.572 177.246C253.108 182.072 252.42 188.997 251.524 197.396C249.741 214.092 247.136 236.612 243.83 260.037H198.007Z" fill="white" stroke="black"/>
<path d="M257.249 152.993C257.249 203.999 214.253 245.4 161.195 245.4C108.137 245.4 65.1411 203.999 65.1411 152.993C65.1411 101.987 108.137 60.5864 161.195 60.5864C214.253 60.5864 257.249 101.939 257.249 152.993Z" fill="white" stroke="black"/>
<path d="M218.187 140.863C214.56 190.353 171.514 227.529 122.024 223.902C72.5351 220.275 35.3586 177.229 38.9856 127.739C42.6158 78.2065 86.1808 34.8382 135.628 38.4621C185.075 42.086 221.817 91.3301 218.187 140.863Z" fill="white" stroke="black"/>
<path d="M199.193 93.5275L149.849 40.3028C171.323 50.3927 188.954 55.1051 202.968 55.9785C217.491 56.8835 228.16 53.6659 235.172 47.9986C245.393 39.7632 249.699 30.6461 251.839 23.598C252.69 20.7944 253.199 18.3114 253.599 16.3647C253.7 15.8714 253.794 15.4124 253.885 14.9914C254.113 13.9353 254.313 13.1514 254.54 12.6366C254.779 12.0933 254.947 12.0687 255.005 12.0694C255.028 12.0699 255.131 12.0889 255.326 12.2332C255.512 12.371 255.738 12.5894 255.997 12.8977C256.514 13.5131 257.12 14.432 257.774 15.6225C259.081 17.9994 260.545 21.4007 261.847 25.4743C264.452 33.6243 266.386 44.4058 265.129 54.9825C263.872 65.5487 259.435 75.8876 249.314 83.2315C239.21 90.5636 223.369 94.963 199.193 93.5275Z" fill="white" stroke="black"/>
<path d="M17.9351 4.28823C17.7878 1.68004 17.6988 0.104926 16.8922 0.00409757L105.096 37.5965C64.1364 50.1423 40.1537 45.0436 29.7533 33.7883C18.9389 22.0672 18.2784 10.3696 17.9351 4.28823ZM56.3153 45.1501C68.5186 46.1762 84.3059 44.3672 104.055 38.4349L54.7906 78.0946C33.6896 76.2452 20.5505 70.4129 12.7473 62.7851C4.92951 55.143 2.40428 45.6363 2.6594 36.3335C2.9148 27.0201 5.95865 17.9345 9.25064 11.2104C10.896 7.84976 12.5965 5.09296 14.0287 3.20347C14.7463 2.25688 15.3864 1.54133 15.9094 1.07748C16.1716 0.844985 16.391 0.687675 16.5647 0.594873C16.6507 0.548914 16.7172 0.523317 16.7652 0.510491C16.81 0.498512 16.8293 0.500155 16.8293 0.500127L16.8302 0.500237C16.8303 0.500244 16.8304 0.500251 16.8305 0.50026C16.8384 0.50074 16.9663 0.508498 17.1004 0.997522C17.2282 1.4632 17.301 2.15966 17.3636 3.10252C17.3882 3.47236 17.4109 3.87485 17.4353 4.3075C17.5333 6.04472 17.6587 8.26812 18.0414 10.8159C19.0003 17.2005 21.5764 25.6632 29.3858 34.1274L29.386 34.1277C34.7497 39.9322 43.6043 44.0813 56.3153 45.1501Z" fill="white" stroke="black"/>
<path d="M61.4171 63.421L61.1216 69.8797C51.6086 98.3414 37.2079 106.901 24.9279 106.813C18.7489 106.769 13.0411 104.541 8.66709 101.463C4.44295 98.4904 1.52312 94.7697 0.585836 91.5348C5.00417 89.2245 20.0207 82.282 34.1362 75.8255C41.3879 72.5085 48.3938 69.3235 53.5869 66.9677C56.1833 65.7898 58.3266 64.8192 59.8207 64.1431C60.4882 63.841 61.0262 63.5977 61.4171 63.421Z" fill="white" stroke="black"/>
<path d="M185.655 67.1395C186.016 67.3712 186.511 67.6899 187.126 68.0853C188.505 68.9722 190.482 70.2451 192.878 71.7893C197.669 74.8777 204.132 79.0509 210.82 83.3906C223.839 91.8382 237.682 100.899 241.728 103.829C240.335 106.897 236.907 110.156 232.295 112.482C227.519 114.891 221.547 116.262 215.427 115.402C203.264 113.694 190.265 103.114 185.022 73.5519L185.655 67.1395Z" fill="white" stroke="black"/>
<path d="M128.046 34.1431L128.047 34.1431C177.445 37.7193 214.235 87.0109 210.605 136.544C206.978 186.034 163.932 223.21 114.442 219.583C64.9531 215.956 27.7766 172.91 31.4036 123.42C35.0338 73.8875 78.5987 30.5192 128.046 34.1431Z" fill="white" stroke="black"/>
<path d="M119.651 53.7368C118.193 59.3724 103.614 112.606 55.1596 181.812L54.2533 181.182C102.623 112.092 117.164 59.0604 118.608 53.4885L119.651 53.7368Z" fill="white" stroke="black"/>
<path d="M181.351 190.537L180.422 191.002C142.553 115.464 135.869 60.6698 135.253 54.9228L136.32 54.8235C136.932 60.6 143.573 115.136 181.351 190.537Z" fill="white" stroke="black"/>
<path d="M182.992 194.977C165.306 211.902 140.796 221.53 114.443 219.583C88.1374 217.636 65.3284 204.588 50.2447 185.324C63.4402 166.955 89.6659 155.433 119.024 157.571C148.337 159.756 172.625 174.931 182.992 194.977Z" fill="white" stroke="black"/>
<path d="M115.04 46.6201L115.04 46.6202L115.046 46.6205C118.556 46.8427 121.229 49.9102 120.962 53.4745C120.695 57.0344 117.626 59.665 114.056 59.4435C110.496 59.1748 107.871 56.106 108.138 52.5414C108.405 48.9795 111.475 46.3527 115.04 46.6201Z" fill="white" stroke="black"/>
<path d="M146.54 55.3459C146.272 58.9079 143.203 61.5347 139.637 61.2673C136.075 61.0002 133.449 57.9305 133.716 54.365C133.983 50.8062 137.05 48.1761 140.618 48.3957C144.138 48.7111 146.807 51.7866 146.54 55.3459Z" fill="white" stroke="black"/>
<path d="M80.322 199.14C87.9662 199.696 94.5878 193.999 95.1435 186.357C95.6994 178.714 89.9557 172.092 82.361 171.536L80.322 199.14ZM80.322 199.14C72.6806 198.584 66.9835 191.963 67.5394 184.318M80.322 199.14L67.5394 184.318M67.5394 184.318C68.0952 176.677 74.7166 170.98 82.3607 171.536L67.5394 184.318Z" fill="white" stroke="black"/>
<path d="M149.522 204.85C157.166 205.406 163.788 199.709 164.344 192.068C164.9 184.425 159.156 177.802 151.561 177.246L149.522 204.85ZM149.522 204.85C141.881 204.295 136.184 197.673 136.74 190.029M149.522 204.85L136.74 190.029M136.74 190.029C137.295 182.388 143.917 176.691 151.561 177.246L136.74 190.029Z" fill="white" stroke="black"/>
<path d="M122.886 42.1731L122.845 42.1663H122.804C122.743 42.1663 122.631 42.1219 122.582 42.0728L122.572 42.0634L122.563 42.0546C119.332 39.1497 116.023 38.8759 113.521 39.3497C112.278 39.585 111.239 40.0033 110.507 40.3653C110.141 40.5466 109.849 40.7147 109.646 40.8406C109.544 40.9035 109.464 40.9562 109.407 40.995C109.379 41.0144 109.355 41.0308 109.337 41.0438C109.329 41.0502 109.32 41.0566 109.312 41.0627C109.308 41.0657 109.302 41.0698 109.296 41.0746C109.296 41.075 109.296 41.0754 109.295 41.0758C109.081 41.2371 108.765 41.1705 108.644 40.9694L108.635 40.9543L108.625 40.9399C108.46 40.7043 108.515 40.3756 108.76 40.1832C109.604 39.6397 116.543 35.1761 123.237 41.214L123.237 41.214L123.24 41.2165C123.467 41.4186 123.489 41.767 123.303 41.9877C123.141 42.1443 122.965 42.1862 122.886 42.1731Z" fill="white" stroke="black"/>
<path d="M147.888 43.9968L147.847 43.99H147.806C147.745 43.99 147.633 43.9456 147.584 43.8965L147.574 43.8871L147.564 43.8782C144.334 40.9734 141.025 40.6995 138.523 41.1733C137.28 41.4087 136.241 41.8269 135.509 42.189C135.143 42.3703 134.851 42.5384 134.648 42.6643C134.546 42.7272 134.466 42.7798 134.409 42.8187C134.381 42.8381 134.357 42.8545 134.339 42.8675C134.331 42.8738 134.322 42.8803 134.314 42.8864C134.31 42.8893 134.304 42.8935 134.298 42.8983C134.298 42.8986 134.297 42.899 134.297 42.8995C134.083 43.0608 133.767 42.9942 133.646 42.793L133.637 42.778L133.627 42.7636C133.462 42.528 133.517 42.1992 133.762 42.0068C134.606 41.4632 141.544 37.003 148.238 43.0845L148.238 43.0845L148.242 43.0881C148.462 43.2842 148.49 43.618 148.321 43.8393C148.147 43.9667 147.972 44.0107 147.888 43.9968Z" fill="white" stroke="black"/>
<path d="M87.369 70.8947C87.0535 75.1312 83.4054 78.2829 79.1707 77.9675C74.9342 77.652 71.7826 74.0039 72.0979 69.7692C72.4134 65.5327 76.0614 62.3812 80.296 62.6964C84.487 63.012 87.6841 66.6624 87.369 70.8947Z" fill="white" stroke="black"/>
<path d="M177.733 77.5172C177.417 81.7538 173.769 84.9053 169.535 84.59C165.298 84.2745 162.146 80.6264 162.462 76.3918C162.777 72.1552 166.425 69.0036 170.66 69.3189C174.896 69.6344 178.048 73.2826 177.733 77.5172Z" fill="white" stroke="black"/>
<path d="M181.201 251.151C181.283 254.007 181.326 256.946 181.33 260.036H134.636C134.68 256.946 134.723 254.008 134.766 251.151H181.201Z" fill="white" stroke="black"/>
<path d="M245.036 251.151C244.908 252.093 244.78 253.046 244.65 254.01C244.387 255.977 244.117 257.988 243.83 260.036H198.01C198.15 259.126 198.287 258.225 198.423 257.331C198.743 255.221 199.056 253.158 199.387 251.151H245.036Z" fill="white" stroke="black"/>
<path d="M251.01 165.086C251.01 168.121 248.547 170.585 245.512 170.585C242.477 170.585 240.013 168.121 240.013 165.086C240.013 162.051 242.477 159.588 245.512 159.588C248.547 159.588 251.01 162.051 251.01 165.086Z" fill="white" stroke="black"/>
<path d="M239.465 174.848V174.848L239.476 174.848C241.393 174.806 242.949 176.346 242.949 178.331C242.949 180.263 241.397 181.814 239.465 181.814C237.534 181.814 235.982 180.263 235.982 178.331C235.982 176.4 237.534 174.848 239.465 174.848Z" fill="white" stroke="black"/>
</svg>
