<svg width="28" height="22" viewBox="0 0 28 22" fill="none" xmlns="http://www.w3.org/2000/svg">
<path d="M18.6382 10.981V19.9557C18.6382 20.2801 18.9683 20.5466 19.3759 20.5466H26.4839C26.8915 20.5466 27.2216 20.2801 27.2216 19.9557V10.981H18.6382Z" fill="#8E1C21"/>
<path d="M25.7299 8.95288H19.1599V13.0309H25.7299V8.95288Z" fill="#731717"/>
<path d="M21.4341 10.9921C21.4341 12.1198 20.4722 13.0312 19.2821 13.0312C18.092 13.0312 17.1301 12.1198 17.1301 10.9921C17.1301 9.8645 18.0961 8.95312 19.2821 8.95312C20.4681 8.95312 21.4341 9.8645 21.4341 10.9921Z" fill="#731717"/>
<path d="M4.4467 21.2454C4.4467 21.3149 4.38556 21.3728 4.3122 21.3728H2.7186C2.64524 21.3728 2.58411 21.3149 2.58411 21.2454V20.1448C2.58411 20.0753 2.64524 20.0173 2.7186 20.0173H4.3122C4.38556 20.0173 4.4467 20.0753 4.4467 20.1448V21.2454Z" fill="#451311"/>
<path d="M10.2177 21.2454C10.2177 21.3149 10.1566 21.3728 10.0832 21.3728H8.4896C8.41624 21.3728 8.3551 21.3149 8.3551 21.2454V20.1448C8.3551 20.0753 8.41624 20.0173 8.4896 20.0173H10.0832C10.1566 20.0173 10.2177 20.0753 10.2177 20.1448V21.2454Z" fill="#451311"/>
<path d="M26.3777 21.2454C26.3777 21.3149 26.3166 21.3728 26.2432 21.3728H24.6496C24.5763 21.3728 24.5151 21.3149 24.5151 21.2454V20.1448C24.5151 20.0753 24.5763 20.0173 24.6496 20.0173H26.2432C26.3166 20.0173 26.3777 20.0753 26.3777 20.1448V21.2454Z" fill="#451311"/>
<path d="M20.7738 21.2454C20.7738 21.3149 20.7127 21.3728 20.6393 21.3728H19.0458C18.9724 21.3728 18.9113 21.3149 18.9113 21.2454V20.1448C18.9113 20.0753 18.9724 20.0173 19.0458 20.0173H20.6393C20.7127 20.0173 20.7738 20.0753 20.7738 20.1448V21.2454Z" fill="#451311"/>
<path d="M6.17464 0.631348H17.9697L17.9738 13.5837H6.18279C5.24946 13.5837 4.49138 12.9774 4.49138 12.2283L4.4873 1.98683C4.4873 1.23765 5.24131 0.631348 6.17464 0.631348Z" fill="#9D1C24"/>
<path d="M7.40134 12.2285C7.40134 12.9777 8.15942 13.584 9.09275 13.584H19.4287C20.362 13.584 21.1201 12.9777 21.1201 12.2285L21.112 1.98707C21.112 1.23789 20.3539 0.631592 19.4206 0.631592H9.0846C8.15127 0.631592 7.39319 1.23789 7.39319 1.98707L7.40134 12.2285Z" fill="#AF3138"/>
<path d="M23.8143 12.2512H7.46265V20.5463H23.8143V12.2512Z" fill="#8E1C21"/>
<path d="M23.8143 17.0286H7.46265V20.5466H23.8143V17.0286Z" fill="#D93348"/>
<path d="M23.6186 16.6538H8.2043C7.79266 16.6538 7.46252 16.4221 7.46252 16.1324V12.0776C7.46252 11.8845 7.80488 11.6605 8.2043 11.5562C14.3015 10.7414 23.0724 11.5562 23.0724 11.5562C23.5289 11.6682 23.6675 11.7879 23.8142 12.0776V16.4723C23.8142 16.4723 23.8346 16.6538 23.6186 16.6538Z" fill="#D93348"/>
<path d="M23.8143 12.124H7.46265V16.1364C7.46265 16.4222 7.79685 16.6577 8.20442 16.6577H23.6228C23.8347 16.6577 23.8143 16.4762 23.8143 16.4762V12.124Z" fill="#AF3138"/>
<path d="M2.28235 11.0427V19.9557C2.28235 20.2801 2.61248 20.5465 3.02005 20.5465H10.1281C10.5356 20.5465 10.8658 20.2839 10.8658 19.9557V11.0427H2.28235Z" fill="#8E1C21"/>
<path d="M7.4624 11.0427V19.948C7.4624 20.5427 8.0656 20.5427 8.0656 20.5427H10.132C10.5395 20.5427 10.8697 20.2801 10.8697 19.9518V11.0427H7.4624Z" fill="#D93348"/>
<path d="M8.60383 8.9541H2.03381V13.0321H8.60383V8.9541Z" fill="#731717"/>
<path d="M10.87 11.1396C10.87 12.3483 9.83478 13.3292 8.55909 13.3292C7.28339 13.3292 6.24817 12.3483 6.24817 11.1396C6.24817 9.93084 7.28339 8.94995 8.55909 8.94995C9.83478 8.94995 10.87 9.9347 10.87 11.1396Z" fill="#D93348"/>
<path d="M4.30393 10.9931C4.30393 12.1208 3.34207 13.0321 2.15197 13.0321C0.961863 13.0321 0 12.1208 0 10.9931C0 9.86548 0.961863 8.9541 2.15197 8.9541C3.34207 8.9541 4.30393 9.86548 4.30393 10.9931Z" fill="#731717"/>
<path d="M23.8142 10.981V20.5466H26.4838C26.8914 20.5466 27.2215 20.2801 27.2215 19.9557V10.981H23.8142Z" fill="#D93348"/>
<path d="M25.6892 13.329C26.9655 13.329 28.0001 12.3486 28.0001 11.1393C28.0001 9.93004 26.9655 8.94971 25.6892 8.94971C24.4129 8.94971 23.3783 9.93004 23.3783 11.1393C23.3783 12.3486 24.4129 13.329 25.6892 13.329Z" fill="#D93348"/>
</svg>
