<svg width="231" height="289" viewBox="0 0 231 289" fill="none" xmlns="http://www.w3.org/2000/svg">
<path d="M152.417 261.749C157.754 262.35 163.416 262.669 168.559 261.732C173.713 260.793 178.379 258.585 181.667 254.11L181.668 254.11C186.554 247.446 184.97 240.04 183.213 231.824L183.193 231.73L183.192 231.727C182.712 229.567 182.236 227.375 181.903 225.139L181.903 225.139L181.902 225.131C179.949 213.318 182.691 197.249 196.555 190.34C201.16 188.061 209.144 187.483 216.438 191.53L216.44 191.531C221.825 194.481 228.534 200.868 229.908 214.561L229.908 214.564C230.166 216.974 228.402 219.125 225.994 219.34L225.985 219.341C223.575 219.599 221.424 217.834 221.209 215.426L221.209 215.42C220.431 207.741 217.403 202.087 212.267 199.245L212.267 199.245C207.52 196.624 202.595 197.192 200.524 198.227C195.67 200.654 192.837 204.874 191.398 209.547C189.961 214.213 189.903 219.356 190.608 223.709L190.609 223.711C190.947 225.74 191.381 227.767 191.862 229.88C193.882 239.163 196.068 249.497 188.829 259.322C181.768 268.736 171.356 271.118 161.253 271.118C157.873 271.118 154.582 270.832 151.42 270.497C149.015 270.239 147.286 268.045 147.545 265.625C147.803 263.22 149.996 261.49 152.417 261.749ZM152.417 261.749C152.416 261.749 152.416 261.749 152.415 261.749L152.471 261.252L152.418 261.749C152.417 261.749 152.417 261.749 152.417 261.749Z" fill="white" stroke="black"/>
<path d="M212.123 199.197L212.114 199.192L212.105 199.187C211.531 198.9 210.972 198.634 210.413 198.413L214.953 190.833C215.013 190.862 215.073 190.891 215.134 190.921C215.533 191.115 215.935 191.311 216.346 191.532C221.731 194.482 228.437 200.869 229.763 214.511L229.764 214.516C230.021 216.919 228.264 219.033 225.841 219.293L225.84 219.293C223.485 219.55 221.326 217.792 221.065 215.372C220.335 207.689 217.257 202.038 212.123 199.197Z" fill="white" stroke="black"/>
<path d="M100.355 185.786C115.001 185.786 128.363 196.096 138.091 212.979C147.812 229.848 153.842 253.19 153.842 279.008C153.842 279.467 153.842 279.911 153.824 280.332H46.8862C46.8673 279.898 46.8672 279.472 46.8672 279.008C46.8672 253.19 52.8981 229.848 62.6188 212.979C72.3472 196.096 85.709 185.786 100.355 185.786Z" fill="white" stroke="black"/>
<path d="M33.4681 271.931L33.6498 271.757L33.6186 271.508C33.4293 269.994 33.3346 268.431 33.3346 266.867C33.3346 249.617 42.1686 239.005 52.798 239.005C63.4271 239.005 72.2611 249.569 72.2134 266.914V266.915C72.2134 271.81 71.2678 276.431 69.6449 280.38H54.7656H35.57H29.9883C30.1379 276.628 31.4588 273.853 33.4681 271.931Z" fill="white" stroke="black"/>
<path d="M52.8461 239.005C56.7431 239.005 60.3794 240.418 63.415 243.042C59.8068 255.965 46.871 265.128 33.4421 265.447C33.8961 249.034 42.5087 239.005 52.8461 239.005Z" fill="white" stroke="black"/>
<path d="M167.092 271.508L167.06 271.757L167.242 271.931C169.252 273.853 170.572 276.628 170.722 280.38H165.14H145.945H131.065C129.442 276.431 128.497 271.81 128.497 266.915C128.497 249.568 137.332 239.005 147.912 239.005C158.542 239.005 167.376 249.617 167.376 266.867C167.376 268.431 167.281 269.994 167.092 271.508Z" fill="white" stroke="black"/>
<path d="M91.937 269.794L91.9367 270.206L92.3416 270.285C95.5692 270.913 97.9883 273.691 98.0797 277.05C98.1226 280.952 95.0753 284.129 91.1778 284.219L91.1754 284.219C89.5735 284.264 88.1416 283.731 86.9181 282.87L86.3685 282.484L86.156 283.121C85.2132 285.95 82.5164 288.061 79.329 288.106L79.3222 288.106C76.0926 288.196 73.3499 286.178 72.269 283.341L72.061 282.795L71.5537 283.085C70.6169 283.62 69.5501 283.931 68.3945 283.931L68.3888 283.931C64.4882 283.976 61.3071 280.883 61.2162 277.032C61.1725 273.67 63.4583 270.849 66.5466 270.088L66.9132 269.998L66.9267 269.62L68.6395 221.756L91.9845 218.118L91.937 269.794Z" fill="white" stroke="black"/>
<path d="M139.495 275.73L139.495 275.732C139.764 279.582 136.854 282.943 132.953 283.212L132.953 283.212L132.945 283.213C131.391 283.346 129.916 282.904 128.651 282.091L128.08 281.724L127.899 282.378C127.09 285.298 124.531 287.499 121.339 287.723C118.149 287.948 115.272 286.106 114.059 283.32L113.836 282.809L113.352 283.085C112.401 283.629 111.368 283.986 110.204 284.076C106.353 284.344 102.995 281.432 102.726 277.583C102.502 274.224 104.651 271.31 107.701 270.368L108.06 270.257L108.054 269.882L107.292 222.019L130.406 217.23L133.016 268.812L133.037 269.225L133.447 269.282C136.676 269.73 139.272 272.376 139.495 275.73Z" fill="white" stroke="black"/>
<path d="M131.176 232.477L132.793 264.781C121.118 262.575 114.323 249.961 120.634 239.99C123.252 236.52 126.627 233.766 131.176 232.477Z" fill="white" stroke="black"/>
<path d="M133.015 59.4478L133.015 59.4478V59.4584C133.015 59.5334 133.015 59.6047 133.014 59.6746L83.0029 54.3062V54.3051V54.3036V54.3022V54.3007V54.2993V54.2978V54.2963V54.2949V54.2934V54.292V54.2905V54.2891V54.2876V54.2862V54.2847V54.2833V54.2818V54.2803V54.2789V54.2774V54.276V54.2745V54.2731V54.2716V54.2702V54.2687V54.2673V54.2659V54.2644V54.263V54.2615V54.2601V54.2586V54.2572V54.2557V54.2543V54.2528V54.2514V54.25V54.2485V54.2471V54.2456V54.2442V54.2428V54.2413V54.2399V54.2384V54.237V54.2356V54.2341V54.2327V54.2312V54.2298V54.2284V54.2269V54.2255V54.2241V54.2226V54.2212V54.2197V54.2183V54.2169V54.2154V54.214V54.2126V54.2111V54.2097V54.2083V54.2069V54.2054V54.204V54.2026V54.2011V54.1997V54.1983V54.1968V54.1954V54.194V54.1926V54.1911V54.1897V54.1883V54.1868V54.1854V54.184V54.1826V54.1811V54.1797V54.1783V54.1769V54.1754V54.174V54.1726V54.1712V54.1697V54.1683V54.1669V54.1655V54.164V54.1626V54.1612V54.1598V54.1584V54.1569V54.1555V54.1541V54.1527V54.1512V54.1498V54.1484V54.147V54.1456V54.1441V54.1427V54.1413V54.1399V54.1385V54.1371V54.1356V54.1342V54.1328V54.1314V54.13V54.1286V54.1271V54.1257V54.1243V54.1229V54.1215V54.1201V54.1186V54.1172V54.1158V54.1144V54.113V54.1116V54.1102V54.1087V54.1073V54.1059V54.1045V54.1031V54.1017V54.1003V54.0988V54.0974V54.096V54.0946V54.0932V54.0918V54.0904V54.089V54.0876V54.0861V54.0847V54.0833V54.0819V54.0805V54.0791V54.0777V54.0763V54.0749V54.0734V54.072V54.0706V54.0692V54.0678V54.0664V54.065V54.0636V54.0622V54.0608V54.0594V54.0579V54.0565V54.0551V54.0537V54.0523V54.0509V54.0495V54.0481V54.0467V54.0453V54.0439V54.0425V54.041V54.0396V54.0382V54.0368V54.0354V54.034V54.0326V54.0312V54.0298V54.0284V54.027V54.0256V54.0242V54.0228V54.0214V54.0199V54.0185V54.0171V54.0157V54.0143V54.0129V54.0115V54.0101V54.0087V54.0073V54.0059V54.0045V54.0031V54.0017V54.0003V53.9988V53.9974V53.996V53.9946V53.9932C83.4333 34.799 90.0716 21.4036 96.5902 12.8092C99.8514 8.50959 103.084 5.40942 105.499 3.38624C106.706 2.37475 107.708 1.63281 108.406 1.14511C108.739 0.912733 109.002 0.738113 109.186 0.619582C109.366 0.77776 109.63 1.01567 109.967 1.33262C110.644 1.96859 111.612 2.9226 112.773 4.18896C115.096 6.72194 118.187 10.5029 121.254 15.4865C127.387 25.4523 133.421 40.2234 133.015 59.4478Z" fill="white" stroke="black"/>
<path d="M123.467 54.2953L92.9844 51.0426V51.0424V51.0415V51.0406V51.0398V51.0389V51.038V51.0371V51.0363V51.0354V51.0345V51.0337V51.0328V51.0319V51.0311V51.0302V51.0293V51.0285V51.0276V51.0267V51.0259V51.025V51.0242V51.0233V51.0224V51.0216V51.0207V51.0199V51.019V51.0182V51.0178C93.2469 39.1654 97.3299 30.917 101.335 25.6342C103.339 22.9903 105.326 21.0869 106.808 19.8467C107.549 19.2266 108.164 18.7727 108.591 18.4751C108.729 18.3785 108.848 18.2984 108.945 18.2345C109.044 18.3233 109.168 18.4369 109.315 18.5751C109.729 18.9657 110.324 19.5526 111.037 20.3324C112.465 21.8921 114.365 24.2214 116.251 27.2914C120.014 33.4188 123.713 42.493 123.467 54.2953Z" fill="white" stroke="black"/>
<path d="M32.0961 15.7115C32.298 15.295 32.4603 14.9783 32.5717 14.7664C32.7857 14.8114 33.0944 14.8803 33.4884 14.9784C34.3147 15.1843 35.5159 15.519 37.0047 16.0323C39.9826 17.0591 44.1091 18.8 48.6883 21.6534C57.8423 27.3576 68.8153 37.5132 76.0411 55.3273L76.0452 55.3376C76.0769 55.4167 76.1097 55.4987 76.1434 55.5809L31.3724 78.4136C31.3427 78.3493 31.3115 78.282 31.275 78.2084C24.0554 60.3983 24.4264 44.4532 26.6012 32.9594C27.6892 27.2097 29.2284 22.575 30.4942 19.3805C31.127 17.7834 31.6912 16.5468 32.0961 15.7115Z" fill="white" stroke="black"/>
<path d="M38.8733 31.5836C38.9615 31.4022 39.0372 31.252 39.0982 31.1339C39.2119 31.1593 39.3521 31.1921 39.5168 31.2333C40.0227 31.3599 40.76 31.5659 41.6749 31.8821C43.5049 32.5144 46.0434 33.5865 48.8621 35.3423C54.4927 38.8496 61.2511 45.0903 65.7174 56.0328L65.7202 56.0411L38.3575 70.0017C33.9176 59.0496 34.146 49.2537 35.485 42.1914C36.156 38.6524 37.1058 35.8009 37.8863 33.8369C38.2765 32.8551 38.6242 32.0956 38.8733 31.5836Z" fill="white" stroke="black"/>
<path d="M187.155 119.487C196.559 170.612 162.762 219.636 111.685 229.088C60.5608 238.491 11.5367 204.695 2.0851 153.618C-7.36638 102.446 26.4298 53.4217 77.5546 43.9698C128.679 34.5659 177.751 68.3627 187.155 119.487Z" fill="white" stroke="black"/>
<path d="M187.155 119.487C191.599 143.742 186.35 167.528 174.097 186.857C161.892 172.939 154.705 154.468 154.392 136.52C154.08 118.541 160.664 101.112 175.984 89.2802C181.279 98.3687 185.138 108.513 187.155 119.487Z" fill="white" stroke="black"/>
<path d="M3.66687 160.6C3.05663 158.287 2.52947 155.97 2.08512 153.57C-7.29362 102.582 26.2973 53.6364 77.1921 44.0462C87.2359 70.8305 81.308 95.7544 66.6269 116.105C51.9631 136.431 28.5681 152.185 3.66687 160.6Z" fill="white" stroke="black"/>
<path d="M152.363 181.201L152.363 181.202C156.132 201.554 138.025 222.109 111.589 226.976L111.589 226.976C85.2026 231.843 60.9454 219.081 57.1762 198.727L57.1762 198.727C53.4074 178.423 71.5141 157.82 97.9491 152.953C124.386 148.133 148.641 160.897 152.363 181.201Z" fill="white" stroke="black"/>
<path d="M61.2437 66.9927C61.9155 70.7838 65.5627 73.2313 69.3058 72.5594C73.097 71.8876 75.5444 68.2404 74.8725 64.4973M61.2437 66.9927L74.8725 64.4973M61.2437 66.9927C60.5718 63.2495 63.0193 59.6024 66.8104 58.9305L61.2437 66.9927ZM74.8725 64.4973L74.3804 64.5856C74.3805 64.5864 74.3807 64.5872 74.3808 64.588C74.381 64.5888 74.3812 64.5897 74.3813 64.5905L74.8725 64.4973Z" fill="white" stroke="black"/>
<path d="M95.3726 67.2202L95.3715 67.2204C91.8925 67.8448 88.5122 65.5693 87.8901 62.0586L87.8899 62.0575C87.2654 58.5784 89.5409 55.1981 93.0517 54.576L93.0528 54.5758C96.5286 53.9519 99.9122 56.2718 100.534 59.7387C101.159 63.2178 98.8834 66.5981 95.3726 67.2202Z" fill="white" stroke="black"/>
<path d="M104.206 151.34C104.997 151.398 105.609 151.487 106.023 151.561L99.5403 163.345L89.2824 154.621C89.6297 154.407 90.1499 154.112 90.845 153.783C92.2664 153.11 94.4202 152.297 97.3252 151.753C100.255 151.234 102.6 151.223 104.206 151.34Z" fill="white" stroke="black"/>
<path d="M65.0064 176.95L65.0091 176.95L81.8482 179.445C82.1683 179.5 82.3903 179.784 82.3458 180.112C82.2928 180.354 82.1017 180.541 81.8644 180.611H81.8642H81.8636H81.8629H81.8623H81.8616H81.861H81.8603H81.8597H81.859H81.8583H81.8577H81.857H81.8564H81.8557H81.855H81.8544H81.8537H81.8531H81.8524H81.8517H81.8511H81.8504H81.8497H81.8491H81.8484H81.8477H81.8471H81.8464H81.8457H81.8451H81.8444H81.8437H81.8431H81.8424H81.8417H81.841H81.8404H81.8397H81.839H81.8383H81.8377H81.837H81.8363H81.8356H81.835H81.8343H81.8336H81.8329H81.8323H81.8316H81.8309H81.8302H81.8295H81.8288H81.8282H81.8275H81.8268H81.8261H81.8254H81.8248H81.8241H81.8234H81.8227H81.822H81.8213H81.8206H81.82H81.8193H81.8186H81.8179H81.8172H81.8165H81.8158H81.8151H81.8145H81.8138H81.8131H81.8124H81.8117H81.811H81.8103H81.8096H81.8089H81.8082H81.8076H81.8069H81.8062H81.8055H81.8048H81.8041H81.8034H81.8027H81.802H81.8013H81.8006H81.7999H81.7992H81.7985H81.7978H81.7971H81.7964H81.7957H81.795H81.7943H81.7936H81.7929H81.7922H81.7916H81.7909H81.7902H81.7895H81.7888H81.7881H81.7874H81.7867H81.786H81.7853H81.7846H81.7839H81.7832H81.7825H81.7818H81.7811H81.7804H81.7797H81.779H81.7783H81.7776H81.7769H81.7761H81.7754H81.7747H81.774H81.7733H81.7726H81.7719H81.7712H81.7705H81.7698H81.7691H81.7684H81.7677H81.767H81.7663H81.7656H81.7649H81.7642H81.7635H81.7628H81.7621H81.7614H81.7607H81.76H81.7593H81.7586H81.7579H81.7572H81.7565H81.7558H81.7551H81.7544H81.7537H81.753H81.7523H81.7516H81.7509H81.7502H81.7494H81.7487H81.748H81.7473H81.7466H81.7459H81.7452H81.7445H81.7438H81.7431H81.7424H81.7417H81.741H81.7403H81.7396H81.7389H81.7382H81.7375H81.7368H81.7361H81.7354H81.7347H81.734H81.7333H81.7326H81.7319H81.7312H81.7305H81.7298H81.7291H81.7284H81.7277H81.727H81.7263H81.7256H81.7249H81.7242H81.7235H81.7228H81.7221H81.7214H81.7207H81.72H81.7193H81.7186H81.718H81.7173H81.7166H81.7159H81.7152H81.7145H81.7138H81.7131H81.7124H81.7117H81.711H81.7103H81.7096H81.7089H81.7082H81.7075H81.7069H81.7062H81.7055H81.7048H81.7041H81.7034H81.7027H81.702H81.7013H81.7006H81.7H81.6993H81.6986H81.6979H81.6972H81.6965H81.6958H81.6952H81.6945H81.6938H81.6931H81.6924H81.6917H81.691H81.6904H81.6897H81.689H81.6883H81.6876H81.687H81.6863H81.6856H81.6849H81.6842H81.6836H81.6829H81.6822H81.6815H81.6809H81.6802H81.6795H81.6788H81.6782H81.6775H81.6768H81.6761H81.6755H81.6748H81.6741H81.6735H81.6728H81.6721H81.6714H81.6708H81.6701H81.6694H81.6688H81.6681H81.6674H81.6668H81.6661H81.6654H81.6648H81.6641H81.6635H81.6628H81.6621H81.6615H81.6608H81.6602H81.6595H81.6588H81.6582H81.6575H81.6569H81.6562H81.6556H81.6549H81.6542H81.6536H81.6529H81.6523H81.6516H81.651H81.6503H81.6497H81.649H81.6484H81.6477H81.6471H81.6465H81.6458H81.6452H81.6445H81.6439H81.6432H81.6426H81.642H81.6413H81.6407H81.64H81.6394H81.6388H81.6381H81.6375H81.6369H81.6362H81.6356H81.635H81.6343H81.6337H81.6331H81.6324H81.6318H81.6312H81.6306H81.6299H81.6293H81.6287H81.6281H81.6275H81.6274L64.8249 178.121C64.5021 178.066 64.2791 177.778 64.3284 177.447C64.384 177.122 64.6736 176.899 65.0064 176.95Z" fill="white" stroke="black"/>
<path d="M67.0748 200.391L67.0748 200.391L67.0731 200.387C66.9313 200.075 67.0627 199.731 67.3381 199.616L67.351 199.611L67.3636 199.604L83.9136 191.593C84.2243 191.455 84.566 191.586 84.6801 191.86L84.6832 191.868L84.6864 191.875C84.8324 192.196 84.6889 192.546 84.4548 192.653L84.4548 192.652L84.4439 192.658L67.9899 200.622C67.8895 200.625 67.7615 200.637 67.629 200.687C67.3834 200.717 67.1619 200.587 67.0748 200.391Z" fill="white" stroke="black"/>
<path d="M119.815 170.908C119.799 170.913 119.787 170.915 119.779 170.917H119.735L119.682 170.929C119.494 170.971 119.22 170.863 119.071 170.636C118.923 170.349 119.033 169.991 119.31 169.84L119.31 169.84L119.315 169.837L134.189 161.489C134.478 161.333 134.843 161.442 134.996 161.722C135.154 162.012 135.045 162.378 134.763 162.532L134.763 162.532L134.758 162.535L119.894 170.878C119.873 170.888 119.844 170.899 119.815 170.908Z" fill="white" stroke="black"/>
<path d="M121.561 183.012L121.561 183.012L121.56 183.012C121.253 182.986 120.983 182.694 121.009 182.35C121.036 182.029 121.341 181.778 121.62 181.801C121.62 181.801 121.62 181.801 121.621 181.801L139.951 183.384L139.952 183.384C140.259 183.41 140.53 183.703 140.503 184.048L140.502 184.067V184.086C140.502 184.326 140.342 184.525 140.082 184.594H140.082H140.081H140.081H140.08H140.079H140.079H140.078H140.078H140.077H140.077H140.076H140.075H140.075H140.074H140.074H140.073H140.073H140.072H140.072H140.071H140.07H140.07H140.069H140.069H140.068H140.068H140.067H140.066H140.066H140.065H140.065H140.064H140.064H140.063H140.063H140.062H140.061H140.061H140.06H140.06H140.059H140.059H140.058H140.057H140.057H140.056H140.056H140.055H140.055H140.054H140.054H140.053H140.052H140.052H140.051H140.051H140.05H140.05H140.049H140.048H140.048H140.047H140.047H140.046H140.046H140.045H140.045H140.044H140.043H140.043H140.042H140.042H140.041H140.041H140.04H140.039H140.039H140.038H140.038H140.037H140.037H140.036H140.036H140.035H140.034H140.034H140.033H140.033H140.032H140.032H140.031H140.03H140.03H140.029H140.029H140.028H140.028H140.027H140.027H140.026H140.025H140.025H140.024H140.024H140.023H140.023H140.022H140.021H140.021H140.02H140.02H140.019H140.019H140.018H140.018H140.017H140.016H140.016H140.015H140.015H140.014H140.014H140.013H140.012H140.012H140.011H140.011H140.01H140.01H140.009H140.009H140.008H140.007H140.007H140.006H140.006H140.005H140.005H140.004H140.003H140.003H140.002H140.002H140.001H140.001H140H140H139.999H139.998H139.998H139.997H139.997H139.996H139.996H139.995H139.994H139.994H139.993H139.993H139.992H139.992H139.991H139.991H139.99H139.989H139.989H139.988H139.988H139.987H139.987H139.986H139.985H139.985H139.984H139.984H139.983H139.983H139.982H139.982H139.981H139.98H139.98H139.979H139.979H139.978H139.978H139.977H139.976H139.976H139.975H139.975H139.974H139.974H139.973H139.973H139.972H139.971H139.971H139.97H139.97H139.969H139.969H139.968H139.967H139.967H139.966H139.966H139.965H139.965H139.964H139.964H139.963H139.962H139.962H139.961H139.961H139.96H139.96H139.959H139.959H139.958H139.957H139.957H139.956H139.956H139.955H139.955H139.954H139.953H139.953H139.952H139.952H139.951H139.951H139.95H139.95H139.949H139.948H139.948H139.947H139.947H139.946H139.946H139.945H139.944H139.944H139.943H139.943H139.942H139.942H139.941H139.941H139.94H139.939H139.939H139.938H139.938H139.937H139.937H139.936H139.935H139.935H139.934H139.934H139.933H139.933H139.932H139.932H139.931H139.93H139.93H139.929H139.929H139.928H139.928H139.927H139.926H139.926H139.925H139.925H139.924H139.924H139.923H139.923H139.922H139.921H139.921H139.92H139.92H139.919H139.919H139.918H139.917H139.917H139.916H139.916H139.915H139.915H139.914H139.914H139.913H139.912H139.912H139.911H139.911H139.91H139.91H139.909H139.908H139.908H139.907H139.907H139.906H139.906H139.905H139.905H139.904H139.903H139.903H139.902H139.902H139.901H139.901H139.9H139.899H139.899H139.898H139.898H139.897H139.897H139.896H139.896H139.895H139.894H139.894H139.893H139.893H139.892H139.892H139.891H139.89H139.89H139.889H139.889H139.888H139.888H139.887H139.887H139.886H139.885H139.885H139.884H139.884H139.883H139.883H139.882H139.881H139.881H139.88H139.88H139.879H139.879H139.878H139.878H139.877H139.876H139.876H139.875H139.875H139.874H139.874H139.873H139.872H139.872H139.872H139.871L121.561 183.012Z" fill="white" stroke="black"/>
<path d="M93.5425 202.446C89.0675 205.292 84.6393 206.211 83.9484 206.333H83.9484H83.9483H83.9483H83.9482H83.9482H83.9481H83.948H83.948H83.9479H83.9478H83.9478H83.9477H83.9477H83.9476H83.9476H83.9475H83.9474H83.9474H83.9473H83.9473H83.9472H83.9472H83.9471H83.9471H83.947H83.9469H83.9469H83.9468H83.9468H83.9467H83.9467H83.9466H83.9466H83.9465H83.9465H83.9464H83.9464H83.9464H83.9463H83.9463H83.9462H83.9462H83.9461H83.9461H83.946H83.946H83.946H83.9459H83.9459H83.9458H83.9458H83.9457H83.9457H83.9457H83.9456H83.9456H83.9455H83.9455H83.9455H83.9454H83.9454H83.9454H83.9453H83.9453H83.9452H83.9452H83.9452H83.9451H83.9451H83.9451H83.945H83.945H83.945H83.9449H83.9449H83.9449H83.9448H83.9448H83.9448H83.9448H83.9447H83.9447H83.9447H83.9446H83.9446H83.9446H83.9446H83.9445H83.9445H83.9445H83.9444H83.9444H83.9444H83.9444H83.9443H83.9443H83.9443H83.9443H83.9443H83.9442H83.9442H83.9442H83.9442H83.9441H83.9441H83.9441H83.9441H83.9441H83.944H83.944H83.944H83.944H83.944H83.9439H83.9439H83.9439H83.9439H83.9439H83.9438H83.9438H83.9438H83.9438H83.9438H83.9438H83.9437H83.9437H83.9437H83.9437H83.9437H83.9437H83.9437H83.9436H83.9436H83.9436H83.9435H83.9435H83.9435H83.9435H83.9435H83.9434H83.9434H83.9434H83.9434H83.9434H83.9433H83.9433H83.9433H83.9433H83.9433H83.9433H83.9432H83.9432H83.9432H83.9432H83.9432H83.9432H83.9431H83.9431L83.9431 206.333L83.9431 206.334C83.9303 206.336 83.9189 206.338 83.9089 206.339L83.9431 206.545V206.833L83.8811 206.336C83.752 206.353 83.619 206.281 83.5735 206.124C83.5681 206.006 83.6362 205.889 83.7746 205.843C83.8402 205.839 83.9373 205.823 84.0396 205.77C85.161 205.554 89.387 204.609 93.5734 201.889C97.9122 199.07 102.225 194.33 102.964 186.537C102.985 186.363 103.089 186.295 103.227 186.31C103.404 186.33 103.473 186.435 103.458 186.574L103.458 186.574L103.457 186.582C102.684 194.665 98.1014 199.546 93.5425 202.446Z" fill="white" stroke="black"/>
<path d="M128.025 198.199C126.758 198.404 122.657 198.89 117.966 197.927C112.665 196.838 106.643 193.91 103.059 186.648L103.059 186.648L103.058 186.646C102.99 186.509 103.033 186.377 103.17 186.309C103.307 186.24 103.438 186.284 103.507 186.42C107.122 193.724 113.172 196.566 118.378 197.558C123.568 198.547 127.949 197.706 128.335 197.629L128.347 197.627L128.358 197.624C128.39 197.616 128.436 197.619 128.492 197.658C128.551 197.699 128.598 197.765 128.616 197.836C128.624 197.87 128.619 197.931 128.577 197.995C128.534 198.059 128.485 198.08 128.463 198.082L128.025 198.137V198.199Z" fill="white" stroke="black"/>
<path d="M58.0424 56.0858L58.0345 56.0872L58.0265 56.0887C57.9229 56.1095 57.7955 56.0966 57.6208 56.0306C57.3597 55.8717 57.2606 55.5238 57.4069 55.2441C57.412 55.2357 57.418 55.2258 57.4248 55.2146C57.7355 54.704 59.7793 51.3457 63.5207 50.4426L63.5207 50.4426L63.5227 50.4421C66.0796 49.8141 68.909 50.4708 71.9001 52.5267C72.1703 52.717 72.2288 53.0811 72.0637 53.317C71.8737 53.5884 71.5087 53.6474 71.2724 53.482L71.2724 53.482L71.2666 53.478C68.6593 51.707 66.1616 51.0084 63.8614 51.5822C62.103 51.9968 60.7635 53.0515 59.8742 53.9846C59.4271 54.4537 59.0868 54.8994 58.8571 55.2329C58.7421 55.3997 58.6539 55.54 58.5929 55.6428C58.5627 55.6939 58.5379 55.7379 58.5194 55.7727C58.519 55.7736 58.5185 55.7745 58.518 55.7754C58.3398 55.9741 58.1663 56.0652 58.0424 56.0858Z" fill="white" stroke="black"/>
<path d="M85.3478 51.095L85.3398 51.0963L85.3319 51.0979C85.2283 51.1186 85.1009 51.1057 84.9262 51.0398C84.6651 50.8809 84.566 50.533 84.7123 50.2532C84.7174 50.2448 84.7234 50.235 84.7303 50.2237C85.041 49.7132 87.0847 46.3548 90.8261 45.4517C93.4322 44.8227 96.2146 45.4801 99.2055 47.5358C99.4757 47.7261 99.5342 48.0902 99.3691 48.3261C99.1791 48.5975 98.8141 48.6566 98.5778 48.4912L98.5757 48.4897C96.0115 46.7145 93.4654 46.0179 91.1668 46.5913C89.4084 47.006 88.0689 48.0606 87.1796 48.9937C86.7325 49.4629 86.3922 49.9085 86.1625 50.242C86.0475 50.4089 85.9593 50.5491 85.8983 50.652C85.8733 50.6943 85.852 50.7316 85.835 50.763C85.7445 50.85 85.6557 50.9264 85.5704 50.9858C85.4639 51.0598 85.3902 51.0879 85.3478 51.095Z" fill="white" stroke="black"/>
<path d="M36.0898 280.38C36.187 278.32 36.4695 276.752 36.739 275.674C36.8846 275.092 37.0266 274.652 37.1334 274.356L38.1036 274.803C38.0074 275.081 37.8824 275.484 37.7537 276.01C37.5082 277.015 37.2499 278.472 37.1542 280.38H36.0898Z" fill="white" stroke="black"/>
<path d="M43.0005 280.38C43.0977 278.32 43.3802 276.752 43.6496 275.674C43.7953 275.092 43.9372 274.652 44.0441 274.356L45.0143 274.803C44.9181 275.081 44.793 275.484 44.6644 276.01C44.4189 277.015 44.1606 278.472 44.0649 280.38H43.0005Z" fill="white" stroke="black"/>
<path d="M163.658 276.013C163.532 275.486 163.412 275.083 163.319 274.806L164.296 274.356C164.403 274.652 164.545 275.092 164.69 275.674C164.96 276.752 165.242 278.32 165.339 280.38H164.27C164.155 278.472 163.898 277.016 163.658 276.013Z" fill="white" stroke="black"/>
<path d="M156.736 276.013C156.609 275.483 156.485 275.077 156.385 274.795L157.337 274.356C157.444 274.652 157.586 275.092 157.732 275.674C158.001 276.752 158.284 278.32 158.381 280.38H157.317C157.223 278.474 156.976 277.018 156.736 276.013Z" fill="white" stroke="black"/>
<path d="M35.4193 86.1523L35.4202 86.1521C40.0909 85.2905 44.6294 88.4215 45.4913 93.0933C46.3534 97.8138 43.2682 102.303 38.5509 103.164C33.83 104.027 29.3409 100.942 28.479 96.2241C27.6166 91.5033 30.7018 87.0141 35.4193 86.1523Z" fill="white" stroke="black"/>
<path d="M148.092 74.1856C148.954 78.9062 145.869 83.3949 141.151 84.2568C136.431 85.1192 131.941 82.034 131.08 77.3164C130.217 72.5956 133.302 68.1065 138.02 67.2446C142.738 66.3826 147.23 69.5129 148.092 74.1856Z" fill="white" stroke="black"/>
</svg>
