<svg width="343" height="298" viewBox="0 0 343 298" fill="none" xmlns="http://www.w3.org/2000/svg">
<path d="M227.075 296.797C227.089 281.352 227.774 270.247 228.994 262.28C230.228 254.216 232.002 249.424 234.13 246.597C236.23 243.809 238.703 242.896 241.495 242.674C242.906 242.561 244.395 242.626 245.967 242.723C246.226 242.739 246.487 242.755 246.751 242.772C248.076 242.857 249.455 242.945 250.857 242.945C257.235 242.945 263.084 247.264 267.412 256.284C271.702 265.222 274.445 278.685 274.682 296.797H227.075Z" fill="white" stroke="black"/>
<path d="M341.481 256.09C338.57 262.881 331.746 268.237 322.361 272.441C312.616 276.807 300.199 279.89 286.793 282.059C259.985 286.395 229.33 287.055 208.435 287.055C187.58 287.055 168.711 283.882 155.073 278.761C148.253 276.2 142.767 273.161 138.995 269.811C135.223 266.46 133.208 262.839 133.208 259.098C133.208 255.368 135.22 251.753 138.988 248.405C142.756 245.056 148.238 242.016 155.055 239.452C168.687 234.325 187.556 231.14 208.435 231.14C228.036 231.14 251.537 237.904 274.407 244.487C275.82 244.894 277.23 245.3 278.637 245.703C290.711 249.167 302.522 252.456 313.361 254.515C323.812 256.499 333.401 257.349 341.481 256.09Z" fill="white" stroke="black"/>
<path d="M263.936 118.51L263.935 118.509C255.229 114.366 244.864 117.879 240.031 128.015L240.031 128.015C237.47 133.37 236.138 141.34 236.741 148.346L258.06 158.466C263.852 154.523 269.15 148.442 271.712 143.039L263.936 118.51ZM263.936 118.51C272.69 122.654 276.498 132.903 271.713 143.038L263.936 118.51Z" fill="white" stroke="black"/>
<path d="M246.806 152.64L242.44 149.465L257.601 133.033L246.806 152.64Z" fill="white" stroke="black"/>
<path d="M300.78 183.768L300.779 183.769C295.461 187.267 287.199 189.817 279.673 190.2L265.878 169.038C269.268 162.377 274.942 155.809 280.259 152.357L280.26 152.356C290.315 145.779 301.756 148.379 307.401 157.058L307.402 157.059C313.046 165.689 310.835 177.19 300.78 183.768Z" fill="white" stroke="black"/>
<path d="M275.901 180.807L273.124 176.206L293.509 167.084L275.901 180.807Z" fill="white" stroke="black"/>
<path d="M317.324 202.137L317.323 202.135C315.009 194.453 307.049 190.018 298.079 192.727C293.357 194.162 287.685 197.804 283.715 202.071L289.404 220.909C295.079 222.214 301.803 222.095 306.572 220.659L317.324 202.137ZM317.324 202.137C319.685 209.868 315.539 217.95 306.572 220.659L317.324 202.137Z" fill="white" stroke="black"/>
<path d="M288.13 213.835L287.009 210.024L303.188 207.408L288.13 213.835Z" fill="white" stroke="black"/>
<path d="M321.606 241.584L321.604 241.586C319.053 243.772 314.862 245.714 310.896 246.416L302.149 236.149C303.495 232.375 306.074 228.554 308.671 226.368L308.671 226.368L308.672 226.366C313.563 222.213 319.772 222.839 323.324 227.028C326.877 231.219 326.496 237.432 321.606 241.584Z" fill="white" stroke="black"/>
<path d="M311.234 240.936L309.294 239.423L316.429 232.288L311.234 240.936Z" fill="white" stroke="black"/>
<path d="M338.185 248.984L338.185 248.984C337.211 250.887 335.185 253.082 333.037 254.49L325.291 250.482C325.164 247.898 325.768 245.012 326.788 243.061L326.788 243.061L326.79 243.057C328.687 239.352 332.518 238.227 335.663 239.865C338.808 241.504 340.085 245.274 338.185 248.984Z" fill="white" stroke="black"/>
<path d="M331.198 250.789L330.273 250.406L332.327 246.772L331.198 250.789Z" fill="white" stroke="black"/>
<path d="M215.394 143.656C238.34 143.656 257.399 152.32 270.732 168.779C284.076 185.25 291.724 209.576 291.724 240.958C291.724 251.102 289.604 260.924 287.574 270.326C287.437 270.962 287.301 271.595 287.165 272.226H127.403C125.305 262.3 124.187 251.816 124.187 240.958C124.187 178.336 169.488 143.656 215.394 143.656Z" fill="white" stroke="black"/>
<path d="M125.099 296.797C125.114 282.479 125.751 272.185 126.883 264.798C128.03 257.315 129.678 252.874 131.651 250.257C133.594 247.679 135.881 246.834 138.466 246.628C139.774 246.524 141.154 246.584 142.613 246.674C142.854 246.689 143.097 246.704 143.342 246.72C144.572 246.798 145.852 246.88 147.154 246.88C153.076 246.88 158.505 250.876 162.515 259.242C166.487 267.525 169.015 280.005 169.204 296.797H125.099Z" fill="white" stroke="black"/>
<mask id="path-15-inside-1_1_8025" fill="white">
<path d="M146.626 281.796C141.971 281.796 138.228 278.917 138.228 275.318C138.228 271.767 142.019 268.839 146.626 268.839C151.281 268.839 155.024 271.719 155.024 275.318C155.024 278.869 151.281 281.796 146.626 281.796ZM146.626 269.799C142.499 269.799 139.14 272.295 139.14 275.318C139.14 278.389 142.499 280.837 146.626 280.837C150.753 280.837 154.112 278.341 154.112 275.318C154.112 272.295 150.753 269.799 146.626 269.799Z"/>
</mask>
<path d="M146.626 281.796C141.971 281.796 138.228 278.917 138.228 275.318C138.228 271.767 142.019 268.839 146.626 268.839C151.281 268.839 155.024 271.719 155.024 275.318C155.024 278.869 151.281 281.796 146.626 281.796ZM146.626 269.799C142.499 269.799 139.14 272.295 139.14 275.318C139.14 278.389 142.499 280.837 146.626 280.837C150.753 280.837 154.112 278.341 154.112 275.318C154.112 272.295 150.753 269.799 146.626 269.799Z" fill="white"/>
<path d="M146.626 280.796C142.266 280.796 139.228 278.138 139.228 275.318H137.228C137.228 279.696 141.677 282.796 146.626 282.796V280.796ZM139.228 275.318C139.228 273.92 139.973 272.57 141.31 271.539C142.647 270.507 144.528 269.839 146.626 269.839V267.839C144.117 267.839 141.799 268.635 140.089 269.955C138.379 271.275 137.228 273.165 137.228 275.318H139.228ZM146.626 269.839C150.986 269.839 154.024 272.497 154.024 275.318H156.024C156.024 270.94 151.576 267.839 146.626 267.839V269.839ZM154.024 275.318C154.024 278.094 150.981 280.796 146.626 280.796V282.796C151.581 282.796 156.024 279.644 156.024 275.318H154.024ZM146.626 268.799C144.369 268.799 142.284 269.48 140.741 270.62C139.2 271.759 138.14 273.411 138.14 275.318H140.14C140.14 274.201 140.759 273.094 141.93 272.229C143.098 271.366 144.757 270.799 146.626 270.799V268.799ZM138.14 275.318C138.14 277.246 139.197 278.899 140.743 280.035C142.289 281.17 144.373 281.837 146.626 281.837V279.837C144.752 279.837 143.093 279.28 141.927 278.423C140.762 277.567 140.14 276.461 140.14 275.318H138.14ZM146.626 281.837C148.884 281.837 150.968 281.155 152.511 280.015C154.052 278.876 155.112 277.225 155.112 275.318H153.112C153.112 276.434 152.493 277.542 151.323 278.407C150.154 279.27 148.496 279.837 146.626 279.837V281.837ZM155.112 275.318C155.112 273.411 154.052 271.759 152.511 270.62C150.968 269.48 148.884 268.799 146.626 268.799V270.799C148.496 270.799 150.154 271.366 151.323 272.229C152.493 273.094 153.112 274.201 153.112 275.318H155.112Z" fill="black" mask="url(#path-15-inside-1_1_8025)"/>
<mask id="path-17-inside-2_1_8025" fill="white">
<path d="M146.53 278.965C143.651 278.965 141.347 277.237 141.347 275.126C141.347 273.014 143.699 271.287 146.53 271.287C149.409 271.287 151.713 273.014 151.713 275.126C151.713 277.237 149.361 278.965 146.53 278.965ZM146.53 272.199C144.179 272.199 142.259 273.494 142.259 275.126C142.259 276.758 144.179 278.053 146.53 278.053C148.881 278.053 150.801 276.758 150.801 275.126C150.753 273.494 148.881 272.199 146.53 272.199Z"/>
</mask>
<path d="M146.53 278.965C143.651 278.965 141.347 277.237 141.347 275.126C141.347 273.014 143.699 271.287 146.53 271.287C149.409 271.287 151.713 273.014 151.713 275.126C151.713 277.237 149.361 278.965 146.53 278.965ZM146.53 272.199C144.179 272.199 142.259 273.494 142.259 275.126C142.259 276.758 144.179 278.053 146.53 278.053C148.881 278.053 150.801 276.758 150.801 275.126C150.753 273.494 148.881 272.199 146.53 272.199Z" fill="white"/>
<path d="M150.801 275.126H151.801V275.111L151.801 275.096L150.801 275.126ZM146.53 277.965C145.283 277.965 144.202 277.59 143.456 277.035C142.709 276.48 142.347 275.793 142.347 275.126H140.347C140.347 276.571 141.137 277.803 142.262 278.64C143.387 279.476 144.898 279.965 146.53 279.965V277.965ZM142.347 275.126C142.347 274.466 142.714 273.778 143.471 273.219C144.227 272.661 145.31 272.287 146.53 272.287V270.287C144.919 270.287 143.411 270.777 142.283 271.61C141.156 272.442 140.347 273.674 140.347 275.126H142.347ZM146.53 272.287C147.777 272.287 148.858 272.662 149.604 273.217C150.351 273.772 150.713 274.459 150.713 275.126H152.713C152.713 273.681 151.923 272.449 150.798 271.612C149.673 270.775 148.162 270.287 146.53 270.287V272.287ZM150.713 275.126C150.713 275.785 150.346 276.473 149.589 277.033C148.833 277.591 147.75 277.965 146.53 277.965V279.965C148.141 279.965 149.649 279.475 150.777 278.642C151.903 277.81 152.713 276.578 152.713 275.126H150.713ZM146.53 271.199C145.181 271.199 143.91 271.569 142.949 272.224C141.991 272.878 141.259 273.885 141.259 275.126H143.259C143.259 274.735 143.487 274.279 144.076 273.876C144.663 273.476 145.528 273.199 146.53 273.199V271.199ZM141.259 275.126C141.259 276.367 141.991 277.374 142.949 278.028C143.91 278.683 145.181 279.053 146.53 279.053V277.053C145.528 277.053 144.663 276.775 144.076 276.375C143.487 275.973 143.259 275.516 143.259 275.126H141.259ZM146.53 279.053C147.879 279.053 149.15 278.683 150.111 278.028C151.069 277.374 151.801 276.367 151.801 275.126H149.801C149.801 275.516 149.573 275.973 148.984 276.375C148.397 276.775 147.532 277.053 146.53 277.053V279.053ZM151.801 275.096C151.765 273.879 151.05 272.882 150.096 272.226C149.14 271.569 147.881 271.199 146.53 271.199V273.199C147.531 273.199 148.383 273.476 148.963 273.874C149.544 274.274 149.789 274.741 149.801 275.155L151.801 275.096Z" fill="black" mask="url(#path-17-inside-2_1_8025)"/>
<mask id="path-19-inside-3_1_8025" fill="white">
<path d="M146.77 276.757C145.522 276.757 144.562 275.99 144.562 275.078C144.562 274.118 145.522 273.398 146.77 273.398C147.97 273.398 148.93 274.166 148.93 275.078C148.977 275.99 148.018 276.757 146.77 276.757ZM146.77 274.262C146.05 274.262 145.522 274.646 145.522 275.03C145.522 275.414 146.05 275.798 146.77 275.798C147.49 275.798 148.018 275.414 148.018 275.03C148.066 274.694 147.538 274.262 146.77 274.262Z"/>
</mask>
<path d="M146.77 276.757C145.522 276.757 144.562 275.99 144.562 275.078C144.562 274.118 145.522 273.398 146.77 273.398C147.97 273.398 148.93 274.166 148.93 275.078C148.977 275.99 148.018 276.757 146.77 276.757ZM146.77 274.262C146.05 274.262 145.522 274.646 145.522 275.03C145.522 275.414 146.05 275.798 146.77 275.798C147.49 275.798 148.018 275.414 148.018 275.03C148.066 274.694 147.538 274.262 146.77 274.262Z" fill="white"/>
<path d="M148.93 275.078H147.93V275.104L147.931 275.13L148.93 275.078ZM148.018 275.03L147.028 274.888L147.018 274.959V275.03H148.018ZM146.77 275.757C146.346 275.757 146.014 275.626 145.81 275.468C145.605 275.31 145.562 275.162 145.562 275.078H143.562C143.562 276.766 145.225 277.757 146.77 277.757V275.757ZM145.562 275.078C145.562 274.961 145.614 274.818 145.802 274.675C146 274.526 146.331 274.398 146.77 274.398V272.398C145.245 272.398 143.562 273.326 143.562 275.078H145.562ZM146.77 274.398C147.162 274.398 147.48 274.524 147.682 274.683C147.885 274.842 147.93 274.992 147.93 275.078H149.93C149.93 273.401 148.282 272.398 146.77 272.398V274.398ZM147.931 275.13C147.934 275.193 147.911 275.322 147.718 275.473C147.524 275.626 147.196 275.757 146.77 275.757V277.757C147.592 277.757 148.368 277.505 148.953 277.046C149.54 276.586 149.973 275.875 149.928 275.025L147.931 275.13ZM146.77 273.262C146.24 273.262 145.734 273.402 145.332 273.663C144.959 273.905 144.522 274.366 144.522 275.03H146.522C146.522 275.169 146.474 275.264 146.445 275.307C146.417 275.349 146.4 275.354 146.42 275.341C146.462 275.314 146.58 275.262 146.77 275.262V273.262ZM144.522 275.03C144.522 275.693 144.959 276.155 145.332 276.397C145.734 276.658 146.24 276.798 146.77 276.798V274.798C146.58 274.798 146.462 274.746 146.42 274.719C146.4 274.706 146.417 274.711 146.445 274.752C146.474 274.795 146.522 274.891 146.522 275.03H144.522ZM146.77 276.798C147.3 276.798 147.806 276.658 148.208 276.397C148.581 276.155 149.018 275.693 149.018 275.03H147.018C147.018 274.891 147.066 274.795 147.095 274.752C147.123 274.711 147.14 274.706 147.12 274.719C147.078 274.746 146.96 274.798 146.77 274.798V276.798ZM149.008 275.171C149.113 274.431 148.596 273.919 148.26 273.691C147.858 273.42 147.335 273.262 146.77 273.262V275.262C146.973 275.262 147.098 275.32 147.14 275.349C147.162 275.363 147.137 275.354 147.103 275.298C147.068 275.242 146.998 275.096 147.028 274.888L149.008 275.171Z" fill="black" mask="url(#path-19-inside-3_1_8025)"/>
<path d="M139.747 296.797H132.818L136.263 290.255L139.747 296.797Z" fill="white" stroke="black"/>
<path d="M150.693 296.797H143.764L147.248 290.255L150.693 296.797Z" fill="white" stroke="black"/>
<path d="M162.114 296.797H155.185L158.669 290.255L162.114 296.797Z" fill="white" stroke="black"/>
<path d="M175.727 296.797C175.742 282.479 176.379 272.185 177.511 264.798C178.658 257.315 180.306 252.874 182.279 250.257C184.222 247.679 186.509 246.834 189.094 246.628C190.402 246.524 191.782 246.584 193.241 246.674C193.482 246.689 193.725 246.704 193.97 246.72C195.2 246.798 196.48 246.88 197.782 246.88C203.68 246.88 209.096 250.875 213.107 259.242C217.079 267.525 219.619 280.005 219.831 296.797H175.727Z" fill="white" stroke="black"/>
<mask id="path-25-inside-4_1_8025" fill="white">
<path d="M197.206 281.796C192.551 281.796 188.808 278.917 188.808 275.318C188.808 271.767 192.599 268.839 197.206 268.839C201.861 268.839 205.604 271.719 205.604 275.318C205.652 278.869 201.861 281.796 197.206 281.796ZM197.206 269.799C193.079 269.799 189.719 272.294 189.719 275.318C189.719 278.389 193.079 280.836 197.206 280.836C201.333 280.836 204.692 278.341 204.692 275.318C204.692 272.294 201.333 269.799 197.206 269.799Z"/>
</mask>
<path d="M197.206 281.796C192.551 281.796 188.808 278.917 188.808 275.318C188.808 271.767 192.599 268.839 197.206 268.839C201.861 268.839 205.604 271.719 205.604 275.318C205.652 278.869 201.861 281.796 197.206 281.796ZM197.206 269.799C193.079 269.799 189.719 272.294 189.719 275.318C189.719 278.389 193.079 280.836 197.206 280.836C201.333 280.836 204.692 278.341 204.692 275.318C204.692 272.294 201.333 269.799 197.206 269.799Z" fill="white"/>
<path d="M205.604 275.318H204.604L204.604 275.331L205.604 275.318ZM204.692 275.318H205.692H204.692ZM197.206 280.796C192.845 280.796 189.808 278.138 189.808 275.318H187.808C187.808 279.696 192.256 282.796 197.206 282.796V280.796ZM189.808 275.318C189.808 273.92 190.553 272.57 191.89 271.538C193.227 270.507 195.108 269.839 197.206 269.839V267.839C194.697 267.839 192.379 268.635 190.668 269.955C188.958 271.275 187.808 273.165 187.808 275.318H189.808ZM197.206 269.839C201.566 269.839 204.604 272.497 204.604 275.318H206.604C206.604 270.94 202.155 267.839 197.206 267.839V269.839ZM204.604 275.331C204.623 276.723 203.892 278.067 202.557 279.097C201.223 280.127 199.33 280.796 197.206 280.796V282.796C199.736 282.796 202.067 282.002 203.779 280.68C205.492 279.359 206.633 277.463 206.604 275.304L204.604 275.331ZM197.206 268.799C194.948 268.799 192.864 269.48 191.321 270.62C189.78 271.759 188.719 273.411 188.719 275.318H190.719C190.719 274.201 191.339 273.094 192.509 272.229C193.677 271.366 195.336 270.799 197.206 270.799V268.799ZM188.719 275.318C188.719 277.246 189.777 278.899 191.323 280.035C192.868 281.17 194.953 281.836 197.206 281.836V279.836C195.332 279.836 193.673 279.279 192.507 278.423C191.342 277.567 190.719 276.461 190.719 275.318H188.719ZM197.206 281.836C199.463 281.836 201.548 281.155 203.091 280.015C204.632 278.876 205.692 277.224 205.692 275.318H203.692C203.692 276.434 203.073 277.542 201.902 278.407C200.734 279.27 199.075 279.836 197.206 279.836V281.836ZM205.692 275.318C205.692 273.411 204.632 271.759 203.091 270.62C201.548 269.48 199.463 268.799 197.206 268.799V270.799C199.075 270.799 200.734 271.366 201.902 272.229C203.073 273.094 203.692 274.201 203.692 275.318H205.692Z" fill="black" mask="url(#path-25-inside-4_1_8025)"/>
<mask id="path-27-inside-5_1_8025" fill="white">
<path d="M197.11 278.965C194.231 278.965 191.927 277.237 191.927 275.126C191.927 273.014 194.279 271.287 197.11 271.287C199.989 271.287 202.293 273.014 202.293 275.126C202.293 277.237 199.941 278.965 197.11 278.965ZM197.11 272.199C194.759 272.199 192.839 273.494 192.839 275.126C192.839 276.758 194.759 278.053 197.11 278.053C199.462 278.053 201.381 276.758 201.381 275.126C201.381 273.494 199.462 272.199 197.11 272.199Z"/>
</mask>
<path d="M197.11 278.965C194.231 278.965 191.927 277.237 191.927 275.126C191.927 273.014 194.279 271.287 197.11 271.287C199.989 271.287 202.293 273.014 202.293 275.126C202.293 277.237 199.941 278.965 197.11 278.965ZM197.11 272.199C194.759 272.199 192.839 273.494 192.839 275.126C192.839 276.758 194.759 278.053 197.11 278.053C199.462 278.053 201.381 276.758 201.381 275.126C201.381 273.494 199.462 272.199 197.11 272.199Z" fill="white"/>
<path d="M201.381 275.126H200.381H201.381ZM197.11 277.965C195.863 277.965 194.782 277.59 194.036 277.035C193.289 276.48 192.927 275.793 192.927 275.126H190.927C190.927 276.571 191.717 277.803 192.842 278.64C193.967 279.476 195.478 279.965 197.11 279.965V277.965ZM192.927 275.126C192.927 274.466 193.294 273.778 194.051 273.219C194.807 272.661 195.89 272.287 197.11 272.287V270.287C195.499 270.287 193.991 270.777 192.863 271.61C191.737 272.442 190.927 273.674 190.927 275.126H192.927ZM197.11 272.287C198.357 272.287 199.438 272.662 200.185 273.217C200.931 273.772 201.293 274.459 201.293 275.126H203.293C203.293 273.681 202.503 272.449 201.378 271.612C200.253 270.775 198.743 270.287 197.11 270.287V272.287ZM201.293 275.126C201.293 275.785 200.926 276.473 200.169 277.033C199.413 277.591 198.33 277.965 197.11 277.965V279.965C198.721 279.965 200.229 279.475 201.357 278.642C202.484 277.81 203.293 276.578 203.293 275.126H201.293ZM197.11 271.199C195.761 271.199 194.49 271.569 193.529 272.224C192.571 272.878 191.839 273.885 191.839 275.126H193.839C193.839 274.735 194.067 274.279 194.656 273.876C195.243 273.476 196.108 273.199 197.11 273.199V271.199ZM191.839 275.126C191.839 276.367 192.571 277.374 193.529 278.028C194.49 278.683 195.761 279.053 197.11 279.053V277.053C196.108 277.053 195.243 276.775 194.656 276.375C194.067 275.973 193.839 275.516 193.839 275.126H191.839ZM197.11 279.053C198.459 279.053 199.73 278.683 200.691 278.028C201.649 277.374 202.381 276.367 202.381 275.126H200.381C200.381 275.516 200.153 275.973 199.564 276.375C198.977 276.775 198.112 277.053 197.11 277.053V279.053ZM202.381 275.126C202.381 273.885 201.649 272.878 200.691 272.224C199.73 271.569 198.459 271.199 197.11 271.199V273.199C198.112 273.199 198.977 273.476 199.564 273.876C200.153 274.279 200.381 274.735 200.381 275.126H202.381Z" fill="black" mask="url(#path-27-inside-5_1_8025)"/>
<mask id="path-29-inside-6_1_8025" fill="white">
<path d="M197.398 276.757C196.15 276.757 195.19 275.99 195.19 275.078C195.19 274.118 196.15 273.398 197.398 273.398C198.598 273.398 199.557 274.166 199.557 275.078C199.557 275.99 198.598 276.757 197.398 276.757ZM197.398 274.262C196.678 274.262 196.15 274.646 196.15 275.03C196.15 275.414 196.678 275.798 197.398 275.798C198.118 275.798 198.646 275.414 198.646 275.03C198.646 274.694 198.118 274.262 197.398 274.262Z"/>
</mask>
<path d="M197.398 276.757C196.15 276.757 195.19 275.99 195.19 275.078C195.19 274.118 196.15 273.398 197.398 273.398C198.598 273.398 199.557 274.166 199.557 275.078C199.557 275.99 198.598 276.757 197.398 276.757ZM197.398 274.262C196.678 274.262 196.15 274.646 196.15 275.03C196.15 275.414 196.678 275.798 197.398 275.798C198.118 275.798 198.646 275.414 198.646 275.03C198.646 274.694 198.118 274.262 197.398 274.262Z" fill="white"/>
<path d="M197.398 275.757C196.974 275.757 196.642 275.626 196.438 275.468C196.233 275.31 196.19 275.162 196.19 275.078H194.19C194.19 276.766 195.853 277.757 197.398 277.757V275.757ZM196.19 275.078C196.19 274.961 196.241 274.818 196.43 274.675C196.627 274.526 196.959 274.398 197.398 274.398V272.398C195.873 272.398 194.19 273.326 194.19 275.078H196.19ZM197.398 274.398C197.79 274.398 198.108 274.524 198.31 274.683C198.513 274.842 198.557 274.992 198.557 275.078H200.557C200.557 273.401 198.91 272.398 197.398 272.398V274.398ZM198.557 275.078C198.557 275.163 198.513 275.314 198.31 275.473C198.108 275.631 197.79 275.757 197.398 275.757V277.757C198.91 277.757 200.557 276.754 200.557 275.078H198.557ZM197.398 273.262C196.868 273.262 196.362 273.402 195.96 273.663C195.587 273.905 195.15 274.366 195.15 275.03H197.15C197.15 275.169 197.102 275.264 197.073 275.307C197.045 275.349 197.028 275.354 197.048 275.341C197.09 275.314 197.208 275.262 197.398 275.262V273.262ZM195.15 275.03C195.15 275.693 195.587 276.155 195.96 276.397C196.362 276.658 196.868 276.798 197.398 276.798V274.798C197.208 274.798 197.09 274.746 197.048 274.719C197.028 274.706 197.045 274.711 197.073 274.752C197.102 274.795 197.15 274.891 197.15 275.03H195.15ZM197.398 276.798C197.928 276.798 198.434 276.658 198.836 276.397C199.209 276.155 199.646 275.693 199.646 275.03H197.646C197.646 274.891 197.694 274.795 197.723 274.752C197.751 274.711 197.768 274.706 197.748 274.719C197.706 274.746 197.588 274.798 197.398 274.798V276.798ZM199.646 275.03C199.646 274.373 199.186 273.918 198.852 273.691C198.461 273.428 197.954 273.262 197.398 273.262V275.262C197.562 275.262 197.678 275.312 197.732 275.349C197.759 275.367 197.752 275.369 197.73 275.337C197.711 275.311 197.646 275.205 197.646 275.03H199.646Z" fill="black" mask="url(#path-29-inside-6_1_8025)"/>
<path d="M190.331 296.797H183.402L186.886 290.255L190.331 296.797Z" fill="white" stroke="black"/>
<path d="M201.272 296.797H194.343L197.827 290.255L201.272 296.797Z" fill="white" stroke="black"/>
<path d="M212.694 296.797H205.765L209.249 290.255L212.694 296.797Z" fill="white" stroke="black"/>
<path d="M236.875 177.849C232.298 222.097 191.811 254.206 146.485 249.53C101.111 244.854 68.0665 205.163 72.6439 160.867C77.2213 116.619 117.708 84.5101 163.034 89.1858L163.086 88.6885L163.034 89.1858C208.408 93.8616 241.453 133.6 236.875 177.849Z" fill="white" stroke="black"/>
<path d="M215.664 72.3595C255.237 111.932 255.237 176.092 215.664 215.664C176.092 255.237 111.932 255.237 72.3594 215.664C32.7869 176.092 32.7869 111.932 72.3595 72.3595C111.932 32.787 176.092 32.787 215.664 72.3595Z" fill="white" stroke="black"/>
<path d="M127.957 36.2086L127.96 36.2085C136.757 36.1622 143.966 44.0018 143.966 53.7524C143.966 63.5005 136.759 71.2963 127.957 71.2963C119.156 71.2963 111.949 63.5005 111.949 53.7524C111.949 44.0043 119.156 36.2086 127.957 36.2086Z" fill="white" stroke="black"/>
<path d="M158.382 36.2086L158.385 36.2085C167.182 36.1622 174.39 44.0018 174.39 53.7524C174.39 63.5005 167.183 71.2963 158.382 71.2963C149.581 71.2963 142.374 63.5005 142.374 53.7524C142.374 44.0043 149.581 36.2086 158.382 36.2086Z" fill="white" stroke="black"/>
<path d="M136.096 61.6226C136.096 65.8575 132.672 69.2808 128.437 69.2808C124.203 69.2808 120.779 65.8575 120.779 61.6226C120.779 57.3878 124.203 53.9645 128.437 53.9645C132.672 53.9645 136.096 57.3878 136.096 61.6226Z" fill="white" stroke="black"/>
<path d="M167.288 61.6226C167.288 65.8575 163.865 69.2808 159.63 69.2808C155.395 69.2808 151.972 65.8575 151.972 61.6226C151.972 57.3878 155.395 53.9645 159.63 53.9645C163.865 53.9645 167.288 57.3878 167.288 61.6226Z" fill="white" stroke="black"/>
<path d="M126.613 215.688L126.618 215.687C131.325 215.642 135.135 219.49 135.135 224.209C135.135 228.924 131.328 232.731 126.613 232.731C121.899 232.731 118.091 228.924 118.091 224.209C118.091 219.495 121.899 215.688 126.613 215.688Z" fill="white" stroke="black"/>
<path d="M161.261 215.688L161.266 215.687C165.973 215.642 169.783 219.49 169.783 224.209C169.783 228.924 165.976 232.731 161.261 232.731C156.546 232.731 152.739 228.924 152.739 224.209C152.739 219.495 156.546 215.688 161.261 215.688Z" fill="white" stroke="black"/>
<path d="M85.5831 102.201C80.4845 102.201 76.3413 98.0581 76.3413 92.9594C76.3413 87.8608 80.4845 83.7177 85.5831 83.7177C90.6817 83.7177 94.8249 87.8608 94.8249 92.9594C94.8249 98.0581 90.6817 102.201 85.5831 102.201Z" fill="white" stroke="black"/>
<path d="M202.437 102.201C197.338 102.201 193.195 98.0581 193.195 92.9595C193.195 87.8609 197.338 83.7177 202.437 83.7177C207.535 83.7177 211.678 87.8609 211.678 92.9595C211.678 98.0581 207.535 102.201 202.437 102.201Z" fill="white" stroke="black"/>
<path d="M67.6152 171.278C67.6152 175.128 64.4798 178.264 60.6289 178.264C56.778 178.264 53.6426 175.128 53.6426 171.278C53.6426 167.428 56.7764 164.293 60.626 164.291C64.4833 164.338 67.6152 167.479 67.6152 171.278Z" fill="white" stroke="black"/>
<path d="M69.871 188.026C69.871 189.525 68.6552 190.741 67.1557 190.741C65.6562 190.741 64.4404 189.525 64.4404 188.026C64.4404 186.526 65.6562 185.31 67.1557 185.31C68.6551 185.31 69.871 186.526 69.871 188.026Z" fill="white" stroke="black"/>
<path d="M285.039 270.908L289.804 214.237C300.184 232.033 312.991 241.625 323.343 247.169C328.649 250.011 333.307 251.787 336.644 253.055L336.696 253.075C338.348 253.703 339.648 254.196 340.55 254.634C341.006 254.855 341.332 255.048 341.541 255.219C341.76 255.398 341.778 255.492 341.779 255.501C341.784 255.556 341.767 255.695 341.623 255.941C341.485 256.178 341.256 256.468 340.924 256.803C340.262 257.472 339.244 258.274 337.883 259.153C335.166 260.909 331.144 262.939 326.045 264.819C315.954 268.539 301.683 271.655 285.039 270.908Z" fill="white" stroke="black"/>
<path d="M263.458 169.838C263.458 172.63 261.19 174.857 258.44 174.857C255.647 174.857 253.421 172.588 253.421 169.838C253.421 167.046 255.69 164.819 258.44 164.819C261.187 164.819 263.458 167.091 263.458 169.838Z" fill="white" stroke="black"/>
<path d="M275.84 187.018C275.84 191.157 272.465 194.532 268.326 194.532C264.187 194.532 260.812 191.157 260.812 187.018C260.812 182.879 264.187 179.504 268.326 179.504C272.465 179.504 275.84 182.879 275.84 187.018Z" fill="white" stroke="black"/>
<path d="M254.485 185.674C254.485 187.709 252.829 189.397 250.809 189.397C248.778 189.397 247.086 187.746 247.086 185.674C247.086 183.651 248.73 181.999 250.809 181.999C252.881 181.999 254.485 183.643 254.485 185.674Z" fill="white" stroke="black"/>
<path d="M265.906 203.43C265.906 205.461 264.255 207.153 262.183 207.153C260.152 207.153 258.46 205.502 258.46 203.43C258.46 201.399 260.111 199.707 262.183 199.707C264.255 199.707 265.906 201.399 265.906 203.43Z" fill="white" stroke="black"/>
<path d="M280.783 207.461C280.783 209.873 278.847 211.808 276.436 211.808C274.025 211.808 272.089 209.872 272.089 207.461C272.089 205.05 274.025 203.114 276.436 203.114C278.802 203.114 280.783 205.053 280.783 207.461Z" fill="white" stroke="black"/>
<path d="M282.098 217.415V217.415L282.11 217.415C283.877 217.374 285.341 218.86 285.341 220.658C285.341 222.446 283.886 223.901 282.098 223.901C280.311 223.901 278.855 222.446 278.855 220.658C278.855 218.871 280.311 217.415 282.098 217.415Z" fill="white" stroke="black"/>
<path d="M295.035 233.855C295.035 235.019 294.107 235.947 292.944 235.947C291.78 235.947 290.853 235.019 290.853 233.855C290.853 232.692 291.78 231.764 292.944 231.764C294.107 231.764 295.035 232.692 295.035 233.855Z" fill="white" stroke="black"/>
<path d="M307.225 262.313C307.225 264.248 305.669 265.844 303.694 265.844C301.758 265.844 300.163 264.288 300.163 262.313C300.163 260.383 301.759 258.785 303.688 258.782C305.636 258.827 307.225 260.393 307.225 262.313Z" fill="white" stroke="black"/>
<path d="M315.334 262.361C315.334 263.393 314.49 264.26 313.483 264.26C312.457 264.26 311.583 263.422 311.583 262.361C311.583 261.335 312.422 260.461 313.483 260.461C314.496 260.461 315.334 261.286 315.334 262.361Z" fill="white" stroke="black"/>
<path d="M234.726 296.797C232.878 262.08 237.805 244.514 244.537 235.627C251.259 226.752 259.857 226.437 265.685 226.437C271.271 226.437 279.459 230.929 285.845 242.088C292.181 253.161 296.705 270.751 295.066 296.797H234.726Z" fill="white" stroke="black"/>
<path d="M275.023 268.599L275.023 268.604C275.045 270.733 273.884 272.706 271.909 274.166C269.934 275.626 267.174 276.545 264.102 276.545C261.055 276.545 258.307 275.626 256.331 274.166C254.355 272.705 253.181 270.73 253.181 268.599C253.181 266.468 254.355 264.493 256.331 263.033C258.307 261.573 261.055 260.653 264.102 260.653C267.149 260.653 269.897 261.573 271.873 263.033C273.849 264.493 275.023 266.468 275.023 268.599ZM264.102 260.853C261.204 260.853 258.556 261.682 256.62 263.057C254.685 264.431 253.428 266.38 253.428 268.599C253.428 270.795 254.686 272.744 256.619 274.123C258.555 275.504 261.202 276.346 264.102 276.346C267.002 276.346 269.65 275.504 271.585 274.123C273.518 272.744 274.776 270.795 274.776 268.599C274.776 266.403 273.518 264.455 271.585 263.075C269.65 261.695 267.002 260.853 264.102 260.853Z" fill="white" stroke="black"/>
<path d="M263.958 272.898C262.107 272.898 260.447 272.36 259.263 271.516C258.078 270.67 257.403 269.547 257.403 268.359C257.403 267.172 258.078 266.049 259.263 265.203C260.447 264.358 262.107 263.821 263.958 263.821C265.809 263.821 267.468 264.358 268.652 265.203C269.837 266.049 270.512 267.172 270.512 268.359C270.512 269.547 269.837 270.67 268.652 271.516C267.468 272.36 265.809 272.898 263.958 272.898ZM263.958 264.02C262.266 264.02 260.715 264.474 259.572 265.231C258.434 265.986 257.651 267.083 257.651 268.359C257.651 269.636 258.434 270.733 259.572 271.488C260.715 272.245 262.266 272.699 263.958 272.699C265.627 272.699 267.177 272.244 268.324 271.488C269.466 270.736 270.264 269.639 270.264 268.359C270.264 267.079 269.466 265.983 268.324 265.231C267.177 264.475 265.627 264.02 263.958 264.02Z" fill="white" stroke="black"/>
<path d="M264.342 269.971C263.593 269.971 262.958 269.757 262.522 269.433C262.089 269.113 261.866 268.699 261.866 268.263C261.866 267.828 262.089 267.414 262.522 267.093C262.958 266.77 263.593 266.556 264.342 266.556C265.09 266.556 265.726 266.77 266.161 267.093C266.594 267.414 266.817 267.828 266.817 268.263C266.817 268.672 266.597 269.087 266.158 269.418C265.72 269.748 265.084 269.971 264.342 269.971ZM264.342 266.708C263.754 266.708 263.228 266.861 262.834 267.108C262.463 267.341 262.114 267.726 262.114 268.215C262.114 268.705 262.463 269.09 262.834 269.323C263.228 269.57 263.754 269.723 264.342 269.723C264.93 269.723 265.447 269.57 265.833 269.318C266.202 269.077 266.521 268.691 266.521 268.215C266.521 267.74 266.202 267.354 265.833 267.113C265.447 266.861 264.93 266.708 264.342 266.708Z" fill="white" stroke="black"/>
<path d="M255.048 296.797H245.078L250.042 287.729L255.048 296.797Z" fill="white" stroke="black"/>
<path d="M269.928 296.797H259.957L264.963 287.729L269.928 296.797Z" fill="white" stroke="black"/>
<path d="M285.428 296.797H275.458L280.464 287.729L285.428 296.797Z" fill="white" stroke="black"/>
</svg>
