<svg width="250" height="250" viewBox="0 0 250 250" fill="none" xmlns="http://www.w3.org/2000/svg">
<path d="M220.9 82.5357H29.1006C21.1961 82.5357 14.0575 78.1814 8.8768 71.1325C3.6961 64.0834 0.5 54.3681 0.5 43.7499V39.2857C0.5 28.4455 3.77802 18.7315 8.99857 11.7388C14.2197 4.7454 21.3587 0.5 29.1006 0.5H220.9C228.804 0.5 235.943 4.85428 241.123 11.9032C246.304 18.9522 249.5 28.6675 249.5 39.2857V43.7499C249.5 54.5901 246.222 64.3042 241.001 71.2969C235.78 78.2903 228.641 82.5357 220.9 82.5357Z" fill="white" stroke="black"/>
<path d="M220.9 166.019H29.1006C21.1961 166.019 14.0575 161.664 8.8768 154.615C3.6961 147.566 0.5 137.851 0.5 127.233V122.769C0.5 111.929 3.77802 102.215 8.99857 95.2219C14.2197 88.2284 21.3587 83.983 29.1006 83.983H220.9C228.804 83.983 235.943 88.3373 241.123 95.3863C246.304 102.435 249.5 112.151 249.5 122.769V127.233C249.5 137.848 246.223 147.563 241 154.614C235.776 161.666 228.637 166.019 220.9 166.019Z" fill="white" stroke="black"/>
<path d="M220.9 249.5H29.1006C21.1961 249.5 14.0575 245.145 8.8768 238.096C3.6961 231.047 0.5 221.332 0.5 210.714V206.25C0.5 195.41 3.77802 185.695 8.99857 178.703C14.2197 171.709 21.3587 167.464 29.1006 167.464H220.9C228.804 167.464 235.943 171.818 241.123 178.867C246.304 185.916 249.5 195.631 249.5 206.25V210.714C249.5 221.329 246.223 231.044 241 238.095C235.776 245.147 228.637 249.5 220.9 249.5Z" fill="white" stroke="black"/>
</svg>
