<svg width="20" height="20" viewBox="0 0 20 20" fill="none" xmlns="http://www.w3.org/2000/svg">
<path d="M8.33325 1.66663C7.83325 1.66663 7.49992 1.99996 7.49992 2.49996V17.5C7.49992 18 7.83325 18.3333 8.33325 18.3333C8.83325 18.3333 9.16659 18 9.16659 17.5V2.49996C9.16659 1.99996 8.83325 1.66663 8.33325 1.66663ZM4.16659 9.99996C3.66659 9.99996 3.33325 10.3333 3.33325 10.8333V17.5C3.33325 18 3.66659 18.3333 4.16659 18.3333C4.66659 18.3333 4.99992 18 4.99992 17.5V10.8333C4.99992 10.3333 4.66659 9.99996 4.16659 9.99996ZM12.4999 6.66663C11.9999 6.66663 11.6666 6.99996 11.6666 7.49996V17.5C11.6666 18 11.9999 18.3333 12.4999 18.3333C12.9999 18.3333 13.3333 18 13.3333 17.5V7.49996C13.3333 6.99996 12.9999 6.66663 12.4999 6.66663ZM16.6666 13.3333C16.1666 13.3333 15.8333 13.6666 15.8333 14.1666V17.5C15.8333 18 16.1666 18.3333 16.6666 18.3333C17.1666 18.3333 17.4999 18 17.4999 17.5V14.1666C17.4999 13.6666 17.1666 13.3333 16.6666 13.3333Z" fill="white"/>
</svg>
