<svg width="121" height="120" viewBox="0 0 121 120" fill="none" xmlns="http://www.w3.org/2000/svg">
<rect width="121" height="120" rx="13" fill="white"/>
<path d="M97.7396 77.4498C106.148 57.0765 96.5085 33.7194 76.2081 25.2804C55.9078 16.8413 32.6344 26.5159 24.2256 46.8892C15.8167 67.2625 25.4567 90.6195 45.757 99.0586C66.0573 107.498 89.3307 97.8231 97.7396 77.4498Z" fill="#FF8C00"/>
<path d="M60.9856 23.4932C82.284 23.4932 99.5295 40.8007 99.5295 62.1757C99.5295 83.5507 82.284 100.858 60.9856 100.858C39.6872 100.858 22.4417 83.5507 22.4417 62.1757C22.4417 40.8007 39.6872 23.4932 60.9856 23.4932ZM60.9856 21.0029C38.3638 21.0029 19.9603 39.4726 19.9603 62.1757C19.9603 84.8788 38.3638 103.348 60.9856 103.348C83.6074 103.348 102.011 84.8788 102.011 62.1757C102.011 39.4726 83.6074 21.0029 60.9856 21.0029Z" fill="#DB5400"/>
<path d="M34.2282 77.6151C34.2282 77.6151 34.0628 77.4076 33.7319 77.0341C33.4424 76.619 32.9462 76.121 32.4499 75.2909C32.2017 74.9173 31.9122 74.4608 31.6228 73.9627C31.3333 73.4646 31.0438 72.9251 30.7543 72.344C30.4648 71.763 30.2167 71.0989 29.9272 70.4348C29.679 69.7292 29.4309 69.0236 29.1828 68.235C29.0587 67.8615 28.976 67.4464 28.8519 67.0314C28.8105 66.8239 28.7278 66.6164 28.6865 66.4088C28.6451 66.2013 28.6038 65.9938 28.5624 65.7448C28.4797 65.3297 28.397 64.8731 28.3143 64.4166C28.2316 63.96 28.1902 63.5035 28.1488 63.0469C28.1075 62.7979 28.1075 62.5904 28.0661 62.3414V62.1753V62.0923V62.0508C28.0661 62.0923 28.0661 61.9678 28.0661 61.9678V61.9263V61.5943C28.0661 61.1377 28.0248 60.6812 28.0248 60.1831C28.0248 59.6851 28.0248 59.1455 28.0661 58.6059C28.1075 58.1079 28.1488 57.5683 28.1902 57.0702C28.2729 56.0326 28.4383 54.995 28.6865 53.9159C28.8933 52.8783 29.1828 51.7991 29.5136 50.7615C30.1753 48.6863 31.0851 46.611 32.2018 44.7018C33.3184 42.7926 34.6418 40.9664 36.1306 39.3477C36.875 38.5176 37.6608 37.7705 38.4465 37.0649C39.2323 36.3593 40.0594 35.6953 40.9279 35.1142C42.6235 33.9106 44.3604 32.956 46.0974 32.1674C46.5523 32.0013 46.9659 31.7938 47.3795 31.6278C47.793 31.4618 48.2479 31.2958 48.6615 31.1712C49.4886 30.9222 50.3157 30.6732 51.1015 30.5072C51.8873 30.2996 52.673 30.2166 53.3761 30.0921C53.7483 30.0506 54.0791 30.0091 54.4514 29.9676C54.7822 29.9261 55.1131 29.8846 55.4439 29.8846C56.7673 29.8016 57.8839 29.8431 58.7937 29.8846C59.2487 29.9261 59.6622 29.9676 60.0344 30.0091C60.4066 30.0506 60.6961 30.1336 60.9443 30.1336C61.4405 30.2166 61.6887 30.2581 61.6887 30.2581C61.6887 30.2581 61.4405 30.2996 60.9443 30.4242C60.6961 30.4657 60.4066 30.5487 60.0758 30.6317C59.7449 30.7147 59.3314 30.8392 58.9178 30.9222C58.0493 31.1297 57.0154 31.4618 55.8575 31.8353C55.2785 32.0428 54.6581 32.2504 54.0378 32.4994C53.4174 32.7899 52.7557 33.039 52.094 33.371C49.4059 34.6161 46.511 36.4009 43.7815 38.7666C43.4506 39.0572 43.1198 39.3477 42.7889 39.6797C42.4581 40.0118 42.1272 40.3023 41.7964 40.6343C41.4655 40.9664 41.1347 41.2984 40.8452 41.6305C40.5557 41.9625 40.2248 42.2945 39.9354 42.6681C38.736 44.1207 37.6194 45.6564 36.7096 47.2751C35.7584 48.8938 34.9313 50.637 34.2696 52.3802C34.1041 52.8368 33.9387 53.2518 33.8146 53.7084C33.6906 54.1649 33.5251 54.58 33.4011 55.0365C33.1529 55.9081 32.9462 56.8212 32.7394 57.6928C32.6567 58.1494 32.574 58.5644 32.4913 59.021C32.4499 59.436 32.3672 59.8511 32.3258 60.2661C32.2845 60.6812 32.2431 61.1792 32.2018 61.6358L32.1604 61.9678V62.0093C32.1604 62.0093 32.1604 61.9263 32.1604 61.9678V62.0508V62.2168C32.1604 62.4244 32.119 62.6319 32.119 62.8394C32.119 63.2545 32.0777 63.6695 32.0777 64.0846C32.0777 64.4996 32.0777 64.8731 32.0777 65.2882C32.0777 65.4957 32.0777 65.7032 32.0777 65.8693C32.0777 66.0768 32.119 66.2428 32.119 66.4503C32.1604 66.8239 32.1604 67.1974 32.2018 67.571C32.2431 68.3181 32.3672 69.0236 32.4085 69.6877C32.5326 70.3518 32.6153 71.0159 32.698 71.5969C32.8221 72.2195 32.9462 72.7591 33.0702 73.2986C33.1529 73.8382 33.3184 74.2947 33.4424 74.7098C33.6492 75.5814 33.8973 76.287 34.0214 76.7435C34.1455 77.3661 34.2282 77.6151 34.2282 77.6151Z" fill="#FFAD47"/>
<path d="M87.7431 46.7358C87.7431 46.7358 87.9085 46.9434 88.2394 47.3169C88.5289 47.732 89.0251 48.23 89.5214 49.0601C89.7695 49.4337 90.059 49.8902 90.3485 50.3883C90.638 50.8863 90.9275 51.4259 91.217 52.0069C91.5065 52.588 91.7546 53.2521 92.0441 53.9162C92.2923 54.6218 92.5404 55.3273 92.7885 56.1159C92.9126 56.4895 92.9953 56.9045 93.1194 57.3196C93.1607 57.5271 93.2435 57.7346 93.2848 57.9421C93.3262 58.1497 93.3675 58.3572 93.4089 58.6062C93.4916 59.0213 93.5743 59.4778 93.657 59.9344C93.7397 60.3909 93.7811 60.8475 93.8224 61.304C93.8638 61.5531 93.8638 61.7606 93.9052 62.0096V62.1756V62.2586V62.3001C93.9052 62.2586 93.9052 62.3832 93.9052 62.3832V62.4247V62.7567C93.9052 63.2132 93.9465 63.6698 93.9465 64.1679C93.9465 64.6659 93.9465 65.2055 93.9052 65.745C93.8638 66.2431 93.8224 66.7827 93.7811 67.2807C93.6984 68.3183 93.5329 69.356 93.2848 70.4351C93.078 71.4727 92.7885 72.5518 92.4577 73.5895C91.796 75.6647 90.8862 77.7399 89.7695 79.6492C88.6529 81.5584 87.3295 83.3846 85.8407 85.0033C85.0963 85.8334 84.3105 86.5805 83.5247 87.286C82.739 87.9916 81.9119 88.6557 81.0434 89.2368C79.3478 90.4404 77.6108 91.395 75.8739 92.1836C75.4189 92.3496 75.0054 92.5572 74.5918 92.7232C74.1783 92.8892 73.7233 93.0552 73.3098 93.1797C72.4827 93.4288 71.6555 93.6778 70.8698 93.8438C70.084 94.0513 69.2982 94.1343 68.5952 94.2589C68.223 94.3004 67.8921 94.3419 67.5199 94.3834C67.1891 94.4249 66.8582 94.4664 66.5274 94.4664C65.204 94.5494 64.0874 94.5079 63.1775 94.4664C62.7226 94.4249 62.309 94.3834 61.9368 94.3419C61.5646 94.3004 61.2752 94.2173 61.027 94.2173C60.5307 94.1343 60.2826 94.0928 60.2826 94.0928C60.2826 94.0928 60.5307 94.0513 61.027 93.9268C61.2752 93.8853 61.5646 93.8023 61.8955 93.7193C62.2263 93.6363 62.6399 93.5118 63.0535 93.4288C63.9219 93.2212 64.9559 92.8892 66.1138 92.5156C66.6928 92.3081 67.3131 92.1006 67.9335 91.8516C68.5538 91.561 69.2155 91.312 69.8772 90.98C72.5654 89.7348 75.4603 87.9501 78.1898 85.5843C78.5207 85.2938 78.8515 85.0033 79.1824 84.6712C79.5132 84.3392 79.8441 84.0487 80.1749 83.7166C80.5058 83.3846 80.8366 83.0525 81.1261 82.7205C81.4156 82.3885 81.7464 82.0564 82.0359 81.6829C83.2353 80.2302 84.3519 78.6945 85.2617 77.0759C86.2129 75.4572 87.04 73.714 87.7017 71.9708C87.8672 71.5142 88.0326 71.0992 88.1566 70.6426C88.2807 70.1861 88.4461 69.771 88.5702 69.3145C88.8183 68.4429 89.0251 67.5298 89.2319 66.6581C89.3146 66.2016 89.3973 65.7866 89.48 65.33C89.5214 64.9149 89.6041 64.4999 89.6455 64.0849C89.6868 63.6698 89.7282 63.1717 89.7695 62.7152L89.8109 62.3832V62.3416C89.8109 62.3416 89.8109 62.4247 89.8109 62.3832V62.3001V62.1341C89.8109 61.9266 89.8522 61.7191 89.8522 61.5116C89.8522 61.0965 89.8936 60.6815 89.8936 60.2664C89.8936 59.8514 89.8936 59.4778 89.8936 59.0628C89.8936 58.8552 89.8936 58.6477 89.8936 58.4817C89.8936 58.2742 89.8522 58.1082 89.8522 57.9006C89.8109 57.5271 89.8109 57.1535 89.7695 56.78C89.7282 56.0329 89.6041 55.3273 89.5628 54.6633C89.4387 53.9992 89.356 53.3351 89.2733 52.754C89.1492 52.1315 89.0251 51.5919 88.901 51.0523C88.8183 50.5128 88.6529 50.0562 88.5289 49.6412C88.3221 48.7696 88.0739 48.064 87.9499 47.6074C87.7844 46.9849 87.7431 46.7358 87.7431 46.7358Z" fill="#DB5400"/>
<path d="M67.3545 56.3643C72.6067 62.3825 79.844 63.1296 83.318 55.6172" stroke="black" stroke-width="2" stroke-miterlimit="10" stroke-linecap="round"/>
<path d="M54.6168 56.3643C49.3646 62.3825 42.1272 63.1296 38.6533 55.6172" stroke="black" stroke-width="2" stroke-miterlimit="10" stroke-linecap="round"/>
<path d="M40.1422 43.7887C44.1538 40.8004 49.8609 40.8004 52.6317 43.2907" stroke="black" stroke-width="2" stroke-miterlimit="10" stroke-linecap="round"/>
<path d="M80.299 43.7887C76.2875 40.8004 70.5803 40.8004 67.8094 43.2907" stroke="black" stroke-width="2" stroke-miterlimit="10" stroke-linecap="round"/>
<path d="M46.2628 79.8147C51.0188 87.0781 67.4785 90.5645 75.7084 79.0676" stroke="black" stroke-width="2" stroke-miterlimit="10" stroke-linecap="round"/>
</svg>
