<svg width="34" height="34" viewBox="0 0 34 34" fill="none" xmlns="http://www.w3.org/2000/svg">
<path d="M17 34C26.3888 34 34 26.3888 34 17C34 7.61116 26.3888 0 17 0C7.61116 0 0 7.61116 0 17C0 26.3888 7.61116 34 17 34Z" fill="#F2F2F2"/>
<path d="M16.9999 32.0167C25.2934 32.0167 32.0166 25.2935 32.0166 17.0001C32.0166 8.70659 25.2934 1.9834 16.9999 1.9834C8.70647 1.9834 1.98328 8.70659 1.98328 17.0001C1.98328 25.2935 8.70647 32.0167 16.9999 32.0167Z" fill="#F7931E"/>
<path d="M9.36426 26.2792C10.6959 24.1684 13.5151 22.7234 16.7876 22.7234C20.4709 22.7234 23.5734 24.5651 24.6359 27.0867" stroke="#4D4D4D" stroke-width="2" stroke-miterlimit="10" stroke-linecap="round" stroke-linejoin="round"/>
<path d="M20.8534 20.6831C22.9033 20.6831 24.5651 18.1778 24.5651 15.0873C24.5651 11.9968 22.9033 9.49146 20.8534 9.49146C18.8035 9.49146 17.1417 11.9968 17.1417 15.0873C17.1417 18.1778 18.8035 20.6831 20.8534 20.6831Z" fill="#F2F2F2"/>
<path d="M16.8583 15.0873C16.8583 18.1756 15.2008 20.6831 13.1466 20.6831C11.0924 20.6831 9.43494 18.1756 9.43494 15.0873C9.43494 11.999 11.1066 9.49146 13.1466 9.49146C15.1866 9.49146 16.8583 11.999 16.8583 15.0873Z" fill="#F2F2F2"/>
<path d="M13.1467 18.1332C14.7115 18.1332 15.98 16.8647 15.98 15.2999C15.98 13.7351 14.7115 12.4666 13.1467 12.4666C11.5819 12.4666 10.3134 13.7351 10.3134 15.2999C10.3134 16.8647 11.5819 18.1332 13.1467 18.1332Z" fill="#4D4D4D"/>
<path d="M20.8958 18.1332C22.4606 18.1332 23.7292 16.8647 23.7292 15.2999C23.7292 13.7351 22.4606 12.4666 20.8958 12.4666C19.331 12.4666 18.0625 13.7351 18.0625 15.2999C18.0625 16.8647 19.331 18.1332 20.8958 18.1332Z" fill="#4D4D4D"/>
<path opacity="0.24" d="M16.8442 1.82739C8.55668 1.82739 1.82751 8.55656 1.82751 16.8441C1.82751 25.1316 8.55668 31.8607 16.8442 31.8607C8.95335 31.8607 2.55002 25.4716 2.55002 17.5666C2.55002 9.67573 8.95335 3.27239 16.8442 3.27239C24.735 3.27239 31.1383 9.67573 31.1383 17.5666C31.1383 25.4574 24.735 31.8607 16.8442 31.8607C25.1317 31.8607 31.8608 25.1316 31.8608 16.8441C31.8608 8.55656 25.1317 1.82739 16.8442 1.82739Z" fill="#E6E6E6"/>
<path opacity="0.49" d="M12.1409 15.6826C11.8293 15.1584 12.0134 14.4784 12.5376 14.1809L11.9001 13.0759C10.7668 13.7276 10.3701 15.1868 11.0359 16.3201C11.6876 17.4534 13.1468 17.8501 14.2801 17.1843L13.6426 16.0793C13.1184 16.3909 12.4384 16.2068 12.1409 15.6826Z" fill="#E6E6E6"/>
<path opacity="0.49" d="M19.8758 15.6826C19.5641 15.1584 19.7483 14.4784 20.2725 14.1809L19.635 13.0759C18.5016 13.7276 18.105 15.1868 18.7708 16.3201C19.4225 17.4534 20.8816 17.8501 22.015 17.1843L21.3775 16.0793C20.8533 16.3909 20.1733 16.2068 19.8758 15.6826Z" fill="#E6E6E6"/>
<path d="M9.43501 15.0877C9.29334 13.8552 9.46334 12.5519 10.0442 11.4044C10.3275 10.8235 10.7242 10.2852 11.2483 9.8602C11.5033 9.6477 11.8008 9.46353 12.1267 9.33603C12.4525 9.20853 12.7925 9.1377 13.1608 9.1377C13.5008 9.1377 13.855 9.20853 14.1808 9.33603C14.5067 9.46353 14.8042 9.6477 15.0592 9.8602C15.5833 10.2852 15.98 10.8235 16.2633 11.4044C16.83 12.566 17.0142 13.8694 16.8725 15.0877C16.7167 13.8552 16.3908 12.6794 15.7817 11.6594C15.47 11.1635 15.1017 10.7102 14.6483 10.3702C14.195 10.0302 13.685 9.83186 13.1467 9.83186C12.6367 9.83186 12.0983 10.0302 11.6592 10.3702C11.2058 10.7102 10.8375 11.1635 10.5258 11.6594C9.91667 12.6794 9.59084 13.8552 9.43501 15.0877Z" fill="#E6E6E6"/>
<path d="M17.1417 15.0877C17 13.8552 17.17 12.5519 17.7508 11.4044C18.0342 10.8235 18.4308 10.2852 18.955 9.8602C19.21 9.6477 19.5075 9.46353 19.8333 9.33603C20.1592 9.20853 20.5133 9.1377 20.8533 9.1377C21.2075 9.1377 21.5617 9.20853 21.8733 9.33603C22.1992 9.46353 22.4967 9.6477 22.7517 9.84603C23.2758 10.271 23.6725 10.8094 23.9558 11.3902C24.5225 12.5519 24.7067 13.8552 24.565 15.0735C24.4092 13.841 24.0833 12.6652 23.4742 11.6452C23.1625 11.1494 22.7942 10.696 22.3408 10.356C21.9017 10.016 21.3775 9.8177 20.8392 9.8177C20.315 9.8177 19.7908 10.016 19.3375 10.356C18.8842 10.696 18.5158 11.1494 18.2042 11.6452C17.6092 12.6794 17.2833 13.8552 17.1417 15.0877Z" fill="#E6E6E6"/>
</svg>
