<svg width="303" height="268" viewBox="0 0 303 268" fill="none" xmlns="http://www.w3.org/2000/svg">
<path d="M157.95 249.372L157.949 249.785L158.354 249.863C161.34 250.443 163.617 253.027 163.708 256.245C163.751 259.855 160.9 262.796 157.286 262.885L157.283 262.885C155.821 262.93 154.44 262.443 153.319 261.636L152.779 261.247L152.556 261.874C151.613 264.524 149.148 266.488 146.157 266.532C143.158 266.577 140.562 264.697 139.579 262.059L139.38 261.526L138.877 261.791C138.024 262.24 136.999 262.549 135.943 262.549L135.937 262.549C132.325 262.594 129.382 259.742 129.292 256.127L129.292 256.125C129.203 253.011 131.338 250.38 134.239 249.666L134.606 249.576L134.619 249.198L136.188 204.405L157.997 201.008L157.95 249.372Z" fill="white" stroke="black"/>
<path d="M146.98 231.692C144.377 231.692 142.297 229.613 142.297 227.01C142.297 224.406 144.377 222.327 146.98 222.327C149.583 222.327 151.663 224.406 151.663 227.01C151.663 229.613 149.583 231.692 146.98 231.692ZM146.98 224.446C145.552 224.446 144.417 225.582 144.417 227.01C144.417 228.437 145.552 229.573 146.98 229.573C148.405 229.573 149.538 228.443 149.544 227.02C149.598 225.562 148.385 224.446 146.98 224.446Z" fill="white" stroke="black"/>
<path d="M141.989 248.393C139.962 248.393 138.314 246.745 138.314 244.717C138.314 242.69 139.962 241.042 141.989 241.042C144.016 241.042 145.664 242.69 145.664 244.717C145.664 246.745 144.016 248.393 141.989 248.393ZM141.989 242.634C140.849 242.634 139.905 243.578 139.905 244.717C139.905 245.857 140.849 246.801 141.989 246.801C143.129 246.801 144.073 245.857 144.073 244.717C144.073 243.578 143.129 242.634 141.989 242.634Z" fill="white" stroke="black"/>
<path d="M152.547 242.25C150.519 242.25 148.872 240.602 148.872 238.575C148.872 236.548 150.519 234.9 152.547 234.9C154.574 234.9 156.222 236.548 156.222 238.575C156.222 240.602 154.574 242.25 152.547 242.25ZM152.547 236.539C151.407 236.539 150.463 237.483 150.463 238.623C150.463 239.763 151.407 240.707 152.547 240.707C153.687 240.707 154.63 239.763 154.63 238.623C154.63 237.425 153.677 236.539 152.547 236.539Z" fill="white" stroke="black"/>
<path d="M136.048 237.931L136.048 237.931H136.039C135.702 237.931 135.383 237.887 135.062 237.811L135.122 235.709C135.395 235.808 135.689 235.86 135.991 235.86C137.419 235.86 138.554 234.724 138.554 233.296C138.554 231.868 137.419 230.733 135.991 230.733C135.738 230.733 135.499 230.774 135.278 230.842L135.371 228.662C135.567 228.63 135.778 228.613 135.991 228.613C138.594 228.613 140.674 230.693 140.674 233.296C140.674 235.901 138.546 237.974 136.048 237.931Z" fill="white" stroke="black"/>
<path d="M157.998 227.644C156.137 227.465 154.679 225.894 154.679 223.986H154.179C154.179 221.801 155.821 220.004 157.998 219.826V220.328M157.998 227.644V220.328M157.998 227.644V226.039M157.998 227.644C158.115 227.656 158.234 227.661 158.354 227.661H158.354H158.354H158.355H158.355H158.355H158.355H158.356H158.356H158.356H158.357H158.357H158.357H158.357H158.358H158.358H158.358H158.359H158.359H158.359H158.359H158.36H158.36H158.36H158.361H158.361H158.361H158.361H158.362H158.362H158.362H158.363H158.363H158.363H158.363H158.364H158.364H158.364H158.364H158.365H158.365H158.365H158.366H158.366H158.366H158.366H158.367H158.367H158.367H158.368H158.368H158.368H158.368H158.369H158.369H158.369H158.37H158.37H158.37H158.37H158.371H158.371H158.371H158.372H158.372H158.372H158.372H158.373H158.373H158.373H158.373H158.374H158.374H158.374H158.375H158.375H158.375H158.375H158.376H158.376H158.376H158.377H158.377H158.377H158.377H158.378H158.378H158.378H158.379H158.379H158.379H158.379H158.38H158.38H158.38H158.381H158.381H158.381H158.381H158.382H158.382H158.382H158.382H158.383H158.383H158.383H158.384H158.384H158.384H158.384H158.385H158.385H158.385H158.386H158.386H158.386H158.386H158.387H158.387H158.387H158.388H158.388H158.388H158.388H158.389H158.389H158.389H158.389H158.39H158.39H158.39H158.391H158.391H158.391H158.391H158.392H158.392H158.392H158.393H158.393H158.393H158.393H158.394H158.394H158.394H158.395H158.395H158.395H158.395H158.396H158.396H158.396H158.397H158.397H158.397H158.397H158.398H158.398H158.398H158.398H158.399H158.399H158.399H158.4H158.4H158.4H158.4H158.401H158.401H158.401H158.402H158.402H158.402H158.402H158.403H158.403H158.403H158.404H158.404H158.404H158.404H158.405H158.405H158.405H158.406H158.406H158.406H158.406H158.407H158.407H158.407H158.407H158.408H158.408H158.408H158.409H158.409H158.409H158.409H158.41H158.41H158.41H158.411H158.411H158.411H158.411H158.412H158.412H158.412H158.413H158.413H158.413H158.413H158.414H158.414H158.414H158.415H158.415H158.415H158.415H158.416H158.416H158.416H158.416H158.417H158.417H158.417H158.418H158.418H158.418H158.418H158.419H158.419H158.419H158.42H158.42H158.42H158.42H158.421H158.421H158.421H158.422H158.422H158.422H158.422H158.423H158.423H158.423H158.424H158.424H158.424H158.424H158.425H158.425H158.425H158.425H158.426H158.426H158.426H158.427H158.427H158.427H158.427H158.428H158.428H158.428H158.429H158.429H158.429H158.429H158.43H158.43H158.43H158.431H158.431H158.431H158.431H158.432H158.432H158.432H158.433H158.433H158.433H158.433H158.434H158.434H158.434H158.434H158.435H158.435H158.435H158.436H158.436H158.436H158.436H158.437H158.437H158.437H158.438H158.438H158.438H158.438H158.439H158.439H158.439H158.44H158.44H158.44H158.44H158.441H158.441H158.441H158.441H158.442H158.442H158.442H158.443H158.443H158.443H158.443H158.444H158.444H158.444H158.445H158.445H158.445H158.445H158.446H158.446H158.446H158.447H158.447H158.447H158.447H158.448H158.448H158.448H158.449H158.449H158.449H158.449H158.45H158.45H158.45H158.45H158.451H158.451H158.451H158.452H158.452H158.452H158.452H158.453H158.453H158.453H158.454H158.454H158.454H158.454H158.455H158.455H158.455H158.456H158.456H158.456H158.456H158.457H158.457H158.457H158.458H158.458H158.458H158.458H158.459H158.459H158.459H158.459H158.46H158.46H158.46H158.461H158.461H158.461H158.461H158.462H158.462H158.462H158.463H158.463H158.463H158.463H158.464H158.464H158.464H158.465H158.465H158.465H158.465H158.466H158.466H158.466H158.467H158.467H158.467H158.467H158.468H158.468H158.468H158.468H158.469H158.469H158.469H158.47H158.47H158.47H158.47H158.471H158.471H158.471H158.472H158.472H158.472H158.472H158.473H158.473H158.473H158.474H158.474H158.474H158.474H158.475H158.475H158.475H158.476H158.476H158.476H158.476H158.477H158.477H158.477H158.477H158.478H158.478H158.478H158.479H158.479H158.479H158.479H158.48H158.48H158.48H158.481H158.481H158.481H158.481H158.482H158.482H158.482H158.483H158.483H158.483H158.483H158.484H158.484H158.484H158.485H158.485H158.485H158.485H158.486H158.486H158.486H158.486H158.487H158.487H158.487H158.488H158.488H158.488H158.488H158.489H158.489H158.489H158.49H158.49H158.49H158.49H158.491H158.491H158.491H158.492H158.492H158.492H158.492H158.493H158.493H158.493H158.494H158.494H158.494H158.494H158.495H158.495H158.495H158.495H158.496H158.496H158.496H158.497H158.497H158.497H158.497L157.998 221.934M157.998 220.328V221.934M157.998 220.328C158.115 220.317 158.233 220.311 158.354 220.311H158.354H158.354H158.355H158.355H158.355H158.355H158.356H158.356H158.356H158.357H158.357H158.357H158.357H158.358H158.358H158.358H158.359H158.359H158.359H158.359H158.36H158.36H158.36H158.361H158.361H158.361H158.361H158.362H158.362H158.362H158.363H158.363H158.363H158.363H158.364H158.364H158.364H158.364H158.365H158.365H158.365H158.366H158.366H158.366H158.366H158.367H158.367H158.367H158.368H158.368H158.368H158.368H158.369H158.369H158.369H158.37H158.37H158.37H158.37H158.371H158.371H158.371H158.372H158.372H158.372H158.372H158.373H158.373H158.373H158.373H158.374H158.374H158.374H158.375H158.375H158.375H158.375H158.376H158.376H158.376H158.377H158.377H158.377H158.377H158.378H158.378H158.378H158.379H158.379H158.379H158.379H158.38H158.38H158.38H158.381H158.381H158.381H158.381H158.382H158.382H158.382H158.382H158.383H158.383H158.383H158.384H158.384H158.384H158.384H158.385H158.385H158.385H158.386H158.386H158.386H158.386H158.387H158.387H158.387H158.388H158.388H158.388H158.388H158.389H158.389H158.389H158.389H158.39H158.39H158.39H158.391H158.391H158.391H158.391H158.392H158.392H158.392H158.393H158.393H158.393H158.393H158.394H158.394H158.394H158.395H158.395H158.395H158.395H158.396H158.396H158.396H158.397H158.397H158.397H158.397H158.398H158.398H158.398H158.398H158.399H158.399H158.399H158.4H158.4H158.4H158.4H158.401H158.401H158.401H158.402H158.402H158.402H158.402H158.403H158.403H158.403H158.404H158.404H158.404H158.404H158.405H158.405H158.405H158.406H158.406H158.406H158.406H158.407H158.407H158.407H158.407H158.408H158.408H158.408H158.409H158.409H158.409H158.409H158.41H158.41H158.41H158.411H158.411H158.411H158.411H158.412H158.412H158.412H158.413H158.413H158.413H158.413H158.414H158.414H158.414H158.415H158.415H158.415H158.415H158.416H158.416H158.416H158.416H158.417H158.417H158.417H158.418H158.418H158.418H158.418H158.419H158.419H158.419H158.42H158.42H158.42H158.42H158.421H158.421H158.421H158.422H158.422H158.422H158.422H158.423H158.423H158.423H158.424H158.424H158.424H158.424H158.425H158.425H158.425H158.425H158.426H158.426H158.426H158.427H158.427H158.427H158.427H158.428H158.428H158.428H158.429H158.429H158.429H158.429H158.43H158.43H158.43H158.431H158.431H158.431H158.431H158.432H158.432H158.432H158.433H158.433H158.433H158.433H158.434H158.434H158.434H158.434H158.435H158.435H158.435H158.436H158.436H158.436H158.436H158.437H158.437H158.437H158.438H158.438H158.438H158.438H158.439H158.439H158.439H158.44H158.44H158.44H158.44H158.441H158.441H158.441H158.441H158.442H158.442H158.442H158.443H158.443H158.443H158.443H158.444H158.444H158.444H158.445H158.445H158.445H158.445H158.446H158.446H158.446H158.447H158.447H158.447H158.447H158.448H158.448H158.448H158.449H158.449H158.449H158.449H158.45H158.45H158.45H158.45H158.451H158.451H158.451H158.452H158.452H158.452H158.452H158.453H158.453H158.453H158.454H158.454H158.454H158.454H158.455H158.455H158.455H158.456H158.456H158.456H158.456H158.457H158.457H158.457H158.458H158.458H158.458H158.458H158.459H158.459H158.459H158.459H158.46H158.46H158.46H158.461H158.461H158.461H158.461H158.462H158.462H158.462H158.463H158.463H158.463H158.463H158.464H158.464H158.464H158.465H158.465H158.465H158.465H158.466H158.466H158.466H158.467H158.467H158.467H158.467H158.468H158.468H158.468H158.468H158.469H158.469H158.469H158.47H158.47H158.47H158.47H158.471H158.471H158.471H158.472H158.472H158.472H158.472H158.473H158.473H158.473H158.474H158.474H158.474H158.474H158.475H158.475H158.475H158.476H158.476H158.476H158.476H158.477H158.477H158.477H158.477H158.478H158.478H158.478H158.479H158.479H158.479H158.479H158.48H158.48H158.48H158.481H158.481H158.481H158.481H158.482H158.482H158.482H158.483H158.483H158.483H158.483H158.484H158.484H158.484H158.485H158.485H158.485H158.485H158.486L157.998 221.934M157.998 221.934C157.024 222.106 156.27 222.968 156.27 223.986C156.27 225.005 157.024 225.867 157.998 226.039M157.998 221.934V222.403H158.354C157.49 222.403 156.77 223.122 156.77 223.986C156.77 224.85 157.49 225.57 158.354 225.57H157.998V226.039M157.998 221.934C158.114 221.913 158.233 221.903 158.354 221.903H158.354H158.354H158.355H158.355H158.355H158.355H158.356H158.356H158.356H158.357H158.357H158.357H158.357H158.358H158.358H158.358H158.359H158.359H158.359H158.359H158.36H158.36H158.36H158.361H158.361H158.361H158.361H158.362H158.362H158.362H158.363H158.363H158.363H158.363H158.364H158.364H158.364H158.364H158.365H158.365H158.365H158.366H158.366H158.366H158.366H158.367H158.367H158.367H158.368H158.368H158.368H158.368H158.369H158.369H158.369H158.37H158.37H158.37H158.37H158.371H158.371H158.371H158.372H158.372H158.372H158.372H158.373H158.373H158.373H158.373H158.374H158.374H158.374H158.375H158.375H158.375H158.375H158.376H158.376H158.376H158.377H158.377H158.377H158.377H158.378H158.378H158.378H158.379H158.379H158.379H158.379H158.38H158.38H158.38H158.381H158.381H158.381H158.381H158.382H158.382H158.382H158.382H158.383H158.383H158.383H158.384H158.384H158.384H158.384H158.385H158.385H158.385H158.386H158.386H158.386H158.386H158.387H158.387H158.387H158.388H158.388H158.388H158.388H158.389H158.389H158.389H158.389H158.39H158.39H158.39H158.391H158.391H158.391H158.391H158.392H158.392H158.392H158.393H158.393H158.393H158.393H158.394H158.394H158.394H158.395H158.395H158.395H158.395H158.396H158.396H158.396H158.397H158.397H158.397H158.397H158.398H158.398H158.398H158.398H158.399H158.399H158.399H158.4H158.4H158.4H158.4H158.401H158.401H158.401H158.402H158.402H158.402H158.402H158.403H158.403H158.403H158.404H158.404H158.404H158.404H158.405H158.405H158.405H158.406H158.406H158.406H158.406H158.407H158.407H158.407H158.407H158.408H158.408H158.408H158.409H158.409H158.409H158.409H158.41H158.41H158.41H158.411H158.411H158.411H158.411H158.412H158.412H158.412H158.413H158.413H158.413H158.413H158.414H158.414H158.414H158.415H158.415H158.415H158.415H158.416H158.416H158.416H158.416H158.417H158.417H158.417H158.418H158.418H158.418H158.418H158.419H158.419H158.419H158.42H158.42H158.42H158.42H158.421H158.421H158.421H158.422H158.422H158.422H158.422H158.423H158.423H158.423H158.424H158.424H158.424H158.424H158.425H158.425H158.425H158.425H158.426H158.426H158.426H158.427H158.427H158.427H158.427H158.428H158.428H158.428H158.429H158.429H158.429H158.429H158.43H158.43H158.43H158.431H158.431H158.431H158.431H158.432H158.432H158.432H158.433H158.433H158.433H158.433H158.434H158.434H158.434H158.434H158.435H158.435H158.435H158.436H158.436H158.436H158.436H158.437H158.437H158.437H158.438H158.438H158.438H158.438H158.439H158.439H158.439H158.44H158.44H158.44H158.44H158.441H158.441H158.441H158.441H158.442H158.442H158.442H158.443H158.443H158.443H158.443H158.444H158.444H158.444H158.445H158.445H158.445H158.445H158.446H158.446H158.446H158.447H158.447H158.447H158.447H158.448H158.448H158.448H158.449H158.449H158.449H158.449H158.45H158.45H158.45H158.45H158.451H158.451H158.451H158.452H158.452H158.452H158.452H158.453H158.453H158.453H158.454H158.454H158.454H158.454H158.455H158.455H158.455H158.456H158.456H158.456H158.456H158.457H158.457H158.457H158.458H158.458H158.458H158.458H158.459H158.459H158.459H158.459H158.46H158.46H158.46H158.461H158.461H158.461H158.461H158.462H158.462H158.462H158.463H158.463H158.463H158.463H158.464H158.464H158.464H158.465H158.465H158.465H158.465H158.466H158.466H158.466H158.467H158.467H158.467H158.467H158.468H158.468H158.468H158.468H158.469H158.469H158.469H158.47H158.47H158.47H158.47H158.471H158.471H158.471H158.472H158.472H158.472H158.472H158.473H158.473H158.473H158.474H158.474H158.474H158.474H158.475H158.475H158.475H158.476H158.476H158.476H158.476H158.477H158.477H158.477H158.477H158.478H158.478H158.478H158.479H158.479H158.479H158.479H158.48H158.48H158.48H158.481H158.481H158.481H158.481H158.482H158.482H158.482H158.483H158.483H158.483H158.483H158.484H158.484H158.484H158.485H158.485H158.485H158.485H158.486H158.486H158.486H158.486H158.487H158.487H158.487H158.488H158.488H158.488H158.488H158.489H158.489H158.489H158.49H158.49H158.49H158.49H158.491H158.491H158.491H158.492H158.492H158.492H158.492H158.493H158.493H158.493H158.494H158.494H158.494H158.494H158.495H158.495H158.495H158.495H158.496H158.496H158.496H158.497H158.497H158.497H158.497H158.498V226.07H158.497H158.497H158.497H158.497H158.496H158.496H158.496H158.495H158.495H158.495H158.495H158.494H158.494H158.494H158.494H158.493H158.493H158.493H158.492H158.492H158.492H158.492H158.491H158.491H158.491H158.49H158.49H158.49H158.49H158.489H158.489H158.489H158.488H158.488H158.488H158.488H158.487H158.487H158.487H158.486H158.486H158.486H158.486H158.485H158.485H158.485H158.485H158.484H158.484H158.484H158.483H158.483H158.483H158.483H158.482H158.482H158.482H158.481H158.481H158.481H158.481H158.48H158.48H158.48H158.479H158.479H158.479H158.479H158.478H158.478H158.478H158.477H158.477H158.477H158.477H158.476H158.476H158.476H158.476H158.475H158.475H158.475H158.474H158.474H158.474H158.474H158.473H158.473H158.473H158.472H158.472H158.472H158.472H158.471H158.471H158.471H158.47H158.47H158.47H158.47H158.469H158.469H158.469H158.468H158.468H158.468H158.468H158.467H158.467H158.467H158.467H158.466H158.466H158.466H158.465H158.465H158.465H158.465H158.464H158.464H158.464H158.463H158.463H158.463H158.463H158.462H158.462H158.462H158.461H158.461H158.461H158.461H158.46H158.46H158.46H158.459H158.459H158.459H158.459H158.458H158.458H158.458H158.458H158.457H158.457H158.457H158.456H158.456H158.456H158.456H158.455H158.455H158.455H158.454H158.454H158.454H158.454H158.453H158.453H158.453H158.452H158.452H158.452H158.452H158.451H158.451H158.451H158.45H158.45H158.45H158.45H158.449H158.449H158.449H158.449H158.448H158.448H158.448H158.447H158.447H158.447H158.447H158.446H158.446H158.446H158.445H158.445H158.445H158.445H158.444H158.444H158.444H158.443H158.443H158.443H158.443H158.442H158.442H158.442H158.441H158.441H158.441H158.441H158.44H158.44H158.44H158.44H158.439H158.439H158.439H158.438H158.438H158.438H158.438H158.437H158.437H158.437H158.436H158.436H158.436H158.436H158.435H158.435H158.435H158.434H158.434H158.434H158.434H158.433H158.433H158.433H158.433H158.432H158.432H158.432H158.431H158.431H158.431H158.431H158.43H158.43H158.43H158.429H158.429H158.429H158.429H158.428H158.428H158.428H158.427H158.427H158.427H158.427H158.426H158.426H158.426H158.425H158.425H158.425H158.425H158.424H158.424H158.424H158.424H158.423H158.423H158.423H158.422H158.422H158.422H158.422H158.421H158.421H158.421H158.42H158.42H158.42H158.42H158.419H158.419H158.419H158.418H158.418H158.418H158.418H158.417H158.417H158.417H158.416H158.416H158.416H158.416H158.415H158.415H158.415H158.415H158.414H158.414H158.414H158.413H158.413H158.413H158.413H158.412H158.412H158.412H158.411H158.411H158.411H158.411H158.41H158.41H158.41H158.409H158.409H158.409H158.409H158.408H158.408H158.408H158.407H158.407H158.407H158.407H158.406H158.406H158.406H158.406H158.405H158.405H158.405H158.404H158.404H158.404H158.404H158.403H158.403H158.403H158.402H158.402H158.402H158.402H158.401H158.401H158.401H158.4H158.4H158.4H158.4H158.399H158.399H158.399H158.398H158.398H158.398H158.398H158.397H158.397H158.397H158.397H158.396H158.396H158.396H158.395H158.395H158.395H158.395H158.394H158.394H158.394H158.393H158.393H158.393H158.393H158.392H158.392H158.392H158.391H158.391H158.391H158.391H158.39H158.39H158.39H158.389H158.389H158.389H158.389H158.388H158.388H158.388H158.388H158.387H158.387H158.387H158.386H158.386H158.386H158.386H158.385H158.385H158.385H158.384H158.384H158.384H158.384H158.383H158.383H158.383H158.382H158.382H158.382H158.382H158.381H158.381H158.381H158.381H158.38H158.38H158.38H158.379H158.379H158.379H158.379H158.378H158.378H158.378H158.377H158.377H158.377H158.377H158.376H158.376H158.376H158.375H158.375H158.375H158.375H158.374H158.374H158.374H158.373H158.373H158.373H158.373H158.372H158.372H158.372H158.372H158.371H158.371H158.371H158.37H158.37H158.37H158.37H158.369H158.369H158.369H158.368H158.368H158.368H158.368H158.367H158.367H158.367H158.366H158.366H158.366H158.366H158.365H158.365H158.365H158.364H158.364H158.364H158.364H158.363H158.363H158.363H158.363H158.362H158.362H158.362H158.361H158.361H158.361H158.361H158.36H158.36H158.36H158.359H158.359H158.359H158.359H158.358H158.358H158.358H158.357H158.357H158.357H158.357H158.356H158.356H158.356H158.355H158.355H158.355H158.355H158.354H158.354H158.354C158.233 226.07 158.114 226.059 157.998 226.039" fill="white" stroke="black"/>
<path d="M260.975 131.757L260.975 131.757C252.216 143.812 253.172 162.392 264.099 187.169C278.128 218.976 275.865 234.302 271.263 241.577C268.815 245.483 265.415 247.533 262.589 248.604C259.788 249.666 257.53 249.775 257.264 249.776M260.975 131.757L257.259 249.276M260.975 131.757C266.772 123.768 275.615 120.293 283.189 118.835M260.975 131.757L283.189 118.835M257.264 249.776C257.262 249.776 257.26 249.776 257.259 249.776V249.276M257.264 249.776C257.265 249.776 257.266 249.776 257.267 249.776L257.259 249.276M257.264 249.776C254.712 249.822 252.677 251.942 252.72 254.499C252.763 257.056 254.843 259.094 257.403 259.094C257.407 259.094 257.418 259.094 257.429 259.094C257.439 259.094 257.461 259.095 257.486 259.098C257.508 259.1 257.567 259.107 257.638 259.138M257.259 249.276C254.427 249.324 252.172 251.676 252.22 254.507C252.268 257.339 254.571 259.594 257.403 259.594C257.451 259.594 257.451 259.594 257.451 259.642V259.142C257.479 259.142 257.542 259.141 257.638 259.138M257.638 259.138C257.689 259.16 257.746 259.194 257.799 259.247C257.925 259.374 257.943 259.522 257.947 259.559C257.95 259.585 257.95 259.606 257.951 259.616C257.951 259.618 257.951 259.621 257.951 259.623C260.559 259.471 272.397 258.146 279.478 247.069M257.638 259.138C259.373 259.075 271.781 258.181 279.056 246.8M279.056 246.8L279.478 247.069M279.056 246.8C279.056 246.8 279.056 246.8 279.056 246.8L279.478 247.069M279.056 246.8C283.249 240.229 284.852 231.641 283.797 221.054C282.742 210.466 279.032 197.911 272.638 183.446L272.638 183.445C268.018 172.979 265.334 163.758 264.625 156.007C263.917 148.258 265.181 141.932 268.515 137.314C268.515 137.314 268.515 137.313 268.515 137.313L268.92 137.606L273.095 183.244C285.908 212.229 288.02 233.68 279.478 247.069M283.189 118.835C290.751 117.38 296.978 117.949 297.473 117.996L283.189 118.835ZM296.524 127.316L296.514 127.316C296.52 127.316 296.524 127.316 296.524 127.316Z" fill="white" stroke="black"/>
<path d="M296.613 127.223L296.587 127.22H296.562C296.569 127.22 296.526 127.217 296.367 127.208C296.229 127.2 296.033 127.19 295.783 127.18C295.284 127.16 294.573 127.142 293.697 127.148C292.05 127.16 289.819 127.257 287.319 127.591L285.584 118.395C292.047 117.45 297.073 117.903 297.52 117.948C300.084 118.209 301.986 120.514 301.727 123.014L301.727 123.016C301.467 125.621 299.168 127.483 296.613 127.223Z" fill="white" stroke="black"/>
<path d="M175.41 261.877V152.408C183.446 141.625 193.593 135.227 204.615 135.227C211.011 135.227 217.454 138.341 223.544 143.772C229.632 149.199 235.329 156.908 240.22 166.006C250.004 184.205 256.519 207.878 256.519 229.745C256.519 238.765 255.123 246.883 253.725 252.748C253.027 255.679 252.328 258.045 251.805 259.677C251.544 260.493 251.326 261.125 251.174 261.552C251.129 261.679 251.09 261.787 251.057 261.877H175.41Z" fill="white" stroke="black"/>
<path d="M175.41 261.877V152.408C183.446 141.625 193.593 135.227 204.615 135.227C211.011 135.227 217.454 138.341 223.544 143.772C229.632 149.199 235.329 156.908 240.22 166.006C250.004 184.205 256.519 207.878 256.519 229.745C256.519 238.765 255.123 246.883 253.725 252.748C253.027 255.679 252.328 258.045 251.805 259.677C251.544 260.493 251.326 261.125 251.174 261.552C251.129 261.679 251.09 261.787 251.057 261.877H175.41Z" fill="white" stroke="black"/>
<path d="M196.437 248.39L196.458 248.805L196.87 248.86C199.854 249.261 202.26 251.71 202.484 254.876C202.707 258.495 200.028 261.61 196.471 261.879C195.001 261.967 193.62 261.566 192.459 260.807L191.89 260.435L191.705 261.089C190.946 263.769 188.529 265.83 185.574 266.054C182.578 266.277 179.894 264.534 178.776 261.94L178.545 261.402L178.05 261.715C177.214 262.243 176.238 262.557 175.159 262.647C171.552 262.913 168.432 260.198 168.162 256.586C167.986 253.506 169.951 250.744 172.797 249.9L173.16 249.792L173.154 249.412L172.441 204.62L194.019 200.121L196.437 248.39Z" fill="white" stroke="black"/>
<path d="M105.182 21.7574C115.197 23.9203 121.563 33.7926 119.4 43.8079C117.237 53.8231 107.365 60.1888 97.3496 58.0259C87.3344 55.863 80.9688 45.9906 83.1317 35.9754C85.2945 25.9601 95.1669 19.5945 105.182 21.7574Z" fill="white" stroke="black"/>
<path d="M110.537 39.9002C110.537 45.0468 106.346 49.2379 101.199 49.2379C96.0525 49.2379 91.8613 45.0468 91.8613 39.9002C91.8613 34.7536 96.0525 30.5624 101.199 30.5624C106.347 30.5624 110.537 34.7072 110.537 39.9002Z" fill="white" stroke="black"/>
<path d="M163.721 21.5703C173.835 23.2117 180.703 32.741 179.061 42.8546C177.42 52.9682 167.891 59.8363 157.777 58.195C147.663 56.5536 140.795 47.0243 142.437 36.9106C144.078 26.797 153.607 19.9289 163.721 21.5703Z" fill="white" stroke="black"/>
<path d="M170.043 39.9002C170.043 45.0468 165.852 49.2379 160.705 49.2379C155.559 49.2379 151.368 45.0468 151.368 39.9002C151.368 34.7536 155.559 30.5624 160.705 30.5624C165.854 30.5624 170.043 34.7072 170.043 39.9002Z" fill="white" stroke="black"/>
<path d="M196.322 65.9122C232.334 101.924 232.334 160.311 196.322 196.322C160.311 232.334 101.924 232.334 65.9122 196.322C29.9004 160.311 29.9004 101.924 65.9122 65.9122C101.924 29.9004 160.311 29.9004 196.322 65.9122Z" fill="white" stroke="black"/>
<path d="M122.623 57.2444C122.501 63.9137 120.126 135.211 75.8029 195.644L74.9261 194.992C119.023 134.858 121.434 63.8981 121.559 57.2444H122.623Z" fill="white" stroke="black"/>
<path d="M188.123 195.033L187.257 195.651C142.942 135.234 140.555 63.9561 140.432 57.2924H141.495C141.617 63.9437 143.986 134.855 188.123 195.033Z" fill="white" stroke="black"/>
<path d="M131.143 172.13C155.872 172.13 178.297 181.863 194.872 197.736C178.297 213.61 155.872 223.342 131.143 223.342C106.414 223.342 83.9892 213.61 67.4141 197.736C83.9424 181.863 106.414 172.13 131.143 172.13Z" fill="white" stroke="black"/>
<path d="M124.26 55.4967C124.26 58.2439 122.037 60.4675 119.29 60.4675C116.542 60.4675 114.319 58.2439 114.319 55.4967C114.319 52.7496 116.542 50.526 119.29 50.526C122.037 50.526 124.26 52.7496 124.26 55.4967Z" fill="white" stroke="black"/>
<path d="M148.543 55.4967C148.543 58.2439 146.319 60.4675 143.572 60.4675C140.825 60.4675 138.601 58.2439 138.601 55.4967C138.601 52.7496 140.825 50.526 143.572 50.526C146.319 50.526 148.543 52.7496 148.543 55.4967Z" fill="white" stroke="black"/>
<path d="M111.88 174.024C112.062 173.946 112.287 173.853 112.555 173.749C113.392 173.422 114.647 172.984 116.305 172.545C119.619 171.668 124.543 170.786 130.951 170.786C137.384 170.786 142.381 171.668 145.762 172.546C147.453 172.985 148.741 173.423 149.602 173.75C149.882 173.856 150.117 173.951 150.306 174.03L131.095 197.616L111.88 174.024Z" fill="white" stroke="black"/>
<path d="M88.6957 188.852L88.6957 188.852L88.6858 188.85C88.5565 188.821 88.4459 188.683 88.4896 188.487C88.5181 188.358 88.6544 188.248 88.8488 188.29L105.783 192.415L105.783 192.415L105.793 192.418C105.919 192.445 106.027 192.577 105.992 192.764C105.954 192.873 105.826 192.965 105.709 192.965H105.709H105.709H105.709H105.708H105.708H105.708H105.707H105.707H105.707H105.707H105.706H105.706H105.706H105.705H105.705H105.705H105.704H105.704H105.704H105.704H105.703H105.703H105.703H105.702H105.702H105.702H105.701H105.701H105.701H105.7H105.7H105.7H105.7H105.699H105.699H105.699H105.698H105.698H105.698H105.697H105.697H105.697H105.696H105.696H105.696H105.695H105.695H105.695H105.694H105.694H105.694H105.693H105.693H105.693H105.692H105.692H105.692H105.691H105.691H105.691H105.69H105.69H105.69H105.689H105.689H105.689H105.688H105.688H105.688H105.687H105.687H105.687H105.686H105.686H105.686H105.685H105.685H105.684H105.684H105.684H105.683H105.683H105.683H105.682H105.682H105.682H105.681H105.681H105.681H105.68H105.68H105.679H105.679H105.679H105.678H105.678H105.678H105.677H105.677H105.676H105.676H105.676H105.675H105.675H105.675H105.674H105.674H105.674H105.673H105.673H105.672H105.672H105.672H105.671H105.671H105.67H105.67H105.67H105.669H105.669H105.669H105.668H105.668H105.667H105.667H105.667H105.666H105.666H105.666H105.665H105.665H105.664H105.664H105.664H105.663H105.663H105.662H105.662H105.662H105.661H105.661H105.66H105.66H105.66H105.659H105.659H105.658H105.658H105.658H105.657H105.657H105.656H105.656H105.656H105.655H105.655H105.654H105.654H105.654H105.653H105.653H105.652H105.652H105.652H105.651H105.651H105.65H105.65H105.65H105.649H105.649H105.648H105.648H105.648H105.647H105.647H105.646H105.646H105.646H105.645H105.645H105.644H105.644H105.644H105.643H105.643H105.642H105.642H105.641H105.641H105.641H105.64H105.64H105.639H105.639H105.639H105.638H105.638H105.637H105.637H105.636H105.636H105.636H105.635H105.635H105.634H105.634H105.634H105.633H105.633H105.632H105.632H105.632H105.631H105.631H105.63H105.63H105.629H105.629H105.629H105.628H105.628H105.627H105.627H105.626H105.626H105.626H105.625H105.625H105.624H105.624H105.624H105.623H105.623H105.622H105.622H105.621H105.621H105.621H105.62H105.62H105.619H105.619H105.618H105.618H105.618H105.617H105.617H105.616H105.616H105.616H105.615H105.615H105.614H105.614H105.613H105.613H105.613H105.612H105.612H105.611H105.611H105.61H105.61H105.61H105.609H105.609H105.608H105.608H105.608H105.607H105.607H105.606H105.606H105.605H105.605H105.605H105.604H105.604H105.603H105.603H105.602H105.602H105.602H105.601H105.601H105.6H105.6H105.6H105.599H105.599H105.598H105.598H105.597H105.597H105.597H105.596H105.596H105.595H105.595H105.595H105.594H105.594H105.593H105.593H105.592H105.592H105.592H105.591H105.591H105.59H105.59H105.59H105.589H105.589H105.588H105.588H105.587H105.587H105.587H105.586H105.586H105.585H105.585H105.585H105.584H105.584H105.583H105.583H105.583H105.582H105.582H105.581H105.581H105.58H105.58H105.58H105.579H105.579H105.578H105.578H105.578H105.578L88.6957 188.852Z" fill="white" stroke="black"/>
<path d="M89.0569 204.195C88.9406 204.195 88.8124 204.102 88.774 203.994C88.7479 203.848 88.8121 203.709 89.0087 203.638L106.208 199.231C106.355 199.201 106.495 199.26 106.569 199.452C106.592 199.595 106.526 199.731 106.333 199.8L89.1858 204.195H89.1858H89.1854H89.185H89.1846H89.1842H89.1838H89.1834H89.183H89.1826H89.1822H89.1817H89.1813H89.1809H89.1805H89.1801H89.1797H89.1793H89.1789H89.1784H89.178H89.1776H89.1772H89.1768H89.1764H89.176H89.1755H89.1751H89.1747H89.1743H89.1739H89.1735H89.173H89.1726H89.1722H89.1718H89.1714H89.171H89.1705H89.1701H89.1697H89.1693H89.1689H89.1684H89.168H89.1676H89.1672H89.1668H89.1663H89.1659H89.1655H89.1651H89.1647H89.1642H89.1638H89.1634H89.163H89.1626H89.1621H89.1617H89.1613H89.1609H89.1605H89.16H89.1596H89.1592H89.1588H89.1584H89.1579H89.1575H89.1571H89.1567H89.1562H89.1558H89.1554H89.155H89.1546H89.1541H89.1537H89.1533H89.1529H89.1524H89.152H89.1516H89.1512H89.1508H89.1503H89.1499H89.1495H89.1491H89.1487H89.1482H89.1478H89.1474H89.147H89.1465H89.1461H89.1457H89.1453H89.1449H89.1444H89.144H89.1436H89.1432H89.1428H89.1423H89.1419H89.1415H89.1411H89.1407H89.1402H89.1398H89.1394H89.139H89.1386H89.1381H89.1377H89.1373H89.1369H89.1365H89.136H89.1356H89.1352H89.1348H89.1344H89.134H89.1335H89.1331H89.1327H89.1323H89.1319H89.1315H89.131H89.1306H89.1302H89.1298H89.1294H89.129H89.1285H89.1281H89.1277H89.1273H89.1269H89.1265H89.1261H89.1257H89.1252H89.1248H89.1244H89.124H89.1236H89.1232H89.1228H89.1224H89.1219H89.1215H89.1211H89.1207H89.1203H89.1199H89.1195H89.1191H89.1187H89.1183H89.1179H89.1175H89.1171H89.1166H89.1162H89.1158H89.1154H89.115H89.1146H89.1142H89.1138H89.1134H89.113H89.1126H89.1122H89.1118H89.1114H89.111H89.1106H89.1102H89.1098H89.1094H89.109H89.1086H89.1082H89.1078H89.1074H89.107H89.1066H89.1062H89.1058H89.1055H89.1051H89.1047H89.1043H89.1039H89.1035H89.1031H89.1027H89.1023H89.1019H89.1015H89.1012H89.1008H89.1004H89.1H89.0996H89.0992H89.0988H89.0985H89.0981H89.0977H89.0973H89.0969H89.0965H89.0962H89.0958H89.0954H89.095H89.0946H89.0943H89.0939H89.0935H89.0931H89.0928H89.0924H89.092H89.0916H89.0913H89.0909H89.0905H89.0902H89.0898H89.0894H89.089H89.0887H89.0883H89.0879H89.0876H89.0872H89.0868H89.0865H89.0861H89.0858H89.0854H89.085H89.0847H89.0843H89.084H89.0836H89.0832H89.0829H89.0825H89.0822H89.0818H89.0815H89.0811H89.0808H89.0804H89.0801H89.0797H89.0794H89.079H89.0787H89.0783H89.078H89.0776H89.0773H89.0769H89.0766H89.0763H89.0759H89.0756H89.0752H89.0749H89.0746H89.0742H89.0739H89.0736H89.0732H89.0729H89.0726H89.0722H89.0719H89.0716H89.0712H89.0709H89.0706H89.0703H89.0699H89.0696H89.0693H89.069H89.0686H89.0683H89.068H89.0677H89.0674H89.0671H89.0667H89.0664H89.0661H89.0658H89.0655H89.0652H89.0649H89.0646H89.0642H89.0639H89.0636H89.0633H89.063H89.0627H89.0624H89.0621H89.0618H89.0615H89.0612H89.0609H89.0606H89.0603H89.06H89.0598H89.0595H89.0592H89.0589H89.0586H89.0583H89.058H89.0577H89.0575H89.0572H89.0569Z" fill="white" stroke="black"/>
<path d="M155.391 192.954C155.375 192.957 155.359 192.96 155.345 192.963C155.238 192.948 155.129 192.863 155.094 192.765C155.068 192.619 155.132 192.481 155.327 192.41L172.238 188.29C172.386 188.258 172.527 188.318 172.602 188.511C172.624 188.653 172.559 188.788 172.368 188.858L155.58 192.948C155.497 192.938 155.428 192.948 155.391 192.954ZM155.31 192.971C155.305 192.972 155.303 192.972 155.303 192.972C155.303 192.972 155.305 192.972 155.31 192.971Z" fill="white" stroke="black"/>
<path d="M172.315 203.931C172.238 204.113 172.138 204.174 172.069 204.19L171.962 204.162L154.734 199.747L154.726 199.745L154.718 199.743C154.589 199.715 154.478 199.577 154.522 199.38C154.55 199.252 154.685 199.143 154.879 199.183L172.097 203.595L172.105 203.597L172.113 203.599C172.235 203.626 172.341 203.751 172.315 203.931Z" fill="white" stroke="black"/>
<path d="M125.768 45.4949H114.059C113.759 45.4949 113.503 45.2389 113.503 44.9392C113.503 44.6394 113.759 44.3834 114.059 44.3834H125.768C126.068 44.3834 126.324 44.6394 126.324 44.9392C126.324 45.272 126.083 45.4949 125.768 45.4949Z" fill="white" stroke="black"/>
<path d="M149.235 45.4949H137.526C137.226 45.4949 136.97 45.2389 136.97 44.9392C136.97 44.6394 137.226 44.3834 137.526 44.3834H149.235C149.535 44.3834 149.791 44.6394 149.791 44.9392C149.791 45.272 149.55 45.4949 149.235 45.4949Z" fill="white" stroke="black"/>
<path d="M210.337 251.076L210.518 250.902L210.486 250.652C210.248 248.8 210.106 246.853 210.106 244.861C210.106 223.149 221.243 209.754 234.656 209.754C248.068 209.754 259.158 223.1 259.11 244.86V244.861C259.11 251.055 257.924 256.876 255.824 261.877H237.104H213.061H205.898C206.096 257.114 207.797 253.526 210.337 251.076Z" fill="white" stroke="black"/>
<path d="M212.455 257.172C212.6 256.589 212.742 256.15 212.849 255.853L213.81 256.297C213.809 256.298 213.809 256.299 213.809 256.301C213.708 256.587 213.58 257.003 213.451 257.547C213.211 258.55 212.964 259.994 212.87 261.877H211.805C211.903 259.818 212.185 258.25 212.455 257.172Z" fill="white" stroke="black"/>
<path d="M218.716 261.877C218.813 259.818 219.096 258.25 219.365 257.172C219.511 256.589 219.653 256.15 219.76 255.853L220.738 256.305C220.641 256.588 220.513 257.001 220.38 257.544C220.135 258.547 219.877 259.992 219.781 261.877H218.716Z" fill="white" stroke="black"/>
<path d="M236.336 232.556C233.589 232.556 231.365 230.333 231.365 227.585C231.365 224.838 233.589 222.615 236.336 222.615C239.083 222.615 241.307 224.838 241.307 227.585C241.307 230.333 239.083 232.556 236.336 232.556ZM236.336 224.734C234.764 224.734 233.485 226.014 233.485 227.585C233.485 229.157 234.764 230.437 236.336 230.437C237.908 230.437 239.187 229.157 239.187 227.585C239.187 226.014 237.908 224.734 236.336 224.734Z" fill="white" stroke="black"/>
<path d="M260.618 164.748C258.111 164.748 256.08 162.716 256.08 160.209C256.08 157.702 258.111 155.67 260.618 155.67C263.126 155.67 265.157 157.702 265.157 160.209C265.157 162.716 263.126 164.748 260.618 164.748ZM260.618 157.549C259.143 157.549 257.959 158.733 257.959 160.209C257.959 161.685 259.143 162.868 260.618 162.868C262.091 162.868 263.273 161.69 263.278 160.219C263.332 158.714 262.072 157.549 260.618 157.549Z" fill="white" stroke="black"/>
<path d="M228.273 168.539C225.526 168.539 223.303 166.315 223.303 163.568C223.303 160.821 225.526 158.597 228.273 158.597C231.021 158.597 233.244 160.821 233.244 163.568C233.244 166.315 231.021 168.539 228.273 168.539ZM228.273 160.717C226.702 160.717 225.422 161.996 225.422 163.568C225.422 165.14 226.702 166.419 228.273 166.419C229.845 166.419 231.125 165.14 231.125 163.568C231.125 161.996 229.845 160.717 228.273 160.717Z" fill="white" stroke="black"/>
<path d="M236.576 182.216C233.829 182.216 231.605 179.992 231.605 177.245C231.605 174.498 233.829 172.274 236.576 172.274C239.323 172.274 241.547 174.498 241.547 177.245C241.547 179.992 239.323 182.216 236.576 182.216ZM236.576 174.393C235.004 174.393 233.724 175.673 233.724 177.245C233.724 178.817 235.004 180.096 236.576 180.096C238.148 180.096 239.427 178.817 239.427 177.245C239.427 175.673 238.148 174.393 236.576 174.393Z" fill="white" stroke="black"/>
<path d="M205.623 99.6746C202.78 99.6746 200.46 97.355 200.46 94.5119C200.46 91.6687 202.78 89.3492 205.623 89.3492C208.466 89.3492 210.786 91.6687 210.786 94.5119C210.786 97.355 208.466 99.6746 205.623 99.6746ZM205.623 91.4205C203.901 91.4205 202.58 92.8022 202.58 94.4639C202.58 96.1858 203.962 97.5073 205.623 97.5073C207.291 97.5073 208.667 96.1317 208.667 94.4639C208.667 92.7961 207.291 91.4205 205.623 91.4205Z" fill="white" stroke="black"/>
<path d="M191.418 99.1467C188.671 99.1467 186.447 96.9231 186.447 94.176C186.447 91.4288 188.671 89.2052 191.418 89.2052C194.165 89.2052 196.389 91.4288 196.389 94.176C196.389 96.9231 194.165 99.1467 191.418 99.1467ZM191.418 91.3245C189.846 91.3245 188.567 92.6041 188.567 94.176C188.567 95.7478 189.846 97.0274 191.418 97.0274C192.99 97.0274 194.269 95.7478 194.269 94.176C194.269 92.6041 192.99 91.3245 191.418 91.3245Z" fill="white" stroke="black"/>
<path d="M192.762 83.8382C190.015 83.8382 187.791 81.6146 187.791 78.8675C187.791 76.1203 190.015 73.8967 192.762 73.8967C195.509 73.8967 197.733 76.1203 197.733 78.8675C197.733 81.5695 195.506 83.8382 192.762 83.8382ZM192.762 76.016C191.19 76.016 189.91 77.2956 189.91 78.8675C189.91 80.4393 191.19 81.7189 192.762 81.7189C194.334 81.7189 195.613 80.4393 195.613 78.8675C195.613 77.2956 194.334 76.016 192.762 76.016Z" fill="white" stroke="black"/>
<path d="M176.925 71.3611C174.178 71.3611 171.955 69.1375 171.955 66.3903C171.955 63.6432 174.178 61.4196 176.925 61.4196C179.673 61.4196 181.896 63.6432 181.896 66.3903C181.896 69.1375 179.673 71.3611 176.925 71.3611ZM176.925 63.5389C175.354 63.5389 174.074 64.8185 174.074 66.3903C174.074 67.9622 175.354 69.2418 176.925 69.2418C178.497 69.2418 179.777 67.9622 179.777 66.3903C179.777 64.8185 178.497 63.5389 176.925 63.5389Z" fill="white" stroke="black"/>
<path d="M211.142 115.511C208.395 115.511 206.171 113.287 206.171 110.54C206.171 107.793 208.395 105.569 211.142 105.569C213.889 105.569 216.113 107.793 216.113 110.54C216.113 113.287 213.889 115.511 211.142 115.511ZM211.142 107.689C209.57 107.689 208.291 108.968 208.291 110.54C208.291 112.112 209.57 113.392 211.142 113.392C212.714 113.392 213.994 112.112 213.994 110.54C213.994 108.968 212.714 107.689 211.142 107.689Z" fill="white" stroke="black"/>
<path d="M209.798 130.484C207.051 130.484 204.827 128.26 204.827 125.513C204.827 122.766 207.051 120.542 209.798 120.542C212.545 120.542 214.769 122.766 214.769 125.513C214.769 128.26 212.545 130.484 209.798 130.484ZM209.798 122.661C208.226 122.661 206.946 123.941 206.946 125.513C206.946 127.085 208.226 128.364 209.798 128.364C211.37 128.364 212.649 127.085 212.649 125.513C212.649 123.941 211.37 122.661 209.798 122.661Z" fill="white" stroke="black"/>
<path d="M196.649 116.855C193.902 116.855 191.678 114.631 191.678 111.884C191.678 109.137 193.902 106.913 196.649 106.913C199.396 106.913 201.62 109.137 201.62 111.884C201.62 114.631 199.396 116.855 196.649 116.855ZM196.649 109.032C195.077 109.032 193.798 110.312 193.798 111.884C193.798 113.456 195.077 114.735 196.649 114.735C198.221 114.735 199.5 113.456 199.5 111.884C199.5 110.312 198.221 109.032 196.649 109.032Z" fill="white" stroke="black"/>
<path d="M175.198 89.6448C172.451 89.6448 170.227 87.4213 170.227 84.6741C170.227 81.9269 172.451 79.7033 175.198 79.7033C177.945 79.7033 180.169 81.9269 180.169 84.6741C180.169 87.4213 177.945 89.6448 175.198 89.6448ZM175.198 81.8226C173.626 81.8226 172.346 83.1023 172.346 84.6741C172.346 86.246 173.626 87.5255 175.198 87.5255C176.766 87.5255 178.044 86.2511 178.049 84.6837C178.103 83.1449 176.81 81.8226 175.198 81.8226Z" fill="white" stroke="black"/>
<path d="M161.761 59.6037C159.59 59.6037 157.846 57.86 157.846 55.6887C157.846 53.5174 159.59 51.7737 161.761 51.7737C163.932 51.7737 165.676 53.5174 165.676 55.6887C165.676 57.8156 163.929 59.6037 161.761 59.6037ZM161.761 53.3172C160.477 53.3172 159.438 54.3568 159.438 55.6408C159.438 56.9247 160.477 57.9643 161.761 57.9643C163.045 57.9643 164.085 56.9247 164.085 55.6408C164.085 54.3568 163.045 53.3172 161.761 53.3172Z" fill="white" stroke="black"/>
<path d="M180.477 107.593C178.306 107.593 176.562 105.849 176.562 103.678C176.562 101.506 178.306 99.7628 180.477 99.7628C182.648 99.7628 184.392 101.506 184.392 103.678C184.392 105.849 182.648 107.593 180.477 107.593ZM180.477 101.354C179.193 101.354 178.153 102.394 178.153 103.678C178.153 104.962 179.193 106.001 180.477 106.001C181.761 106.001 182.801 104.962 182.801 103.678C182.801 102.394 181.761 101.354 180.477 101.354Z" fill="white" stroke="black"/>
<path d="M191.562 133.939C189.391 133.939 187.647 132.195 187.647 130.024C187.647 127.852 189.391 126.109 191.562 126.109C193.733 126.109 195.477 127.852 195.477 130.024C195.477 132.195 193.733 133.939 191.562 133.939ZM191.562 127.7C190.278 127.7 189.238 128.74 189.238 130.024C189.238 131.308 190.278 132.347 191.562 132.347C192.846 132.347 193.886 131.308 193.886 130.024C193.886 128.74 192.846 127.7 191.562 127.7Z" fill="white" stroke="black"/>
<path d="M215.297 144.133H215.297L215.297 144.142C215.339 146.297 213.562 148.048 211.382 148.048C209.211 148.048 207.467 146.304 207.467 144.133C207.467 141.961 209.211 140.218 211.382 140.218C213.553 140.218 215.297 141.961 215.297 144.133ZM211.382 141.809C210.098 141.809 209.058 142.849 209.058 144.133C209.058 145.416 210.098 146.456 211.382 146.456C212.662 146.456 213.699 145.423 213.705 144.144C213.761 142.826 212.639 141.809 211.382 141.809Z" fill="white" stroke="black"/>
<path d="M57.7203 99.6746C54.8771 99.6746 52.5576 97.355 52.5576 94.5119C52.5576 91.6687 54.8771 89.3492 57.7203 89.3492C60.5634 89.3492 62.883 91.6687 62.883 94.5119C62.883 97.355 60.5634 99.6746 57.7203 99.6746ZM57.7203 91.4205C56.0525 91.4205 54.6769 92.7961 54.6769 94.4639C54.6769 96.1858 56.0586 97.5073 57.7203 97.5073C59.3881 97.5073 60.7637 96.1317 60.7637 94.4639C60.7637 92.796 59.3881 91.4205 57.7203 91.4205Z" fill="white" stroke="black"/>
<path d="M71.9249 99.1467C69.1777 99.1467 66.9541 96.9231 66.9541 94.176C66.9541 91.4288 69.1777 89.2052 71.9249 89.2052C74.672 89.2052 76.8956 91.4288 76.8956 94.176C76.8956 96.9231 74.672 99.1467 71.9249 99.1467ZM71.9249 91.3245C70.353 91.3245 69.0734 92.6041 69.0734 94.176C69.0734 95.7478 70.353 97.0274 71.9249 97.0274C73.4967 97.0274 74.7763 95.7478 74.7763 94.176C74.7763 92.6041 73.4967 91.3245 71.9249 91.3245Z" fill="white" stroke="black"/>
<path d="M70.5811 83.8382C67.8339 83.8382 65.6104 81.6146 65.6104 78.8675C65.6104 76.1203 67.8339 73.8967 70.5811 73.8967C73.3269 73.8967 75.5497 76.1181 75.5519 78.8634C75.506 81.5744 73.2718 83.8382 70.5811 83.8382ZM70.5811 76.016C69.0093 76.016 67.7296 77.2956 67.7296 78.8675C67.7296 80.4393 69.0093 81.7189 70.5811 81.7189C72.153 81.7189 73.4326 80.4393 73.4326 78.8675C73.4326 77.2956 72.153 76.016 70.5811 76.016Z" fill="white" stroke="black"/>
<path d="M83.2984 71.3611C80.5512 71.3611 78.3276 69.1375 78.3276 66.3903C78.3276 63.6432 80.5512 61.4196 83.2984 61.4196C86.0456 61.4196 88.2692 63.6432 88.2692 66.3903C88.2692 69.1375 86.0456 71.3611 83.2984 71.3611ZM83.2984 63.5389C81.7266 63.5389 80.4469 64.8185 80.4469 66.3903C80.4469 67.9622 81.7266 69.2418 83.2984 69.2418C84.8702 69.2418 86.1499 67.9622 86.1499 66.3903C86.1499 64.8185 84.8702 63.5389 83.2984 63.5389Z" fill="white" stroke="black"/>
<path d="M52.2017 115.511C49.4545 115.511 47.231 113.287 47.231 110.54C47.231 107.793 49.4545 105.569 52.2017 105.569C54.9488 105.569 57.1724 107.793 57.1724 110.54C57.1724 113.287 54.9488 115.511 52.2017 115.511ZM52.2017 107.689C50.6298 107.689 49.3502 108.968 49.3502 110.54C49.3502 112.112 50.6298 113.392 52.2017 113.392C53.7735 113.392 55.0531 112.112 55.0531 110.54C55.0531 108.968 53.7735 107.689 52.2017 107.689Z" fill="white" stroke="black"/>
<path d="M53.545 130.484C50.7978 130.484 48.5742 128.26 48.5742 125.513C48.5742 122.766 50.7978 120.542 53.545 120.542C56.2921 120.542 58.5157 122.766 58.5157 125.513C58.5157 128.26 56.2921 130.484 53.545 130.484ZM53.545 122.661C51.9731 122.661 50.6935 123.941 50.6935 125.513C50.6935 127.085 51.9731 128.364 53.545 128.364C55.1168 128.364 56.3965 127.085 56.3965 125.513C56.3965 123.941 55.1168 122.661 53.545 122.661Z" fill="white" stroke="black"/>
<path d="M66.6944 116.855C63.9472 116.855 61.7236 114.631 61.7236 111.884C61.7236 109.137 63.9472 106.913 66.6944 106.913C69.4416 106.913 71.6652 109.137 71.6652 111.884C71.6652 114.631 69.4416 116.855 66.6944 116.855ZM66.6944 109.032C65.1225 109.032 63.8429 110.312 63.8429 111.884C63.8429 113.456 65.1226 114.735 66.6944 114.735C68.2662 114.735 69.5459 113.456 69.5459 111.884C69.5459 110.312 68.2662 109.032 66.6944 109.032Z" fill="white" stroke="black"/>
<path d="M88.0972 89.6449C85.3501 89.6449 83.1265 87.4213 83.1265 84.6742C83.1265 81.927 85.3501 79.7034 88.0972 79.7034C90.8444 79.7034 93.068 81.927 93.068 84.6742C93.068 87.4213 90.8444 89.6449 88.0972 89.6449ZM88.0972 81.8227C86.5254 81.8227 85.2458 83.1023 85.2458 84.6742C85.2458 86.246 86.5254 87.5256 88.0972 87.5256C89.6691 87.5256 90.9487 86.246 90.9487 84.6742C90.9487 83.1569 89.6756 81.8227 88.0972 81.8227Z" fill="white" stroke="black"/>
<path d="M99.5185 60.6115C97.3472 60.6115 95.6035 58.8678 95.6035 56.6966C95.6035 54.5253 97.3472 52.7816 99.5185 52.7816C101.69 52.7816 103.434 54.5252 103.434 56.6966C103.434 58.8643 101.645 60.6115 99.5185 60.6115ZM99.5185 54.3729C98.2346 54.3729 97.1949 55.4126 97.1949 56.6966C97.1949 57.9805 98.2346 59.0201 99.5185 59.0201C100.802 59.0201 101.842 57.9805 101.842 56.6966C101.842 55.4127 100.802 54.3729 99.5185 54.3729Z" fill="white" stroke="black"/>
<path d="M82.8661 107.593C80.6948 107.593 78.9512 105.849 78.9512 103.678C78.9512 101.506 80.6948 99.7628 82.8661 99.7628C85.0374 99.7628 86.7812 101.506 86.7812 103.678C86.7812 105.849 85.0374 107.593 82.8661 107.593ZM82.8661 101.354C81.5822 101.354 80.5426 102.394 80.5426 103.678C80.5426 104.962 81.5822 106.001 82.8661 106.001C84.15 106.001 85.1897 104.962 85.1897 103.678C85.1897 102.394 84.15 101.354 82.8661 101.354Z" fill="white" stroke="black"/>
<path d="M71.7812 133.939C69.6099 133.939 67.8662 132.195 67.8662 130.024C67.8662 127.853 69.6099 126.109 71.7812 126.109C73.9525 126.109 75.6961 127.853 75.6961 130.024C75.6961 132.195 73.9525 133.939 71.7812 133.939ZM71.7812 127.7C70.4973 127.7 69.4576 128.74 69.4576 130.024C69.4576 131.308 70.4973 132.347 71.7812 132.347C73.0651 132.347 74.1048 131.308 74.1048 130.024C74.1048 128.74 73.0651 127.7 71.7812 127.7Z" fill="white" stroke="black"/>
<path d="M55.8285 144.133H55.8284L55.8286 144.142C55.8709 146.297 54.094 148.048 51.9135 148.048C49.7422 148.048 47.9985 146.304 47.9985 144.133C47.9985 141.961 49.7422 140.218 51.9135 140.218C54.0848 140.218 55.8285 141.961 55.8285 144.133ZM51.9135 141.809C50.6296 141.809 49.59 142.849 49.59 144.133C49.59 145.416 50.6296 146.456 51.9135 146.456C53.1935 146.456 54.2307 145.423 54.2371 144.144C54.2927 142.834 53.2275 141.809 51.9135 141.809Z" fill="white" stroke="black"/>
<path d="M221.555 181.496C218.808 181.496 216.584 179.272 216.584 176.525C216.584 173.778 218.808 171.554 221.555 171.554C224.302 171.554 226.526 173.778 226.526 176.525C226.526 179.272 224.302 181.496 221.555 181.496ZM221.555 173.674C219.983 173.674 218.703 174.953 218.703 176.525C218.703 178.097 219.983 179.377 221.555 179.377C223.127 179.377 224.406 178.097 224.406 176.525C224.406 174.953 223.127 173.674 221.555 173.674Z" fill="white" stroke="black"/>
<path d="M237.967 197.812C235.22 197.812 232.997 195.589 232.997 192.841C232.997 190.094 235.22 187.871 237.967 187.871C240.715 187.871 242.938 190.094 242.938 192.841C242.938 195.589 240.715 197.812 237.967 197.812ZM237.967 189.99C236.395 189.99 235.116 191.269 235.116 192.841C235.116 194.413 236.395 195.693 237.967 195.693C239.536 195.693 240.814 194.418 240.819 192.851C240.873 191.252 239.519 189.99 237.967 189.99Z" fill="white" stroke="black"/>
<path d="M247.325 206.21C245.202 206.21 243.506 204.514 243.506 202.391C243.506 200.268 245.202 198.572 247.325 198.572C249.449 198.572 251.144 200.268 251.144 202.391C251.144 204.514 249.449 206.21 247.325 206.21ZM247.325 200.164C246.089 200.164 245.098 201.155 245.098 202.391C245.098 203.627 246.089 204.619 247.325 204.619C248.557 204.619 249.546 203.634 249.553 202.404C249.609 201.132 248.533 200.164 247.325 200.164Z" fill="white" stroke="black"/>
<path d="M230.145 206.882C228.022 206.882 226.326 205.186 226.326 203.063C226.326 200.94 228.022 199.244 230.145 199.244C232.268 199.244 233.964 200.94 233.964 203.063C233.964 205.186 232.268 206.882 230.145 206.882ZM230.145 200.835C228.909 200.835 227.918 201.827 227.918 203.063C227.918 204.299 228.909 205.291 230.145 205.291C231.377 205.291 232.366 204.306 232.373 203.075C232.429 201.803 231.353 200.835 230.145 200.835Z" fill="white" stroke="black"/>
<path d="M210.134 191.813C208.011 191.813 206.315 190.118 206.315 187.994C206.315 185.871 208.011 184.175 210.134 184.175C212.257 184.175 213.953 185.871 213.953 187.994C213.953 190.118 212.257 191.813 210.134 191.813ZM210.134 185.767C208.898 185.767 207.906 186.759 207.906 187.994C207.906 189.23 208.898 190.222 210.134 190.222C211.366 190.222 212.355 189.237 212.362 188.007C212.418 186.735 211.342 185.767 210.134 185.767Z" fill="white" stroke="black"/>
<path d="M214.453 208.37C212.329 208.37 210.634 206.674 210.634 204.551C210.634 202.427 212.329 200.732 214.453 200.732C216.576 200.732 218.272 202.427 218.272 204.551C218.272 206.674 216.576 208.37 214.453 208.37ZM214.453 202.323C213.217 202.323 212.225 203.315 212.225 204.551C212.225 205.787 213.217 206.778 214.453 206.778C215.689 206.778 216.68 205.787 216.68 204.551C216.68 203.315 215.689 202.323 214.453 202.323Z" fill="white" stroke="black"/>
<path d="M224.002 196.372C221.255 196.372 219.032 194.149 219.032 191.402C219.032 188.654 221.255 186.431 224.002 186.431C226.75 186.431 228.973 188.655 228.973 191.402C228.973 194.149 226.75 196.372 224.002 196.372ZM224.002 188.55C222.431 188.55 221.151 189.83 221.151 191.402C221.151 192.973 222.431 194.253 224.002 194.253C225.571 194.253 226.849 192.979 226.854 191.411C226.908 189.812 225.554 188.55 224.002 188.55Z" fill="white" stroke="black"/>
<path d="M233.264 219.647C231.189 219.647 229.493 217.951 229.493 215.876C229.493 213.801 231.189 212.105 233.264 212.105C235.34 212.105 237.035 213.801 237.035 215.876C237.035 217.996 235.343 219.647 233.264 219.647ZM233.264 213.744C232.076 213.744 231.085 214.736 231.085 215.924C231.085 217.112 232.076 218.104 233.264 218.104C234.452 218.104 235.444 217.112 235.444 215.924C235.444 214.679 234.443 213.744 233.264 213.744Z" fill="white" stroke="black"/>
<path d="M248.525 228.573C246.45 228.573 244.754 226.877 244.754 224.802C244.754 222.727 246.45 221.031 248.525 221.031C250.6 221.031 252.296 222.727 252.296 224.802C252.296 226.877 250.6 228.573 248.525 228.573ZM248.525 222.622C247.337 222.622 246.345 223.614 246.345 224.802C246.345 225.99 247.337 226.982 248.525 226.982C249.713 226.982 250.705 225.99 250.705 224.802C250.705 223.614 249.713 222.622 248.525 222.622Z" fill="white" stroke="black"/>
<path d="M222.803 234.236C219.957 234.236 217.592 231.914 217.592 229.025C217.592 226.134 219.912 223.814 222.803 223.814C225.649 223.814 228.014 226.137 228.014 229.025C228.014 231.914 225.649 234.236 222.803 234.236ZM222.803 225.982C221.087 225.982 219.712 227.357 219.712 229.073C219.712 230.789 221.087 232.164 222.803 232.164C224.519 232.164 225.894 230.789 225.894 229.073C225.894 227.357 224.519 225.982 222.803 225.982Z" fill="white" stroke="black"/>
<path d="M181.676 222.718C179.073 222.718 176.993 220.639 176.993 218.036C176.993 215.432 179.073 213.353 181.676 213.353C184.279 213.353 186.359 215.432 186.359 218.036C186.359 220.594 184.276 222.718 181.676 222.718ZM181.676 215.424C180.248 215.424 179.112 216.56 179.112 217.988C179.112 219.415 180.248 220.551 181.676 220.551C183.104 220.551 184.24 219.415 184.24 217.988C184.24 216.615 183.111 215.424 181.676 215.424Z" fill="white" stroke="black"/>
<path d="M189.162 233.756C186.559 233.756 184.479 231.676 184.479 229.073C184.479 226.47 186.559 224.39 189.162 224.39C191.765 224.39 193.845 226.47 193.845 229.073C193.845 231.673 191.72 233.756 189.162 233.756ZM189.162 226.462C187.734 226.462 186.599 227.597 186.599 229.025C186.599 230.453 187.734 231.589 189.162 231.589C190.59 231.589 191.726 230.453 191.726 229.025C191.726 227.653 190.598 226.462 189.162 226.462Z" fill="white" stroke="black"/>
<path d="M231.777 248.632C229.126 248.632 226.998 246.505 226.998 243.854C226.998 241.202 229.126 239.075 231.777 239.075C234.428 239.075 236.556 241.202 236.556 243.854C236.556 246.457 234.38 248.632 231.777 248.632ZM231.777 241.194C230.301 241.194 229.117 242.378 229.117 243.854C229.117 245.33 230.301 246.513 231.777 246.513C233.253 246.513 234.436 245.33 234.436 243.854C234.436 242.378 233.253 241.194 231.777 241.194Z" fill="white" stroke="black"/>
<path d="M217.956 245.657C215.928 245.657 214.281 244.009 214.281 241.982C214.281 239.955 215.928 238.307 217.956 238.307C219.983 238.307 221.631 239.955 221.631 241.982C221.631 244.009 219.983 245.657 217.956 245.657ZM217.956 239.946C216.816 239.946 215.872 240.89 215.872 242.03C215.872 243.17 216.816 244.114 217.956 244.114C219.096 244.114 220.039 243.17 220.039 242.03C220.039 240.832 219.086 239.946 217.956 239.946Z" fill="white" stroke="black"/>
<path d="M180.976 234.208V234.195L180.976 234.182C180.915 233.029 180.046 232.124 178.893 232.124C177.753 232.124 176.809 233.068 176.809 234.208C176.809 235.348 177.753 236.292 178.893 236.292C180.033 236.292 180.976 235.348 180.976 234.208ZM178.893 237.835C176.865 237.835 175.218 236.187 175.218 234.16C175.218 232.133 176.865 230.485 178.893 230.485C180.918 230.485 182.565 232.13 182.568 234.155C182.523 236.197 180.909 237.835 178.893 237.835Z" fill="white" stroke="black"/>
<path d="M186.859 246.665C184.832 246.665 183.184 245.017 183.184 242.99C183.184 240.963 184.832 239.315 186.859 239.315C188.886 239.315 190.534 240.963 190.534 242.99C190.534 245.017 188.886 246.665 186.859 246.665ZM186.859 240.954C185.719 240.954 184.776 241.898 184.776 243.038C184.776 244.178 185.719 245.122 186.859 245.122C187.999 245.122 188.943 244.178 188.943 243.038C188.943 241.898 187.999 240.954 186.859 240.954Z" fill="white" stroke="black"/>
<path d="M245.694 243.306C242.848 243.306 240.483 240.983 240.483 238.095C240.483 235.249 242.805 232.884 245.694 232.884C248.539 232.884 250.904 235.207 250.904 238.095C250.904 240.986 248.585 243.306 245.694 243.306ZM245.694 235.052C243.978 235.052 242.602 236.427 242.602 238.143C242.602 239.859 243.978 241.234 245.694 241.234C247.409 241.234 248.785 239.859 248.785 238.143C248.785 236.427 247.409 235.052 245.694 235.052Z" fill="white" stroke="black"/>
<path d="M272.116 246.733C272.116 249.48 269.892 251.704 267.145 251.704C265.097 251.704 263.329 250.399 262.555 248.562C263.165 248.328 263.804 248.06 264.465 247.72C264.88 248.814 265.928 249.585 267.145 249.585C268.717 249.585 269.996 248.305 269.996 246.733C269.996 245.823 269.571 245.025 268.921 244.5C269.414 244.019 269.87 243.496 270.317 242.918C271.409 243.815 272.116 245.203 272.116 246.733Z" fill="white" stroke="black"/>
<path d="M280.965 236.875C278.218 236.875 275.995 234.652 275.995 231.904C275.995 229.157 278.218 226.934 280.965 226.934C282.192 226.934 283.305 227.395 284.16 228.142C284.145 231.055 283.833 233.755 283.306 236.282C282.605 236.656 281.802 236.875 280.965 236.875ZM280.965 234.756C282.537 234.756 283.817 233.476 283.817 231.904C283.817 230.326 282.483 229.053 280.965 229.053C279.394 229.053 278.114 230.333 278.114 231.904C278.114 233.476 279.394 234.756 280.965 234.756Z" fill="white" stroke="black"/>
<path d="M275.446 207.45C278.194 207.45 280.417 209.674 280.417 212.421C280.417 215.168 278.194 217.392 275.446 217.392C274.895 217.392 274.372 217.298 273.877 217.136C273.727 216.234 273.551 215.306 273.351 214.352C273.872 214.918 274.619 215.272 275.446 215.272C277.018 215.272 278.298 213.993 278.298 212.421C278.298 210.849 277.018 209.569 275.446 209.569C274.166 209.569 273.079 210.419 272.72 211.584C272.504 210.699 272.27 209.793 272.02 208.868C272.92 207.979 274.107 207.45 275.446 207.45Z" fill="white" stroke="black"/>
<path d="M277.03 197.524C274.283 197.524 272.06 195.301 272.06 192.553C272.06 190.636 273.118 188.978 274.698 188.142L275.489 190.119C274.69 190.632 274.131 191.501 274.131 192.553C274.131 194.125 275.41 195.405 276.982 195.405C277.15 195.405 277.322 195.391 277.49 195.362C277.744 196.041 277.978 196.702 278.209 197.361C277.829 197.462 277.449 197.524 277.03 197.524Z" fill="white" stroke="black"/>
<path d="M264.106 187.185L264.102 187.176L264.098 187.168C263.909 186.742 263.732 186.315 263.551 185.883L263.55 185.88C263.506 185.773 263.461 185.666 263.416 185.558C263.491 185.564 263.566 185.567 263.642 185.567C265.213 185.567 266.493 184.288 266.493 182.716C266.493 181.144 265.213 179.864 263.642 179.864C262.791 179.864 262.009 180.228 261.48 180.825C261.217 180.126 260.954 179.43 260.69 178.75C261.526 178.13 262.553 177.745 263.642 177.745C266.389 177.745 268.612 179.969 268.612 182.716C268.612 185.209 266.746 187.273 264.291 187.605C264.283 187.587 264.275 187.57 264.267 187.554L264.265 187.548C264.203 187.413 264.149 187.292 264.106 187.185Z" fill="white" stroke="black"/>
<path d="M258.219 137.146C260.342 137.146 262.038 138.842 262.038 140.965C262.038 143.089 260.342 144.784 258.219 144.784C257.342 144.784 256.533 144.475 255.883 143.944C256.003 143.316 256.139 142.697 256.291 142.086C256.675 142.749 257.392 143.193 258.219 143.193C259.455 143.193 260.446 142.201 260.446 140.965C260.446 139.729 259.455 138.738 258.219 138.738C257.864 138.738 257.529 138.819 257.232 138.965C257.45 138.355 257.684 137.756 257.934 137.17C257.939 137.17 257.945 137.169 257.95 137.168C257.954 137.168 257.958 137.168 257.962 137.167C258.077 137.154 258.156 137.146 258.219 137.146Z" fill="white" stroke="black"/>
<path d="M267.069 132.855C267.069 130.732 268.765 129.036 270.888 129.036C272.623 129.036 274.078 130.216 274.578 131.801C274.078 132.1 273.588 132.419 273.111 132.758C273.037 131.59 272.075 130.675 270.888 130.675C269.652 130.675 268.66 131.667 268.66 132.903C268.66 133.969 269.398 134.853 270.394 135.076C270.011 135.472 269.642 135.887 269.291 136.325C267.972 135.696 267.069 134.38 267.069 132.855Z" fill="white" stroke="black"/>
<path d="M282.145 121.098C282.145 123.221 280.449 124.917 278.326 124.917C276.324 124.917 274.685 123.36 274.48 121.378C275.023 121.159 275.554 120.953 276.079 120.761C276.06 120.871 276.05 120.984 276.05 121.098C276.05 122.334 277.042 123.325 278.278 123.325C279.514 123.325 280.506 122.334 280.506 121.098C280.506 120.507 280.274 119.979 279.901 119.585C280.473 119.432 281.033 119.298 281.606 119.166C281.956 119.742 282.145 120.404 282.145 121.098Z" fill="white" stroke="black"/>
<path d="M228.705 153.998C225.958 153.998 223.734 151.775 223.734 149.027C223.734 147.607 224.342 146.333 225.329 145.461C225.826 145.92 226.308 146.419 226.795 146.934C226.213 147.448 225.854 148.203 225.854 149.027C225.854 150.599 227.133 151.879 228.705 151.879C229.399 151.879 230.037 151.648 230.536 151.232C230.651 151.378 230.765 151.524 230.88 151.67C231.198 152.075 231.516 152.479 231.827 152.896C230.993 153.588 229.904 153.998 228.705 153.998Z" fill="white" stroke="black"/>
<path d="M249.34 187.926C246.593 187.926 244.37 185.703 244.37 182.956C244.37 181.384 245.112 179.978 246.275 179.069C246.547 179.759 246.819 180.47 247.091 181.185C246.742 181.658 246.489 182.26 246.489 182.956C246.489 184.348 247.476 185.495 248.772 185.758L249.493 187.921C249.443 187.924 249.393 187.926 249.34 187.926Z" fill="white" stroke="black"/>
<path d="M239.934 166.907C237.811 166.907 236.115 165.211 236.115 163.088C236.115 162.118 236.484 161.259 237.065 160.605C237.375 161.085 237.679 161.58 237.965 162.076C237.815 162.364 237.707 162.703 237.707 163.088C237.707 164.272 238.617 165.232 239.78 165.311C239.941 165.607 240.098 165.911 240.258 166.22L240.26 166.224C240.365 166.43 240.472 166.637 240.582 166.845C240.367 166.885 240.149 166.907 239.934 166.907Z" fill="white" stroke="black"/>
<path d="M255.648 215.607C253.651 215.472 252.096 213.831 252.096 211.797C252.096 210.153 253.126 208.759 254.557 208.249C254.647 208.771 254.737 209.308 254.827 209.849C254.119 210.215 253.639 210.962 253.639 211.797C253.639 212.886 254.408 213.785 255.436 213.984C255.519 214.508 255.585 215.052 255.648 215.607Z" fill="white" stroke="black"/>
<path d="M193.913 216.576C191.31 216.576 189.23 214.496 189.23 211.893C189.23 209.29 191.31 207.21 193.913 207.21C194.064 207.21 194.203 207.221 194.343 207.239L194.436 209.379C194.263 209.346 194.086 209.329 193.913 209.329C192.485 209.329 191.35 210.465 191.35 211.893C191.35 213.321 192.485 214.457 193.913 214.457C194.193 214.457 194.455 214.406 194.695 214.324L194.788 216.465C194.502 216.535 194.205 216.576 193.913 216.576Z" fill="white" stroke="black"/>
<path d="M123.678 215.684V215.653L123.674 215.622C123.663 215.539 123.726 215.43 123.863 215.412L123.893 215.409L123.923 215.401C123.88 215.412 124.347 215.333 124.858 215.182C125.409 215.02 126.146 214.746 126.942 214.288C128.541 213.368 130.368 211.711 131.421 208.754C131.451 208.677 131.497 208.637 131.535 208.618C131.571 208.601 131.621 208.593 131.688 208.618C131.767 208.648 131.809 208.694 131.827 208.733C131.844 208.769 131.853 208.819 131.827 208.886L131.827 208.886L131.826 208.891C130.696 212.003 128.769 213.728 127.104 214.68C126.269 215.158 125.498 215.442 124.924 215.606C124.637 215.688 124.401 215.74 124.233 215.771C124.106 215.794 124.031 215.803 124.003 215.806C123.99 215.808 123.987 215.808 123.993 215.808H123.993H123.992H123.992H123.991H123.991H123.99H123.99H123.989H123.988H123.988H123.987H123.987H123.986H123.986H123.985H123.985H123.984H123.984H123.983H123.983H123.982H123.982H123.981H123.981H123.98H123.98H123.979H123.979H123.978H123.978H123.977H123.977H123.976H123.976H123.975H123.975H123.974H123.974H123.973H123.973H123.972H123.972H123.971H123.971H123.97H123.97H123.969H123.969H123.968H123.968H123.967H123.967H123.967H123.966H123.966H123.965H123.965H123.964H123.964H123.963H123.963H123.963H123.962H123.962H123.961H123.961H123.96H123.96H123.96H123.959H123.959H123.958H123.958H123.957H123.957H123.957H123.956H123.956H123.955H123.955H123.955H123.954H123.954H123.953H123.953H123.953H123.952H123.952H123.951H123.951H123.951H123.95H123.95H123.949H123.949H123.949H123.948H123.948H123.947H123.947H123.947H123.946H123.946H123.946H123.945H123.945H123.945H123.944H123.944H123.943H123.943H123.943H123.942H123.942H123.942H123.941H123.941H123.941H123.94H123.94H123.94H123.939H123.939H123.939H123.938H123.938H123.938H123.937H123.937H123.937H123.936H123.936H123.936H123.935H123.935H123.935H123.934H123.934H123.934H123.933H123.933H123.933H123.932H123.932H123.932H123.931H123.931H123.931H123.93H123.93H123.93H123.93H123.929H123.929H123.929H123.928H123.928H123.928H123.927H123.927H123.927H123.927H123.926H123.926H123.926H123.925H123.925H123.925H123.925H123.924H123.924H123.924H123.923H123.923H123.923H123.923H123.922H123.922H123.922H123.922H123.921H123.921H123.921H123.92H123.92H123.92H123.92H123.919H123.919H123.919H123.919H123.918H123.918H123.918H123.918H123.917H123.917H123.917H123.917H123.916H123.916H123.916H123.916H123.915H123.915H123.915H123.915H123.914H123.914H123.914H123.914H123.913H123.913H123.913H123.913H123.912H123.912H123.912H123.912H123.911H123.911H123.911H123.911H123.911H123.91H123.91H123.91H123.91H123.909H123.909H123.909H123.909H123.908H123.908H123.908H123.908H123.908H123.907H123.907H123.907H123.907H123.906H123.906H123.906H123.906H123.906H123.905H123.905H123.905H123.905H123.905H123.904H123.904H123.904H123.904H123.903H123.903H123.903H123.903H123.903H123.902H123.902H123.902H123.902H123.902H123.901H123.901H123.901H123.901H123.901H123.9H123.9H123.9H123.9H123.9H123.899H123.899H123.899H123.899H123.899H123.898H123.898H123.898H123.898H123.898H123.897H123.897H123.897H123.897H123.897H123.896H123.896H123.896H123.896H123.896H123.895H123.895H123.895H123.895H123.895H123.894H123.894H123.894H123.894H123.894H123.893H123.893H123.893H123.893H123.893H123.893H123.892H123.892H123.892H123.892H123.892H123.891H123.891H123.891H123.891H123.891H123.89H123.89H123.89H123.89H123.89H123.889H123.889H123.889H123.889H123.889H123.889H123.888H123.888H123.888H123.888H123.888H123.887H123.887H123.887H123.887H123.887H123.886H123.886H123.886H123.886H123.886H123.886H123.885H123.885H123.885H123.885H123.885H123.884H123.884H123.884H123.884H123.884H123.883H123.883H123.883H123.883H123.883H123.883H123.882H123.882H123.882H123.882H123.882H123.881H123.881H123.881H123.881H123.881H123.88H123.88H123.88H123.88H123.88H123.879H123.879H123.879H123.879H123.879H123.879H123.878H123.878H123.878H123.878H123.878H123.877H123.877H123.877H123.877H123.877H123.876H123.876H123.876H123.876H123.876H123.875H123.875H123.875H123.875H123.875H123.874H123.874H123.874H123.874H123.874H123.873H123.873H123.873H123.873H123.873H123.872H123.872H123.872H123.872H123.872H123.871H123.871H123.871H123.871H123.87H123.87H123.87H123.87H123.87H123.869H123.869H123.869H123.869H123.869H123.868H123.868H123.868H123.868H123.867H123.867H123.867H123.867H123.867H123.866H123.866H123.866H123.866H123.865H123.865H123.865H123.865H123.865H123.864H123.864H123.864H123.864H123.863H123.863H123.863H123.863H123.863H123.862H123.862H123.862H123.862H123.861H123.861H123.861H123.861H123.86H123.86H123.86H123.86H123.859H123.859H123.859H123.859H123.858H123.858H123.858H123.858H123.857H123.857H123.857H123.857H123.856H123.856H123.856H123.856H123.855H123.855H123.855H123.855H123.854H123.854H123.854H123.854H123.853H123.853H123.853H123.852H123.852H123.852H123.852H123.851H123.851H123.851H123.851H123.85H123.85H123.85H123.849C123.796 215.808 123.745 215.788 123.713 215.76C123.699 215.748 123.691 215.737 123.686 215.727C123.682 215.718 123.678 215.705 123.678 215.684Z" fill="white" stroke="black"/>
<path d="M131.518 208.891L131.518 208.891L131.516 208.886C131.491 208.819 131.499 208.769 131.516 208.733C131.535 208.694 131.576 208.648 131.655 208.618C131.722 208.593 131.772 208.601 131.809 208.618C131.847 208.637 131.893 208.677 131.923 208.756C133 211.711 134.826 213.368 136.418 214.288C137.212 214.746 137.944 215.019 138.492 215.182C139.002 215.333 139.459 215.411 139.421 215.401L139.45 215.409L139.48 215.412C139.618 215.43 139.68 215.539 139.67 215.622L139.666 215.653V215.684C139.666 215.705 139.661 215.718 139.657 215.727C139.653 215.737 139.645 215.748 139.63 215.76C139.599 215.788 139.548 215.808 139.494 215.808H139.494H139.493H139.493H139.493H139.492H139.492H139.492H139.492H139.491H139.491H139.491H139.491H139.49H139.49H139.49H139.489H139.489H139.489H139.489H139.488H139.488H139.488H139.488H139.487H139.487H139.487H139.487H139.486H139.486H139.486H139.486H139.485H139.485H139.485H139.485H139.484H139.484H139.484H139.484H139.483H139.483H139.483H139.483H139.482H139.482H139.482H139.482H139.482H139.481H139.481H139.481H139.481H139.48H139.48H139.48H139.48H139.479H139.479H139.479H139.479H139.479H139.478H139.478H139.478H139.478H139.477H139.477H139.477H139.477H139.477H139.476H139.476H139.476H139.476H139.476H139.475H139.475H139.475H139.475H139.475H139.474H139.474H139.474H139.474H139.473H139.473H139.473H139.473H139.473H139.472H139.472H139.472H139.472H139.472H139.471H139.471H139.471H139.471H139.471H139.471H139.47H139.47H139.47H139.47H139.47H139.469H139.469H139.469H139.469H139.469H139.468H139.468H139.468H139.468H139.468H139.468H139.467H139.467H139.467H139.467H139.467H139.466H139.466H139.466H139.466H139.466H139.466H139.465H139.465H139.465H139.465H139.465H139.464H139.464H139.464H139.464H139.464H139.464H139.463H139.463H139.463H139.463H139.463H139.463H139.462H139.462H139.462H139.462H139.462H139.462H139.461H139.461H139.461H139.461H139.461H139.461H139.46H139.46H139.46H139.46H139.46H139.46H139.46H139.459H139.459H139.459H139.459H139.459H139.459H139.458H139.458H139.458H139.458H139.458H139.458H139.457H139.457H139.457H139.457H139.457H139.457H139.457H139.456H139.456H139.456H139.456H139.456H139.456H139.456H139.455H139.455H139.455H139.455H139.455H139.455H139.454H139.454H139.454H139.454H139.454H139.454H139.454H139.453H139.453H139.453H139.453H139.453H139.453H139.453H139.452H139.452H139.452H139.452H139.452H139.452H139.452H139.451H139.451H139.451H139.451H139.451H139.451H139.451H139.45H139.45H139.45H139.45H139.45H139.45H139.45H139.449H139.449H139.449H139.449H139.449H139.449H139.449H139.448H139.448H139.448H139.448H139.448H139.448H139.448H139.447H139.447H139.447H139.447H139.447H139.447H139.447H139.446H139.446H139.446H139.446H139.446H139.446H139.446H139.445H139.445H139.445H139.445H139.445H139.445H139.445H139.444H139.444H139.444H139.444H139.444H139.444H139.444H139.443H139.443H139.443H139.443H139.443H139.443H139.443H139.442H139.442H139.442H139.442H139.442H139.442H139.442H139.442H139.441H139.441H139.441H139.441H139.441H139.441H139.44H139.44H139.44H139.44H139.44H139.44H139.44H139.439H139.439H139.439H139.439H139.439H139.439C138.802 215.703 133.674 214.83 131.518 208.891Z" fill="white" stroke="black"/>
</svg>
