<svg width="33" height="29" viewBox="0 0 33 29" fill="none" xmlns="http://www.w3.org/2000/svg">
<path d="M29.7243 11.0855C27.6406 8.56684 24.4583 7.11325 21.2481 7.11325C20.302 7.11325 19.3521 7.23965 18.4283 7.5036C17.8632 7.66532 17.313 7.87537 16.7814 8.13002C16.7107 6.79168 16.326 5.47378 15.5899 4.33247C14.6753 2.91233 13.2942 1.81563 11.731 1.19293C10.7477 0.802581 9.70672 0.616699 8.66765 0.616699C6.39246 0.616699 4.12285 1.50893 2.47222 3.14097C0.829031 4.76929 0 7.00544 0 9.24531C0 10.8142 0.405221 12.3886 1.22868 13.7659C1.68409 14.5281 2.24545 15.1638 2.8793 15.6731C4.26784 16.7902 6.00397 17.3088 7.76241 17.307C8.90929 17.307 10.0692 17.0876 11.1566 16.6676C11.1492 16.8311 11.1436 16.9966 11.1436 17.162C11.1436 18.9911 11.599 20.8294 12.4949 22.4299C11.9986 23.1381 11.3536 23.8184 10.6584 24.456C9.91863 25.1363 9.12863 25.7683 8.41671 26.3427C8.34235 26.404 8.28287 26.4802 8.24384 26.562C8.2048 26.6438 8.18807 26.7312 8.18807 26.8167C8.18807 26.9747 8.24756 27.1234 8.35351 27.2405C8.40741 27.2981 8.47433 27.3483 8.55054 27.3818C8.62675 27.4152 8.71412 27.4357 8.80334 27.4357H8.81449C11.2365 27.3929 13.7348 26.9784 16.0527 26.1903C17.9654 27.4431 20.2313 28.1383 22.4638 28.1383C24.291 28.1383 26.0977 27.6717 27.6554 26.655C28.5086 26.0992 29.2856 25.3798 29.9473 24.4857C31.3749 22.5619 32.0998 20.2123 32.0998 17.8702C32.1017 15.4445 31.321 13.0187 29.7243 11.0855Z" fill="#19223D"/>
<path d="M29.2951 11.4415C27.3247 9.05474 24.2912 7.66992 21.2483 7.66992C20.3505 7.66992 19.4527 7.79074 18.5809 8.03983C17.9638 8.21641 17.3634 8.45434 16.7908 8.74617C16.7592 10.4265 16.2388 12.1069 15.2796 13.4954C15.6105 14.0773 16.0566 14.6516 16.5436 15.1981C17.0715 15.7911 17.644 16.3506 18.1608 16.8618C18.2686 16.9677 18.3244 17.1127 18.3225 17.2465C18.3225 17.3543 18.2909 17.4547 18.237 17.5421C18.1831 17.6294 18.1013 17.7019 18.0009 17.7484C17.934 17.7781 17.8578 17.7949 17.7797 17.7949C17.7574 17.7949 17.7351 17.793 17.7128 17.7912C15.8094 17.5681 13.8744 17.0458 12.1085 16.2446C11.9821 16.3097 11.8557 16.3729 11.7274 16.4324C11.7107 16.6759 11.7014 16.9212 11.7014 17.1685C11.7014 18.241 11.8669 19.3154 12.1921 20.3377C13.1829 21.5367 14.4989 22.4252 16.1235 22.7226C16.6477 22.8193 17.1849 22.8248 17.7035 22.6947C18.3095 22.5441 18.8132 22.1891 19.343 21.875C19.8096 21.598 20.2761 21.3694 20.7538 21.2523C20.7538 21.2393 20.752 21.2281 20.752 21.2151V18.5774C20.752 18.2689 20.9174 17.9808 21.1832 17.8246C21.4453 17.6722 21.7018 17.5142 21.9453 17.3525C21.2985 16.8357 20.7445 16.2632 20.2891 15.6684C20.1311 15.8933 19.8709 16.0402 19.5753 16.0402C19.4471 16.0402 19.3263 16.0123 19.2166 15.9621C19.1069 16.0123 18.9861 16.0402 18.8578 16.0402C18.3764 16.0402 17.9842 15.6498 17.9842 15.1665C17.9842 14.7018 18.0493 14.2631 18.1738 13.8598C18.2983 13.4564 18.4805 13.0865 18.7091 12.7631C18.7649 12.6831 18.8225 12.6069 18.8839 12.5344C18.763 11.6069 18.9415 10.7537 19.462 10.0994C20.884 8.31121 24.3116 8.6681 27.1184 10.8987C29.9252 13.1293 31.0498 16.3878 29.6278 18.1759C28.5274 19.5608 26.2225 19.6574 23.9343 18.5942C23.687 18.7708 23.4435 18.9306 23.2112 19.0737V21.2132C23.2112 21.4028 23.1498 21.5776 23.0476 21.7188C23.8153 22.2133 24.4547 22.8917 25.202 23.4178C25.9901 23.9699 26.9232 24.3565 27.8991 24.3193C28.5627 24.2933 29.1798 24.0907 29.7579 23.7951C30.9401 22.0441 31.5443 19.9567 31.5443 17.8748C31.5461 15.5624 30.8026 13.265 29.2951 11.4415Z" fill="#77BAE7"/>
<path d="M27.9007 24.3188C26.9249 24.356 25.9899 23.9693 25.2036 23.4173C24.4564 22.8931 23.8169 22.2128 23.0492 21.7183C22.8912 21.9395 22.6329 22.0845 22.3392 22.0845C22.2109 22.0845 22.0901 22.0566 21.9804 22.0064C21.8707 22.0566 21.7499 22.0845 21.6217 22.0845C21.1514 22.0845 20.7703 21.7127 20.7499 21.248C20.2722 21.3651 19.8056 21.5938 19.339 21.8707C18.8093 22.1849 18.3055 22.5399 17.6996 22.6905C17.181 22.8206 16.6438 22.8132 16.1196 22.7184C14.495 22.4209 13.1789 21.5324 12.1882 20.3335C12.4075 21.0213 12.6975 21.6867 13.06 22.3076L13.1473 22.4581L13.0507 22.6031C12.506 23.4173 11.7904 24.1719 11.032 24.869C10.2736 25.5661 9.47432 26.2055 8.76425 26.7799C8.7531 26.7892 8.74938 26.7947 8.74566 26.8003L8.74194 26.8208C8.74194 26.8319 8.74566 26.8468 8.7531 26.8561C8.76053 26.8672 8.76797 26.8728 8.7754 26.8765C8.78098 26.8784 8.78841 26.8821 8.80143 26.8821H8.80328C11.2123 26.8412 13.705 26.4193 15.9988 25.6237L16.1307 25.5772L16.246 25.6553C18.0899 26.8951 20.3038 27.5847 22.4637 27.5847C24.198 27.5847 25.8951 27.1423 27.3505 26.1925C28.148 25.672 28.8748 24.9991 29.4993 24.1589C29.5885 24.04 29.674 23.9191 29.7558 23.7946C29.1815 24.0902 28.5643 24.2928 27.9007 24.3188Z" fill="#4CADE2"/>
<path d="M15.1213 4.63455C14.2756 3.31851 12.9856 2.29244 11.5245 1.71249C10.6118 1.35002 9.63969 1.17529 8.66753 1.17529C6.53733 1.17529 4.40341 2.01548 2.86431 3.5397C1.33637 5.05092 0.555664 7.14023 0.555664 9.24626C0.555664 9.89499 0.630017 10.5437 0.778722 11.1776C1.42745 11.8876 2.32154 12.2631 3.28068 12.2984C4.50564 12.3449 5.56888 11.8932 6.73436 11.62C7.29386 11.488 7.76228 11.5233 8.20654 11.9192C8.70656 12.3654 9.03557 12.9713 9.52258 13.4342C10.4743 14.3413 11.8108 14.4138 12.9502 13.8078C14.796 12.8263 15.8518 10.75 16.2348 8.66631C16.2348 8.63843 16.2366 8.60869 16.2366 8.58081C16.2366 7.18484 15.8741 5.80374 15.1213 4.63455Z" fill="#EE76AB"/>
<path d="M13.1682 4.09335C11.0938 2.15461 8.34832 1.71965 7.03414 3.12491C6.08057 4.14354 6.14563 5.84993 7.04343 7.45037C7.31854 7.25333 7.68472 7.13065 8.08623 7.13065C8.83905 7.13065 9.46361 7.55074 9.60116 8.10653C9.80191 8.30914 9.92273 8.5638 9.92273 8.8389C9.92273 9.25899 9.64763 9.62704 9.2294 9.84266C11.1588 11.1977 13.3987 11.3725 14.5437 10.1456C15.8579 8.7441 15.2427 6.03209 13.1682 4.09335Z" fill="#F29BC2"/>
<path d="M23.5749 15.8268C23.7217 15.5926 23.8295 15.3472 23.8909 15.1111C23.9318 14.9531 23.9522 14.8007 23.9522 14.652C23.9522 14.5033 23.9318 14.3602 23.889 14.217C23.8463 14.0739 23.7794 13.9289 23.6771 13.7784C23.4578 13.4549 23.1901 13.23 22.8946 13.0795C22.705 12.9828 22.5024 12.9177 22.2923 12.8843C22.1845 12.901 22.0804 12.9252 21.9837 12.9549C21.0209 13.2505 20.4446 14.0776 20.4446 15.1669C20.4446 15.3546 20.3852 15.5257 20.2848 15.6688C20.7402 16.2636 21.296 16.8361 21.941 17.3529C22.3444 17.0833 22.718 16.7989 23.0414 16.4829C23.2459 16.2859 23.428 16.061 23.5749 15.8268Z" fill="#9BD7F7"/>
<path d="M20.4881 11.379C20.9491 11.2005 21.4399 11.1094 21.9343 11.1094C22.0514 11.1094 22.1667 11.1169 22.2838 11.1262C23.6779 10.9979 25.0404 11.6169 25.8434 12.801C26.9977 14.5092 26.2412 16.5093 24.979 17.7342C24.6463 18.0558 24.2894 18.3421 23.9362 18.593C26.2244 19.6563 28.5294 19.5596 29.6298 18.1748C31.0518 16.3866 29.9272 13.1281 27.1204 10.8975C24.3136 8.66695 20.8859 8.3082 19.4639 10.0982C18.9435 10.7544 18.765 11.6076 18.8858 12.5333C19.3208 12.0017 19.8803 11.6132 20.4881 11.379Z" fill="#9BD7F7"/>
<path d="M12.9508 13.8063C11.8132 14.4123 10.4767 14.3398 9.52316 13.4327C9.038 12.9699 8.709 12.3639 8.20712 11.9178C7.76286 11.5218 7.29444 11.4865 6.73494 11.6185C5.56946 11.8918 4.50622 12.3434 3.28126 12.297C2.32211 12.2598 1.42802 11.8843 0.779297 11.1761C0.968896 11.981 1.27746 12.7617 1.70684 13.481C2.1288 14.1874 2.64555 14.7711 3.22735 15.2395C4.50436 16.2674 6.11037 16.7507 7.761 16.7507C9.20158 16.7507 10.6719 16.3808 11.9675 15.6856L12.0902 15.6205L12.2166 15.6782C13.9471 16.4812 15.8636 17.0053 17.7447 17.2303C17.2354 16.7265 16.6647 16.167 16.1275 15.5648C15.5829 14.9532 15.0736 14.2989 14.7055 13.6074L14.6237 13.4532L14.726 13.3119C15.6944 11.9773 16.2186 10.3136 16.2353 8.66113C15.8524 10.7486 14.7966 12.8249 12.9508 13.8063Z" fill="#EA5398"/>
<path d="M4.09722 9.53968C3.59905 9.53968 3.15666 9.35566 2.87598 9.06941C3.01353 9.62519 3.63809 10.0453 4.39091 10.0453C5.24225 10.0453 5.93372 9.50623 5.93372 8.84077C5.93372 8.56381 5.8129 8.31101 5.61215 8.1084C5.63074 8.18275 5.64003 8.25896 5.64003 8.33703C5.64003 9.00063 4.94855 9.53968 4.09722 9.53968Z" fill="#EA5398"/>
<path d="M9.92249 8.84077C9.92249 8.56381 9.80167 8.31101 9.60092 8.1084C9.61951 8.18275 9.6288 8.25896 9.6288 8.33703C9.6288 9.00249 8.93732 9.54154 8.08599 9.54154C7.58782 9.54154 7.14543 9.35752 6.86475 9.07126C7.0023 9.62705 7.62686 10.0471 8.37968 10.0471C8.69382 10.0471 8.98565 9.97279 9.22916 9.84825C9.64739 9.62891 9.92249 9.259 9.92249 8.84077Z" fill="#EA5398"/>
<path d="M11.9188 9.53968C11.4206 9.53968 10.9782 9.35566 10.6975 9.06941C10.8351 9.62519 11.4596 10.0453 12.2124 10.0453C13.0638 10.0453 13.7553 9.50623 13.7553 8.84077C13.7553 8.56381 13.6344 8.31101 13.4337 8.1084C13.4523 8.18275 13.4616 8.25896 13.4616 8.33703C13.4616 9.00063 12.7701 9.53968 11.9188 9.53968Z" fill="#EA5398"/>
<path d="M2.87345 9.06814C3.15599 9.35439 3.59653 9.53842 4.0947 9.53842C4.94603 9.53842 5.63751 8.99936 5.63751 8.33391C5.63751 8.25584 5.62636 8.17962 5.60963 8.10527C5.47208 7.54949 4.84751 7.12939 4.0947 7.12939C3.24336 7.12939 2.55188 7.66845 2.55188 8.33391C2.55188 8.61087 2.6727 8.86367 2.87345 9.06814Z" fill="white"/>
<path d="M8.08774 9.53842C8.93907 9.53842 9.63055 8.99936 9.63055 8.33391C9.63055 8.25584 9.6194 8.17962 9.60267 8.10527C9.46512 7.54949 8.84056 7.12939 8.08774 7.12939C7.68437 7.12939 7.31819 7.25022 7.04494 7.44911C6.73824 7.66845 6.54492 7.98445 6.54492 8.33391C6.54492 8.61087 6.66574 8.86367 6.8665 9.06628C7.14718 9.35254 7.58958 9.53842 8.08774 9.53842Z" fill="white"/>
<path d="M11.919 9.53842C12.7704 9.53842 13.4619 8.99936 13.4619 8.33391C13.4619 8.25584 13.4507 8.17962 13.434 8.10527C13.2964 7.54949 12.6719 7.12939 11.919 7.12939C11.0658 7.12939 10.3762 7.66845 10.3762 8.33391C10.3762 8.61087 10.497 8.86367 10.6978 9.06628C10.9785 9.35254 11.4209 9.53842 11.919 9.53842Z" fill="white"/>
<path d="M25.8408 12.8012C25.0396 11.6153 23.6771 10.9963 22.2812 11.1264C22.7607 11.1692 23.2385 11.2975 23.6846 11.5242C24.2385 11.8049 24.7404 12.2343 25.1233 12.8031C25.3203 13.0931 25.4653 13.4016 25.5601 13.7139C25.6549 14.0262 25.6977 14.3441 25.6977 14.6545C25.6977 14.9649 25.6549 15.266 25.5787 15.5541C25.5043 15.8423 25.3965 16.1174 25.2664 16.3757C25.0062 16.8943 24.6549 17.3516 24.2571 17.7364C23.7069 18.2699 23.099 18.6955 22.4912 19.0729V21.2142C22.4912 21.5693 22.2793 21.8722 21.9763 22.0098C22.086 22.06 22.2068 22.0879 22.3351 22.0879C22.6288 22.0879 22.8871 21.9429 23.0451 21.7217C23.1474 21.5786 23.2087 21.4038 23.2087 21.2161V19.071C23.4392 18.9279 23.6846 18.768 23.9318 18.5914C24.285 18.3405 24.6419 18.0561 24.9746 17.7327C26.2386 16.5096 26.9951 14.5095 25.8408 12.8012Z" fill="#2FAAD6"/>
<path d="M21.9837 12.9529C22.0804 12.9232 22.1845 12.899 22.2923 12.8823C22.1733 12.8618 22.0525 12.8525 21.9317 12.8525C21.5153 12.8525 21.0952 12.9696 20.7421 13.1908C20.3889 13.412 20.1026 13.728 19.9223 14.1481C19.8034 14.4307 19.729 14.7634 19.729 15.163C19.729 15.5181 19.5171 15.8211 19.2141 15.9586C19.3238 16.0088 19.4446 16.0367 19.5729 16.0367C19.8684 16.0367 20.1286 15.8898 20.2866 15.6649C20.387 15.5237 20.4465 15.3508 20.4465 15.163C20.4465 14.0756 21.0209 13.2485 21.9837 12.9529Z" fill="#3CAADB"/>
<path d="M22.3544 22.4927C22.228 22.4927 22.1071 22.5168 21.9956 22.5577C22.3953 22.7046 22.6815 23.0875 22.6815 23.5373C22.6815 23.9872 22.3953 24.3701 21.9956 24.5169C22.1071 24.5578 22.228 24.582 22.3544 24.582C22.9306 24.582 23.3971 24.1154 23.3971 23.5392C23.399 22.9592 22.9306 22.4927 22.3544 22.4927Z" fill="#2FAAD6"/>
<path d="M21.6217 22.0841C21.7499 22.0841 21.8708 22.0562 21.9804 22.006C22.2834 21.8685 22.4953 21.5655 22.4953 21.2105V19.0691C23.1032 18.6936 23.711 18.2661 24.2612 17.7326C24.659 17.346 25.0084 16.8887 25.2705 16.372C25.4006 16.1136 25.5085 15.8385 25.5828 15.5504C25.6572 15.2623 25.7018 14.9611 25.7018 14.6507C25.7018 14.3403 25.659 14.0243 25.5642 13.7102C25.4694 13.3979 25.3244 13.0893 25.1274 12.7993C24.7445 12.2324 24.2426 11.8012 23.6887 11.5205C23.2426 11.2937 22.7649 11.1654 22.2853 11.1227C22.1682 11.1115 22.0529 11.106 21.9358 11.106C21.4414 11.106 20.9506 11.197 20.4897 11.3755C19.8818 11.6097 19.3223 11.9982 18.8855 12.5298C18.8242 12.6042 18.7665 12.6804 18.7108 12.7584C18.484 13.0819 18.3 13.4518 18.1754 13.8551C18.0509 14.2585 17.9858 14.699 17.9858 15.1619C17.9858 15.6433 18.3762 16.0355 18.8595 16.0355C18.9877 16.0355 19.1086 16.0076 19.2182 15.9575C19.5212 15.8199 19.7331 15.5169 19.7331 15.1619C19.7331 14.7622 19.8075 14.4295 19.9264 14.147C20.1067 13.725 20.393 13.4109 20.7462 13.1897C21.0994 12.9685 21.5194 12.8514 21.9358 12.8514C22.0566 12.8514 22.1775 12.8607 22.2964 12.8811C22.5065 12.9164 22.7091 12.9815 22.8987 13.0763C23.1961 13.2269 23.4619 13.4518 23.6812 13.7752C23.7835 13.9258 23.8504 14.0708 23.8931 14.2139C23.9359 14.357 23.9564 14.5002 23.9564 14.6489C23.9564 14.7976 23.9359 14.95 23.895 15.108C23.8337 15.3441 23.7259 15.5894 23.579 15.8236C23.4322 16.0578 23.25 16.2828 23.0474 16.4779C22.724 16.7921 22.3503 17.0783 21.947 17.3479C21.7035 17.5114 21.447 17.6676 21.1849 17.82C20.919 17.9761 20.7536 18.2642 20.7536 18.5728V21.2067C20.7536 21.2198 20.7555 21.2309 20.7555 21.2439C20.7703 21.7123 21.1533 22.0841 21.6217 22.0841Z" fill="white"/>
<path d="M22.6814 23.5359C22.6814 23.086 22.3952 22.7031 21.9955 22.5563C21.884 22.5154 21.7632 22.4912 21.6368 22.4912C21.0606 22.4912 20.594 22.9578 20.594 23.534C20.594 24.1102 21.0606 24.5768 21.6368 24.5768C21.7632 24.5768 21.884 24.5526 21.9955 24.5117C22.3952 24.3686 22.6814 23.9857 22.6814 23.5359Z" fill="white"/>
<path d="M14.6681 1.99214C14.577 1.92151 14.4246 1.83414 14.3037 1.86388C14.1866 1.89177 14.2666 2.00144 14.326 2.04791C15.3986 2.87136 16.2685 3.98293 16.7202 5.26551C16.8429 5.61311 16.934 5.97 16.9934 6.33433C17.012 6.44772 17.1756 6.52207 17.2704 6.55553C17.3169 6.57226 17.5251 6.62431 17.5083 6.51278C17.2816 5.12796 16.5826 3.85281 15.6179 2.84348C15.3242 2.53677 15.0045 2.25238 14.6681 1.99214Z" fill="#18223C"/>
<path d="M5.49473 17.853C5.61184 17.879 5.794 17.892 5.89624 17.8102C5.99475 17.7303 5.87021 17.6634 5.79214 17.6466C4.40918 17.3492 3.08943 16.6894 2.08939 15.68C1.818 15.4068 1.57264 15.1094 1.3533 14.7934C1.28638 14.6948 1.09678 14.6967 0.992685 14.7097C0.940638 14.7153 0.721299 14.7599 0.788216 14.8566C1.61911 16.0629 2.8515 16.9552 4.21587 17.4756C4.63038 17.6336 5.05977 17.76 5.49473 17.853Z" fill="#18223C"/>
<path d="M31.1331 24.099C31.0624 24.099 30.8561 24.1046 30.8152 24.1864C30.0122 25.7905 28.6813 27.1326 27.0771 27.9375C26.6273 28.1624 26.1589 28.3483 25.6756 28.4858C25.618 28.5025 25.499 28.5509 25.5919 28.6048C25.6812 28.6587 25.8615 28.6252 25.9544 28.5992C27.7463 28.0899 29.356 26.9988 30.4899 25.5191C30.8115 25.1009 31.0903 24.6511 31.3264 24.1789C31.3673 24.099 31.1721 24.0972 31.1331 24.099Z" fill="#18223C"/>
<path d="M18.2628 6.11808C18.3223 6.12366 18.3836 6.12737 18.4412 6.11622C18.4766 6.11065 18.5249 6.10321 18.5491 6.07533C18.774 5.81138 18.9989 5.54557 19.2257 5.28161C19.2796 5.21842 19.0956 5.18682 19.0677 5.1831C19.0082 5.17752 18.9468 5.1738 18.8892 5.18496C18.8539 5.19053 18.8056 5.19797 18.7814 5.22585C18.5565 5.4898 18.3316 5.75561 18.1048 6.01956C18.0509 6.08462 18.2349 6.11622 18.2628 6.11808Z" fill="#19223D"/>
<path d="M18.6794 6.55381C18.7352 6.57239 18.7965 6.58355 18.856 6.58169C18.9006 6.57983 18.962 6.57797 18.9991 6.54823C19.3096 6.29729 19.6423 6.07609 19.9936 5.88649C20.0847 5.8363 19.9787 5.76009 19.923 5.7415C19.8263 5.70805 19.6981 5.69689 19.6033 5.74708C19.2519 5.93668 18.9192 6.15788 18.6088 6.40882C18.5846 6.42927 18.5623 6.44971 18.5791 6.48317C18.5958 6.51663 18.6497 6.54265 18.6794 6.55381Z" fill="#19223D"/>
<path d="M10.0375 17.6301C9.99842 17.6152 9.96124 17.6003 9.92035 17.5929C9.90734 17.5892 9.87574 17.5799 9.86459 17.5929C9.58948 17.9386 9.31252 18.2844 9.03741 18.6301C9.02068 18.6524 9.17311 18.7175 9.18798 18.723C9.22515 18.7379 9.26419 18.7528 9.30508 18.7602C9.31809 18.7639 9.34969 18.7732 9.36085 18.7602C9.63595 18.4145 9.91291 18.0687 10.188 17.723C10.2047 17.7026 10.0505 17.6356 10.0375 17.6301Z" fill="#19223D"/>
<path d="M9.6452 19.9022C9.62475 19.9821 9.80134 19.9338 9.82922 19.9245C9.89614 19.9041 10.0523 19.852 10.0746 19.7684C10.2177 19.2163 10.3608 18.6642 10.504 18.1122C10.5244 18.0322 10.3478 18.0806 10.3199 18.0899C10.253 18.1103 10.0969 18.1624 10.0746 18.246C9.9296 18.7962 9.78647 19.3501 9.6452 19.9022Z" fill="#19223D"/>
</svg>
