<svg width="31" height="22" viewBox="0 0 31 22" fill="none" xmlns="http://www.w3.org/2000/svg">
<path d="M5.3708 14.5423C5.84086 15.0835 7.19913 16.6133 8.80058 18.1271C11.5171 20.6968 13.6227 22 15.0566 22C15.1842 22 15.3087 21.9898 15.4273 21.9693L15.4407 21.9664L15.4555 21.962L15.4763 21.9576C15.6468 21.9239 15.8084 21.8713 15.9552 21.7982C17.1519 21.1985 18.1335 19.7784 18.7963 17.6927C19.3761 15.8689 19.7009 13.5493 19.7112 11.1638C19.7231 8.72863 19.4087 6.3461 18.8275 4.45499C18.1646 2.2977 17.1726 0.827815 15.9582 0.206223C15.798 0.124319 15.6216 0.0658157 15.4318 0.0321766L15.4155 0.030714C15.2954 0.010238 15.1693 0 15.0403 0C13.6183 0 11.5216 1.25489 8.80651 3.72956C6.82694 5.53291 5.21511 7.36112 5.19879 7.38014C5.18693 7.3933 5.17803 7.40792 5.16765 7.42255C4.65756 7.33626 3.78863 7.21048 3.01014 7.21048C2.37994 7.21048 1.92174 7.29238 1.61035 7.46204C0.13642 8.26207 0.00444848 9.68807 0 10.9649V10.9795V10.9927V11V11.0059V11.019V11.0336C0.00444848 12.3105 0.13642 13.7365 1.61183 14.538C1.92323 14.7076 2.38142 14.7895 3.01162 14.7895C3.90429 14.791 4.92002 14.6243 5.3708 14.5423Z" fill="#6E2885"/>
<path d="M21.9591 12.5254C21.5602 12.6775 21.2503 12.9715 21.0872 13.3518C20.9285 13.7203 20.9285 14.1255 21.0857 14.494C21.3289 15.063 21.9013 15.4301 22.5433 15.4301C22.7435 15.4301 22.9407 15.3935 23.1276 15.3218C24.9989 14.6066 26.2074 12.9101 26.2074 10.997C26.2074 9.08544 24.9989 7.38739 23.1276 6.6722C22.9407 6.60053 22.7435 6.56396 22.5433 6.56396C21.9013 6.56396 21.3289 6.93107 21.0857 7.50001C20.9285 7.86858 20.9285 8.27371 21.0872 8.64228C21.2503 9.02255 21.5602 9.31506 21.9591 9.46863C22.6264 9.72312 23.0579 10.3242 23.0579 10.997C23.0579 11.6698 22.6264 12.2695 21.9591 12.5254Z" fill="#6E2885"/>
<path d="M25.9034 3.29669C25.7136 3.21771 25.5134 3.17822 25.3088 3.17822C24.6608 3.17822 24.0869 3.57019 23.8467 4.17862C23.5264 4.98889 23.9149 5.91616 24.7127 6.24523C26.6181 7.03064 27.8489 8.89688 27.8489 10.9971C27.8489 13.0974 26.6181 14.9622 24.7127 15.749C23.9135 16.0781 23.525 17.0054 23.8467 17.8156C24.0869 18.4226 24.6608 18.816 25.3088 18.816C25.5134 18.816 25.7136 18.7765 25.9034 18.6976C28.9981 17.4207 30.9984 14.3976 30.9984 10.9971C30.9999 7.59665 28.9996 4.57352 25.9034 3.29669Z" fill="#6E2885"/>
<path d="M19.2782 10.4281V10.4207C19.2753 10.2979 19.2723 10.1765 19.2679 10.0536V10.0346C19.2634 9.91177 19.2575 9.78891 19.2515 9.66752V9.66459C19.2323 9.29017 19.2056 8.91722 19.1715 8.54719L19.17 8.53695C19.124 8.04406 19.0632 7.55849 18.9876 7.08462V7.08315C18.9698 6.96907 18.9505 6.85646 18.9312 6.74238C18.9253 6.70874 18.9194 6.67656 18.9135 6.64438C18.8986 6.56102 18.8838 6.47911 18.8675 6.39575C18.8616 6.36211 18.8541 6.32993 18.8482 6.29629C18.8289 6.19537 18.8082 6.09446 18.7859 5.995C18.7844 5.98623 18.7815 5.97599 18.78 5.96721C18.7563 5.85606 18.7311 5.74783 18.7059 5.6396C18.6999 5.61327 18.694 5.58694 18.6866 5.56208C18.6673 5.47871 18.6465 5.39535 18.6258 5.31344C18.6184 5.28419 18.611 5.25494 18.6035 5.22715C18.5798 5.13501 18.5546 5.04287 18.5294 4.95219C18.5264 4.93902 18.522 4.92732 18.519 4.91416C18.4894 4.80886 18.4582 4.70501 18.4271 4.60117C18.4212 4.58362 18.4152 4.56607 18.4108 4.54706C18.3841 4.46223 18.3574 4.37886 18.3307 4.29696C18.3233 4.27209 18.3144 4.24869 18.307 4.22383C18.2788 4.139 18.2491 4.05417 18.2195 3.9708C18.215 3.95764 18.2106 3.94448 18.2047 3.93131C18.1691 3.83186 18.132 3.73533 18.0935 3.6388C18.0905 3.63002 18.086 3.62271 18.0831 3.61393C18.049 3.52911 18.0149 3.44574 17.9808 3.36384C17.9719 3.34482 17.9644 3.32435 17.9555 3.30533C17.9214 3.22782 17.8873 3.1503 17.8532 3.07571C17.8473 3.06255 17.8414 3.05084 17.8354 3.03768C17.7524 2.86071 17.6664 2.69105 17.5759 2.52724C17.567 2.51262 17.5596 2.49653 17.5507 2.4819C17.5122 2.41316 17.4721 2.34442 17.4336 2.27861C17.4262 2.26691 17.4202 2.25521 17.4128 2.24351C16.9487 1.48297 16.4001 0.90379 15.7639 0.577637C15.1352 2.79782 14.7126 5.06188 14.4946 7.3391C15.2776 7.39761 15.9923 7.69597 16.5661 8.15961C17.3995 8.83385 17.9318 9.85619 17.9318 10.9999C17.9318 11.7648 17.6931 12.4757 17.2853 13.0651C16.6655 13.9616 15.6527 14.573 14.4946 14.6593C14.6266 16.0356 14.8342 17.4045 15.1159 18.7633C15.2835 19.575 15.4777 20.3823 15.7002 21.1853L15.7654 21.4207V21.4237C15.8247 21.3944 15.8826 21.3622 15.9404 21.3271C15.9493 21.3227 15.9567 21.3184 15.9656 21.3125C16.0205 21.2789 16.0738 21.2452 16.1272 21.2072C16.1376 21.1999 16.1465 21.194 16.1569 21.1867C16.2103 21.1502 16.2622 21.1107 16.3141 21.0697C16.323 21.0639 16.3304 21.0566 16.3378 21.0492C16.3912 21.0054 16.4445 20.9615 16.4964 20.9147L16.5009 20.9103C16.5528 20.8635 16.6032 20.8138 16.6536 20.764L16.6744 20.7436C16.7233 20.6938 16.7708 20.6427 16.8182 20.59C16.8271 20.5798 16.836 20.571 16.8449 20.5608C16.8909 20.5081 16.9383 20.4525 16.9828 20.3969C16.9902 20.3882 16.9976 20.3779 17.0051 20.3692C17.0525 20.3106 17.0985 20.2507 17.143 20.1878L17.1504 20.1776C17.1949 20.1161 17.2393 20.0532 17.2823 19.9874C17.2883 19.9786 17.2942 19.9713 17.2987 19.9626C17.3417 19.8982 17.3832 19.8324 17.4247 19.7651C17.4321 19.7534 17.4395 19.7402 17.4469 19.7285C17.487 19.6613 17.527 19.594 17.5656 19.5238C17.573 19.5121 17.5789 19.5004 17.5848 19.4872C17.6249 19.4141 17.6649 19.341 17.7035 19.2664L17.7109 19.2503C17.7494 19.1757 17.7865 19.0996 17.8236 19.0221C17.828 19.0133 17.8325 19.0046 17.8369 18.9943C17.874 18.9168 17.9096 18.8378 17.9437 18.7589C17.9496 18.7442 17.957 18.7296 17.963 18.715C17.9971 18.636 18.0312 18.5556 18.0638 18.4751C18.0697 18.4605 18.0757 18.4473 18.0801 18.4327C18.1142 18.3493 18.1468 18.2631 18.1795 18.1768C18.1824 18.1694 18.1839 18.1621 18.1869 18.1548C18.218 18.0685 18.2506 17.9822 18.2803 17.8945C18.2833 17.8857 18.2862 17.8769 18.2892 17.8682C18.3203 17.7789 18.35 17.6897 18.3782 17.599C18.3826 17.583 18.3885 17.5683 18.393 17.5522C18.4212 17.463 18.4493 17.3723 18.476 17.2802C18.4805 17.2641 18.4849 17.2495 18.4894 17.2334C18.5161 17.1398 18.5442 17.0447 18.5694 16.9482C18.5709 16.9394 18.5739 16.9321 18.5754 16.9233C18.6021 16.8268 18.6273 16.7288 18.651 16.6294L18.6569 16.6089C18.6821 16.5094 18.7059 16.41 18.7281 16.3091C18.7311 16.2944 18.7355 16.2783 18.7385 16.2637C18.7607 16.1643 18.783 16.0648 18.8037 15.9654C18.8067 15.9493 18.8097 15.9346 18.8141 15.9185C18.8349 15.8162 18.8556 15.7123 18.8764 15.6085C18.8779 15.5997 18.8794 15.5924 18.8808 15.5836C18.9016 15.4769 18.9209 15.3686 18.9401 15.2589L18.9416 15.2487C18.9609 15.1405 18.9772 15.0308 18.995 14.9211C18.9965 14.9079 18.9995 14.8933 19.0009 14.8801C19.0173 14.7734 19.0336 14.6666 19.0484 14.5584C19.0499 14.5437 19.0528 14.5291 19.0543 14.5145C19.0692 14.4048 19.084 14.2936 19.0973 14.1825C19.0988 14.1752 19.0988 14.1679 19.1003 14.1605C19.1285 13.9295 19.1537 13.6954 19.1744 13.46C19.1759 13.4497 19.1759 13.438 19.1774 13.4278C19.1878 13.3137 19.1967 13.1996 19.2056 13.0855C19.2071 13.0724 19.2071 13.0607 19.2085 13.0475C19.2174 12.932 19.2248 12.815 19.2323 12.6994L19.2337 12.6819C19.2486 12.4391 19.2604 12.1963 19.2679 11.9521V11.9316C19.2723 11.8131 19.2753 11.6932 19.2767 11.5747C19.2767 11.5645 19.2767 11.5557 19.2767 11.5455C19.2797 11.4255 19.2812 11.3041 19.2812 11.1842V11.1754C19.2856 10.9283 19.2827 10.6782 19.2782 10.4281Z" fill="#F18550"/>
<path d="M15.2464 21.15C13.4373 14.4997 13.4388 7.49837 15.2464 0.850984C15.2834 0.716427 15.319 0.580408 15.3576 0.445851C15.2167 0.420988 15.067 0.413675 14.9113 0.423913C14.8846 0.425375 14.8564 0.4283 14.8282 0.431226C14.8045 0.432688 14.7823 0.435613 14.7585 0.438538C14.7289 0.441464 14.6992 0.447314 14.6681 0.451702C14.6458 0.454627 14.6251 0.457552 14.6028 0.46194C14.5702 0.46779 14.5376 0.475103 14.505 0.480953C14.4842 0.485341 14.4649 0.489728 14.4442 0.494116C14.4086 0.502892 14.373 0.511667 14.3374 0.520442C14.3196 0.52483 14.3003 0.53068 14.2825 0.535068C14.244 0.545306 14.2054 0.557007 14.1669 0.57017C14.1506 0.57602 14.1343 0.580408 14.1179 0.586258C14.0764 0.599421 14.0349 0.614047 13.9919 0.628673C13.9771 0.63306 13.9637 0.638911 13.9489 0.643298C13.9044 0.659387 13.8584 0.676938 13.8125 0.695951C13.8006 0.700339 13.7888 0.704726 13.7769 0.710577C13.728 0.72959 13.6805 0.750066 13.6316 0.772005C13.6227 0.776392 13.6123 0.78078 13.6034 0.783705C13.5515 0.807106 13.4996 0.830508 13.4477 0.855371L13.4269 0.865609C13.3721 0.891936 13.3172 0.918262 13.2609 0.946051L13.2475 0.951901C13.1897 0.981152 13.1304 1.01187 13.0725 1.04258L13.0666 1.04551C13.0058 1.07768 12.945 1.11132 12.8827 1.14642C12.8249 1.1786 12.7671 1.21224 12.7093 1.24588L12.6944 1.25465C9.47224 3.15892 5.52051 7.65487 5.52051 7.65487V14.0682C5.52051 14.0682 7.00778 15.8277 8.90432 17.6442L8.91322 17.653C8.97698 17.7144 9.04222 17.7759 9.10747 17.8373L9.1134 17.8431C9.17716 17.9031 9.24092 17.9631 9.30617 18.023C9.31951 18.0362 9.33434 18.0494 9.34769 18.0625C9.39959 18.1108 9.45297 18.1605 9.50487 18.2088C9.52414 18.2263 9.54342 18.2439 9.5627 18.2614C9.61015 18.3053 9.65908 18.3492 9.70801 18.3931C9.73026 18.4121 9.75102 18.4326 9.77326 18.4516C9.81923 18.494 9.86668 18.5349 9.91413 18.5773C9.93637 18.5978 9.96009 18.6183 9.98234 18.6373C10.0283 18.6783 10.0743 18.7192 10.1217 18.7602C10.1454 18.7806 10.1677 18.8011 10.1914 18.8216C10.2389 18.8626 10.2848 18.9035 10.3323 18.943C10.3545 18.962 10.3768 18.981 10.4005 19.0015C10.4494 19.0439 10.4984 19.0849 10.5473 19.1258C10.5681 19.1434 10.5888 19.1609 10.6096 19.1785C10.663 19.2223 10.7163 19.2677 10.7697 19.3116C10.786 19.3247 10.8023 19.3393 10.8187 19.3525C10.8869 19.4081 10.9551 19.4637 11.0218 19.5178L11.0277 19.5222C11.1004 19.5807 11.1716 19.6377 11.2442 19.6933L11.2502 19.6977C11.3184 19.7503 11.3851 19.803 11.4518 19.8542C11.4696 19.8673 11.4874 19.8805 11.5052 19.8951C11.5571 19.9346 11.609 19.9726 11.6594 20.0107C11.6831 20.0282 11.7054 20.0443 11.7276 20.0604C11.7736 20.094 11.821 20.1277 11.867 20.1613C11.8922 20.1789 11.9174 20.1964 11.9426 20.2154C11.9871 20.2461 12.0316 20.2783 12.0746 20.3076C12.1013 20.3251 12.1265 20.3441 12.1532 20.3617C12.1962 20.3909 12.2392 20.4202 12.2822 20.448C12.3089 20.4655 12.3356 20.4831 12.3623 20.5006C12.4053 20.5284 12.4468 20.5562 12.4898 20.5825C12.5165 20.5986 12.5417 20.6162 12.5684 20.6323C12.6114 20.6586 12.6544 20.6849 12.6959 20.7112C12.7211 20.7273 12.7463 20.742 12.7715 20.7566C12.816 20.7829 12.8605 20.8092 12.905 20.8356C12.9272 20.8487 12.951 20.8619 12.9732 20.875C13.0236 20.9043 13.074 20.9321 13.1244 20.9584C13.1408 20.9672 13.1571 20.976 13.1719 20.9847C13.3039 21.0564 13.4344 21.1208 13.5634 21.1807C13.5826 21.1895 13.6019 21.1983 13.6197 21.2056C13.6642 21.2261 13.7087 21.2451 13.7532 21.2641C13.7769 21.2743 13.7991 21.2831 13.8229 21.2919C13.8614 21.308 13.9015 21.3241 13.94 21.3387C13.9652 21.3475 13.9889 21.3562 14.0141 21.3665C14.0512 21.3796 14.0868 21.3928 14.1239 21.4045C14.1491 21.4133 14.1743 21.4206 14.198 21.4279C14.2336 21.4396 14.2677 21.4498 14.3033 21.4601C14.3285 21.4674 14.3522 21.4732 14.3774 21.4806C14.4115 21.4893 14.4456 21.4981 14.4798 21.5054C14.5035 21.5113 14.5287 21.5171 14.5524 21.5215C14.5865 21.5288 14.6191 21.5347 14.6532 21.5405C14.677 21.5449 14.6992 21.5493 14.7229 21.5522C14.757 21.5566 14.7911 21.561 14.8238 21.5639C14.8445 21.5668 14.8668 21.5683 14.8875 21.5698C14.9024 21.5712 14.9172 21.5712 14.932 21.5712C15.0803 21.58 15.2226 21.5756 15.3576 21.5522L15.2864 21.2933C15.2716 21.248 15.2597 21.1997 15.2464 21.15Z" fill="#FDD498"/>
<path d="M5.09496 14.0686V7.83659C4.5997 7.75176 3.75449 7.63037 3.01011 7.63037C2.5267 7.63037 2.0863 7.68156 1.81495 7.82928C0.634616 8.47135 0.429986 9.5829 0.425537 10.9797V11.0001V11.0206C0.429986 12.4174 0.634616 13.5289 1.81643 14.171C2.08779 14.3187 2.52819 14.3699 3.01159 14.3699C3.7619 14.3699 4.61453 14.2456 5.10831 14.1622C5.10089 14.1315 5.09496 14.1008 5.09496 14.0686Z" fill="#FDD498"/>
<path d="M19.2783 10.4225C19.2753 10.2996 19.2724 10.1782 19.2679 10.0554V10.0364C19.2635 9.91351 19.2575 9.79066 19.2516 9.66926V9.66634C19.2323 9.29192 19.2056 8.91896 19.1715 8.54893L19.1701 8.53869C19.1241 8.04581 19.0633 7.56023 18.9877 7.08636V7.0849C18.6689 5.06509 18.095 3.25881 17.2676 2.01562C18.1276 3.92428 17.4114 6.28341 16.5647 8.15989C17.3981 8.83413 17.9304 9.85647 17.9304 11.0002C17.9304 11.7651 17.6917 12.4759 17.2839 13.0654C17.834 15.2387 17.8429 17.4896 15.675 18.5866C15.4926 18.6889 15.3028 18.746 15.113 18.765C15.2806 19.5767 15.4748 20.3841 15.6973 21.187L15.7625 21.4225V21.4254C15.8218 21.3962 15.8797 21.364 15.9375 21.3289C15.9464 21.3245 15.9538 21.3201 15.9627 21.3143C16.0176 21.2806 16.0709 21.247 16.1243 21.209C16.1347 21.2016 16.1436 21.1958 16.154 21.1885C16.2074 21.1519 16.2593 21.1124 16.3112 21.0715C16.3201 21.0656 16.3275 21.0583 16.3349 21.051C16.3883 21.0071 16.4417 20.9632 16.4936 20.9164L16.498 20.912C16.5499 20.8652 16.6003 20.8155 16.6507 20.7658L16.6715 20.7453C16.7204 20.6956 16.7679 20.6444 16.8153 20.5917C16.8242 20.5815 16.8331 20.5727 16.842 20.5625C16.888 20.5098 16.9354 20.4543 16.9799 20.3987C16.9873 20.3899 16.9947 20.3797 17.0022 20.3709C17.0496 20.3124 17.0956 20.2524 17.1401 20.1895L17.1475 20.1793C17.192 20.1179 17.2364 20.055 17.2794 19.9892C17.2854 19.9804 17.2913 19.9731 17.2958 19.9643C17.3388 19.8999 17.3803 19.8341 17.4218 19.7669C17.4292 19.7552 17.4366 19.742 17.444 19.7303C17.4841 19.663 17.5241 19.5957 17.5627 19.5255C17.5701 19.5138 17.576 19.5021 17.5819 19.489C17.622 19.4158 17.662 19.3427 17.7006 19.2681L17.708 19.252C17.7465 19.1774 17.7836 19.1014 17.8207 19.0239C17.8251 19.0151 17.8296 19.0063 17.834 18.9961C17.8711 18.9186 17.9067 18.8396 17.9408 18.7606C17.9467 18.746 17.9541 18.7314 17.9601 18.7167C17.9942 18.6377 18.0283 18.5573 18.0609 18.4769C18.0668 18.4622 18.0728 18.4491 18.0772 18.4345C18.1113 18.3511 18.1439 18.2648 18.1766 18.1785C18.1795 18.1712 18.181 18.1639 18.184 18.1566C18.2151 18.0703 18.2477 17.984 18.2774 17.8962C18.2804 17.8875 18.2833 17.8787 18.2863 17.8699C18.3174 17.7807 18.3471 17.6915 18.3753 17.6008C18.3797 17.5847 18.3856 17.5701 18.3901 17.554C18.4183 17.4648 18.4464 17.3741 18.4731 17.2819C18.4776 17.2659 18.482 17.2512 18.4865 17.2351C18.5132 17.1415 18.5413 17.0465 18.5665 16.9499C18.568 16.9412 18.571 16.9339 18.5725 16.9251C18.5992 16.8285 18.6244 16.7306 18.6481 16.6311L18.654 16.6106C18.6792 16.5112 18.703 16.4117 18.7252 16.3108C18.7282 16.2962 18.7326 16.2801 18.7356 16.2655C18.7578 16.166 18.7801 16.0665 18.8008 15.9671C18.8038 15.951 18.8068 15.9364 18.8112 15.9203C18.832 15.8179 18.8527 15.7141 18.8735 15.6102C18.875 15.6015 18.8765 15.5941 18.8779 15.5854C18.8987 15.4786 18.918 15.3704 18.9372 15.2607L18.9387 15.2504C18.958 15.1422 18.9743 15.0325 18.9921 14.9228C18.9936 14.9097 18.9966 14.895 18.998 14.8819C19.0144 14.7751 19.0307 14.6683 19.0455 14.5601C19.047 14.5455 19.0499 14.5308 19.0514 14.5162C19.0663 14.4065 19.0811 14.2954 19.0944 14.1842C19.0959 14.1769 19.0959 14.1696 19.0974 14.1623C19.1256 13.9312 19.1508 13.6972 19.1715 13.4617C19.173 13.4515 19.173 13.4398 19.1745 13.4295C19.1849 13.3155 19.1938 13.2014 19.2027 13.0873C19.2042 13.0741 19.2042 13.0624 19.2056 13.0493C19.2145 12.9337 19.222 12.8167 19.2294 12.7012L19.2309 12.6836C19.2457 12.4408 19.2575 12.198 19.265 11.9538V11.9333C19.2694 11.8149 19.2724 11.6949 19.2739 11.5765C19.2739 11.5662 19.2739 11.5574 19.2739 11.5472C19.2768 11.4273 19.2783 11.3059 19.2783 11.1859V11.1772C19.2798 10.9271 19.2768 10.677 19.2724 10.4269L19.2783 10.4225Z" fill="#EE763B"/>
<path d="M25.782 10.9972C25.782 9.25965 24.6803 7.71664 22.975 7.06433C22.8342 7.01022 22.6874 6.98535 22.545 6.98535C22.0898 6.98535 21.6598 7.2413 21.4789 7.66398C21.2416 8.21976 21.5248 8.85305 22.1135 9.07683C22.9469 9.39567 23.4851 10.1489 23.4851 10.9972C23.4851 11.8455 22.9469 12.5987 22.1135 12.9175C21.5248 13.1428 21.2416 13.7746 21.4789 14.3304C21.6598 14.7531 22.0898 15.009 22.545 15.009C22.6889 15.009 22.8342 14.9842 22.975 14.93C24.6803 14.2777 25.782 12.7347 25.782 10.9972Z" fill="#F18550"/>
<path d="M30.5744 10.9973C30.5744 7.76647 28.6764 4.89545 25.7404 3.68444C25.5996 3.62593 25.4542 3.59814 25.3104 3.59814C24.8567 3.59814 24.4252 3.87457 24.2443 4.33089C24.007 4.93055 24.2902 5.61503 24.8789 5.85782C26.943 6.70903 28.2761 8.72592 28.2761 10.9973C28.2761 13.2672 26.943 15.2841 24.8789 16.1368C24.2902 16.3796 24.007 17.0626 24.2443 17.6637C24.4252 18.12 24.8552 18.3964 25.3104 18.3964C25.4542 18.3964 25.5996 18.3687 25.7404 18.3102C28.6764 17.0977 30.5744 14.2281 30.5744 10.9973Z" fill="#F18550"/>
<path d="M14.4531 14.2424C16.1583 14.118 17.5033 12.714 17.5033 10.9998C17.5033 9.28571 16.1583 7.88311 14.4531 7.75732C14.2692 9.91462 14.2692 12.0836 14.4531 14.2424Z" fill="#EC6833"/>
<path d="M13.6301 4.90084C12.8634 7.25119 9.79991 8.84686 10.6511 11.617C11.3317 13.5476 13.6301 16.4859 10.5665 17.4102C10.006 17.5857 9.44699 17.6632 8.90576 17.6442C8.97249 17.7086 9.0407 17.7729 9.10743 17.8373L9.11336 17.8431C9.17712 17.9031 9.24088 17.9631 9.30613 18.023C9.31947 18.0362 9.3343 18.0494 9.34765 18.0625C9.39954 18.1108 9.45293 18.1605 9.50482 18.2088C9.5241 18.2263 9.54338 18.2439 9.56266 18.2614C9.61011 18.3053 9.65904 18.3492 9.70797 18.3931C9.73021 18.4121 9.75097 18.4326 9.77322 18.4516C9.81918 18.494 9.86663 18.5349 9.91408 18.5773C9.93633 18.5978 9.96005 18.6183 9.9823 18.6373C10.0283 18.6783 10.0742 18.7192 10.1217 18.7602C10.1454 18.7806 10.1676 18.8011 10.1914 18.8216C10.2388 18.8625 10.2848 18.9035 10.3322 18.943C10.3545 18.962 10.3767 18.981 10.4005 19.0015C10.4494 19.0439 10.4983 19.0849 10.5473 19.1258C10.568 19.1434 10.5888 19.1609 10.6095 19.1785C10.6629 19.2223 10.7163 19.2677 10.7697 19.3116C10.786 19.3247 10.8023 19.3393 10.8186 19.3525C10.8868 19.4081 10.955 19.4637 11.0218 19.5178L11.0277 19.5222C11.1003 19.5807 11.1715 19.6377 11.2442 19.6933L11.2501 19.6977C11.3183 19.7503 11.3851 19.803 11.4518 19.8542C11.4696 19.8673 11.4874 19.8805 11.5052 19.8951C11.5571 19.9346 11.609 19.9726 11.6594 20.0107C11.6831 20.0282 11.7053 20.0443 11.7276 20.0604C11.7736 20.094 11.821 20.1277 11.867 20.1613C11.8922 20.1789 11.9174 20.1964 11.9426 20.2154C11.9871 20.2461 12.0316 20.2783 12.0746 20.3076C12.1013 20.3251 12.1265 20.3441 12.1532 20.3617C12.1962 20.3909 12.2392 20.4202 12.2822 20.448C12.3089 20.4655 12.3355 20.4831 12.3622 20.5006C12.4052 20.5284 12.4468 20.5562 12.4898 20.5825C12.5164 20.5986 12.5417 20.6162 12.5683 20.6323C12.6113 20.6586 12.6544 20.6849 12.6959 20.7112C12.7211 20.7273 12.7463 20.742 12.7715 20.7566C12.816 20.7829 12.8605 20.8092 12.9049 20.8356C12.9272 20.8487 12.9509 20.8619 12.9732 20.875C13.0236 20.9043 13.074 20.9321 13.1244 20.9584C13.1407 20.9672 13.157 20.976 13.1719 20.9847C13.3038 21.0564 13.4343 21.1208 13.5633 21.1807C13.5826 21.1895 13.6019 21.1983 13.6197 21.2056C13.6642 21.2261 13.7086 21.2451 13.7531 21.2641C13.7769 21.2743 13.7991 21.2831 13.8228 21.2919C13.8614 21.308 13.9014 21.3241 13.94 21.3387C13.9652 21.3475 13.9889 21.3562 14.0141 21.3665C14.0512 21.3796 14.0868 21.3928 14.1238 21.4045C14.149 21.4133 14.1742 21.4206 14.198 21.4279C14.2336 21.4396 14.2677 21.4498 14.3033 21.4601C14.3285 21.4674 14.3522 21.4732 14.3774 21.4805C14.4115 21.4893 14.4456 21.4981 14.4797 21.5054C14.5034 21.5113 14.5286 21.5171 14.5524 21.5215C14.5865 21.5288 14.6191 21.5347 14.6532 21.5405C14.6769 21.5449 14.6992 21.5493 14.7229 21.5522C14.757 21.5566 14.7911 21.561 14.8237 21.5639C14.8445 21.5668 14.8667 21.5683 14.8875 21.5698C14.9023 21.5712 14.9171 21.5712 14.932 21.5712C15.0803 21.58 15.2226 21.5756 15.3575 21.5522L15.2864 21.2933C15.273 21.2451 15.2612 21.1953 15.2478 21.1471C13.4388 14.4968 13.4403 7.49544 15.2478 0.848054C15.2849 0.713497 15.3205 0.577478 15.359 0.442922C15.2182 0.418058 15.0684 0.410745 14.9127 0.420983C14.886 0.422446 14.8578 0.425371 14.8297 0.428296C14.8059 0.429758 14.7837 0.432684 14.76 0.435609C14.7303 0.438534 14.7007 0.444384 14.6695 0.448772C14.6473 0.451697 14.6265 0.454622 14.6043 0.45901C14.5716 0.46486 14.539 0.472173 14.5064 0.478023C14.4856 0.482411 14.4664 0.486799 14.4456 0.491186C14.41 0.499962 14.3744 0.508737 14.3388 0.517513C14.321 0.5219 14.3018 0.527751 14.284 0.532139C14.2454 0.542377 14.2069 0.554077 14.1683 0.56724C14.152 0.57309 14.1357 0.577478 14.1194 0.583329C14.0779 0.596492 14.0363 0.611117 13.9933 0.625743C13.9785 0.630131 13.9652 0.635981 13.9503 0.640369C13.9059 0.656457 13.8599 0.674008 13.8139 0.693021C13.8021 0.697409 13.7902 0.701797 13.7783 0.707647C13.7294 0.72666 13.682 0.747136 13.633 0.769075C13.6241 0.773463 13.6137 0.777851 13.6048 0.780776C13.5529 0.804177 13.501 0.827578 13.4491 0.852442L13.4284 0.86268C13.3735 0.889006 13.3187 0.915332 13.2623 0.943121L13.249 0.948971C13.1911 0.978223 13.1318 1.00894 13.074 1.03965L13.0681 1.04258C13.0073 1.07475 12.9465 1.10839 12.8842 1.14349C12.8219 1.1786 12.7596 1.21516 12.6959 1.25172C13.3661 2.39984 14.0215 3.55235 13.6301 4.90084Z" fill="#FCC574"/>
<path d="M7.83389 13.6064C7.6693 13.6064 7.6693 13.858 7.83389 13.858C7.99849 13.8595 7.99849 13.6064 7.83389 13.6064Z" fill="white"/>
<path d="M12.2038 18.5542C12.0392 18.5542 12.0392 18.8058 12.2038 18.8058C12.3669 18.8072 12.3684 18.5542 12.2038 18.5542Z" fill="white"/>
<path d="M13.1335 11.7037C13.298 11.7037 13.298 11.4521 13.1335 11.4521C12.9689 11.4521 12.9689 11.7037 13.1335 11.7037Z" fill="white"/>
<path d="M9.08829 8.37012C8.9237 8.37012 8.9237 8.62168 9.08829 8.62168C9.25288 8.62168 9.25288 8.37012 9.08829 8.37012Z" fill="white"/>
<path d="M12.7702 4.24023C12.6056 4.24023 12.6056 4.4918 12.7702 4.4918C12.9333 4.4918 12.9348 4.24023 12.7702 4.24023Z" fill="white"/>
<path d="M1.11954 9.93652C0.954945 9.93652 0.954945 10.1881 1.11954 10.1881C1.28265 10.1881 1.28413 9.93652 1.11954 9.93652Z" fill="white"/>
<path d="M4.15347 8.93945C3.98888 8.93945 3.98888 9.19102 4.15347 9.19102C4.31659 9.19102 4.31807 8.93945 4.15347 8.93945Z" fill="white"/>
<path d="M3.66715 11.9712C3.50255 11.9712 3.50255 12.2228 3.66715 12.2228C3.83174 12.2228 3.83174 11.9712 3.66715 11.9712Z" fill="white"/>
<path d="M13.1274 2.56691C13.3232 2.36947 13.0889 2.05209 12.8383 2.17495C10.6378 3.30551 8.34532 5.31947 7.00781 7.38609C6.86249 7.61864 7.16499 7.87605 7.37851 7.702C7.87674 7.29541 8.36756 6.8698 8.85244 6.44712C10.2433 5.20539 11.8151 3.87738 13.1274 2.56691Z" fill="white"/>
<path d="M6.55609 8.79338C6.83154 8.76639 7.03265 8.52426 7.00528 8.25258C6.97792 7.98089 6.73244 7.78253 6.45699 7.80952C6.18155 7.83652 5.98044 8.07864 6.0078 8.35033C6.03517 8.62201 6.28065 8.82037 6.55609 8.79338Z" fill="white"/>
<path d="M23.4183 13.4103C23.5829 13.4103 23.5829 13.1587 23.4183 13.1587C23.2552 13.1587 23.2537 13.4103 23.4183 13.4103Z" fill="#EE743B"/>
<path d="M24.9367 10.4181C25.1013 10.4181 25.1013 10.1665 24.9367 10.1665C24.7721 10.165 24.7721 10.4181 24.9367 10.4181Z" fill="#EE743B"/>
<path d="M22.7821 7.92139C22.6175 7.92139 22.6175 8.17295 22.7821 8.17295C22.9467 8.17295 22.9467 7.92139 22.7821 7.92139Z" fill="#EE743B"/>
<path d="M26.12 5.31787C25.9554 5.31787 25.9554 5.56943 26.12 5.56943C26.2831 5.56943 26.2846 5.31787 26.12 5.31787Z" fill="#EE743B"/>
<path d="M29.0324 7.96348C29.197 7.96348 29.197 7.71191 29.0324 7.71191C28.8678 7.71191 28.8678 7.96348 29.0324 7.96348Z" fill="#EE743B"/>
<path d="M29.0324 12.9615C29.197 12.9615 29.197 12.71 29.0324 12.71C28.8678 12.71 28.8678 12.9615 29.0324 12.9615Z" fill="#EE743B"/>
<path d="M28.3339 15.9537C28.4985 15.9537 28.4985 15.7021 28.3339 15.7021C28.1693 15.7021 28.1693 15.9537 28.3339 15.9537Z" fill="#EE743B"/>
<path d="M25.6647 16.8984C25.5001 16.8984 25.5001 17.15 25.6647 17.15C25.8278 17.15 25.8293 16.8984 25.6647 16.8984Z" fill="#EE743B"/>
<path d="M29.7604 10.9063C29.925 10.9063 29.925 10.6548 29.7604 10.6548C29.5958 10.6548 29.5958 10.9063 29.7604 10.9063Z" fill="#EE743B"/>
<path d="M27.6161 15.5938C27.7807 15.5938 27.7807 15.3423 27.6161 15.3423C27.4515 15.3423 27.4515 15.5938 27.6161 15.5938Z" fill="#EE743B"/>
</svg>
