<svg width="252" height="312" viewBox="0 0 252 312" fill="none" xmlns="http://www.w3.org/2000/svg">
<path d="M212.79 310.571L168.982 311.134C168.964 299.617 169.919 286.444 171.636 274.732C173.362 262.958 175.848 252.733 178.851 247.138L201.162 241.057C202.687 243.789 204.123 247.95 205.432 253.051C206.792 258.352 208.005 264.629 209.038 271.293C211.075 284.426 212.407 299.032 212.79 310.571Z" fill="white" stroke="black"/>
<path d="M206.705 256.577H187.736L201.46 237.239C203.396 241.557 205.148 248.377 206.705 256.577Z" fill="white" stroke="black"/>
<path d="M212.742 310.571L168.937 311.134C168.945 308.075 169.03 305.056 169.155 302.111H212.267C212.478 304.869 212.647 307.701 212.742 310.571Z" fill="white" stroke="black"/>
<path d="M169.596 293.625C169.817 290.46 170.08 287.334 170.42 284.211H210.746C210.75 284.243 210.753 284.275 210.757 284.307C211.1 287.443 211.44 290.535 211.706 293.625H169.596Z" fill="white" stroke="black"/>
<path d="M171.454 276.157C171.897 272.876 172.417 269.751 172.978 266.743H208.278C208.794 269.749 209.274 272.909 209.751 276.157H171.454Z" fill="white" stroke="black"/>
<path d="M144.264 310.572L105.973 311.133C105.952 299.629 106.799 286.962 108.304 275.757C109.795 264.653 111.925 255.039 114.467 249.409L133.959 256.852C139.58 267.842 143.599 287.659 144.264 310.572Z" fill="white" stroke="black"/>
<path d="M144.263 310.572L105.975 311.133C105.98 308.071 106.025 305.052 106.146 302.111H143.835C144.041 304.865 144.172 307.697 144.263 310.572Z" fill="white" stroke="black"/>
<path d="M106.539 293.625C106.76 290.459 107.021 287.297 107.32 284.211H141.861C142.375 287.219 142.808 290.381 143.124 293.625H106.539Z" fill="white" stroke="black"/>
<path d="M108.253 276.157C108.692 272.869 109.172 269.708 109.728 266.743H137.887C138.791 269.589 139.617 272.751 140.326 276.157H108.253Z" fill="white" stroke="black"/>
<path d="M234.313 203.305L234.313 203.305C238.317 207.173 240.483 212.886 240.364 219.703L236.326 219.549C236.472 211.969 233.387 206.235 227.582 203.454L227.579 203.453C224.685 202.092 221.608 201.673 218.882 201.914C216.384 202.135 214.141 202.915 212.598 204.078L209.94 201.035C212.191 199.251 215.287 198.179 218.642 197.913C222.189 197.632 225.986 198.254 229.308 199.845C231.232 200.783 232.867 201.906 234.313 203.305Z" fill="white" stroke="black"/>
<path d="M248.761 232.462C246.593 225.958 240.51 221.311 238.261 219.718L237.946 219.495L237.651 219.742C235.617 221.445 230.406 226.313 228.02 232.787L225.991 232.1C227.549 227.839 230.211 224.264 232.569 221.693C235.013 219.03 237.11 217.469 237.255 217.365L237.257 217.364L237.858 216.93L238.489 217.295L238.502 217.303L238.516 217.31C238.515 217.309 238.515 217.309 238.517 217.31C238.52 217.312 238.532 217.318 238.554 217.331C238.581 217.347 238.618 217.369 238.664 217.397C238.757 217.453 238.885 217.533 239.043 217.636C239.36 217.841 239.797 218.136 240.317 218.514C241.358 219.271 242.73 220.36 244.149 221.732C246.709 224.245 249.458 227.701 250.827 231.838L248.761 232.462Z" fill="white" stroke="black"/>
<path d="M245.676 239.733H243.558C243.473 233.148 240.837 226.263 239.102 222.324L238.577 221.132L238.169 222.368C236.672 226.907 234.411 235.137 234.978 241.661L232.852 241.89C232.407 237.003 233.438 231.308 234.647 226.683C235.894 221.91 237.313 218.333 237.426 218.062L237.426 218.063L237.43 218.052L238.247 215.96L239.355 217.915C239.367 217.939 239.387 217.977 239.415 218.029C240.115 219.368 245.542 229.741 245.676 239.733Z" fill="white" stroke="black"/>
<path d="M220.052 219.166C220.052 252.914 192.682 280.284 158.934 280.284C125.186 280.284 97.8164 252.914 97.8164 219.166C97.8164 185.418 125.186 158.048 158.934 158.048C192.683 158.048 220.052 185.37 220.052 219.166Z" fill="white" stroke="black"/>
<path d="M105.681 249.061C102.273 242.996 99.8373 236.284 98.6669 229.176L168.993 158.85C176.1 160.021 182.813 162.456 188.878 165.864L105.681 249.061Z" fill="white" stroke="black"/>
<path d="M154.679 310.572L116.389 311.133C116.396 307.402 116.484 303.753 116.653 300.184L154.103 299.623C154.364 303.195 154.58 306.844 154.679 310.572Z" fill="white" stroke="black"/>
<path d="M97.5494 15.8055L97.551 15.8057C141.113 20.4237 172.141 65.839 166.739 117.425C164.931 134.643 159.234 150.361 150.864 163.447C151.553 160.038 152.089 156.562 152.472 152.994L152.473 152.994C157.848 102.264 128.174 57.1373 85.5268 50.6833L88.9884 15.4595C91.8003 15.387 94.6538 15.4888 97.5494 15.8055Z" fill="white" stroke="black"/>
<path d="M97.5494 15.8055L97.5494 15.8055L97.5547 15.806C100.777 16.1237 103.914 16.7011 107.007 17.4978L100.008 54.5041C95.3919 52.7385 90.5649 51.4384 85.5269 50.6826L88.9884 15.4595C91.8003 15.387 94.6538 15.4888 97.5494 15.8055Z" fill="white" stroke="black"/>
<path d="M123.506 69.2782C120.309 66.3103 116.867 63.6339 113.257 61.2872L128.629 27.1327C133.485 30.3407 138.002 34.2305 142.137 38.601L123.506 69.2782Z" fill="white" stroke="black"/>
<path d="M140.145 90.5567C138.261 87.2031 136.175 83.975 133.924 80.9472L153.196 53.2699C156.358 58.49 159.046 64.1312 161.14 70.0725L140.145 90.5567Z" fill="white" stroke="black"/>
<path d="M148.759 111.079C147.966 108.393 147.093 105.782 146.102 103.21L165.964 88.7486C166.812 93.973 167.246 99.363 167.264 104.88L148.759 111.079Z" fill="white" stroke="black"/>
<path d="M153.055 140.93C153.068 135.707 152.664 130.613 151.962 125.648L165.962 122.812C165.07 128.526 163.754 134.071 162.053 139.445L153.055 140.93Z" fill="white" stroke="black"/>
<path d="M128.848 9.35465C136.811 16.7018 136.888 30.1263 128.702 39.8936C120.517 49.6597 107.196 51.8815 98.6066 45.2775L128.848 9.35465Z" fill="white" stroke="black"/>
<path d="M51.8512 29.9417C46.8755 18.2232 50.9066 5.37818 60.6354 0.671622L79.042 43.8707C68.8885 47.6469 56.8265 41.6593 51.8512 29.9417Z" fill="white" stroke="black"/>
<path d="M89.5852 40.9999L89.5853 40.9999C133.214 45.6199 164.412 89.2791 159.157 138.683C153.901 188.04 114.219 224.2 70.639 219.58C27.0589 214.96 -4.14052 171.254 1.06752 121.897C6.32353 72.5402 46.0049 36.3799 89.5852 40.9999Z" fill="white" stroke="black"/>
<path d="M22.8686 185.399L21.9589 184.645C65.7027 132.13 75.2254 65.7217 76.0584 59.3857L77.224 59.5152C76.372 65.9979 66.7894 132.709 22.8686 185.399Z" fill="white" stroke="black"/>
<path d="M125.594 194.86L124.645 195.624C107.655 174.92 100.772 141.793 98.174 113.562C95.7606 87.3419 97.0509 65.4552 97.2969 61.9199L98.508 62.0252C98.2581 65.5986 96.9891 87.3111 99.3616 113.288C101.914 141.23 108.69 174.238 125.594 194.86Z" fill="white" stroke="black"/>
<path d="M78.5833 59.1186C78.2277 62.302 75.4006 64.593 72.2254 64.2402C69.0402 63.8863 66.7474 61.0583 67.1004 57.8819C67.4543 54.6969 70.282 52.4042 73.4583 52.7569C76.5914 53.1101 78.8909 55.9355 78.5833 59.1186Z" fill="white" stroke="black"/>
<path d="M108.336 62.1896C107.981 65.3731 105.154 67.6643 101.979 67.3115C98.7934 66.9576 96.5006 64.1296 96.8535 60.9532C97.2074 57.7682 100.035 55.4755 103.211 55.8282C106.343 56.1812 108.644 59.0529 108.336 62.1896Z" fill="white" stroke="black"/>
<path d="M129.286 199.324C113.25 213.972 92.4552 221.851 70.6388 219.532C48.822 217.214 30.1424 205.164 17.5487 187.468C33.5846 172.819 54.3794 164.94 76.1958 167.259C98.0126 169.578 116.692 181.628 129.286 199.324Z" fill="white" stroke="black"/>
<path d="M50.8572 180.84L50.8611 180.84C57.3003 181.484 61.9016 187.233 61.2113 193.63C60.5207 200.029 54.8137 204.674 48.4211 203.984C42.0219 203.294 37.3771 197.587 38.067 191.194C38.7576 184.795 44.4645 180.15 50.8572 180.84Z" fill="white" stroke="black"/>
<path d="M98.6062 185.927L98.6098 185.927C105.003 186.571 109.65 192.321 108.96 198.717C108.27 205.116 102.563 209.761 96.1701 209.071C89.7709 208.38 85.1262 202.673 85.816 196.281C86.5066 189.882 92.2136 185.237 98.6062 185.927Z" fill="white" stroke="black"/>
<path d="M89.5872 41.0481L89.5872 41.0483L89.5996 41.0492C90.6575 41.1306 91.7178 41.2824 92.7926 41.4462C92.1279 44.8191 91.1626 47.6958 90.0684 49.712C89.4932 50.7718 88.8959 51.5688 88.3092 52.0782C87.7237 52.5865 87.1914 52.7744 86.7173 52.7228C86.2528 52.671 85.7791 52.3787 85.3181 51.7694C84.8563 51.1591 84.4415 50.2726 84.1001 49.1403C83.4497 46.9836 83.094 44.0318 83.1244 40.6689C85.2853 40.6874 87.4136 40.8263 89.5872 41.0481Z" fill="white" stroke="black"/>
<path d="M74.3861 49.6037L74.3861 49.6037L74.3794 49.603C74.0711 49.5722 73.7468 49.393 73.418 48.9928C73.0871 48.59 72.7799 47.9947 72.518 47.2174C72.0251 45.7552 71.7226 43.741 71.6693 41.4122C74.1348 41.049 76.5997 40.7979 79.0966 40.6904C78.5753 43.3241 77.822 45.5855 76.9715 47.1843C76.5127 48.0467 76.039 48.6908 75.5795 49.0992C75.1202 49.5076 74.7223 49.6419 74.3861 49.6037Z" fill="white" stroke="black"/>
<path d="M99.4273 52.2421L99.4251 52.242C99.0985 52.2123 98.7371 51.9963 98.3686 51.4783C98.0015 50.9622 97.6703 50.202 97.4027 49.2246C96.9033 47.4007 96.6514 44.9177 96.7373 42.1198C99.2054 42.6404 101.631 43.2734 103.982 44.0507C103.442 46.5412 102.702 48.6314 101.878 50.0883C101.442 50.8597 100.995 51.4295 100.564 51.7902C100.135 52.1493 99.7559 52.2734 99.4273 52.2421Z" fill="white" stroke="black"/>
<path d="M1.77477 148.415C0.584313 140.824 0.234999 132.887 0.854141 124.814C10.0629 120.55 18.6414 117.684 25.2356 116.494C28.5677 115.892 31.3639 115.724 33.4677 116.004C35.5906 116.286 36.879 117.003 37.413 118.041C37.9962 119.178 37.7293 120.83 36.4443 122.978C35.1753 125.099 32.9922 127.565 30.0431 130.218C24.1511 135.521 15.2887 141.496 4.85488 146.881C4.53851 147.039 4.22664 147.196 3.91731 147.352C3.1977 147.716 2.49179 148.072 1.77477 148.415Z" fill="white" stroke="black"/>
<path d="M8.24934 171.003C6.06468 165.928 4.30846 160.598 3.02123 155.052C10.0046 151.917 16.4552 149.822 21.4105 148.971C23.9355 148.537 26.0428 148.432 27.6235 148.659C29.2201 148.89 30.1587 149.439 30.5512 150.195C30.9613 150.998 30.8246 152.164 29.9632 153.713C29.1124 155.244 27.6179 157.027 25.5659 158.96C21.5554 162.738 15.4985 167.012 8.24934 171.003Z" fill="white" stroke="black"/>
<path d="M13.7809 111.656L13.7797 111.657C9.57637 113.803 5.50155 115.614 1.67279 117.05C2.82374 109.729 4.71179 102.72 7.25311 96.1468C15.2496 92.1518 22.8433 89.405 28.7043 88.1773C31.6594 87.5583 34.1455 87.3317 36.0095 87.5108C37.9007 87.6925 38.9986 88.2735 39.4286 89.1045C39.8689 89.968 39.6849 91.2404 38.6814 92.9313C37.6923 94.5978 35.9821 96.5368 33.6603 98.6235C29.0224 102.792 22.0314 107.471 13.7809 111.656Z" fill="white" stroke="black"/>
<path d="M151.856 167.096C149.542 165.426 147.221 163.592 144.853 161.671C135.759 154.252 128.342 146.569 123.695 140.153C121.37 136.941 119.755 134.071 118.962 131.726C118.16 129.354 118.246 127.673 119.059 126.671C119.87 125.683 121.495 125.267 123.979 125.584C126.433 125.897 129.568 126.91 133.179 128.55C140.348 131.806 149.288 137.486 158.299 144.835C156.992 152.684 154.801 160.132 151.856 167.096Z" fill="white" stroke="black"/>
<path d="M118.962 159.593L118.962 159.593L118.964 159.59C119.563 158.851 120.768 158.509 122.673 158.734C124.55 158.957 126.955 159.717 129.738 160.967C135.214 163.427 142.048 167.735 148.995 173.327C146.396 178.426 143.37 183.222 139.999 187.634C139.771 187.44 139.525 187.236 139.279 187.051C132.108 181.194 126.266 175.133 122.61 170.08C120.779 167.549 119.514 165.296 118.895 163.463C118.267 161.602 118.355 160.33 118.962 159.593Z" fill="white" stroke="black"/>
<path d="M143.461 125.487C136.287 119.628 130.442 113.565 126.785 108.51C124.954 105.98 123.689 103.726 123.07 101.893C122.442 100.032 122.53 98.7605 123.136 98.0233C123.744 97.285 124.977 96.95 126.928 97.1984C128.849 97.4428 131.311 98.2365 134.157 99.5286C139.842 102.11 146.956 106.63 154.155 112.49C155.917 113.927 157.591 115.411 159.178 116.856C159.895 123.194 159.959 129.794 159.412 136.449C154.528 133.794 149.043 130.017 143.461 125.487Z" fill="white" stroke="black"/>
<path d="M154.677 310.572L116.387 311.133C116.365 299.629 117.213 286.962 118.717 275.757C120.208 264.653 122.338 255.038 124.88 249.409L144.372 256.852C149.947 267.843 154.012 287.661 154.677 310.572Z" fill="white" stroke="black"/>
<path d="M154.676 310.572L116.389 311.133C116.393 308.071 116.438 305.052 116.559 302.111H154.248C154.454 304.865 154.585 307.697 154.676 310.572Z" fill="white" stroke="black"/>
<path d="M116.952 293.625C117.173 290.459 117.434 287.297 117.733 284.211H152.274C152.783 287.214 153.178 290.375 153.531 293.625H116.952Z" fill="white" stroke="black"/>
<path d="M118.666 276.157C119.105 272.869 119.585 269.708 120.142 266.743H148.3C149.205 269.589 150.03 272.751 150.739 276.157H118.666Z" fill="white" stroke="black"/>
<path d="M223.396 310.571L179.589 311.134C179.57 299.617 180.525 286.444 182.242 274.732C183.968 262.958 186.454 252.733 189.457 247.138L211.769 241.057C213.293 243.789 214.729 247.95 216.038 253.051C217.398 258.352 218.611 264.629 219.645 271.293C221.681 284.426 223.014 299.032 223.396 310.571Z" fill="white" stroke="black"/>
<path d="M217.294 258.497H198.426L212.112 241.71C213.998 245.441 215.742 251.344 217.294 258.497Z" fill="white" stroke="black"/>
<path d="M223.348 310.571L179.542 311.134C179.551 308.075 179.635 305.056 179.76 302.111H222.872C223.083 304.869 223.253 307.701 223.348 310.571Z" fill="white" stroke="black"/>
<path d="M180.201 293.625C180.422 290.46 180.685 287.334 181.025 284.211H221.351C221.355 284.243 221.358 284.275 221.362 284.307C221.705 287.443 222.045 290.535 222.311 293.625H180.201Z" fill="white" stroke="black"/>
<path d="M182.059 276.157C182.502 272.876 183.022 269.751 183.583 266.743H218.883C219.399 269.749 219.879 272.909 220.356 276.157H182.059Z" fill="white" stroke="black"/>
<path d="M130.075 272.989C126.084 270.847 122.309 268.229 118.876 265.258L205.075 179.059C209.794 184.506 213.58 190.783 216.18 197.637L140.827 272.989H130.075Z" fill="white" stroke="black"/>
<path d="M219.865 224.112C217.471 253.895 193.707 277.703 163.88 280.097L219.865 224.112Z" fill="white" stroke="black"/>
</svg>
