<svg width="32" height="32" viewBox="0 0 32 32" fill="none" xmlns="http://www.w3.org/2000/svg">
<path d="M16 32C24.8366 32 32 24.8366 32 16C32 7.16344 24.8366 0 16 0C7.16344 0 0 7.16344 0 16C0 24.8366 7.16344 32 16 32Z" fill="#F2F2F2"/>
<path d="M15.9999 30.1331C23.8055 30.1331 30.1332 23.8054 30.1332 15.9998C30.1332 8.19416 23.8055 1.86646 15.9999 1.86646C8.19429 1.86646 1.86658 8.19416 1.86658 15.9998C1.86658 23.8054 8.19429 30.1331 15.9999 30.1331Z" fill="#D9E021"/>
<path d="M24.9334 21.7731C23.3334 24.3198 19.92 26.0665 15.9734 26.0665C11.5334 26.0665 7.78671 23.8531 6.50671 20.7998" stroke="#4D4D4D" stroke-width="2" stroke-miterlimit="10" stroke-linecap="round" stroke-linejoin="round"/>
<path d="M19.9333 19.4667C21.8626 19.4667 23.4266 17.1087 23.4266 14.2C23.4266 11.2913 21.8626 8.93335 19.9333 8.93335C18.004 8.93335 16.4399 11.2913 16.4399 14.2C16.4399 17.1087 18.004 19.4667 19.9333 19.4667Z" fill="#F2F2F2"/>
<path d="M12.6933 19.4667C14.6226 19.4667 16.1866 17.1087 16.1866 14.2C16.1866 11.2913 14.6226 8.93335 12.6933 8.93335C10.764 8.93335 9.19995 11.2913 9.19995 14.2C9.19995 17.1087 10.764 19.4667 12.6933 19.4667Z" fill="#F2F2F2"/>
<path d="M9.20005 14.2001C9.06672 13.0401 9.22672 11.8134 9.77339 10.7334C10.0401 10.1868 10.4134 9.6801 10.9067 9.2801C11.1467 9.0801 11.4267 8.90676 11.7334 8.78676C12.0401 8.66676 12.3601 8.6001 12.7067 8.6001C13.0267 8.6001 13.3601 8.66676 13.6667 8.78676C13.9734 8.90676 14.2534 9.0801 14.4934 9.2801C14.9867 9.6801 15.3601 10.1868 15.6267 10.7334C16.1601 11.8268 16.3334 13.0534 16.2001 14.2001C16.0534 13.0401 15.7467 11.9334 15.1734 10.9734C14.8801 10.5068 14.5334 10.0801 14.1067 9.7601C13.6801 9.4401 13.2001 9.25343 12.6934 9.25343C12.2134 9.25343 11.7067 9.4401 11.2934 9.7601C10.8667 10.0801 10.5201 10.5068 10.2267 10.9734C9.65339 11.9334 9.34672 13.0401 9.20005 14.2001Z" fill="#F2F2F2"/>
<path d="M16.44 14.2001C16.3067 13.0401 16.4667 11.8134 17.0134 10.7334C17.28 10.1868 17.6534 9.6801 18.1467 9.2801C18.3867 9.0801 18.6667 8.90676 18.9734 8.78676C19.28 8.66676 19.6 8.6001 19.9467 8.6001C20.2667 8.6001 20.6 8.66676 20.9067 8.78676C21.2134 8.90676 21.4934 9.0801 21.7334 9.2801C22.2267 9.6801 22.6 10.1868 22.8667 10.7334C23.4 11.8268 23.5734 13.0534 23.44 14.2001C23.2934 13.0401 22.9867 11.9334 22.4134 10.9734C22.12 10.5068 21.7734 10.0801 21.3467 9.7601C20.92 9.4401 20.44 9.25343 19.9334 9.25343C19.4534 9.25343 18.9467 9.4401 18.5334 9.7601C18.1067 10.0801 17.76 10.5068 17.4667 10.9734C16.8934 11.9334 16.5867 13.0401 16.44 14.2001Z" fill="#F2F2F2"/>
<path d="M12.6933 18.6666C14.166 18.6666 15.3599 17.4727 15.3599 15.9999C15.3599 14.5272 14.166 13.3333 12.6933 13.3333C11.2205 13.3333 10.0266 14.5272 10.0266 15.9999C10.0266 17.4727 11.2205 18.6666 12.6933 18.6666Z" fill="#4D4D4D"/>
<path d="M19.9866 18.6666C21.4594 18.6666 22.6533 17.4727 22.6533 15.9999C22.6533 14.5272 21.4594 13.3333 19.9866 13.3333C18.5139 13.3333 17.3199 14.5272 17.3199 15.9999C17.3199 17.4727 18.5139 18.6666 19.9866 18.6666Z" fill="#4D4D4D"/>
<path opacity="0.24" d="M16.1067 1.71997C8.30672 1.71997 1.97339 8.0533 1.97339 15.8533C1.97339 23.6533 8.30672 29.9866 16.1067 29.9866C8.68005 29.9866 2.65339 23.96 2.65339 16.5333C2.65339 9.10664 8.68005 3.07997 16.1067 3.07997C23.5334 3.07997 29.5601 9.10664 29.5601 16.5333C29.5601 23.96 23.5334 29.9866 16.1067 29.9866C23.9067 29.9866 30.2401 23.6533 30.2401 15.8533C30.2401 8.0533 23.9067 1.71997 16.1067 1.71997Z" fill="#E6E6E6"/>
<path opacity="0.49" d="M11.7733 16.3601C11.48 15.8667 11.6533 15.2267 12.1466 14.9467L11.5466 13.9067C10.48 14.5201 10.1066 15.8934 10.7333 16.9601C11.3466 18.0267 12.72 18.4001 13.7866 17.7734L13.1866 16.7334C12.7066 17.0267 12.0666 16.8534 11.7733 16.3601Z" fill="#E6E6E6"/>
<path opacity="0.49" d="M19.1067 16.3601C18.8134 15.8667 18.9867 15.2267 19.48 14.9467L18.88 13.9067C17.8134 14.5201 17.44 15.8934 18.0667 16.9601C18.68 18.0267 20.0533 18.4001 21.12 17.7734L20.52 16.7334C20.04 17.0267 19.4 16.8534 19.1067 16.3601Z" fill="#E6E6E6"/>
</svg>
