<svg width="245" height="252" viewBox="0 0 245 252" fill="none" xmlns="http://www.w3.org/2000/svg">
<path d="M91.6613 229.005C90.1317 218.286 89.2346 204 89.1724 185.114H127.904C127.842 204 126.945 218.286 125.415 229.005C123.899 239.629 121.767 246.714 119.235 251.299H97.842C95.3101 246.714 93.1773 239.629 91.6613 229.005Z" fill="white" stroke="black"/>
<path d="M97.8421 251.299C95.4041 246.896 93.3396 240.198 91.8426 230.272H125.235C123.738 240.198 121.673 246.896 119.235 251.299H97.8421Z" fill="white" stroke="black"/>
<path d="M103.116 246.924C103.657 246.924 103.912 247.268 103.912 247.48V251.299H102.32V247.48C102.32 247.268 102.575 246.924 103.116 246.924Z" fill="white" stroke="black"/>
<path d="M107.77 246.924C108.311 246.924 108.566 247.268 108.566 247.48V251.299H106.975V247.48C106.975 247.268 107.23 246.924 107.77 246.924Z" fill="white" stroke="black"/>
<path d="M112.858 246.924C113.398 246.924 113.653 247.268 113.653 247.48V251.299H112.062V247.48C112.062 247.268 112.317 246.924 112.858 246.924Z" fill="white" stroke="black"/>
<path d="M244.045 220.854L237.159 215.741L235.728 214.679L236.397 216.33L236.398 216.33L236.398 216.33L236.398 216.33L236.399 216.333L236.404 216.347C236.409 216.359 236.416 216.378 236.426 216.405C236.446 216.458 236.476 216.538 236.514 216.646C236.59 216.861 236.697 217.184 236.821 217.608C237.071 218.456 237.388 219.708 237.658 221.312C238.144 224.211 238.473 228.257 237.954 233.144C236.239 229.917 234.603 227.436 233.342 225.704C232.621 224.714 232.023 223.968 231.604 223.469C231.394 223.219 231.229 223.031 231.115 222.904C231.059 222.841 231.015 222.793 230.985 222.76L230.95 222.723L230.941 222.713L230.938 222.71L230.937 222.709L230.937 222.709C230.937 222.709 230.937 222.708 230.574 223.053L230.937 222.708L230.406 222.151L230.112 222.862L227.441 229.327C227.352 228.873 227.245 228.339 227.122 227.737C226.714 225.756 226.125 223.051 225.397 220.154C224.669 217.258 223.801 214.163 222.836 211.406C221.903 208.741 220.866 206.351 219.756 204.763L220.568 186.144C230.455 194.744 236.387 203.651 239.859 210.461C241.64 213.955 242.773 216.896 243.461 218.96C243.711 219.714 243.903 220.35 244.045 220.854Z" fill="white" stroke="black"/>
<path d="M189.918 133.941L161.026 121.972L187.717 88.2633L189.918 133.941Z" fill="white" stroke="black"/>
<path d="M197.904 140.252L173.152 123.05L206.825 100.311L197.904 140.252Z" fill="white" stroke="black"/>
<path d="M200.093 148.543L179.781 128.732L214.94 117.164L200.093 148.543Z" fill="white" stroke="black"/>
<path d="M200.297 156.303L186.348 136.576L217.586 132.288L200.297 156.303Z" fill="white" stroke="black"/>
<path d="M194.209 165.554L186.49 142.668L217.637 147.498L194.209 165.554Z" fill="white" stroke="black"/>
<path d="M168.818 251.299C164.854 244.106 161.857 230.764 160.7 207.333H198.329C197.172 230.768 194.22 244.108 190.212 251.299H168.818Z" fill="white" stroke="black"/>
<path d="M174.044 246.924C174.584 246.924 174.839 247.268 174.839 247.479V251.298H173.248V247.479C173.248 247.268 173.503 246.924 174.044 246.924Z" fill="white" stroke="black"/>
<path d="M178.699 246.924C179.239 246.924 179.494 247.268 179.494 247.479V251.298H177.903V247.479C177.903 247.268 178.158 246.924 178.699 246.924Z" fill="white" stroke="black"/>
<path d="M183.785 246.924C184.326 246.924 184.581 247.268 184.581 247.479V251.298H182.99V247.479C182.99 247.268 183.245 246.924 183.785 246.924Z" fill="white" stroke="black"/>
<path d="M155.712 117.353C173.958 117.353 190.632 128.032 202.765 144.397C214.896 160.758 222.444 182.753 222.444 205.249C222.444 211.936 221.803 218.437 220.523 224.617H91.5753C90.3395 218.435 89.6987 211.935 89.6987 205.249C89.6987 182.75 97.057 160.754 109.002 144.394C120.949 128.031 137.443 117.353 155.712 117.353Z" fill="white" stroke="black"/>
<path d="M128.709 229.005C127.18 218.286 126.282 204 126.22 185.114H164.952C164.89 204 163.993 218.286 162.463 229.005C160.947 239.629 158.814 246.714 156.283 251.299H134.89C132.358 246.714 130.225 239.629 128.709 229.005Z" fill="white" stroke="black"/>
<path d="M134.889 251.299C132.451 246.896 130.387 240.198 128.89 230.272H162.282C160.785 240.198 158.721 246.896 156.283 251.299H134.889Z" fill="white" stroke="black"/>
<path d="M140.163 246.924C140.704 246.924 140.959 247.268 140.959 247.48V251.299H139.368V247.48C139.368 247.268 139.623 246.924 140.163 246.924Z" fill="white" stroke="black"/>
<path d="M144.818 246.924C145.359 246.924 145.614 247.268 145.614 247.48V251.299H144.022V247.48C144.022 247.268 144.277 246.924 144.818 246.924Z" fill="white" stroke="black"/>
<path d="M149.905 246.924C150.446 246.924 150.701 247.268 150.701 247.48V251.299H149.109V247.48C149.109 247.268 149.364 246.924 149.905 246.924Z" fill="white" stroke="black"/>
<path d="M192.285 251.299C188.321 244.106 185.324 230.764 184.167 207.333H221.796C220.639 230.768 217.687 244.108 213.679 251.299H192.285Z" fill="white" stroke="black"/>
<path d="M192.333 251.299C189.895 246.896 187.83 240.198 186.333 230.272H219.726C218.229 240.198 216.164 246.896 213.726 251.299H192.333Z" fill="white" stroke="black"/>
<path d="M197.558 246.924C198.099 246.924 198.354 247.268 198.354 247.479V251.298H196.762V247.479C196.762 247.268 197.017 246.924 197.558 246.924Z" fill="white" stroke="black"/>
<path d="M202.213 246.924C202.754 246.924 203.009 247.268 203.009 247.479V251.298H201.417V247.479C201.417 247.268 201.672 246.924 202.213 246.924Z" fill="white" stroke="black"/>
<path d="M207.3 246.924C207.84 246.924 208.095 247.268 208.095 247.479V251.298H206.504V247.479C206.504 247.268 206.759 246.924 207.3 246.924Z" fill="white" stroke="black"/>
<path d="M155.713 195.327L155.713 195.328C125.57 222.466 80.3469 221.247 54.682 192.725C29.0174 164.204 32.612 119.073 62.7547 91.983L62.755 91.9827C92.8976 64.8448 138.121 66.0631 163.786 94.5849C189.45 123.107 185.903 168.189 155.713 195.327Z" fill="white" stroke="black"/>
<path d="M52.9561 187.998L52.957 187.999C61.5877 191.804 65.1827 202.616 60.9554 212.198C56.7294 221.777 46.254 226.353 37.6689 222.548C29.0839 218.743 25.4431 207.929 29.6697 198.349C33.8957 188.77 44.371 184.193 52.9561 187.998Z" fill="white" stroke="black"/>
<path d="M38.3726 219.469C38.5129 219.515 38.5729 219.53 38.6182 219.53C38.8495 219.53 39.056 219.409 39.169 219.155L38.3726 219.469ZM38.3726 219.469C38.0872 219.327 37.9479 218.991 38.0701 218.691L52.0784 187.124M38.3726 219.469L52.0784 187.124M52.0784 187.124C52.0787 187.124 52.079 187.123 52.0792 187.122C52.2154 186.825 52.5575 186.677 52.8633 186.8M52.0784 187.124L52.8633 186.8M52.8633 186.8C53.1577 186.938 53.3032 187.28 53.1791 187.584L39.1691 219.155L52.8633 186.8Z" fill="white" stroke="black"/>
<path d="M113.75 42.9442L86.0847 39.0245L92.6934 1.5597L113.75 42.9442Z" fill="white" stroke="black"/>
<path d="M124.115 47.7634L97.8795 38.045L119.05 5.92417L124.115 47.7634Z" fill="white" stroke="black"/>
<path d="M133.769 54.961L109.525 41.0613L138.874 17.9558L133.769 54.961Z" fill="white" stroke="black"/>
<path d="M156.73 72.8175L156.715 72.8399L156.704 72.8638C156.694 72.883 156.683 72.9026 156.672 72.9229L121.369 45.788C121.398 45.741 121.429 45.6952 121.463 45.6497L121.474 45.6351L121.484 45.6197C130.706 31.2505 141.93 24.1747 150.837 20.687C155.292 18.9422 159.171 18.0944 161.931 17.6829C163.311 17.4772 164.411 17.3805 165.164 17.3353C165.497 17.3153 165.762 17.3054 165.952 17.3005C166.014 17.5022 166.099 17.7909 166.2 18.1616C166.417 18.9564 166.707 20.1276 166.999 21.6246C167.581 24.6191 168.168 28.9152 168.18 34.1094C168.204 44.4962 165.929 58.4698 156.73 72.8175Z" fill="white" stroke="black"/>
<path d="M155.585 33.525C155.611 33.6106 155.64 33.7117 155.671 33.8276C155.79 34.2598 155.95 34.8985 156.11 35.7162C156.431 37.3519 156.756 39.7013 156.765 42.5439C156.782 48.195 155.554 55.7912 150.577 63.613L131.506 48.964C136.521 41.1395 142.639 37.2826 147.495 35.3775C149.933 34.4215 152.055 33.9562 153.564 33.7299C154.318 33.6168 154.919 33.5635 155.328 33.5384C155.425 33.5325 155.511 33.5282 155.585 33.525Z" fill="white" stroke="black"/>
<path d="M87.7741 37.8636L55.3327 55.3932C49.6796 42.4324 49.6576 30.69 51.0483 22.1857C51.7442 17.9299 52.7938 14.4862 53.668 12.1092C54.105 10.9209 54.498 9.99969 54.7807 9.37761C54.8973 9.1211 54.9951 8.91549 55.0694 8.76299C55.2182 8.7915 55.4122 8.83091 55.6477 8.88344C56.258 9.01953 57.147 9.24358 58.2514 9.59384C60.4605 10.2945 63.5295 11.4994 66.9535 13.514C73.797 17.5407 82.0687 24.8071 87.732 37.7756L87.7372 37.7875L87.743 37.7991C87.7542 37.8214 87.7645 37.8428 87.7741 37.8636Z" fill="white" stroke="black"/>
<path d="M61.372 23.533C61.4016 23.468 61.4288 23.4091 61.4536 23.3563C61.4971 23.3655 61.5445 23.3758 61.5954 23.3872C61.9253 23.4609 62.4081 23.5828 63.009 23.7737C64.2111 24.1556 65.8839 24.8132 67.7513 25.913C71.4559 28.0949 75.9362 32.0228 79.0301 39.0214L61.5654 48.4852C58.5816 41.4734 58.5803 35.1369 59.3326 30.5357C59.7136 28.2055 60.2878 26.3213 60.7653 25.0226C61.004 24.3734 61.2184 23.8711 61.372 23.533ZM79.1526 39.2937C79.1526 39.2936 79.1525 39.2933 79.1523 39.2927L79.1526 39.2937Z" fill="white" stroke="black"/>
<path d="M178.491 137.419L178.986 137.489L178.491 137.419C171.571 186.334 126.33 220.36 77.415 213.44C28.4997 206.52 -5.52621 161.28 1.39352 112.364C8.31324 63.4491 53.5537 29.4233 102.469 36.3429C151.385 43.3106 185.41 88.5516 178.491 137.419Z" fill="white" stroke="black"/>
<path d="M75.4914 94.6508C63.8191 117.239 46.4638 144.098 23.5422 161.886L22.8126 160.948C45.6402 143.243 62.8839 116.496 74.4603 94.072C85.1213 73.4207 90.9974 56.3918 92.0116 53.3693L93.1294 53.7332C93.0863 53.8642 93.0339 54.0217 92.9722 54.2049C92.7777 54.7832 92.4915 55.6163 92.1138 56.6776C91.3584 58.8002 90.2375 61.8348 88.7527 65.5685C85.7828 73.0362 81.358 83.298 75.4914 94.6508Z" fill="white" stroke="black"/>
<path d="M143.306 178.032L142.378 178.728C125.303 155.29 117.114 124.808 113.206 100.003C111.242 87.5356 110.362 76.5165 109.976 68.5701C109.783 64.5971 109.713 61.393 109.693 59.1608C109.683 58.0447 109.686 57.1718 109.692 56.5675C109.693 56.3794 109.695 56.2174 109.698 56.0823L110.863 56.1082C110.83 59.2599 110.788 77.1215 114.342 99.7867C118.2 124.39 126.303 154.714 143.306 178.032Z" fill="white" stroke="black"/>
<path d="M77.415 213.44L77.4142 213.44C49.015 209.451 25.6247 192.465 12.3702 169.394C31.4936 150.908 58.6644 141.097 87.064 145.134C115.464 149.171 138.855 166.11 152.109 189.18C132.985 207.666 105.815 217.477 77.415 213.44Z" fill="white" stroke="black"/>
<path d="M93.8373 52.1423C93.3957 55.2778 90.4799 57.4849 87.3478 57.0437C84.2123 56.6021 82.0052 53.6863 82.4464 50.5542C82.888 47.4187 85.8038 45.2116 88.9359 45.6528C92.0713 46.0944 94.2784 49.0102 93.8373 52.1423Z" fill="white" stroke="black"/>
<path d="M118.6 55.6456C118.158 58.781 115.242 60.9881 112.11 60.547C108.975 60.1053 106.767 57.1895 107.209 54.0574C107.65 50.922 110.566 48.7149 113.698 49.156C116.834 49.5976 119.041 52.5134 118.6 55.6456Z" fill="white" stroke="black"/>
<path d="M110.299 157.238C109.664 161.701 107.847 165.478 103.982 167.847C100.094 170.231 94.0404 171.25 84.8058 169.962C75.5711 168.65 70.0314 165.989 66.9531 162.616C63.8929 159.262 63.1933 155.123 63.8275 150.66C64.4618 146.197 66.2791 142.42 70.1443 140.05C74.0327 137.666 80.086 136.647 89.3208 137.936C98.5553 139.248 104.095 141.908 107.173 145.282C110.233 148.635 110.933 152.775 110.299 157.238Z" fill="white" stroke="black"/>
<path d="M95.4304 42.2183L95.421 42.2166L95.4116 42.2153L82.6533 40.3927C82.3991 40.3479 82.1842 40.1132 82.2093 39.6967C82.2798 39.2935 82.5921 39.138 82.7743 39.1711L82.7837 39.1728L82.7931 39.1742L95.5514 40.9968C95.8057 41.0416 96.0205 41.2763 95.9955 41.6928C95.9249 42.096 95.6126 42.2515 95.4304 42.2183Z" fill="white" stroke="black"/>
<path d="M108.592 42.8663L108.602 42.868L108.611 42.8693L121.369 44.6919C121.623 44.7366 121.837 44.97 121.814 45.3841C121.747 45.7163 121.445 45.9226 121.214 45.9082L108.471 44.0878C108.217 44.043 108.002 43.8083 108.027 43.3918C108.098 42.9887 108.41 42.8331 108.592 42.8663Z" fill="white" stroke="black"/>
<path d="M195.57 144.015C195.57 146.522 193.539 148.554 191.032 148.554C188.524 148.554 186.493 146.522 186.493 144.015C186.493 141.508 188.524 139.476 191.032 139.476C193.539 139.476 195.57 141.508 195.57 144.015Z" fill="white" stroke="black"/>
<path d="M205.696 157.692C205.696 160.103 203.712 162.087 201.301 162.087C198.89 162.087 196.906 160.103 196.906 157.692C196.906 155.281 198.89 153.297 201.301 153.297C203.712 153.297 205.696 155.281 205.696 157.692Z" fill="white" stroke="black"/>
<path d="M212.558 168.346C212.558 170.037 211.199 171.397 209.507 171.397C207.816 171.397 206.456 170.037 206.456 168.346C206.456 166.654 207.816 165.294 209.507 165.294C211.199 165.294 212.558 166.654 212.558 168.346Z" fill="white" stroke="black"/>
<path d="M192.499 158.844C192.499 160.679 191.043 162.135 189.208 162.135C187.372 162.135 185.917 160.679 185.917 158.844C185.917 157.008 187.372 155.553 189.208 155.553C191.039 155.553 192.499 157.052 192.499 158.844Z" fill="white" stroke="black"/>
<path d="M201.425 169.209C201.425 170.666 200.252 171.877 198.758 171.877C197.301 171.877 196.09 170.704 196.09 169.209C196.09 167.753 197.263 166.542 198.758 166.542C200.209 166.542 201.425 167.758 201.425 169.209Z" fill="white" stroke="black"/>
<path d="M212.127 179.767C212.127 180.355 211.631 180.851 211.043 180.851C210.455 180.851 209.959 180.355 209.959 179.767C209.959 179.179 210.455 178.683 211.043 178.683C211.669 178.683 212.127 179.169 212.127 179.767Z" fill="white" stroke="black"/>
<path d="M191.156 173.144C191.156 173.732 190.66 174.228 190.072 174.228C189.484 174.228 188.988 173.732 188.988 173.144C188.988 172.557 189.484 172.061 190.072 172.061C190.66 172.061 191.156 172.557 191.156 173.144Z" fill="white" stroke="black"/>
<path d="M61.5848 55.2834C61.5848 58.1745 59.2172 60.5421 56.3261 60.5421C53.4349 60.5421 51.0674 58.1745 51.0674 55.2834C51.0674 52.3922 53.4349 50.0247 56.3261 50.0247C59.2172 50.0247 61.5848 52.3922 61.5848 55.2834Z" fill="white" stroke="black"/>
<path d="M147.629 66.3208C147.629 69.212 145.262 71.5795 142.371 71.5795C139.479 71.5795 137.112 69.212 137.112 66.3208C137.112 63.4297 139.479 61.0622 142.371 61.0622C145.262 61.0622 147.629 63.4297 147.629 66.3208Z" fill="white" stroke="black"/>
<path d="M158.666 81.7254C158.666 83.8487 156.971 85.5444 154.847 85.5444C152.724 85.5444 151.028 83.8487 151.028 81.7254C151.028 79.6021 152.724 77.9064 154.847 77.9064C156.971 77.9064 158.666 79.6021 158.666 81.7254Z" fill="white" stroke="black"/>
<path d="M144.75 82.9251C144.75 84.5205 143.486 85.7843 141.89 85.7843C140.295 85.7843 139.031 84.5205 139.031 82.9251C139.031 81.3297 140.295 80.0659 141.89 80.0659C143.486 80.0659 144.75 81.3297 144.75 82.9251Z" fill="white" stroke="black"/>
<path d="M156.747 99.5293C156.747 101.125 155.483 102.389 153.888 102.389C152.292 102.389 151.028 101.125 151.028 99.5293C151.028 97.9339 152.292 96.6701 153.888 96.6701C155.483 96.6701 156.747 97.9339 156.747 99.5293Z" fill="white" stroke="black"/>
<path d="M169.032 102.409C169.032 103.332 168.296 104.068 167.373 104.068C166.449 104.068 165.713 103.332 165.713 102.409C165.713 101.485 166.449 100.749 167.373 100.749C168.296 100.749 169.032 101.485 169.032 102.409Z" fill="white" stroke="black"/>
<path d="M61.605 66.389V66.3891L61.6172 66.3888C63.2924 66.348 64.7042 67.7418 64.7042 69.4881C64.7042 71.2232 63.3008 72.5873 61.605 72.5873C59.9136 72.5873 58.5059 71.1796 58.5059 69.4881C58.5059 67.7967 59.9136 66.389 61.605 66.389Z" fill="white" stroke="black"/>
<path d="M47.6202 69.9681C47.6202 71.7031 46.2168 73.0673 44.5211 73.0673C42.8296 73.0673 41.4219 71.6595 41.4219 69.9681C41.4219 68.2767 42.8296 66.8689 44.5211 66.8689C46.2168 66.8689 47.6202 68.233 47.6202 69.9681Z" fill="white" stroke="black"/>
<path d="M31.3038 78.3661C31.3038 79.4337 30.4719 80.2656 29.4043 80.2656C28.3368 80.2656 27.5049 79.4337 27.5049 78.3661C27.5049 77.2986 28.3368 76.4667 29.4043 76.4667C30.4304 76.4667 31.3038 77.3051 31.3038 78.3661Z" fill="white" stroke="black"/>
</svg>
