<svg width="252" height="252" viewBox="0 0 252 252" fill="none" xmlns="http://www.w3.org/2000/svg">
<path d="M184.264 100.975L183.518 101.781L184.615 101.815C203.304 102.394 219.941 105.291 231.888 109.623C237.864 111.79 242.64 114.305 245.912 117.048C249.187 119.792 250.9 122.713 250.9 125.7C250.9 128.687 249.187 131.608 245.912 134.352C242.64 137.095 237.864 139.61 231.888 141.777C219.941 146.109 203.304 149.006 184.615 149.585L183.518 149.619L184.264 150.425C197.014 164.189 206.705 178.009 212.083 189.488C214.774 195.23 216.372 200.359 216.751 204.588C217.13 208.82 216.282 212.075 214.178 214.178L214.173 214.184C212.143 216.281 208.931 217.13 204.711 216.751C200.495 216.373 195.356 214.774 189.596 212.083C178.081 206.704 164.189 197.014 150.425 184.264L149.62 183.518L149.585 184.615C149.006 203.304 146.109 219.941 141.777 231.888C139.61 237.864 137.095 242.64 134.352 245.912C131.608 249.187 128.687 250.9 125.7 250.9C122.788 250.9 119.922 249.208 117.212 245.954C114.505 242.704 112.007 237.955 109.84 231.997C105.509 220.084 102.539 203.446 101.814 184.612L101.773 183.525L100.975 184.264C87.2106 197.014 73.3911 206.705 61.9121 212.083C56.1704 214.774 51.0406 216.372 46.8117 216.751C42.5796 217.13 39.3253 216.282 37.2218 214.178L37.2159 214.173C35.1192 212.143 34.2703 208.931 34.6491 204.711C35.0275 200.495 36.6265 195.356 39.317 189.596C44.6957 178.081 54.3864 164.189 67.1358 150.425L67.882 149.619L66.7845 149.585C48.0961 149.006 31.4593 146.109 19.5117 141.777C13.5356 139.61 8.75984 137.095 5.4876 134.352C2.21257 131.608 0.5 128.687 0.5 125.7C0.5 122.788 2.19199 119.922 5.4456 117.212C8.69561 114.505 13.4447 112.007 19.4033 109.84C31.3156 105.509 47.9535 102.539 66.7883 101.814L67.8747 101.773L67.1358 100.975C54.3857 87.2106 44.6953 73.3911 39.3167 61.9121C36.6264 56.1704 35.0275 51.0406 34.6491 46.8117C34.2705 42.5796 35.1181 39.3253 37.2217 37.2217L37.2218 37.2217L37.2275 37.2158C39.2565 35.1191 42.4689 34.2703 46.6891 34.6491C50.9046 35.0275 56.0436 36.6265 61.8038 39.317C73.3194 44.6957 87.2113 54.3864 100.975 67.1358L101.78 67.882L101.815 66.7845C102.394 48.0961 105.291 31.4593 109.623 19.5117C111.789 13.5356 114.305 8.75984 117.048 5.4876C119.792 2.21257 122.713 0.5 125.7 0.5C128.612 0.5 131.478 2.19199 134.188 5.4456C136.895 8.69561 139.393 13.4447 141.559 19.4033C145.891 31.3156 148.861 47.9535 149.586 66.7883L149.627 67.8747L150.425 67.1358C164.189 54.3857 178.009 44.6952 189.488 39.3167C195.23 36.6264 200.359 35.0275 204.588 34.6491C208.82 34.2704 212.075 35.118 214.178 37.2217L214.184 37.2274C216.281 39.2565 217.13 42.4689 216.751 46.6891C216.372 50.9046 214.774 56.0436 212.083 61.8038C206.704 73.3194 197.014 87.2114 184.264 100.975Z" fill="white" stroke="black"/>
<path d="M174.617 105.813C185.737 133.011 172.702 164.074 145.503 175.193C118.305 186.312 87.2425 173.277 76.1234 146.079C65.0042 118.88 78.039 87.8179 105.237 76.6987C132.436 65.5796 163.498 78.6144 174.617 105.813Z" fill="white" stroke="black"/>
<path d="M154.196 97.1327C170.099 113.036 170.099 138.82 154.196 154.723C138.293 170.626 112.509 170.626 96.6056 154.723C80.7026 138.82 80.7026 113.036 96.6056 97.1326C112.509 81.2296 138.292 81.2296 154.196 97.1327Z" fill="white" stroke="black"/>
<path d="M142.906 108.423C152.574 118.09 152.574 133.765 142.906 143.433C133.239 153.1 117.564 153.1 107.896 143.433C98.2285 133.765 98.2285 118.09 107.896 108.423C117.564 98.7548 133.239 98.7548 142.906 108.423Z" fill="white" stroke="black"/>
</svg>
