<svg width="269" height="39" viewBox="0 0 269 39" fill="none" xmlns="http://www.w3.org/2000/svg">
<rect x="0.5" y="0.5" width="268" height="38" rx="15.5" fill="#071292" stroke="#6CCEFF"/>
<path d="M90.5156 21.7891H92.7891C92.8984 22.7188 93.8672 23.3281 95.1172 23.3281C96.375 23.3281 97.2344 22.7266 97.2344 21.8984C97.2344 21.1641 96.6953 20.7578 95.3359 20.4531L93.8672 20.1328C91.7891 19.6875 90.7656 18.6328 90.7656 16.9844C90.7656 14.9062 92.5625 13.5312 95.0781 13.5312C97.7031 13.5312 99.3516 14.8828 99.3906 16.9219H97.1797C97.1016 15.9688 96.2656 15.3906 95.0859 15.3906C93.9219 15.3906 93.1406 15.9453 93.1406 16.7812C93.1406 17.4766 93.6875 17.8672 94.9844 18.1641L96.3516 18.4531C98.6094 18.9375 99.5938 19.9062 99.5938 21.625C99.5938 23.8125 97.8203 25.1953 95.0234 25.1953C92.3125 25.1953 90.5859 23.9062 90.5156 21.7891ZM100.906 25V13.7266H103.188V25H100.906ZM108.484 18.1328C107.484 18.1328 106.766 18.8906 106.688 19.9375H110.242C110.195 18.8672 109.5 18.1328 108.484 18.1328ZM110.273 22.4375H112.367C112.117 24.0781 110.617 25.1797 108.547 25.1797C105.969 25.1797 104.422 23.5312 104.422 20.8516C104.422 18.1797 105.984 16.4453 108.461 16.4453C110.898 16.4453 112.438 18.0938 112.438 20.6406V21.3359H106.664V21.4766C106.664 22.6719 107.422 23.4922 108.586 23.4922C109.422 23.4922 110.062 23.0781 110.273 22.4375ZM117.375 18.1328C116.375 18.1328 115.656 18.8906 115.578 19.9375H119.133C119.086 18.8672 118.391 18.1328 117.375 18.1328ZM119.164 22.4375H121.258C121.008 24.0781 119.508 25.1797 117.438 25.1797C114.859 25.1797 113.312 23.5312 113.312 20.8516C113.312 18.1797 114.875 16.4453 117.352 16.4453C119.789 16.4453 121.328 18.0938 121.328 20.6406V21.3359H115.555V21.4766C115.555 22.6719 116.312 23.4922 117.477 23.4922C118.312 23.4922 118.953 23.0781 119.164 22.4375ZM127.398 16.4922C129.523 16.4922 130.828 18.1094 130.828 20.8125C130.828 23.5078 129.531 25.1328 127.438 25.1328C126.219 25.1328 125.281 24.5391 124.836 23.5938H124.789V27.7344H122.508V16.625H124.758V18.0859H124.805C125.258 17.1016 126.188 16.4922 127.398 16.4922ZM126.633 23.2969C127.773 23.2969 128.492 22.3359 128.492 20.8125C128.492 19.2969 127.773 18.3203 126.633 18.3203C125.516 18.3203 124.781 19.3125 124.781 20.8125C124.781 22.3281 125.516 23.2969 126.633 23.2969Z" fill="white"/>
<circle cx="250" cy="20" r="9.5" fill="white" stroke="#6CCEFF"/>
<rect x="8" y="1" width="39" height="37" rx="9" fill="#071292"/>
<g clip-path="url(#clip0_1_5805)">
<path d="M39.3262 18.1443L40.2132 19.3569C40.3156 19.4304 41.032 19.3201 41.1002 19.1732C41.2708 18.8792 41.339 18.5117 41.2367 18.1443C41.1002 17.5931 40.9638 17.1889 41.1343 16.454C41.2708 15.8293 40.9638 15.4619 40.5203 16.1968L39.3262 18.1443Z" fill="#F4BA7C"/>
<path d="M40.0427 18.3281L40.8273 19.6142C40.9297 19.7245 41.6461 19.6142 41.7484 19.504C41.9531 19.2468 42.0213 18.8793 41.9531 18.5119C41.8508 17.9607 41.7484 17.5565 41.9531 16.8216C42.1237 16.1969 41.8508 15.8295 41.3732 16.4909L40.0427 18.3281Z" fill="#FECE92"/>
<path d="M19.9829 18.5486C19.6418 18.3649 19.2665 18.2546 18.8912 18.2546H17.1172H15.3433C14.968 18.2546 14.5927 18.3649 14.2516 18.5486L13.5352 18.9528L14.2516 19.357C14.5927 19.5407 14.968 19.651 15.3433 19.651H17.1172H18.8912C19.2665 19.651 19.6418 19.5407 19.9829 19.357L20.6993 18.9528L19.9829 18.5486Z" fill="#DFC8C2"/>
<path d="M19.9147 16.895L21.2452 16.7481L21.9958 16.6746V18.3281L20.5288 18.1811L19.9147 18.1076V16.895Z" fill="#FCC083"/>
<path d="M19.9147 18.1076L21.1429 18.2179C21.2793 17.8872 21.2452 16.748 21.2452 16.748L19.9147 16.895V18.1076Z" fill="#E8AA63"/>
<path d="M18.7207 18.622C19.7782 18.8057 20.7335 18.1075 20.8358 17.1154C20.9723 16.1233 20.1876 15.3149 19.1642 15.0944C18.6524 14.9842 18.0384 14.9107 17.7313 14.8372C17.0149 14.6535 17.1514 15.6823 17.049 16.5275C16.9467 17.5196 17.6631 18.475 18.7207 18.622Z" fill="#FCC083"/>
<path d="M16.5373 14.3595C16.5373 14.3595 19.1642 13.8818 17.7313 17.5196C17.7313 17.5196 19.3689 18.0341 19.6418 18.769C19.6418 18.769 16.8785 19.8346 16.5714 18.1076C16.5714 18.1076 15.4797 17.4094 16.2644 16.0498C16.6738 15.3884 16.6738 15.0577 16.5373 14.3595Z" fill="#3C3C3C"/>
<path d="M21.9957 19.1731C21.6546 18.9158 21.4158 18.5851 21.3134 18.2544C21.4499 18.0707 21.5863 17.6665 21.5863 17.3725C21.5863 17.0786 21.5181 16.8581 21.4158 16.6744C21.6546 16.1232 22.2345 15.9762 22.9509 15.719C23.1556 15.6455 26.4989 15.6455 26.4989 15.6455L26.3966 19.5405C26.3625 19.5405 22.4733 19.5773 21.9957 19.1731Z" fill="#FCEBCC"/>
<path d="M41.8167 21.3413H14.0469C13.7058 21.3413 13.467 21.0473 13.467 20.6799V20.3492C13.467 19.9817 13.7399 19.6877 14.0469 19.6877H41.8167C42.1578 19.6877 42.3966 19.9817 42.3966 20.3492V20.6799C42.3966 21.0473 42.1578 21.3413 41.8167 21.3413Z" fill="#F0D8BF"/>
<path d="M42.4307 21.3413H13.0917V23.4358H42.4307V21.3413Z" fill="#AB5228"/>
<path d="M44 15.168H42.3966V27H44V15.168Z" fill="#8C3923"/>
<path d="M13.6034 13H12V27H13.6034V13Z" fill="#8C3923"/>
<path d="M29.0235 15.0209C27.8636 14.8739 25.6461 14.6902 24.2132 15.2414H24.1791C23.1557 15.6456 22.5416 16.7847 22.6781 17.9973L23.6674 26.412H41.4755V19.6508C41.4755 18.9159 41.2026 18.2177 40.725 17.7033C40.725 17.7033 40.725 17.7033 40.6908 17.7033C40.3497 17.3359 39.9062 17.1154 39.4627 17.0419C36.1194 16.454 34.7548 15.9763 29.0235 15.0209Z" fill="#61C2CB"/>
<path opacity="0.45" d="M40.7249 17.7034C40.6908 17.6666 40.6567 17.6299 40.6226 17.6299C35.8465 21.7454 28.3412 20.4225 22.7122 18.0708L23.6674 26.4488H41.4755V19.6509C41.4755 18.916 41.2026 18.2178 40.7249 17.7034Z" fill="#61C2CB"/>
</g>
<defs>
<clipPath id="clip0_1_5805">
<rect width="32" height="14" fill="white" transform="translate(12 13)"/>
</clipPath>
</defs>
</svg>
