<svg width="26" height="25" viewBox="0 0 26 25" fill="none" xmlns="http://www.w3.org/2000/svg">
<path d="M23.1791 20.3765L20.3242 20.5746L19.7804 23.2827L17.0614 22.5231L15.6 24.9009L13.2889 23.2497L11.0797 25L9.48235 22.6882L6.79739 23.6129L6.11765 20.9049L3.26275 20.8719L3.56863 18.0978L0.88366 17.14L2.17516 14.6301L0 12.8137L2.0732 10.8983L0.679739 8.48745L3.29673 7.3646L2.82092 4.62351L5.67582 4.45839L6.21961 1.71731L8.97255 2.50991L10.434 0.0990753L12.7111 1.75033L14.9542 0L16.5176 2.31176L19.2366 1.38705L19.9163 4.09511L22.7712 4.12814L22.4314 6.90225L25.1163 7.85997L23.8588 10.3699L26 12.1863L23.9608 14.1017L25.3542 16.5126L22.7373 17.6354L23.1791 20.3765Z" fill="url(#paint0_linear_1_4307)"/>
<path d="M3.36475 12.5165C3.36475 17.7014 7.68109 21.8626 12.983 21.8626C18.319 21.8626 22.6013 17.6684 22.6013 12.5165C22.6013 7.33152 18.285 3.17036 12.983 3.17036C7.68109 3.13733 3.36475 7.33152 3.36475 12.5165Z" fill="url(#paint1_radial_1_4307)"/>
<path d="M14.4785 11.5259C12.0314 9.57737 11.0798 6.63814 12.3373 4.95386C13.5948 3.26958 16.6196 3.4347 19.1007 5.38318C21.5477 7.33166 22.4994 10.2709 21.2419 11.9552C19.9504 13.6725 16.9255 13.4743 14.4785 11.5259Z" fill="url(#paint2_radial_1_4307)"/>
<path opacity="0.4" d="M4.48629 14.5642C4.82616 13.5404 6.45754 13.9697 8.19087 15.5219C9.89022 17.0741 11.0458 19.1877 10.7059 20.2445C10.366 21.2683 8.73466 20.8389 7.00133 19.2868C5.30198 17.7016 4.18041 15.621 4.48629 14.5642Z" fill="url(#paint3_radial_1_4307)"/>
<defs>
<linearGradient id="paint0_linear_1_4307" x1="24.8644" y1="-0.374833" x2="2.73179" y2="25.078" gradientUnits="userSpaceOnUse">
<stop stop-color="#FFBA24"/>
<stop offset="1" stop-color="#FF5500"/>
</linearGradient>
<radialGradient id="paint1_radial_1_4307" cx="0" cy="0" r="1" gradientUnits="userSpaceOnUse" gradientTransform="translate(15.209 6.63284) rotate(180) scale(18.2873 17.7697)">
<stop stop-color="#FFF4C3"/>
<stop offset="0.1559" stop-color="#FFE036"/>
<stop offset="1" stop-color="#FA761C"/>
</radialGradient>
<radialGradient id="paint2_radial_1_4307" cx="0" cy="0" r="1" gradientUnits="userSpaceOnUse" gradientTransform="translate(16.777 8.46145) rotate(126.82) scale(3.8439 5.65518)">
<stop stop-color="white"/>
<stop offset="1" stop-color="white" stop-opacity="0"/>
</radialGradient>
<radialGradient id="paint3_radial_1_4307" cx="0" cy="0" r="1" gradientUnits="userSpaceOnUse" gradientTransform="translate(7.59532 17.4038) rotate(-137.61) scale(4.20225 1.78093)">
<stop stop-color="white"/>
<stop offset="1" stop-color="white" stop-opacity="0"/>
</radialGradient>
</defs>
</svg>
