<svg width="210" height="246" viewBox="0 0 210 246" fill="none" xmlns="http://www.w3.org/2000/svg">
<rect x="0.691829" y="12.5233" width="194.693" height="232.587" rx="16.3333" transform="rotate(-3.48398 0.691829 12.5233)" fill="white" stroke="#6CCEFF" stroke-width="1.30667"/>
<path d="M36.9405 161.539L36.9419 161.54C38.4621 162.42 40.1143 162.79 41.608 162.782C42.8239 162.775 43.9722 162.516 44.8711 162.04L45.6775 163.13C44.5492 163.777 43.11 164.113 41.5694 164.105C39.7719 164.097 37.8884 163.62 36.2931 162.687C35.3694 162.141 34.6049 161.512 33.9362 160.749C32.1645 158.724 31.2946 155.904 31.5221 152.606L32.8527 152.764C32.5643 156.661 33.9718 159.811 36.9405 161.539Z" fill="#684C30" stroke="black" stroke-width="1.30667"/>
<path d="M31.9761 152.573L32.3633 152.889L32.7697 152.598C33.8643 151.814 36.7307 149.601 38.3226 146.406L38.6356 146.542C36.6428 150.513 32.8341 152.966 32.4631 153.205C32.4584 153.208 32.4543 153.211 32.4508 153.213L32.3687 153.263L32.3002 153.215C32.2765 153.196 32.2452 153.171 32.2069 153.141C31.8273 152.844 30.7615 152.008 29.5975 150.696C28.4692 149.398 27.2977 147.671 26.7129 145.698L27.0215 145.63C27.4902 147.258 28.3784 148.692 29.2834 149.836C30.3079 151.131 31.3816 152.088 31.9761 152.573Z" fill="#684C30" stroke="black" stroke-width="1.30667"/>
<path d="M32.8044 151.081C33.739 148.858 35.2349 144.827 35.328 141.387L35.6612 141.378C35.6033 143.779 34.8771 146.473 34.0967 148.696C33.2494 151.11 32.3648 152.895 32.3023 153.015L32.3022 153.015L32.2966 153.027L32.1425 153.338L32.0026 153.027L32.0027 153.027L31.9977 153.016C31.9472 152.91 31.2445 151.34 30.6168 149.107C30.0383 147.049 29.536 144.472 29.6421 141.974L29.9649 142.004C29.8326 145.4 30.8529 148.978 31.5863 151.046L32.1503 152.637L32.8044 151.081Z" fill="#684C30" stroke="black" stroke-width="1.30667"/>
<path d="M112.572 209.929L106.659 188.964L141.55 186.839L134.621 208.586L112.572 209.929Z" fill="#684C30" stroke="black" stroke-width="1.30667"/>
<path d="M64.729 212.842L58.8156 191.877L93.7651 189.749L88.2723 211.408L64.729 212.842Z" fill="#684C30" stroke="black" stroke-width="1.30667"/>
<path d="M42.5947 176.944C40.8463 148.227 62.0941 123.608 90.0029 121.909C117.912 120.21 141.989 142.07 143.738 170.787C144.343 180.728 142.19 190.192 137.944 198.374L51.693 203.625C46.5112 196.016 43.2015 186.911 42.5947 176.944Z" fill="#FB9902" stroke="black" stroke-width="1.30667"/>
<path d="M110.471 179.255C85.5445 176.976 65.5638 162.115 59.1923 140.804L158.914 163.104C147.173 174.936 129.595 181 110.471 179.255Z" fill="#684C30" stroke="black" stroke-width="1.30667"/>
<path d="M99.3526 210.733L93.2043 189.783L130.103 187.536L126.515 209.08L99.3526 210.733Z" fill="#FB9902" stroke="black" stroke-width="1.30667"/>
<path d="M99.3527 210.734L98.2559 206.994L127.15 205.235L126.515 209.081L99.3527 210.734Z" fill="white" stroke="black" stroke-width="1.30667"/>
<path d="M54.474 213.466L48.3518 192.514L84.9485 190.285L81.4133 211.826L54.474 213.466Z" fill="#FB9902" stroke="black" stroke-width="1.30667"/>
<path d="M54.4732 213.467L53.3764 209.726L82.0484 207.981L81.4135 211.827L54.4732 213.467Z" fill="white" stroke="black" stroke-width="1.30667"/>
<path d="M92.6318 47.947C89.2995 41.5878 90.8624 34.0424 95.8442 30.5637L108.271 54.3788C102.823 56.9465 95.9697 54.3167 92.6318 47.947Z" fill="#FB9902" stroke="black" stroke-width="1.30667"/>
<path d="M136.432 57.3599L151.655 38.7059C155.449 42.4506 155.521 49.1467 151.463 54.1145C147.374 59.0879 140.807 60.3401 136.432 57.3599Z" fill="#FB9902" stroke="black" stroke-width="1.30667"/>
<path d="M111.554 171.905C77.7139 168.807 52.4716 144.084 55.4713 111.333C58.4842 78.4373 88.8776 48.4037 122.571 51.4881C156.265 54.5725 180.718 89.6221 177.705 122.517C174.706 155.269 145.394 175.002 111.554 171.905Z" fill="white" stroke="black" stroke-width="1.30667"/>
<path d="M184.848 137.844C184.832 137.995 184.815 138.155 184.796 138.323C184.627 139.811 184.324 141.918 183.791 144.388C182.722 149.333 180.732 155.697 177.055 161.442C173.382 167.18 168.038 172.283 160.249 174.763C152.59 177.202 142.484 177.129 129.149 172.504L142.928 145.747C153.882 153.574 164.653 151.313 172.652 147.09C176.722 144.941 180.092 142.279 182.443 140.158C183.431 139.267 184.24 138.47 184.848 137.844Z" fill="white" stroke="black" stroke-width="1.30667"/>
<path d="M97.0436 169.573C83.0863 171.706 73.1322 169.946 66.0399 166.16C58.8273 162.309 54.4964 156.322 51.9247 150.015C49.3496 143.699 48.5468 137.08 48.3923 132.023C48.3152 129.498 48.3999 127.371 48.5036 125.877C48.5152 125.709 48.5271 125.55 48.539 125.398C49.023 126.125 49.6742 127.056 50.4833 128.112C52.4096 130.626 55.2406 133.859 58.8522 136.711C65.9515 142.319 76.1336 146.496 88.3276 140.772L97.0436 169.573Z" fill="white" stroke="black" stroke-width="1.30667"/>
<path d="M142.774 143.496L142.562 143.618C134.68 129.659 130.33 111.835 127.951 97.3282C126.746 89.9838 126.049 83.5058 125.654 78.8351C125.456 76.5 125.333 74.6173 125.26 73.3048C125.226 72.6928 125.203 72.205 125.188 71.8532L125.413 71.8476C125.43 72.2013 125.455 72.6948 125.491 73.3156C125.567 74.6258 125.692 76.5029 125.891 78.8297C126.29 83.4827 126.987 89.9364 128.187 97.2522C130.552 111.673 134.881 129.506 142.774 143.496Z" fill="#684C30" stroke="black" stroke-width="1.30667"/>
<path d="M86.0561 138.328C96.3477 125.996 103.839 109.236 108.78 95.4796C113.123 83.3872 115.512 73.5642 116.103 71.0052L116.321 71.0529C116.242 71.3955 116.131 71.871 115.985 72.4671C115.675 73.743 115.211 75.5709 114.592 77.8302C113.352 82.3492 111.488 88.5915 108.968 95.5943C103.991 109.425 96.4774 126.163 86.2111 138.461L86.0561 138.328Z" fill="#684C30" stroke="black" stroke-width="1.30667"/>
<path d="M129.272 67.4303L129.273 67.4304C131.368 67.6107 132.908 69.4598 132.727 71.5655C132.547 73.6605 130.698 75.2004 128.592 75.0192C126.498 74.839 124.959 72.9922 125.138 70.8883C125.346 68.8063 127.205 67.2489 129.272 67.4303Z" fill="#684C30" stroke="black" stroke-width="1.30667"/>
<path d="M113.026 65.9445L113.027 65.9446C115.122 66.1249 116.662 67.974 116.481 70.0796C116.301 72.1746 114.452 73.7146 112.346 73.5333C110.252 73.3531 108.713 71.5064 108.892 69.4025C109.1 67.3204 110.959 65.7631 113.026 65.9445Z" fill="#684C30" stroke="black" stroke-width="1.30667"/>
<path d="M111.276 174.647C94.4436 173.096 82.0506 160.367 83.325 146.369C83.9805 139.344 88.0906 131.708 94.171 126.013C100.247 120.322 108.211 116.644 116.518 117.396C124.827 118.161 131.996 123.218 136.941 129.914C141.889 136.615 144.544 144.871 143.903 151.909C142.628 165.907 128.109 176.197 111.276 174.647Z" fill="#FB9902" stroke="black" stroke-width="1.30667"/>
<path d="M129.647 136.727L129.65 136.728C132.309 136.972 134.632 138.629 136.224 141.207C137.816 143.785 138.65 147.252 138.314 150.997C137.962 154.729 136.51 157.986 134.474 160.233C132.438 162.481 129.851 163.69 127.194 163.445C124.536 163.2 122.213 161.544 120.621 158.966C119.029 156.387 118.194 152.92 118.531 149.175C118.881 145.429 120.333 142.166 122.369 139.919C124.405 137.672 126.99 136.47 129.647 136.727Z" fill="#684C30" stroke="black" stroke-width="1.30667"/>
<path d="M98.0015 160.773C95.3433 160.528 93.0205 158.871 91.4284 156.293C89.8362 153.715 89.0019 150.248 89.3384 146.503C89.6887 142.757 91.1412 139.501 93.1771 137.257C95.2129 135.014 97.7996 133.81 100.458 134.055C103.116 134.3 105.439 135.956 107.031 138.535C108.623 141.113 109.458 144.58 109.121 148.325C108.77 152.057 107.318 155.313 105.281 157.561C103.245 159.808 100.659 161.017 98.0015 160.773Z" fill="#684C30" stroke="black" stroke-width="1.30667"/>
<path d="M150.706 82.0849L150.71 82.0853C153.817 82.3695 156.134 85.1464 155.851 88.2841C155.566 91.3901 152.79 93.7071 149.652 93.424C146.546 93.1396 144.229 90.3626 144.512 87.225C144.795 84.0892 147.573 81.7773 150.706 82.0849Z" fill="#F9BC02" stroke="black" stroke-width="1.30667"/>
<path d="M94.0621 83.2032C93.7776 86.3092 91.0008 88.6262 87.8633 88.3431C84.7574 88.0587 82.4404 85.282 82.7234 82.1445C83.0078 79.0385 85.7845 76.7214 88.922 77.0045C92.0281 77.2888 94.3452 80.0656 94.0621 83.2032Z" fill="#F9BC02" stroke="black" stroke-width="1.30667"/>
<path d="M133.639 60.5368L133.618 60.5512C133.612 60.5521 133.604 60.553 133.594 60.5536C133.564 60.5554 133.545 60.5496 133.534 60.5438C133.523 60.5383 133.509 60.5285 133.495 60.507L133.446 60.4298L133.419 60.4057C133.413 60.3977 133.405 60.3887 133.398 60.379C133.359 60.3314 133.305 60.2649 133.234 60.1855C133.094 60.0271 132.891 59.8164 132.631 59.5971C132.116 59.1627 131.343 58.6689 130.357 58.5137L130.357 58.5136L130.344 58.5119C128.999 58.327 127.627 58.7949 126.285 59.833L126.274 59.8421L126.262 59.8518C126.247 59.8643 126.232 59.8688 126.213 59.8665C126.194 59.8642 126.163 59.8531 126.134 59.816L126.127 59.8063L126.119 59.7968C126.106 59.7821 126.102 59.7669 126.104 59.7479C126.106 59.7286 126.117 59.6986 126.153 59.6697C127.641 58.5153 129.047 58.1119 130.4 58.3165C132.366 58.6196 133.523 60.1864 133.667 60.382C133.702 60.4347 133.688 60.5024 133.639 60.5368Z" fill="white" stroke="black" stroke-width="1.30667"/>
<path d="M117.813 59.109L117.793 59.1234C117.787 59.1244 117.778 59.1253 117.768 59.1259L117.768 59.1259C117.767 59.126 117.756 59.1268 117.731 59.1143C117.705 59.101 117.66 59.0702 117.606 59.0041L117.597 58.9919C117.586 58.9776 117.571 58.9582 117.552 58.9345C117.514 58.8871 117.46 58.8219 117.39 58.7442C117.251 58.5893 117.049 58.3817 116.79 58.165C116.277 57.7366 115.506 57.243 114.534 57.0864C113.169 56.8655 111.791 57.3756 110.46 58.4053L110.448 58.4144L110.437 58.4241C110.422 58.4366 110.407 58.441 110.388 58.4388C110.368 58.4364 110.338 58.4254 110.309 58.3883L110.301 58.3785L110.293 58.3691C110.281 58.3543 110.276 58.3392 110.278 58.3202C110.281 58.3009 110.292 58.2709 110.328 58.242C111.815 57.0875 113.222 56.6842 114.574 56.8887C116.541 57.1918 117.698 58.7587 117.842 58.9543C117.876 59.0069 117.862 59.0747 117.813 59.109Z" fill="white" stroke="black" stroke-width="1.30667"/>
<path d="M112.704 209.921L113.306 208.71L114.05 209.839L112.704 209.921Z" fill="white" stroke="black" stroke-width="1.30667"/>
<path d="M68.1651 212.633L68.7814 211.413L69.5307 212.55L68.1651 212.633Z" fill="white" stroke="black" stroke-width="1.30667"/>
<path d="M50.6957 174.156C49.172 174.249 47.8653 173.092 47.7725 171.569C47.6798 170.045 48.8365 168.738 50.3602 168.646C51.8838 168.553 53.1905 169.71 53.2833 171.233C53.3761 172.757 52.2193 174.064 50.6957 174.156Z" fill="#684C30" stroke="black" stroke-width="1.30667"/>
<path d="M138.576 186.241C137.745 186.291 137.026 185.655 136.976 184.824C136.925 183.993 137.562 183.274 138.393 183.223C139.224 183.173 139.943 183.809 139.993 184.64C140.044 185.471 139.407 186.19 138.576 186.241Z" fill="#684C30" stroke="black" stroke-width="1.30667"/>
<path d="M135.84 193.358C135.341 193.389 134.916 193.012 134.886 192.514C134.855 192.015 135.231 191.59 135.73 191.56C136.229 191.529 136.654 191.905 136.684 192.404C136.714 192.903 136.338 193.328 135.84 193.358Z" fill="#684C30" stroke="black" stroke-width="1.30667"/>
<path d="M50.4346 180.373C49.7697 180.414 49.1978 179.907 49.1573 179.242C49.1168 178.578 49.6231 178.006 50.288 177.965C50.9529 177.925 51.5248 178.431 51.5653 179.096C51.6058 179.761 51.0995 180.333 50.4346 180.373Z" fill="#684C30" stroke="black" stroke-width="1.30667"/>
</svg>
