<svg width="250" height="250" viewBox="0 0 250 250" fill="none" xmlns="http://www.w3.org/2000/svg">
<path d="M121.428 57.9341C121.428 89.6758 96.849 115.368 66.5768 115.368C36.3045 115.368 11.7256 89.6758 11.7256 57.9341C11.7256 26.1924 36.3045 0.5 66.5768 0.5C96.849 0.5 121.428 26.1924 121.428 57.9341Z" fill="white" stroke="black"/>
<path d="M232.429 57.9341C232.429 89.6758 207.85 115.368 177.578 115.368C147.306 115.368 122.727 89.6758 122.727 57.9341C122.727 26.1924 147.306 0.5 177.578 0.5C207.85 0.5 232.429 26.1924 232.429 57.9341Z" fill="white" stroke="black"/>
<path d="M79.0154 118.125C108.494 125.346 126.831 156.227 119.92 187.131C113.009 218.036 83.4835 237.191 54.0046 229.97C24.5257 222.748 6.18939 191.867 13.1002 160.963C20.011 130.059 49.5365 110.903 79.0154 118.125Z" fill="white" stroke="black"/>
<path d="M228.123 151.939C239.856 181.2 226.698 214.85 198.776 227.115C170.854 239.381 138.693 225.639 126.96 196.378C115.226 167.117 128.385 133.467 156.306 121.202C184.228 108.936 216.39 122.678 228.123 151.939Z" fill="white" stroke="black"/>
<path d="M176.78 116.182L176.78 116.186C177.076 147.868 152.451 173.616 121.928 173.616C91.7078 173.616 67.0771 147.869 67.0771 116.182C67.0771 84.494 91.7078 58.7476 121.928 58.7476C152.149 58.7476 176.78 84.494 176.78 116.182Z" fill="white" stroke="black"/>
<path d="M121.926 147.936C105.169 147.936 91.6084 133.776 91.6084 116.181C91.6084 98.5851 105.169 84.4255 121.926 84.4255C138.682 84.4255 152.243 98.5851 152.243 116.181C152.243 133.776 138.682 147.936 121.926 147.936Z" fill="white" stroke="black"/>
</svg>
