<svg width="331" height="344" viewBox="0 0 331 344" fill="none" xmlns="http://www.w3.org/2000/svg">
<mask id="mask0_1_6427" style="mask-type:alpha" maskUnits="userSpaceOnUse" x="0" y="0" width="331" height="344">
<rect x="0.5" y="0.5" width="330" height="343" fill="white" stroke="black"/>
</mask>
<g mask="url(#mask0_1_6427)">
<path d="M-142.5 343.5V0.5H372.5V343.5H-142.5Z" fill="white" stroke="black"/>
<path d="M-75.994 29.1416L-75.9939 29.1416C-66.9867 34.4187 -58.5617 41.0524 -50.3799 47.4947L-50.3469 47.5207L-50.3468 47.5208L-50.2767 47.5761C-34.8241 59.7502 -20.0984 71.3517 -1.75699 74.2886L-1.75674 74.2886C15.6515 77.0673 35.6282 71.0131 53.0734 57.7219L53.0744 57.7211C64.4356 49.0189 75.7375 37.2248 85.6892 23.5835L85.6894 23.5832C90.9272 16.3915 92.6861 8.79605 93.585 0.5H99.4622C98.5041 9.77135 96.5714 18.5882 90.4058 27.0466C79.9719 41.352 68.5978 53.2382 56.6023 62.3754L56.9052 62.7731L56.6022 62.3754C37.8267 76.678 16.2276 83.0995 -2.72046 80.0711C-22.5226 76.8958 -38.4941 64.3634 -54.0209 52.1156L-54.0212 52.1154L-54.0623 52.083C-62.0457 45.7951 -70.3289 39.2711 -78.997 34.1888L-78.9975 34.1886C-98.2853 22.9062 -120.741 18.637 -140.586 22.585C-141.227 22.7111 -141.866 22.8527 -142.5 23.0006V16.9837L-141.728 16.8158C-120.534 12.5987 -96.5797 17.075 -75.994 29.1416ZM152.425 15.8693L152.424 15.8675C148.732 11.2998 145.921 6.08897 144.129 0.5H150.461C154.673 11.8418 164.51 23.0252 179.9 28.6092C195.428 34.243 214.103 33.9695 236.947 27.8516C245.114 25.665 253.32 22.9204 261.25 20.2679L261.536 20.172C262.088 19.9891 262.64 19.8057 263.193 19.622C273.276 16.2727 283.652 12.8261 294.222 10.4779L294.223 10.4778C315.133 5.82214 336.798 5.70047 357.759 10.1209C362.745 11.2039 367.667 12.566 372.5 14.2008V20.4745C348.878 12.1293 321.821 10.397 295.492 16.244L295.6 16.7322L295.491 16.2441C284.632 18.6587 273.82 22.2795 263.394 25.7731L263.223 25.8305C255.155 28.5311 246.835 31.3163 238.456 33.5592L238.585 34.0422L238.456 33.5593C214.327 40.0239 194.528 40.1993 177.89 34.1643C167.888 30.51 159.08 24.182 152.425 15.8693ZM-141.292 275.361L-141.288 275.362C-105.364 277.899 -70.124 271.059 -39.3893 255.578C-18.6886 245.155 -4.25989 233.026 4.68533 218.489L4.68568 218.488C15.4178 200.994 16.8958 179.74 8.35011 164.32C-1.13634 147.186 -22.5581 136.71 -48.8086 136.13C-62.1903 135.833 -75.8195 137.787 -88.9529 139.671L-89.2462 139.713C-98.639 141.056 -108.321 142.44 -117.966 143.018L-117.97 143.018C-126.152 143.568 -134.369 143.309 -142.5 142.246V136.197C-134.499 137.346 -126.4 137.67 -118.331 137.163C-109.079 136.633 -99.6664 135.281 -90.5659 133.973L-89.8016 133.864C-76.3789 131.936 -62.5358 129.955 -48.6932 130.264C-20.1659 130.894 3.03397 142.615 13.4885 161.482L13.4887 161.482C23.0115 178.636 21.5546 202.219 9.69525 221.522C0.187653 236.996 -14.9821 249.828 -36.7432 260.808C-68.4164 276.761 -104.706 283.818 -141.696 281.203C-141.697 281.203 -141.698 281.203 -141.699 281.203L-142.5 281.142V275.266L-141.292 275.361ZM335.667 189.421C346.698 195.326 359.375 197.677 372.5 196.412V202.318C358.414 203.575 344.794 200.977 332.892 194.607L332.656 195.048L332.891 194.607C323.42 189.54 315.295 182.492 307.39 175.606L307.39 175.606C301.704 170.663 295.806 165.537 289.536 161.313L289.534 161.312C279.407 154.566 268.033 149.916 256.081 147.633C244.129 145.351 231.842 145.483 219.942 148.023C208.042 150.562 196.771 155.457 186.792 162.419C176.813 169.382 168.328 178.27 161.837 188.562C155.346 198.854 150.98 210.34 148.996 222.345C147.012 234.35 147.451 246.631 150.286 258.464C153.121 270.296 158.295 281.442 165.504 291.245C172.615 300.913 181.563 309.082 191.834 315.284L188.847 320.353C177.906 313.748 168.375 305.047 160.803 294.748C153.132 284.314 147.626 272.45 144.609 259.855C141.593 247.26 141.127 234.189 143.239 221.412C145.351 208.634 149.999 196.409 156.908 185.454C163.817 174.5 172.848 165.039 183.469 157.629C194.09 150.218 206.087 145.008 218.752 142.304C231.418 139.6 244.496 139.458 257.217 141.886C269.938 144.314 282.045 149.262 292.824 156.44C299.385 160.865 305.403 166.086 311.247 171.166L311.25 171.169C319.202 178.083 326.762 184.657 335.667 189.421Z" fill="white" stroke="black"/>
<mask id="mask1_1_6427" style="mask-type:luminance" maskUnits="userSpaceOnUse" x="-143" y="0" width="516" height="344">
<path d="M-142.5 343.5V0.5H372.5V343.5H-142.5Z" fill="white" stroke="white"/>
</mask>
<g mask="url(#mask1_1_6427)">
<path d="M118.881 89.5659C132.788 91.7113 142.323 104.725 140.178 118.632C138.032 132.539 125.019 142.073 111.112 139.928C97.2049 137.782 87.6702 124.769 89.8157 110.862C91.9612 96.9551 104.974 87.4204 118.881 89.5659Z" fill="white" stroke="black"/>
<path d="M-213.264 150.062C-206.306 123.962 -193.182 101.207 -175.763 90.4442C-161.463 81.6463 -145.363 75.2609 -124.377 82.6331C-120.466 84.0102 -116.561 86.304 -112.615 88.973C-110.308 90.5335 -108.012 92.2036 -105.698 93.8874C-104.038 95.095 -102.368 96.3097 -100.678 97.496C-92.6502 103.129 -84.2955 108.02 -75.4039 107.387C-67.906 106.855 -60.9011 103.409 -54.07 100.049C-53.2384 99.6398 -52.4093 99.232 -51.5823 98.8309C-43.9117 95.1105 -36.4025 91.9542 -28.372 93.2775C-18.3745 94.9286 -11.3711 102.878 -4.228 111.067L-4.0636 111.255C2.96736 119.316 10.1583 127.561 20.4678 129.437L20.468 129.437C24.7781 130.22 29.216 129.756 33.549 129.303C34.0441 129.252 34.5377 129.2 35.0297 129.15C39.8627 128.663 44.545 128.367 48.9604 129.886C52.2523 131.021 55.062 133.049 57.7477 135.394C58.9807 136.47 60.1804 137.607 61.3884 138.752L61.7118 139.058C63.0265 140.304 64.3542 141.551 65.732 142.716C69.5623 145.953 74.6618 148.689 79.5008 150.089L-213.264 150.062Z" fill="white" stroke="black"/>
<path d="M229.434 102.488L229.434 102.488C225.124 103.271 220.687 102.807 216.353 102.355C215.858 102.303 215.364 102.251 214.872 102.202C210.038 101.714 205.354 101.418 200.935 102.937C197.643 104.072 194.837 106.099 192.154 108.445C190.929 109.515 189.737 110.645 188.537 111.783C188.422 111.892 188.307 112 188.192 112.109C186.878 113.355 185.55 114.603 184.17 115.767C180.335 119.004 175.234 121.74 170.397 123.14L463.138 123.113C456.181 97.0123 443.049 74.2576 425.637 63.4947C411.359 54.6702 395.266 48.312 374.287 55.691L229.434 102.488ZM229.434 102.488C239.743 100.612 246.932 92.369 253.961 84.3088M229.434 102.488L253.961 84.3088M253.961 84.3088L254.128 84.118M253.961 84.3088L254.128 84.118M254.128 84.118C261.27 75.9292 268.273 67.9796 278.274 66.3285M254.128 84.118L278.274 66.3285M278.274 66.3285C286.305 65.0053 293.812 68.1616 301.482 71.8819M278.274 66.3285L301.482 71.8819M301.482 71.8819C302.308 72.2826 303.136 72.6899 303.966 73.0985M301.482 71.8819L303.966 73.0985M303.966 73.0985C310.798 76.4592 317.804 79.9057 325.306 80.4379M303.966 73.0985L325.306 80.4379M325.306 80.4379C334.194 81.0745 342.551 76.1855 350.581 70.5531M325.306 80.4379L350.581 70.5531M350.581 70.5531C352.273 69.3662 353.944 68.1509 355.606 66.9426M350.581 70.5531L355.606 66.9426M355.606 66.9426C357.92 65.2597 360.215 63.5906 362.522 62.0309M355.606 66.9426L362.522 62.0309M362.522 62.0309C366.47 59.3619 370.376 57.0681 374.287 55.691L362.522 62.0309Z" fill="white" stroke="black"/>
<path d="M477.108 217.077L477.108 217.078C481.936 229.751 486.213 242.595 490.491 255.443C493.455 264.346 496.42 273.252 499.57 282.104L13.5001 282.076C18.5419 274.344 23.2885 266.819 27.8924 259.52C44.9729 232.442 60.0898 208.476 81.0325 188.607C96.3848 174.066 110.28 163.455 124.733 157.755C139.166 152.064 154.188 151.257 171.826 156.388C179.36 158.583 187.437 162.344 195.867 166.459C197.218 167.119 198.579 167.788 199.947 168.461C207.1 171.978 214.468 175.601 221.903 178.588C239.611 185.703 257.855 189.28 274.734 179.179L274.735 179.179C290.616 169.665 303.16 156.982 315.154 144.855C319.232 140.732 323.247 136.672 327.307 132.824C343.337 117.632 360.13 105.657 384.561 105.496C407.41 105.347 426.537 122.584 441.997 145.3C457.44 167.991 469.119 195.996 477.108 217.077Z" fill="white" stroke="black"/>
<path d="M200.782 237.886L200.93 237.409L200.782 237.886C208.771 240.368 215.908 244.651 222.703 249.65C227.136 252.91 231.401 256.456 235.662 259.998C237.946 261.898 240.23 263.796 242.537 265.649C250.998 272.447 260.614 278.882 270.913 282.117H-236.713C-240.748 253.378 -234.981 223.265 -220.307 198.246C-205.555 173.096 -180.858 151.524 -153.004 142.217C-138.949 137.52 -125.366 141.449 -112.932 148.886C-100.492 156.328 -89.2736 167.24 -79.98 176.395L-79.9799 176.396C-65.6054 190.55 -50.1044 203.455 -29.0804 203.977L-29.0801 203.977C-19.7843 204.202 -10.5724 202.332 -1.44939 200.479C-0.491318 200.284 0.465775 200.09 1.42188 199.898C11.5077 197.876 21.4951 196.145 31.5204 197.471C46.4175 199.445 59.0836 207.751 71.7767 216.532C72.5356 217.057 73.2946 217.583 74.0543 218.11C85.9638 226.375 98.0145 234.737 111.964 238.115C126.015 241.519 140.606 239.53 155.048 237.561C155.619 237.483 156.189 237.406 156.759 237.328C171.8 235.286 186.655 233.497 200.782 237.886Z" fill="white" stroke="black"/>
<path d="M152.086 239.626L151.497 239.454V239.439L151.471 239.446L151.446 239.439V239.454L150.856 239.626L146.789 240.817L151.471 222.74L156.153 240.817L152.086 239.626Z" fill="white" stroke="black"/>
<path d="M171.454 243.61L170.856 243.434V243.421L170.835 243.428L170.813 243.421V243.434L170.215 243.61L166.156 244.806L170.831 226.725L175.513 244.806L171.454 243.61Z" fill="white" stroke="black"/>
<path d="M90.4894 232.423L89.8989 232.249V232.234L89.8736 232.242L89.8483 232.234V232.249L89.2578 232.423L85.1917 233.619L89.8736 215.537L94.5555 233.619L90.4894 232.423Z" fill="white" stroke="black"/>
<path d="M231.874 259.338L231.278 259.163V259.15L231.256 259.156L231.234 259.15V259.163L230.637 259.338L226.577 260.528L231.259 242.452L235.935 260.528L231.874 259.338Z" fill="white" stroke="black"/>
<path d="M139.73 233.604L141.99 242.959L138.004 241.786L137.427 241.616V241.598L137.395 241.607L137.363 241.598V241.617L136.786 241.786L132.794 242.959L135.06 233.605L135.264 232.764L134.434 233.007L132.794 233.487L137.395 214.497L141.989 233.486L140.357 233.007L139.527 232.764L139.73 233.604Z" fill="white" stroke="black"/>
<path d="M-259.644 282.604C-263.951 259.122 -246.627 229.518 -223.008 224.99C-218.982 224.219 -214.847 223.951 -210.722 223.683C-204.441 223.276 -198.182 222.871 -192.365 220.69L-259.644 282.604ZM-259.644 282.604L-259.152 282.513C-259.177 282.377 -259.202 282.24 -259.225 282.104L-259.644 282.104L-259.644 282.604ZM117.777 282.144C118.986 282.334 120.214 282.5 121.463 282.644L127.411 282.645C125.383 282.533 123.412 282.366 121.492 282.144L117.777 282.144ZM-48.8974 224.65C-48.8973 224.65 -48.8971 224.65 -48.8969 224.65L-48.9234 224.151L-48.8974 224.65ZM-146.356 191.928C-146.356 191.928 -146.356 191.928 -146.356 191.928L-146.399 191.43L-146.356 191.928Z" fill="white" stroke="black"/>
<path d="M-201.221 354.522V283.096H437.055V354.522H-201.221Z" fill="white" stroke="black"/>
<path d="M242.663 290.926L242.661 290.926C240.364 291.861 238.087 292.82 235.808 293.78C224.984 298.34 214.113 302.919 200.852 305.006C186.668 307.239 171.76 306.328 156.726 305.295C156.16 305.256 155.594 305.217 155.027 305.177C140.572 304.18 126.025 303.176 112.021 304.894L112.082 305.39L112.021 304.894C98.1102 306.603 86.0856 310.829 74.1649 315.019C73.4081 315.285 72.6518 315.551 71.8954 315.816C59.2135 320.26 46.511 324.484 31.5522 325.49L31.5518 325.49C21.4817 326.175 11.4578 325.294 1.37389 324.267C0.402161 324.168 -0.570175 324.067 -1.54317 323.967C-10.6551 323.027 -19.824 322.081 -29.0744 322.193C-50.0193 322.456 -65.4629 328.969 -79.8731 336.15L-79.8734 336.15C-98.4668 345.433 -124.786 358.276 -153.1 353.484L-153.184 353.977L-153.1 353.484C-181.017 348.761 -205.713 337.809 -220.432 325.094C-235.013 312.498 -240.692 297.418 -236.788 283.104H268.121C258.936 284.849 250.333 287.827 242.663 290.926Z" fill="white" stroke="black"/>
<path d="M-75.5598 309.362C-70.9629 309.517 -66.612 310.331 -62.3054 311.137L-62.165 311.163C-57.8018 311.979 -53.4808 312.779 -48.9234 312.905C-37.8223 313.212 -29.111 309.716 -20.3747 305.82C-19.6311 305.488 -18.8872 305.154 -18.1415 304.818C-10.1391 301.219 -1.93539 297.529 8.21854 296.478C14.4624 295.83 20.736 296.256 26.9966 296.809C27.866 296.886 28.735 296.965 29.6036 297.044C35.0039 297.537 40.3914 298.028 45.7911 297.928C59.5413 297.672 71.6264 293.686 83.3032 289.834C84.1407 289.558 84.9762 289.282 85.81 289.008C94.3322 286.213 102.944 284.226 112.77 283.104H-259.283C-261.107 288.926 -258.03 295.566 -251.474 301.145C-244.815 306.813 -234.678 311.269 -222.958 312.454M-75.5598 309.362C-75.5597 309.362 -75.5596 309.362 -75.5596 309.362L-75.5766 309.862L-75.5598 309.362ZM-75.5598 309.362C-89.8507 308.876 -101.554 314.662 -111.139 319.916C-120.704 325.159 -132.399 330.766 -146.376 330.126C-155.6 329.705 -162.662 326.748 -169.629 323.439C-170.487 323.031 -171.344 322.618 -172.203 322.204C-178.316 319.258 -184.565 316.245 -192.268 314.724M-192.268 314.724C-197.128 313.763 -202.284 313.453 -207.474 313.253C-208.555 313.211 -209.637 313.175 -210.718 313.138C-214.84 312.998 -218.952 312.858 -222.958 312.454M-192.268 314.724L-192.365 315.215M-192.268 314.724C-192.268 314.724 -192.268 314.724 -192.268 314.724L-192.365 315.215M-222.958 312.454C-222.958 312.454 -222.958 312.454 -222.958 312.454L-223.008 312.951M-222.958 312.454L-223.008 312.951M-223.008 312.951C-218.984 313.357 -214.85 313.498 -210.726 313.638C-204.444 313.851 -198.184 314.064 -192.365 315.215M-223.008 312.951L-192.365 315.215" fill="white" stroke="black"/>
<path d="M56.1564 44.252C57.9873 45.9219 60.0921 47.1892 62.6791 47.0705C64.425 46.993 65.9938 46.2554 67.4641 45.5249C67.57 45.4723 67.6754 45.4197 67.7804 45.3674C69.1634 44.6776 70.4683 44.0267 71.8786 43.8037L71.8005 43.3099L71.8786 43.8037C73.8982 43.4842 75.8414 44.0869 77.6585 45.2031C79.4786 46.3211 81.1395 47.9351 82.5691 49.5758C82.8558 49.9048 83.1446 50.2415 83.4365 50.5817C84.5978 51.9355 85.8077 53.346 87.129 54.5589C88.7901 56.0839 90.6705 57.3401 92.9406 57.827C95.9783 58.4891 98.8994 57.6432 101.721 56.5979C102.296 56.3846 102.867 56.1637 103.434 55.944C105.689 55.0706 107.894 54.2163 110.175 53.9405C116.334 53.2022 121.785 56.6711 127.434 60.3551L127.72 60.5414C131.132 62.7676 134.622 65.0444 138.334 66.3257H-3.5357C-3.94182 63.5164 -2.60732 60.2163 -0.247233 58.696C1.00653 57.9112 2.46293 57.5112 3.94173 57.5456C5.42151 57.58 6.85868 58.0478 8.07512 58.8912L8.99265 59.5273L8.85625 58.4192C7.60306 48.2387 13.5285 37.5553 22.8265 33.2229C32.1251 28.8903 44.1105 31.2056 51.1037 38.7377L51.1042 38.7383C51.6835 39.3603 52.2557 40.0229 52.8409 40.7005C53.0737 40.9701 53.3086 41.242 53.5467 41.5148C54.3771 42.4656 55.2397 43.4159 56.1564 44.252Z" fill="white" stroke="black"/>
<path d="M-207.365 270.259C-157.059 254.869 -103.008 257.067 -54.1122 276.497C-5.49524 296.191 34.9848 331.807 60.7087 377.502H-207.365V270.259Z" fill="white" stroke="black"/>
<path d="M10.8198 354.679C12.1906 362.275 11.8008 370.082 9.68241 377.501H3.52979C5.66734 370.975 6.27013 364.041 5.28697 357.238C4.27045 350.205 1.58794 343.516 -2.5371 337.729C-6.66213 331.942 -12.1102 327.225 -18.4276 323.97C-24.745 320.715 -31.7486 319.017 -38.8552 319.017C-45.9618 319.017 -52.9654 320.715 -59.2828 323.97C-65.6001 327.225 -71.0483 331.942 -75.1733 337.729C-79.2983 343.516 -81.9808 350.205 -82.9974 357.238C-83.9805 364.041 -83.3777 370.975 -81.2402 377.501H-87.3859C-89.5043 370.082 -89.8941 362.275 -88.5233 354.679C-87.1304 346.96 -83.9579 339.673 -79.2574 333.394C-74.5569 327.115 -68.4578 322.018 -61.4441 318.508C-54.4304 314.997 -46.695 313.169 -38.8518 313.169C-31.0085 313.169 -23.2731 314.997 -16.2594 318.508C-9.24568 322.018 -3.14663 327.115 1.55386 333.394C6.25433 339.673 9.4269 346.96 10.8198 354.679Z" fill="white" stroke="black"/>
<path d="M340.507 261.145V277.907H339.691V261.145V260.477L339.05 260.665L330.519 263.169L340.099 226.16L349.673 263.169L341.148 260.665L340.507 260.477V261.145Z" fill="white" stroke="black"/>
<path d="M322.681 273.035L322.091 272.862V272.847L322.066 272.855L322.041 272.847V272.862L321.451 273.035L317.384 274.225L322.066 256.148L326.748 274.225L322.681 273.035Z" fill="white" stroke="black"/>
<path d="M181.959 325.13L184.176 334.277L180.281 333.132L179.725 332.969V332.943L179.682 332.956L179.64 332.944V332.968L179.084 333.132L175.195 334.277L177.406 325.129L177.609 324.288L176.779 324.532L175.195 324.997L179.686 306.448L184.177 324.998L182.585 324.532L181.755 324.289L181.959 325.13Z" fill="white" stroke="black"/>
<path d="M190.894 322.192L194.254 336.053L188.129 334.26L187.488 334.073V334.74V347.051H187.14V334.74V334.073L186.5 334.26L180.374 336.054L183.727 322.191L183.93 321.352L183.101 321.594L180.374 322.391L187.314 293.72L194.255 322.391L191.52 321.594L190.691 321.352L190.894 322.192Z" fill="white" stroke="black"/>
<path d="M167.882 314.438L170.142 323.787L166.155 322.619L165.579 322.451V322.432L165.547 322.441L165.515 322.432V322.451L164.939 322.619L160.946 323.787L163.212 314.438L163.416 313.598L162.586 313.84L160.946 314.32L165.547 295.324L170.142 314.319L168.509 313.841L167.679 313.597L167.882 314.438Z" fill="white" stroke="black"/>
<path d="M462.06 279.987C475.855 300.449 482.214 324.904 486.644 349.459L121.717 349.487C121.589 343.531 124.127 337.871 128.195 333.215C132.373 328.433 138.14 324.738 144.199 322.904L144.054 322.425L144.199 322.904C155.873 319.369 168.315 320.83 180.626 322.276C181.891 322.425 183.156 322.573 184.418 322.716C197.907 324.243 212.481 324.922 224.542 318.316L224.302 317.878L224.543 318.316C229.232 315.748 233.326 312.179 237.353 308.669C238.047 308.064 238.739 307.461 239.432 306.865C244.167 302.791 248.951 299.034 254.731 297.128L254.732 297.127C260.319 295.271 266.251 295.357 272.303 295.532C272.569 295.539 272.836 295.547 273.103 295.555C278.867 295.725 284.728 295.898 290.329 294.384C298.028 292.302 304.133 287.453 309.684 281.786C312.305 279.11 314.813 276.242 317.308 273.387C317.456 273.219 317.603 273.05 317.75 272.881C320.396 269.857 323.034 266.861 325.804 264.115C344.774 245.312 371.543 238.47 397.238 241.744C422.936 245.019 447.504 258.406 462.06 279.987Z" fill="white" stroke="black"/>
<path d="M318.172 360.209C318.051 359.724 318.051 359.724 318.051 359.724L318.05 359.724L318.047 359.725L318.032 359.729L317.97 359.744C317.915 359.757 317.834 359.777 317.726 359.802C317.511 359.852 317.194 359.924 316.788 360.012C315.976 360.187 314.807 360.423 313.383 360.668C310.534 361.159 306.674 361.683 302.617 361.818C298.555 361.954 294.326 361.7 290.727 360.652C287.127 359.604 284.219 357.782 282.689 354.826C279.594 348.847 282.164 342.973 285.656 338.487C287.394 336.254 289.335 334.402 290.845 333.106C291.599 332.458 292.243 331.952 292.698 331.607C292.925 331.435 293.105 331.304 293.227 331.216C293.288 331.172 293.335 331.139 293.366 331.117L293.401 331.093L293.41 331.087L293.411 331.086L293.412 331.086L293.412 331.086L293.7 330.888L293.613 330.549L293.129 330.673L293.613 330.549L293.613 330.548L293.612 330.545L293.609 330.533L293.596 330.482C293.585 330.437 293.568 330.369 293.547 330.28C293.504 330.102 293.443 329.84 293.368 329.504C293.22 328.833 293.02 327.869 292.817 326.703C292.41 324.368 291.99 321.232 291.934 318.011C291.877 314.783 292.186 311.51 293.209 308.88C294.226 306.264 295.927 304.326 298.659 303.638C304.331 302.211 310.352 304.443 315.02 307.108C317.343 308.433 319.306 309.852 320.688 310.939C321.379 311.482 321.923 311.942 322.294 312.265C322.48 312.427 322.622 312.554 322.717 312.641C322.765 312.684 322.801 312.717 322.824 312.739L322.851 312.763L322.857 312.769L322.858 312.77L322.858 312.771L322.858 312.771L323.799 313.659L323.7 312.369L323.7 312.369L323.7 312.369L323.7 312.367L323.699 312.359L323.697 312.323C323.695 312.291 323.692 312.242 323.69 312.177C323.684 312.048 323.678 311.858 323.678 311.617C323.676 311.134 323.695 310.45 323.777 309.651C323.942 308.046 324.358 306.008 325.346 304.203C326.328 302.409 327.87 300.852 330.311 300.155C332.766 299.453 336.199 299.603 340.991 301.379L341.907 301.719L341.647 300.778L341.647 300.778L341.647 300.777L341.646 300.774L341.643 300.762L341.629 300.708C341.616 300.661 341.598 300.589 341.575 300.495C341.529 300.306 341.464 300.028 341.391 299.674C341.244 298.965 341.062 297.953 340.923 296.746C340.646 294.326 340.546 291.147 341.235 288.058C341.924 284.974 343.391 282.012 346.224 279.962C349.058 277.912 353.331 276.722 359.735 277.328L360.211 277.373L360.277 276.901L360.277 276.901L360.278 276.9L360.278 276.898L360.279 276.888L360.286 276.847C360.291 276.809 360.3 276.753 360.312 276.679C360.336 276.532 360.374 276.316 360.426 276.04C360.532 275.489 360.698 274.705 360.939 273.776C361.422 271.914 362.205 269.485 363.402 267.191C364.601 264.891 366.197 262.765 368.288 261.459C370.357 260.166 372.952 259.65 376.234 260.632C382.814 262.602 386.333 268.847 388.204 274.754C389.135 277.692 389.645 280.508 389.923 282.592C390.061 283.633 390.141 284.489 390.187 285.083C390.209 285.381 390.223 285.612 390.232 285.769C390.233 285.791 390.234 285.811 390.235 285.829C390.237 285.879 390.239 285.918 390.24 285.947L390.242 285.991L390.243 286.001L390.243 286.004L390.243 286.004L390.269 286.809L390.979 286.429L390.979 286.428L390.979 286.428L390.98 286.428L390.987 286.424L391.016 286.409C391.041 286.396 391.081 286.375 391.133 286.349C391.236 286.296 391.391 286.219 391.591 286.123C391.992 285.931 392.576 285.664 393.301 285.367C394.753 284.773 396.767 284.061 399.02 283.588C403.552 282.635 408.902 282.672 412.671 286.346C414.507 288.136 415.168 290.719 415.069 293.682C414.971 296.644 414.114 299.915 413 302.979C411.887 306.038 410.528 308.862 409.445 310.924C408.904 311.954 408.433 312.792 408.098 313.372C407.93 313.662 407.797 313.887 407.705 314.04C407.66 314.116 407.624 314.174 407.601 314.212L407.574 314.256L407.568 314.266L407.566 314.269L407.566 314.269L407.991 314.533M318.172 360.209C318.643 360.04 318.643 360.04 318.643 360.04L318.643 360.041L318.644 360.045L318.65 360.061L318.675 360.127C318.697 360.186 318.729 360.275 318.773 360.39C318.861 360.62 318.992 360.959 319.165 361.391C319.512 362.254 320.028 363.486 320.704 364.959C322.055 367.907 324.042 371.814 326.583 375.657C329.127 379.504 332.211 383.264 335.752 385.942C339.29 388.616 343.252 390.189 347.58 389.729C356.435 388.79 362.583 384.95 366.518 381.348C368.487 379.546 369.902 377.803 370.824 376.514C371.284 375.869 371.621 375.339 371.842 374.971C371.952 374.787 372.033 374.644 372.086 374.549C372.113 374.501 372.132 374.465 372.145 374.441L372.158 374.415L372.161 374.409L372.162 374.409L372.162 374.408L372.409 373.926L372.87 374.212C387.535 383.298 397.754 387.28 404.824 388.188C408.353 388.641 411.075 388.325 413.17 387.517C415.259 386.711 416.751 385.404 417.811 383.823C419.946 380.639 420.343 376.316 420.178 372.719C420.097 370.931 419.878 369.346 419.679 368.209C419.58 367.64 419.486 367.185 419.417 366.872C419.383 366.716 419.354 366.595 419.335 366.515C419.325 366.474 419.318 366.444 419.313 366.424L419.307 366.402L419.306 366.397L419.306 366.396L419.185 365.93L419.646 365.792C431.023 362.387 437.048 358.875 439.767 355.596C441.113 353.971 441.636 352.419 441.619 350.962C441.603 349.497 441.039 348.07 440.107 346.709C438.235 343.973 434.953 341.615 432.091 339.927C430.668 339.087 429.363 338.422 428.415 337.968C427.941 337.741 427.557 337.566 427.292 337.449C427.159 337.39 427.057 337.345 426.988 337.316C426.953 337.301 426.927 337.29 426.91 337.283L426.89 337.275L426.886 337.273L426.885 337.272C426.885 337.272 426.885 337.272 426.949 337.117L426.885 337.272L426.373 337.061L426.636 336.573C430.487 329.427 431.156 324.593 430.152 321.351C429.159 318.14 426.474 316.336 423.202 315.372C419.928 314.407 416.155 314.315 413.178 314.471C411.693 314.549 410.417 314.688 409.511 314.807C409.059 314.867 408.7 314.921 408.455 314.961C408.332 314.981 408.238 314.997 408.175 315.008L408.105 315.02L408.087 315.024L408.083 315.024L408.083 315.024L407.991 314.533M318.172 360.209L318.051 359.724L318.49 359.615L318.643 360.04L318.172 360.209ZM407.991 314.533L408.082 315.024L406.968 315.233L407.566 314.269L407.991 314.533Z" fill="white" stroke="black"/>
<path d="M260.691 349.855L260.692 349.855C265.025 349.264 268.857 346.581 271.972 343.357L271.972 343.356C273.327 341.957 274.842 340.093 275.919 338.065C276.999 336.032 277.606 333.893 277.241 331.915C277.049 330.912 276.581 330.246 275.943 329.803C275.291 329.35 274.424 329.104 273.406 329.026C271.363 328.871 268.88 329.406 266.792 330.031L260.691 349.855ZM260.691 349.855C257.708 350.267 254.512 349.581 252.358 347.621C250.197 345.654 249.239 342.322 250.413 339.713C251.336 337.68 253.616 335.914 256.278 334.435C258.853 333.005 261.685 331.896 263.743 331.09C263.795 331.07 263.847 331.05 263.898 331.03M260.691 349.855L263.898 331.03M263.898 331.03C264.629 330.75 265.64 330.377 266.792 330.031L263.898 331.03Z" fill="white" stroke="black"/>
<path d="M341.558 338.945L341.558 338.947C342.861 343.638 339.841 349.105 335.2 350.526C332.255 351.418 329.024 350.619 326.554 348.78C324.086 346.941 322.439 344.108 322.587 340.997L322.588 340.996C322.814 336.017 326.844 333.104 331.264 332.651C335.688 332.198 340.266 334.235 341.558 338.945Z" fill="white" stroke="black"/>
<path d="M307.038 340.067C309.698 340.5 311.504 343.007 311.071 345.668C310.638 348.328 308.131 350.134 305.471 349.701C302.81 349.268 301.005 346.761 301.437 344.1C301.87 341.44 304.378 339.634 307.038 340.067Z" fill="white" stroke="black"/>
<path d="M351.861 81.4776L351.901 80.8372L351.271 80.9543L351.271 80.9543L351.27 80.9544L351.27 80.9544L351.266 80.9553L351.242 80.9592C351.22 80.9628 351.186 80.9681 351.141 80.9745C351.051 80.9873 350.915 81.0042 350.741 81.0199C350.393 81.0513 349.892 81.0773 349.291 81.0544C348.085 81.0086 346.493 80.7669 344.917 79.9935C343.348 79.2236 341.78 77.9204 340.617 75.7234C339.451 73.5203 338.677 70.3914 338.748 65.9534L338.757 65.3809L338.189 65.4489L338.189 65.4489L338.188 65.449L338.185 65.4493L338.171 65.4509L338.113 65.4572C338.06 65.4627 337.981 65.4706 337.878 65.4797C337.671 65.498 337.366 65.5215 336.979 65.5418C336.204 65.5823 335.101 65.6099 333.792 65.5575C331.169 65.4524 327.743 65.0269 324.486 63.7569C321.233 62.4886 318.171 60.388 316.224 56.9425C314.277 53.4978 313.406 48.6422 314.66 41.7903L314.839 40.8122L313.947 41.2518L313.947 41.2519L313.945 41.2527L313.938 41.2562L313.909 41.2705C313.897 41.276 313.883 41.2827 313.867 41.2905C313.846 41.3009 313.82 41.3132 313.79 41.3275C313.685 41.3774 313.529 41.4504 313.329 41.5419C312.928 41.7248 312.347 41.9815 311.632 42.2747C310.201 42.8617 308.238 43.5928 306.103 44.1736C303.965 44.7554 301.676 45.1802 299.586 45.168C297.491 45.1557 295.66 44.7047 294.369 43.6038L294.368 43.6032C291.349 41.0417 289.774 36.3894 288.967 32.2705C288.567 30.2275 288.361 28.348 288.256 26.979C288.203 26.2949 288.176 25.7393 288.161 25.3557C288.154 25.1639 288.15 25.0152 288.148 24.9151C288.147 24.865 288.147 24.827 288.146 24.8019L288.146 24.7739L288.146 24.7672L288.146 24.7658V24.7656V24.7655L288.143 24.212L287.592 24.2715L287.646 24.7686C287.592 24.2715 287.592 24.2715 287.592 24.2715L287.59 24.2717L287.584 24.2724L287.556 24.2752C287.532 24.2777 287.495 24.2815 287.446 24.2863C287.348 24.2959 287.202 24.3096 287.012 24.3262C286.632 24.3594 286.074 24.4038 285.367 24.4483C283.952 24.5374 281.941 24.6271 279.559 24.6291C274.791 24.6332 268.559 24.2858 262.658 22.8888C256.745 21.4891 251.24 19.0529 247.844 14.936C244.517 10.904 243.142 5.17222 245.553 -3.0278L373.43 -17.4566L393.83 78.8737C393.813 78.888 393.795 78.9032 393.775 78.9191C393.587 79.074 393.31 79.3011 392.954 79.5893C392.241 80.1657 391.212 80.9862 389.948 81.961C387.419 83.9113 383.955 86.4769 380.207 88.942C376.457 91.4093 372.438 93.7655 368.799 95.3061C366.98 96.0763 365.269 96.6364 363.745 96.9081C362.216 97.1806 360.911 97.1562 359.878 96.7977C355.526 95.2871 353.511 91.5236 352.587 88.0379C352.126 86.3006 351.944 84.6561 351.878 83.4442C351.845 82.8391 351.841 82.3438 351.845 82.0014C351.847 81.8303 351.851 81.6975 351.854 81.6084C351.856 81.5638 351.858 81.5302 351.859 81.5082L351.86 81.484L351.86 81.4786L351.86 81.4778L351.861 81.4776V81.4776Z" fill="white" stroke="black"/>
<path d="M234.497 -4.62278L234.497 -4.62261C236.004 -3.59177 236.907 -2.49203 237.364 -1.38494C237.821 -0.281615 237.853 0.870314 237.549 2.04112C236.934 4.40896 234.949 6.82893 232.401 8.87857C229.863 10.9192 226.84 12.5344 224.26 13.3217C222.969 13.7161 221.818 13.8935 220.911 13.8318C220 13.7699 219.415 13.4766 219.11 13.0165C218.763 12.4928 218.603 11.7746 218.646 10.8773C218.689 9.98184 218.931 8.94476 219.346 7.82629C220.175 5.58963 221.666 3.09846 223.465 0.889405C225.267 -1.32221 227.35 -3.21548 229.344 -4.28725C231.35 -5.3653 233.138 -5.55311 234.497 -4.62278Z" fill="white" stroke="black"/>
<path d="M324.231 21.3816C325.409 20.9217 327.009 20.7249 328.414 20.8011C329.114 20.8391 329.742 20.9438 330.229 21.1044C330.734 21.2711 331.001 21.4696 331.102 21.6318C331.282 21.9271 331.352 22.3855 331.279 22.9944C331.208 23.5932 331.006 24.2731 330.724 24.9488C330.442 25.6224 330.086 26.2739 329.721 26.8137C329.351 27.3617 328.994 27.7604 328.717 27.9616C327.588 28.772 325.489 29.2749 323.529 29.3909C322.56 29.4482 321.664 29.4084 320.982 29.2795C320.641 29.2149 320.372 29.1314 320.18 29.0381C319.98 28.9413 319.915 28.859 319.898 28.8268C319.87 28.771 319.835 28.6349 319.848 28.3809C319.86 28.1376 319.912 27.833 320.007 27.4796C320.197 26.7739 320.541 25.9262 320.989 25.0798C321.436 24.2341 321.977 23.407 322.551 22.7376C323.132 22.0593 323.714 21.5839 324.231 21.3816Z" fill="white" stroke="black"/>
<path d="M266.598 5.85603L266.591 5.84808L266.583 5.84046C265.725 4.9758 265.178 3.85077 265.029 2.64211C265.02 2.03752 265.222 1.66202 265.519 1.40564C265.841 1.12706 266.327 0.9465 266.938 0.8556C268.162 0.673416 269.655 0.882076 270.636 1.05076L270.637 1.05091C274.991 1.79144 279.11 3.54403 282.662 6.16754C283.201 6.57015 283.723 7.03548 284.082 7.54356C284.44 8.04861 284.611 8.55701 284.531 9.07452L284.53 9.07492C284.382 10.0398 283.794 10.6681 282.879 11.0666C281.94 11.4751 280.685 11.6239 279.317 11.5899C276.586 11.5219 273.622 10.7323 272.378 10.1639C270.193 9.11149 268.231 7.64902 266.598 5.85603Z" fill="white" stroke="black"/>
<path d="M332.791 0.788164L332.791 0.788424C334.053 1.76263 334.78 2.76263 335.121 3.74175C335.46 4.71697 335.431 5.71366 335.109 6.71276C334.456 8.73679 332.607 10.7457 330.274 12.4081C327.953 14.0622 325.228 15.3193 322.937 15.8753C321.789 16.1538 320.78 16.2489 319.999 16.1497C319.214 16.0502 318.74 15.769 318.51 15.3735C318.241 14.9117 318.138 14.2887 318.221 13.5127C318.303 12.7387 318.566 11.849 318.985 10.8944C319.822 8.9853 321.25 6.88546 322.935 5.04674C324.622 3.20559 326.535 1.66006 328.326 0.827634C330.129 -0.0104018 331.675 -0.0742088 332.791 0.788164Z" fill="white" stroke="black"/>
<path d="M298.004 10.4101L298.004 10.4101L298.001 10.408C297.717 10.2265 297.48 9.98032 297.31 9.68965C297.142 9.40333 297.043 9.08182 297.021 8.75068C297.026 8.20179 297.31 7.71446 297.802 7.27724C298.301 6.83433 298.973 6.48249 299.631 6.22554C300.859 5.7622 303.635 4.89311 306.209 4.69287C307.5 4.5924 308.69 4.6649 309.599 5.00335C310.481 5.33211 311.077 5.89948 311.286 6.83012C311.37 7.21394 311.257 7.60869 310.975 8.01332C310.691 8.42105 310.262 8.79637 309.811 9.09938C306.968 10.9866 303.52 11.7372 300.149 11.2023L300.149 11.2022L300.138 11.2006C299.377 11.0985 298.648 10.8285 298.004 10.4101Z" fill="white" stroke="black"/>
<path d="M267.515 31.2614L267.529 31.2616L267.543 31.261C268.963 31.2016 270.383 31.3892 271.738 31.8154C272.36 32.0203 272.921 32.3787 273.368 32.8577C273.812 33.3332 274.129 33.9121 274.292 34.5417C274.415 35.2368 274.273 35.9361 273.964 36.6465C273.651 37.3667 273.179 38.0678 272.684 38.7515C271.095 40.9367 268.616 43.5555 265.855 45.075C263.107 46.5869 260.17 46.9735 257.495 44.9036C255.004 42.9745 254.032 40.2923 254.386 37.8544C254.74 35.4193 256.426 33.1719 259.379 32.1201C261.924 31.219 264.704 31.22 267.515 31.2614Z" fill="white" stroke="black"/>
<path d="M280.885 55.2933L280.885 55.2935C280.158 59.9474 273.668 61.2624 271.188 57.2673L271.188 57.2667C270.737 56.5436 270.469 55.7222 270.405 54.8728C270.341 54.0234 270.484 53.1712 270.821 52.3888C271.157 51.6064 271.679 50.9172 272.34 50.38C273.001 49.8427 273.782 49.4734 274.617 49.3035C275.451 49.1337 276.315 49.1683 277.133 49.4045C277.952 49.6407 278.701 50.0714 279.317 50.6599C279.932 51.2484 280.397 51.9771 280.67 52.784C280.943 53.5908 281.017 54.4517 280.885 55.2933Z" fill="white" stroke="black"/>
<path d="M281.594 44.4042C280.84 45.1108 279.978 45.2474 279.262 45.0067C278.54 44.7639 277.906 44.1165 277.67 43.1318C277.553 42.5674 277.624 41.98 277.874 41.4604C278.124 40.9409 278.538 40.5183 279.052 40.2576C279.713 39.9489 280.304 39.9491 280.794 40.1234C281.294 40.3012 281.721 40.6727 282.012 41.1575C282.597 42.1322 282.585 43.4698 281.594 44.4042Z" fill="white" stroke="black"/>
<path d="M318.28 90.709L318.276 90.6984L318.271 90.688C317.34 88.6093 317.109 86.2842 317.614 84.063C318.382 80.7818 320.764 77.951 323.681 76.1179L323.681 76.1179L323.684 76.1162C325.518 74.9477 328.288 73.6926 330.686 73.5195C331.88 73.4334 332.928 73.6189 333.727 74.1576C334.512 74.6871 335.129 75.6075 335.374 77.149L335.374 77.1491C335.837 80.0565 335.055 83.0577 333.546 85.7615C332.038 88.4643 329.823 90.8364 327.479 92.4698C325.609 93.7564 323.411 94.6525 321.482 93.9959C320.759 93.6889 320.105 93.2417 319.557 92.6802C319.004 92.1146 318.57 91.4445 318.28 90.709Z" fill="white" stroke="black"/>
<path d="M-4.49892 -4.62261L-4.49868 -4.62278C-3.13997 -5.55311 -1.35242 -5.3653 0.653399 -4.28725C2.64752 -3.21548 4.7305 -1.32221 6.53237 0.889405C8.33215 3.09846 9.82255 5.58963 10.6519 7.82629C11.0666 8.94476 11.3093 9.98184 11.3519 10.8773C11.3946 11.7746 11.2352 12.4928 10.8877 13.0165C10.5824 13.4766 9.998 13.7699 9.08728 13.8318C8.17977 13.8935 7.02933 13.7161 5.73738 13.3217C3.15791 12.5344 0.13436 10.9192 -2.40294 8.87857C-4.9514 6.82893 -6.93654 4.40896 -7.55112 2.04112C-7.855 0.870314 -7.82298 -0.281615 -7.36665 -1.38494C-6.90877 -2.49203 -6.0063 -3.59177 -4.49892 -4.62261Z" fill="white" stroke="black"/>
</g>
</g>
</svg>
