<svg width="139" height="138" viewBox="0 0 139 138" fill="none" xmlns="http://www.w3.org/2000/svg">
<rect y="19.1846" width="121" height="120" rx="13" transform="rotate(-9.12272 0 19.1846)" fill="white"/>
<path d="M109.428 70.4493C109.453 48.3996 91.6583 30.4849 69.6836 30.4357C47.7089 30.3866 29.8751 48.2215 29.8508 70.2713C29.8265 92.321 47.6208 110.236 69.5956 110.285C91.5703 110.334 109.404 92.499 109.428 70.4493Z" fill="#FFE500"/>
<path d="M63.5045 32.1571C84.5335 28.7803 104.305 43.1346 107.694 64.2392C111.083 85.3438 96.7997 105.167 75.7707 108.544C54.7416 111.92 34.9702 97.566 31.5812 76.4614C28.1922 55.3568 42.4755 35.534 63.5045 32.1571ZM63.1096 29.6983C40.774 33.285 25.5316 54.4389 29.1312 76.8549C32.7308 99.2708 53.8298 114.589 76.1655 111.002C98.5011 107.416 113.743 86.2617 110.144 63.8458C106.544 41.4298 85.4453 26.1117 63.1096 29.6983Z" fill="#F5D11D"/>
<path d="M44.9513 90.0785C44.9513 90.0785 44.7551 89.8998 44.3692 89.5835C44.0175 89.2196 43.4486 88.8065 42.827 88.0656C42.5228 87.7361 42.1645 87.3312 41.7997 86.8854C41.4349 86.4395 41.0636 85.9527 40.6856 85.4248C40.3076 84.897 39.9574 84.2807 39.5662 83.6709C39.2094 83.0136 38.8525 82.3563 38.4825 81.617C38.3007 81.2679 38.1533 80.8712 37.965 80.4811C37.8912 80.2827 37.7767 80.0909 37.7029 79.8926C37.6292 79.6942 37.5555 79.4959 37.4751 79.2566C37.3277 78.8599 37.1736 78.4222 37.0196 77.9846C36.8655 77.5469 36.7523 77.1027 36.6391 76.6585C36.5588 76.4191 36.5259 76.2142 36.4455 75.9749L36.4192 75.811L36.4061 75.729L36.3995 75.6881C36.4061 75.729 36.3863 75.6061 36.3863 75.6061L36.3797 75.5651L36.3271 75.2373C36.2547 74.7865 36.1415 74.3423 36.0625 73.8505C35.9835 73.3588 35.898 72.826 35.8533 72.2867C35.8152 71.7884 35.7704 71.2491 35.7323 70.7508C35.6495 69.7132 35.6483 68.6625 35.7222 67.5577C35.7618 66.5004 35.8766 65.389 36.0387 64.3121C36.363 62.1582 36.9323 59.9649 37.7321 57.9028C38.5319 55.8407 39.549 53.8277 40.7623 51.9935C41.3657 51.0559 42.0231 50.1936 42.6871 49.3724C43.351 48.5512 44.0624 47.7643 44.8278 47.0529C46.3111 45.5957 47.8747 44.3778 49.4647 43.3237C49.8875 43.0877 50.2629 42.8172 50.6449 42.5877C51.0269 42.3582 51.4498 42.1222 51.8384 41.9337C52.6156 41.5567 53.3927 41.1797 54.1422 40.8911C54.8852 40.5617 55.6478 40.3551 56.3222 40.1207C56.6832 40.0207 57.0032 39.9273 57.3642 39.8273C57.6842 39.7339 58.0043 39.6404 58.331 39.588C59.6245 39.2962 60.7336 39.1601 61.6385 39.0569C62.0942 39.0257 62.5091 39.0011 62.8832 38.9831C63.2573 38.965 63.5563 39.0011 63.8013 38.9618C64.3044 38.965 64.556 38.9667 64.556 38.9667C64.556 38.9667 64.3176 39.047 63.8473 39.2486C63.6089 39.3289 63.3362 39.4568 63.0227 39.5912C62.7092 39.7256 62.3207 39.9141 61.9255 40.0617C61.1009 40.4043 60.1327 40.896 59.0486 41.4484C58.5099 41.7451 57.9303 42.0484 57.3572 42.3926C56.7908 42.7778 56.177 43.1286 55.5763 43.5614C53.1196 45.217 50.5442 47.4381 48.2243 50.2067C47.9437 50.546 47.6631 50.8854 47.3891 51.2656C47.1151 51.6459 46.8345 51.9853 46.5605 52.3656C46.2864 52.7458 46.0124 53.1261 45.7792 53.4999C45.5461 53.8736 45.272 54.2539 45.0454 54.6686C44.0916 56.2931 43.2326 57.9864 42.5909 59.7288C41.9084 61.4779 41.3681 63.3302 40.9912 65.1562C40.9002 65.6332 40.8027 66.0692 40.7526 66.5397C40.7025 67.0101 40.6049 67.4462 40.5548 67.9166C40.448 68.8165 40.3886 69.7509 40.3226 70.6442C40.3134 71.1081 40.2975 71.531 40.2882 71.9949C40.3132 72.4113 40.2973 72.8342 40.3223 73.2506C40.3473 73.6669 40.3854 74.1652 40.417 74.6226L40.4288 74.957L40.4354 74.9979C40.4354 74.9979 40.4222 74.916 40.4288 74.957L40.4419 75.0389L40.4683 75.2028C40.5012 75.4077 40.4932 75.6192 40.5261 75.8241C40.5919 76.2339 40.6169 76.6502 40.6827 77.06C40.7485 77.4698 40.8078 77.8387 40.8736 78.2485C40.9065 78.4534 40.9394 78.6583 40.9657 78.8222C40.9986 79.0271 41.0657 79.1844 41.0987 79.3893C41.1987 79.7516 41.2579 80.1204 41.358 80.4827C41.5173 81.2138 41.7516 81.8907 41.8978 82.5399C42.1256 83.1759 42.3125 83.8184 42.4863 84.379C42.7075 84.9741 42.9156 85.4871 43.1236 86.0002C43.2908 86.5198 43.5265 86.9444 43.7148 87.3345C44.0572 88.1623 44.4141 88.8196 44.609 89.2507C44.871 89.8392 44.9513 90.0785 44.9513 90.0785Z" fill="#FFF073"/>
<path d="M92.8934 51.1054C92.8934 51.1054 93.0896 51.2841 93.4755 51.6004C93.8272 51.9643 94.3961 52.3774 95.0177 53.1183C95.322 53.4478 95.6802 53.8527 96.045 54.2985C96.4098 54.7444 96.7812 55.2312 97.1591 55.759C97.5371 56.2868 97.8874 56.9032 98.2785 57.513C98.6353 58.1703 98.9922 58.8276 99.3622 59.5669C99.544 59.916 99.6914 60.3127 99.8797 60.7028C99.9535 60.9012 100.068 61.093 100.142 61.2913C100.216 61.4896 100.289 61.688 100.37 61.9273C100.517 62.324 100.671 62.7616 100.825 63.1993C100.979 63.637 101.092 64.0812 101.206 64.5254C101.286 64.7647 101.319 64.9696 101.399 65.209L101.425 65.3729L101.439 65.4548L101.445 65.4958C101.439 65.4548 101.458 65.5778 101.458 65.5778L101.465 65.6188L101.518 65.9466C101.59 66.3974 101.703 66.8416 101.782 67.3334C101.861 67.8251 101.947 68.3578 101.991 68.8971C102.03 69.3955 102.074 69.9348 102.112 70.4331C102.195 71.4707 102.196 72.5214 102.123 73.6262C102.083 74.6835 101.968 75.7949 101.806 76.8718C101.482 79.0257 100.912 81.219 100.113 83.2811C99.3128 85.3432 98.2957 87.3561 97.0824 89.1904C96.479 90.128 95.8216 90.9902 95.1577 91.8115C94.4937 92.6327 93.7823 93.4195 93.017 94.1309C91.5336 95.5882 89.97 96.8061 88.38 97.8601C87.9572 98.0962 87.5818 98.3667 87.1998 98.5961C86.8178 98.8256 86.3949 99.0617 86.0063 99.2502C85.2292 99.6272 84.452 100.004 83.7025 100.293C82.9596 100.622 82.1969 100.829 81.5225 101.063C81.1616 101.163 80.8415 101.257 80.4805 101.357C80.1605 101.45 79.8404 101.543 79.5137 101.596C78.2202 101.888 77.1112 102.024 76.2062 102.127C75.7505 102.158 75.3356 102.183 74.9615 102.201C74.5874 102.219 74.2884 102.183 74.0434 102.222C73.5403 102.219 73.2887 102.217 73.2887 102.217C73.2887 102.217 73.5271 102.137 73.9974 101.935C74.2358 101.855 74.5085 101.727 74.822 101.593C75.1355 101.458 75.5241 101.27 75.9192 101.122C76.7438 100.78 77.712 100.288 78.7961 99.7354C79.3349 99.4387 79.9145 99.1355 80.4875 98.7912C81.0539 98.406 81.6677 98.0552 82.2684 97.6225C84.7252 95.9669 87.3005 93.7458 89.6204 90.9772C89.901 90.6378 90.1816 90.2985 90.4556 89.9182C90.7296 89.5379 91.0102 89.1986 91.2843 88.8183C91.5583 88.438 91.8323 88.0577 92.0655 87.684C92.2987 87.3103 92.5727 86.93 92.7993 86.5153C93.7531 84.8908 94.6121 83.1975 95.2538 81.455C95.9363 79.706 96.4766 77.8537 96.8536 76.0277C96.9445 75.5507 97.042 75.1146 97.0921 74.6442C97.1423 74.1737 97.2398 73.7377 97.2899 73.2673C97.3967 72.3673 97.4561 71.433 97.5221 70.5396C97.5313 70.0758 97.5472 69.6528 97.5565 69.1889C97.5315 68.7726 97.5474 68.3497 97.5224 67.9333C97.4974 67.517 97.4593 67.0187 97.4277 66.5613L97.4159 66.2269L97.4094 66.1859C97.4094 66.1859 97.4225 66.2679 97.4159 66.2269L97.4028 66.145L97.3764 65.981C97.3435 65.7761 97.3515 65.5647 97.3186 65.3598C97.2528 64.95 97.2278 64.5336 97.162 64.1238C97.0962 63.714 97.037 63.3452 96.9712 62.9354C96.9382 62.7305 96.9053 62.5256 96.879 62.3617C96.8461 62.1568 96.779 61.9994 96.7461 61.7945C96.646 61.4323 96.5868 61.0635 96.4867 60.7012C96.3274 59.9701 96.0931 59.2931 95.9469 58.644C95.7192 58.008 95.5322 57.3654 95.3584 56.8048C95.1372 56.2098 94.9291 55.6968 94.7211 55.1837C94.5539 54.6641 94.3182 54.2395 94.1299 53.8494C93.7875 53.0216 93.4306 52.3643 93.2358 51.9332C93.0146 51.3381 92.8934 51.1054 92.8934 51.1054Z" fill="#F5D11D"/>
<path d="M51.2193 62.3371C56.3591 61.2175 57.6499 71.6035 52.95 73.1148C48.2502 74.6262 47.7406 63.1059 51.2193 62.3371Z" fill="black"/>
<path d="M84.0083 57.0718C89.148 55.9522 90.4388 66.3381 85.739 67.8495C81.0391 69.3608 80.5295 57.8406 84.0083 57.0718Z" fill="black"/>
<path d="M55.2 82.1699C62.1549 90.0069 78.5689 93.8868 87.4051 79.2684" stroke="black" stroke-width="2" stroke-miterlimit="10" stroke-linecap="round"/>
</svg>
