<svg width="30" height="29" viewBox="0 0 30 29" fill="none" xmlns="http://www.w3.org/2000/svg">
<path d="M15.4644 28.9606C20.827 28.9606 25.1743 28.5067 25.1743 27.9467C25.1743 27.3868 20.827 26.9329 15.4644 26.9329C10.1018 26.9329 5.75452 27.3868 5.75452 27.9467C5.75452 28.5067 10.1018 28.9606 15.4644 28.9606Z" fill="#D8D8E5"/>
<path d="M20.6463 20.6457V26.559C20.6463 27.0518 20.2516 27.454 19.7554 27.454H19.7497C19.496 27.454 19.2535 27.3407 19.0787 27.1481L16.5864 24.2764C16.4229 24.0895 16.1861 23.9819 15.9323 23.9819H15.8929C14.9399 23.9819 14.1674 23.2059 14.1674 22.2486V22.1127L14.1561 20.5947L20.6463 20.6457Z" fill="#D32F89"/>
<path d="M20.6463 20.6457V25.4715L19.7667 25.177C17.6634 24.2481 16.6315 22.4695 16.6315 22.4695C16.1579 22.9453 15.126 23.0983 14.4324 23.1549C14.2689 22.8887 14.1787 22.5828 14.1787 22.2486V22.1127L14.1561 20.5947L20.6463 20.6457Z" fill="#A51C6E"/>
<path d="M25.9748 19.4681C26.1553 19.8646 26.2511 20.2894 26.2511 20.7312C26.2511 22.7646 24.2212 24.4128 21.7232 24.4128C21.3511 24.4128 20.9902 24.3789 20.6462 24.3052C19.0956 23.9994 17.8551 23.0421 17.3927 21.8017L22.5803 18.1597L25.9748 19.4681Z" fill="#D32F89"/>
<path d="M18.3909 23.2285C17.9342 22.8264 17.5902 22.3449 17.3872 21.8068L22.5748 18.1648L25.9693 19.4675V19.4732C26.1498 19.8697 26.2456 20.2945 26.2456 20.7363C26.2456 20.8836 26.2344 21.0308 26.2118 21.1724L26.1892 21.297C25.8171 21.4443 25.4337 21.4896 25.0615 21.4726C23.9056 21.433 23.2797 20.6967 23.1782 20.589C22.7496 21.45 21.7177 22.1353 21.0524 22.5262C20.0994 23.0869 19.0732 23.2568 18.4868 23.3135L18.3909 23.2285Z" fill="#A51C6E"/>
<path d="M25.7888 13.7015C25.8114 13.5203 25.8227 13.339 25.8227 13.1521C25.8227 10.6033 23.8266 8.52453 21.323 8.39425C20.4715 7.58429 19.3269 7.08018 18.0582 7.08018C17.4492 7.08018 16.8684 7.19913 16.3327 7.4087C15.7407 6.93291 14.9907 6.64404 14.1731 6.64404C13.2878 6.64404 12.4815 6.98389 11.8725 7.53331C11.4101 7.2501 10.8688 7.08018 10.288 7.08018C9.0757 7.08018 8.03817 7.79386 7.55324 8.83039C7.45738 8.81906 7.36153 8.8134 7.26567 8.8134C5.59661 8.8134 4.24332 10.1728 4.24332 11.8494C4.24332 11.8833 4.24895 11.923 4.24895 11.957C3.46517 12.5064 2.94641 13.4183 2.94641 14.4492C2.94641 15.0269 3.10993 15.5594 3.38623 16.0181C3.38623 16.0748 3.38059 16.1258 3.38059 16.1824C3.38059 18.3348 5.11732 20.085 7.26567 20.085C7.44047 20.085 7.61527 20.068 7.78443 20.0453C8.16222 21.8012 9.71851 23.1209 11.5793 23.1209C13.0284 23.1209 14.2859 22.3223 14.9569 21.1442C15.7519 21.5746 16.6598 21.8182 17.624 21.8182C19.8569 21.8182 21.7797 20.5041 22.6819 18.6066C23.2345 19.2467 24.0465 19.6488 24.96 19.6488C26.629 19.6488 27.9823 18.2895 27.9823 16.6129C27.9823 15.2308 27.0519 14.064 25.7888 13.7015Z" fill="#F23694"/>
<path d="M12.4475 20.4306C11.4043 20.4306 10.4852 19.6886 10.2653 18.6634L10.1131 17.9497L9.39696 18.046C9.27855 18.063 9.18269 18.0687 9.09811 18.0687C7.86323 18.0687 6.85954 17.0605 6.85954 15.82C6.85954 15.8144 6.85954 15.803 6.85954 15.7974C6.85954 15.7747 6.86518 15.7521 6.86518 15.7294L6.87646 15.4915L6.7524 15.2876C6.6058 15.0384 6.52686 14.7608 6.52686 14.4776C6.52686 13.9622 6.7806 13.4807 7.2035 13.1862L7.5531 12.9427L7.53619 12.5122C7.53619 12.4895 7.53619 12.4725 7.53055 12.4555V12.4499C7.53619 11.5889 8.23539 10.8866 9.09811 10.8866C9.14322 10.8866 9.19397 10.8866 9.25036 10.8923L9.80295 10.9432L10.0398 10.4391C10.2992 9.8897 10.8518 9.53286 11.4551 9.53286C11.7427 9.53286 12.0246 9.61216 12.2727 9.77076L12.7746 10.0823L13.2144 9.69146C13.564 9.37427 14.0151 9.20435 14.4774 9.20435C14.9116 9.20435 15.3233 9.35161 15.6672 9.62349L16.0225 9.9067L16.4454 9.74244C16.7893 9.6065 17.1446 9.53853 17.4998 9.53853C18.2441 9.53853 18.9546 9.82173 19.5015 10.3428L19.7102 10.5411L19.9977 10.5581C21.5428 10.6374 22.7551 11.9175 22.7551 13.4694C22.7551 13.5714 22.7494 13.6847 22.7325 13.8093L22.6536 14.472L23.2964 14.6532C23.9674 14.8458 24.4298 15.4632 24.4298 16.1655C24.4298 17.0321 23.7306 17.7402 22.8622 17.7402C22.4111 17.7402 21.9826 17.5419 21.6837 17.1964L20.8999 16.2901L20.3868 17.372C20.0992 17.9781 19.6481 18.4878 19.0899 18.8503C18.5148 19.2242 17.8494 19.4224 17.1615 19.4224C16.5694 19.4224 15.9773 19.2751 15.4586 18.9919L14.7819 18.6238L14.4041 19.2921C13.9925 19.9945 13.2482 20.4306 12.4475 20.4306Z" fill="#FC47AA"/>
<path d="M5.34279 13.0108C4.95372 13.2487 4.63231 13.6112 4.44059 14.0643C4.40676 14.1493 4.37293 14.2795 4.34474 14.4155C4.29963 14.6251 4.07972 14.7497 3.87672 14.676L3.85981 14.6704C3.69064 14.6081 3.58915 14.4268 3.62862 14.2512C3.66809 14.0983 3.7132 13.9397 3.77523 13.7924C4.02333 13.192 4.44623 12.7163 4.96499 12.4047C5.15671 12.2858 5.41045 12.3764 5.4894 12.586C5.55142 12.7389 5.4894 12.9202 5.34279 13.0108Z" fill="#FF76C1"/>
<path d="M19.4396 8.67205C19.0674 8.40583 18.6163 8.24724 18.1257 8.2529C18.0355 8.2529 17.9002 8.27556 17.7705 8.29821C17.5562 8.33786 17.3589 8.17927 17.3476 7.96403V7.94704C17.3363 7.76579 17.466 7.60153 17.6465 7.57321C17.8043 7.54489 17.9622 7.53356 18.1257 7.53356C18.7742 7.5279 19.3719 7.73747 19.8625 8.08864C20.0429 8.21892 20.0655 8.48513 19.9019 8.64373C19.7723 8.75701 19.5805 8.76834 19.4396 8.67205Z" fill="#FF76C1"/>
<path d="M9.04751 8.63791C8.90654 8.46232 8.95729 8.20744 9.149 8.09415C9.48169 7.90158 9.84257 7.78263 10.2091 7.73165C10.4346 7.69767 10.6263 7.87892 10.6151 8.10548C10.6094 8.27541 10.4797 8.42267 10.3106 8.44533C10.0286 8.48498 9.75799 8.5756 9.50424 8.72287C9.352 8.80783 9.16028 8.77385 9.04751 8.63791Z" fill="#FF76C1"/>
<path d="M4.05155 15.1575L4.07411 15.1405C4.27146 15.0102 4.53084 15.0669 4.66617 15.2594C4.71692 15.3331 4.76767 15.401 4.82406 15.469C4.95375 15.6219 4.95939 15.8428 4.84097 16.0014L4.82406 16.0241C4.66053 16.245 4.33349 16.2563 4.15869 16.0468C4.07975 15.9505 4.00644 15.8542 3.93314 15.7466C3.80345 15.5596 3.8542 15.2934 4.05155 15.1575Z" fill="#FF76C1"/>
<path d="M16.6484 8.73975C16.5638 8.76807 16.4848 8.80772 16.4059 8.8417C16.2255 8.92666 16.0112 8.88701 15.8871 8.73408L15.8702 8.71143C15.6954 8.50185 15.7631 8.179 16.0112 8.05439C16.124 7.99775 16.2367 7.95243 16.3552 7.90712C16.5751 7.82782 16.8232 7.94111 16.9021 8.16201L16.9134 8.19033C16.9867 8.41689 16.8683 8.66045 16.6484 8.73975Z" fill="#FF76C1"/>
<path d="M7.7843 20.0456C7.61514 20.0682 7.44597 20.0852 7.27117 20.0852C5.41604 20.0852 3.85975 18.7768 3.47632 17.0266C4.18116 17.9952 5.32582 18.6296 6.61144 18.6296C6.7073 18.6296 6.93285 18.6069 7.15276 18.5786C7.37831 18.5503 7.57566 18.7315 7.57003 18.9581C7.56439 19.3319 7.6095 19.6718 7.7843 20.0456Z" fill="#C1257B"/>
<path d="M27.9765 16.6696C27.9483 18.3122 26.595 19.649 24.9598 19.649C24.0463 19.649 23.2344 19.2468 22.6818 18.6068C21.7796 20.5042 19.8568 21.8183 17.6238 21.8183C16.6596 21.8183 15.7518 21.5748 14.9567 21.1443C14.2914 22.3224 13.0283 23.1211 11.5791 23.1211C9.724 23.1211 8.17335 21.8127 7.78992 20.0624C8.49476 21.031 9.63378 21.6654 10.925 21.6654C12.2219 21.6654 13.3722 21.0253 14.0771 20.0398C14.2124 19.8529 14.4605 19.7792 14.6692 19.8755C15.3684 20.1927 16.1465 20.3683 16.9641 20.3683C19.0673 20.3683 20.8943 19.2015 21.8529 17.4853C21.9375 17.3323 22.1461 17.2984 22.2758 17.4173C22.8397 17.9271 23.5896 18.2329 24.4185 18.199C26.0086 18.1367 27.2942 16.8169 27.3224 15.2196C27.3281 15.0384 27.3112 14.8628 27.2886 14.6929C27.7284 15.2196 27.9934 15.9163 27.9765 16.6696Z" fill="#C1257B"/>
<path d="M15.3571 15.667C17.0939 16.6639 17.06 18.7766 17.06 18.7766C17.06 18.7766 16.4454 17.723 14.6692 17.7117C12.893 17.7174 12.2784 18.7766 12.2784 18.7766C12.2784 18.7766 12.1656 16.6752 13.8741 15.6726C14.3365 15.4008 14.9004 15.4008 15.3571 15.667Z" fill="#C1257B"/>
<path d="M16.1296 18.0913C15.7687 17.9441 15.295 17.8251 14.6748 17.8251C13.9812 17.8308 13.4681 17.9724 13.0959 18.148C13.2764 17.4116 13.9079 16.8169 14.5056 17.1058C14.5056 17.1001 15.5995 16.3694 16.1296 18.0913Z" fill="#A51C6E"/>
<path d="M10.598 13.6392C10.3668 13.3107 10.2371 12.8972 10.2709 12.4554C10.333 11.5548 11.0604 10.8241 11.9569 10.7618C13.0226 10.6882 13.9079 11.5321 13.9079 12.5856C13.9079 13.0501 13.7388 13.4692 13.4568 13.7921C12.5997 13.2823 11.5509 13.22 10.6375 13.6222L10.598 13.6392Z" fill="white"/>
<path d="M11.3817 13.5653C11.0772 13.3444 10.8799 12.9876 10.8799 12.5854C10.8799 11.917 11.4212 11.3733 12.0866 11.3733C12.7519 11.3733 13.2933 11.917 13.2933 12.5854C13.2933 13.0046 13.0846 13.3727 12.7632 13.588L11.3817 13.5653Z" fill="#13131E"/>
<path d="M11.5678 12.5403C11.7328 12.5403 11.8666 12.4059 11.8666 12.2401C11.8666 12.0743 11.7328 11.9399 11.5678 11.9399C11.4027 11.9399 11.2689 12.0743 11.2689 12.2401C11.2689 12.4059 11.4027 12.5403 11.5678 12.5403Z" fill="white"/>
<path d="M12.0414 12.0247C12.1131 12.0247 12.1711 11.9664 12.1711 11.8944C12.1711 11.8225 12.1131 11.7642 12.0414 11.7642C11.9698 11.7642 11.9117 11.8225 11.9117 11.8944C11.9117 11.9664 11.9698 12.0247 12.0414 12.0247Z" fill="white"/>
<path d="M18.8251 13.6392C19.0562 13.3107 19.1859 12.8972 19.1521 12.4554C19.0901 11.5548 18.3627 10.8241 17.4661 10.7618C16.4004 10.6882 15.5151 11.5321 15.5151 12.5856C15.5151 13.0501 15.6843 13.4692 15.9662 13.7921C16.8233 13.2823 17.8721 13.22 18.7856 13.6222L18.8251 13.6392Z" fill="white"/>
<path d="M18.0412 13.5655C18.3457 13.3446 18.543 12.9878 18.543 12.5857C18.543 11.9173 18.0017 11.3735 17.3363 11.3735C16.671 11.3735 16.1296 11.9173 16.1296 12.5857C16.1296 13.0048 16.3383 13.373 16.6597 13.5882L18.0412 13.5655Z" fill="#13131E"/>
<path d="M17.8495 12.5406C18.0146 12.5406 18.1484 12.4062 18.1484 12.2404C18.1484 12.0746 18.0146 11.9402 17.8495 11.9402C17.6845 11.9402 17.5507 12.0746 17.5507 12.2404C17.5507 12.4062 17.6845 12.5406 17.8495 12.5406Z" fill="white"/>
<path d="M17.3814 12.025C17.453 12.025 17.5111 11.9666 17.5111 11.8947C17.5111 11.8227 17.453 11.7644 17.3814 11.7644C17.3098 11.7644 17.2517 11.8227 17.2517 11.8947C17.2517 11.9666 17.3098 12.025 17.3814 12.025Z" fill="white"/>
<path d="M28.2361 16.6131C28.2361 15.2254 27.3508 13.9793 26.0652 13.5205C26.0765 13.3902 26.0821 13.2656 26.0821 13.1467C26.0821 10.5072 24.0465 8.32653 21.4302 8.14528C20.5054 7.29566 19.31 6.82554 18.0582 6.82554C17.4887 6.82554 16.9192 6.92749 16.3779 7.12007C15.7351 6.64429 14.9795 6.3894 14.1788 6.3894C13.333 6.3894 12.5097 6.68394 11.85 7.22203C11.3707 6.96148 10.835 6.82554 10.2937 6.82554C9.09265 6.82554 7.97618 7.49957 7.41231 8.56442C7.3672 8.56442 7.32209 8.55876 7.27698 8.55876C5.47823 8.55876 4.01216 10.0258 4.00088 11.8326C3.18891 12.4557 2.70398 13.4242 2.70398 14.4494C2.70398 15.0215 2.85622 15.5823 3.13816 16.0807C3.13816 16.109 3.13252 16.143 3.13252 16.1827C3.13252 18.4766 4.98766 20.3401 7.27134 20.3401C7.37847 20.3401 7.48561 20.3344 7.59838 20.3231C7.82393 21.1501 8.30886 21.8921 8.96859 22.4358C9.70163 23.0362 10.632 23.3704 11.585 23.3704C12.4477 23.3704 13.2709 23.0985 13.9532 22.6171C14.128 23.5403 14.9344 24.237 15.8986 24.237H15.938C16.1128 24.237 16.282 24.3106 16.4004 24.4466L18.8984 27.3183C19.1183 27.5618 19.434 27.7035 19.7611 27.7035C20.3926 27.7035 20.9058 27.188 20.9058 26.5536V24.6108C21.1708 24.6505 21.4471 24.6675 21.729 24.6675C24.3679 24.6675 26.5106 22.9003 26.5106 20.7309C26.5106 20.3458 26.443 19.9663 26.3133 19.6094C27.441 19.094 28.2361 17.9442 28.2361 16.6131ZM19.7498 27.1937C19.5694 27.1937 19.3946 27.1144 19.2705 26.9784L16.7782 24.1067C16.5639 23.8632 16.2595 23.7272 15.938 23.7272H15.8986C15.0866 23.7272 14.4269 23.0645 14.4269 22.2489V22.2319C14.6637 22.0054 14.8723 21.7561 15.0528 21.4786C15.7294 21.8071 16.4681 22.0054 17.218 22.062C17.7312 23.2515 18.9209 24.169 20.3926 24.5202V26.565C20.3926 26.9105 20.1051 27.1937 19.7498 27.1937ZM25.9975 20.7309C25.9975 22.6227 24.0804 24.1577 21.7234 24.1577C21.3625 24.1577 21.0185 24.1237 20.6971 24.0558C19.3889 23.7952 18.3119 23.0476 17.7932 22.0677C18.8645 22.0393 19.8964 21.7165 20.7986 21.1331C21.6162 20.6063 22.2872 19.8813 22.7553 19.0317C23.3586 19.5868 24.148 19.8983 24.9656 19.8983C25.2701 19.8983 25.5577 19.8587 25.8396 19.7794C25.9411 20.0909 25.9975 20.4081 25.9975 20.7309ZM25.9129 19.2243C25.9017 19.2299 25.8847 19.2299 25.8735 19.2356C25.5859 19.3376 25.2814 19.3942 24.96 19.3942C24.1593 19.3942 23.4037 19.043 22.8737 18.437C22.868 18.4313 22.8624 18.4256 22.8568 18.42C22.603 18.1254 22.4169 17.7799 22.3042 17.4061C22.2647 17.2702 22.1237 17.1965 21.9884 17.2362C21.8531 17.2758 21.7798 17.4174 21.8192 17.5534C21.9376 17.9442 22.1294 18.318 22.3775 18.6409C21.9489 19.4792 21.3061 20.1928 20.511 20.7083C19.6483 21.269 18.6503 21.5636 17.6184 21.5636C17.5564 21.5636 17.4943 21.5636 17.4323 21.5579C17.4098 21.5522 17.3872 21.5522 17.3646 21.5522C16.5639 21.5126 15.7745 21.2973 15.0753 20.9122C15.0753 20.9122 15.0753 20.9122 15.0697 20.9122C14.7596 20.7423 14.4663 20.544 14.1957 20.3175C14.0885 20.2268 13.9307 20.2438 13.8404 20.3514C13.7502 20.4591 13.7671 20.6177 13.8743 20.7083C14.1055 20.9009 14.3479 21.0708 14.6017 21.2294C14.4381 21.4786 14.2408 21.7052 14.0265 21.9034C14.0096 21.9147 13.9983 21.9261 13.9814 21.9431C13.3273 22.5208 12.4759 22.855 11.5793 22.855C9.88206 22.855 8.39344 21.6485 8.03257 19.9833C8.03257 19.9776 8.02693 19.9719 8.02693 19.9719C7.95926 19.6434 7.93107 19.3092 7.95362 18.9694C7.9649 18.8278 7.85777 18.7088 7.7168 18.6975C7.57583 18.6862 7.45742 18.7938 7.44614 18.9354C7.42922 19.2299 7.4405 19.5245 7.47997 19.8133C7.40103 19.819 7.32773 19.8247 7.26006 19.8247C5.47259 19.8247 3.98397 18.5163 3.68512 16.8057C3.93886 17.0549 4.23771 17.2588 4.56476 17.4174C4.59859 17.4344 4.63806 17.4401 4.67189 17.4401C4.76775 17.4401 4.85797 17.3891 4.90308 17.2928C4.9651 17.1682 4.90872 17.0153 4.78467 16.953C4.30537 16.7264 3.90503 16.3639 3.62309 15.9108C3.61745 15.8994 3.61181 15.8881 3.60617 15.8768C3.34115 15.4407 3.20583 14.9422 3.20583 14.4381C3.20583 13.5318 3.65128 12.6766 4.39559 12.1555C4.40123 12.1498 4.40687 12.1498 4.40687 12.1441C4.75647 11.9062 5.15682 11.7477 5.57409 11.6853C5.71505 11.6627 5.81091 11.5381 5.78836 11.3965C5.7658 11.2549 5.64175 11.1586 5.50078 11.1812C5.16246 11.2322 4.82978 11.3342 4.51965 11.4871C4.68881 10.1164 5.85602 9.0572 7.2657 9.0572C7.35028 9.0572 7.43486 9.06286 7.53072 9.06853C7.53636 9.06853 7.53636 9.06853 7.542 9.06853C7.85777 9.10251 8.16789 9.18747 8.45547 9.32341C8.4893 9.34041 8.52877 9.34607 8.56261 9.34607C8.65846 9.34607 8.74868 9.29509 8.79379 9.1988C8.85582 9.07419 8.79943 8.92126 8.67538 8.85896C8.44419 8.75134 8.20173 8.66638 7.95362 8.6154C8.45547 7.81676 9.34075 7.31832 10.2881 7.31832C10.7955 7.31832 11.2974 7.45992 11.7372 7.7318C11.7485 7.73746 11.7541 7.74313 11.7654 7.74879C12.0755 7.94703 12.3462 8.20192 12.5548 8.50778C12.6056 8.58142 12.6845 8.6154 12.7634 8.6154C12.8142 8.6154 12.8649 8.59841 12.9101 8.57009C13.0228 8.49079 13.051 8.33219 12.9721 8.21325C12.7804 7.94137 12.5548 7.69781 12.2954 7.49391C12.8424 7.09742 13.4965 6.87652 14.1731 6.87652C14.7596 6.87652 15.3178 7.03511 15.814 7.33531C15.6448 7.42027 15.4869 7.5109 15.3291 7.61285C15.2107 7.69215 15.1768 7.84508 15.2558 7.96403C15.3065 8.03766 15.3855 8.07731 15.47 8.07731C15.5151 8.07731 15.5659 8.06598 15.611 8.03766C15.8591 7.87907 16.1185 7.74313 16.3891 7.62985C16.4004 7.62418 16.4173 7.62418 16.4286 7.61852C16.9587 7.40894 17.5056 7.30699 18.0638 7.30699C19.2141 7.30699 20.3137 7.74879 21.1539 8.54743C21.1651 8.55876 21.1708 8.56442 21.1821 8.57009C21.588 8.96091 21.9151 9.4197 22.1463 9.93514C22.1914 10.0258 22.2816 10.0824 22.3775 10.0824C22.4113 10.0824 22.4508 10.0767 22.4846 10.0597C22.6143 10.0031 22.665 9.85018 22.6086 9.7199C22.4395 9.35173 22.2309 9.01189 21.9884 8.70036C24.0465 9.11951 25.5803 10.9433 25.5803 13.1184C25.5803 13.277 25.569 13.4525 25.5464 13.6395C25.5464 13.6508 25.5464 13.6565 25.5464 13.6678C25.5013 14.0416 25.4111 14.4098 25.2758 14.761C25.225 14.8912 25.287 15.0385 25.4224 15.0895C25.4506 15.1008 25.4844 15.1065 25.5126 15.1065C25.6141 15.1065 25.7099 15.0442 25.7494 14.9422C25.8678 14.642 25.9524 14.3305 26.0088 14.0076C27.0407 14.4268 27.7399 15.4463 27.7399 16.5791C27.7286 17.8083 26.973 18.8335 25.9129 19.2243Z" fill="#13131E"/>
<path d="M7.82956 13.3447C7.33899 13.3447 6.92737 13.492 6.62852 13.7639C6.27328 13.6619 5.87857 13.6846 5.45002 13.8205C5.31469 13.8658 5.24139 14.0074 5.2865 14.1434C5.32033 14.251 5.42183 14.319 5.52897 14.319C5.55716 14.319 5.57971 14.3133 5.60791 14.3076C5.85037 14.2283 6.07592 14.2 6.28455 14.2227C6.15486 14.4775 6.0872 14.7834 6.0872 15.1289C6.0872 15.2705 6.19997 15.3838 6.34094 15.3838C6.48191 15.3838 6.59468 15.2705 6.59468 15.1289C6.59468 14.8344 6.6849 13.8658 7.8352 13.8658C7.97617 13.8658 8.08894 13.7525 8.08894 13.6109C8.08894 13.4693 7.97053 13.3447 7.82956 13.3447Z" fill="#13131E"/>
<path d="M8.52298 10.5129C8.48351 10.5186 7.53057 10.6489 7.29374 11.8327C7.26555 11.9686 7.35577 12.1045 7.49109 12.1329C7.50801 12.1385 7.52493 12.1385 7.54184 12.1385C7.66026 12.1385 7.76739 12.0536 7.78995 11.9346C7.94783 11.1246 8.55117 11.0284 8.58501 11.0227C8.72033 11.0057 8.82183 10.8754 8.80492 10.7395C8.788 10.5922 8.66395 10.4959 8.52298 10.5129Z" fill="#13131E"/>
<path d="M22.1066 12.3879C21.9657 12.3709 21.8416 12.4672 21.8247 12.6088C21.8078 12.7448 21.9036 12.875 22.039 12.8977C22.0672 12.9034 22.6705 12.9997 22.834 13.8096C22.8566 13.9286 22.9637 14.0135 23.0821 14.0135C23.099 14.0135 23.116 14.0135 23.1329 14.0079C23.2682 13.9795 23.3584 13.8436 23.3302 13.7077C23.099 12.5239 22.1461 12.3936 22.1066 12.3879Z" fill="#13131E"/>
<path d="M23.8716 16.1882C23.7307 16.1712 23.6066 16.2675 23.5897 16.4091C23.5728 16.5451 23.6686 16.6753 23.804 16.698C23.8322 16.7037 24.4355 16.7999 24.599 17.6099C24.6216 17.7289 24.7287 17.8138 24.8471 17.8138C24.8641 17.8138 24.881 17.8138 24.8979 17.8082C25.0332 17.7798 25.1234 17.6439 25.0952 17.508C24.8641 16.3242 23.9167 16.1939 23.8716 16.1882Z" fill="#13131E"/>
<path d="M17.624 9.14212C17.6578 9.14212 18.5149 9.19876 18.7574 9.98041C18.7912 10.088 18.8927 10.156 18.9998 10.156C19.0224 10.156 19.0506 10.1503 19.0788 10.1447C19.2141 10.105 19.2874 9.95775 19.2423 9.82748C19.169 9.58392 19.0506 9.39134 18.9153 9.23841C19.169 9.08548 19.4227 9.09114 19.434 9.09114C19.575 9.10247 19.6934 8.99485 19.7047 8.85325C19.716 8.71165 19.6088 8.5927 19.4679 8.58137C19.4453 8.58137 18.9435 8.55305 18.5093 8.89856C18.0976 8.65501 17.6804 8.63235 17.6522 8.63235C17.5112 8.62669 17.3928 8.7343 17.3872 8.87591C17.3759 9.01751 17.483 9.13646 17.624 9.14212Z" fill="#13131E"/>
<path d="M19.8851 17.4172C19.7554 17.3719 19.6088 17.4455 19.5637 17.5758C19.5524 17.6098 19.2705 18.4198 18.4585 18.4481C18.3175 18.4538 18.2104 18.5727 18.216 18.7086C18.2217 18.8446 18.3344 18.9579 18.4698 18.9579C18.4754 18.9579 18.4754 18.9579 18.4811 18.9579C18.7348 18.9522 18.9491 18.8899 19.1295 18.7993C19.2084 19.0881 19.1351 19.3317 19.1295 19.343C19.0844 19.4733 19.1521 19.6206 19.2874 19.6659C19.3156 19.6772 19.3438 19.6829 19.372 19.6829C19.4791 19.6829 19.575 19.6149 19.6144 19.5129C19.6201 19.4903 19.7836 19.0145 19.5693 18.4991C19.9133 18.1649 20.0486 17.7684 20.0599 17.7401C20.0881 17.6041 20.0204 17.4625 19.8851 17.4172Z" fill="#13131E"/>
<path d="M11.5116 19.9492C11.4777 19.9322 10.7052 19.5697 10.756 18.7598C10.7673 18.6182 10.6601 18.4992 10.5192 18.4879C10.3782 18.4766 10.2598 18.5842 10.2485 18.7258C10.2316 18.9807 10.2711 19.2016 10.3387 19.3941C10.0455 19.4451 9.80868 19.3432 9.7974 19.3375C9.66771 19.2809 9.52111 19.3318 9.45908 19.4621C9.40269 19.5924 9.45344 19.7396 9.58313 19.802C9.60005 19.8076 9.83687 19.9152 10.1696 19.9152C10.2992 19.9152 10.4459 19.8982 10.5925 19.8529C10.8913 20.2268 11.2691 20.4023 11.2973 20.4137C11.3311 20.4307 11.365 20.4363 11.3988 20.4363C11.4947 20.4363 11.5905 20.3797 11.63 20.2834C11.6977 20.1588 11.6413 20.0115 11.5116 19.9492Z" fill="#13131E"/>
<path d="M23.725 20.2835C23.7645 20.1475 23.6912 20.0059 23.5559 19.9663C23.4205 19.9266 23.2796 20.0002 23.2401 20.1362C23.2345 20.1475 22.8228 21.5012 21.3286 22.045C20.9113 22.1979 20.4997 22.3622 20.1106 22.5378C19.9809 22.5944 19.9245 22.7473 19.9809 22.872C20.0204 22.9682 20.1162 23.0249 20.2121 23.0249C20.2459 23.0249 20.2798 23.0192 20.3136 23.0022C20.6914 22.8323 21.0917 22.6737 21.4977 22.5264C23.2288 21.8921 23.7081 20.3458 23.725 20.2835Z" fill="#13131E"/>
<path d="M24.3397 20.9633C24.2044 20.9406 24.069 21.0369 24.0465 21.1728C24.0465 21.1785 23.9168 21.8469 23.0315 22.4246C22.6424 22.6795 22.2365 22.9004 21.8248 23.076C21.6951 23.1326 21.6388 23.2799 21.6951 23.4102C21.7346 23.5065 21.8305 23.5631 21.9263 23.5631C21.9602 23.5631 21.994 23.5574 22.0278 23.5404C22.462 23.3535 22.8962 23.1156 23.3078 22.8494C24.3905 22.1414 24.5427 21.2918 24.5483 21.2521C24.5709 21.1219 24.475 20.9859 24.3397 20.9633Z" fill="#13131E"/>
<path d="M18.4529 24.1066C18.3739 23.9876 18.216 23.9593 18.1033 24.0386C17.9849 24.1179 17.9567 24.2765 18.0356 24.3898L19.2479 26.2136C19.2987 26.2873 19.3776 26.3269 19.4566 26.3269C19.5073 26.3269 19.5524 26.3156 19.5975 26.2816C19.7159 26.2023 19.7441 26.0437 19.6652 25.9304L18.4529 24.1066Z" fill="#13131E"/>
<path d="M15.4868 15.4405C14.9512 15.129 14.2858 15.1347 13.7501 15.4462C11.9288 16.5111 12.0247 18.6917 12.0303 18.7824C12.0359 18.89 12.1092 18.9863 12.2164 19.0146C12.3235 19.0429 12.4363 18.9976 12.4927 18.907C12.4983 18.9013 12.69 18.6181 13.175 18.3802C13.1919 18.3746 13.2032 18.3689 13.2201 18.3576C13.5584 18.199 14.032 18.0687 14.6692 18.0687C15.2387 18.0687 15.6786 18.1763 16.0056 18.3066C16.0225 18.3123 16.0394 18.3236 16.0507 18.3236C16.6089 18.5615 16.8345 18.8787 16.8458 18.9013C16.8909 18.975 16.9755 19.0146 17.06 19.0146C17.0826 19.0146 17.1051 19.0089 17.1333 19.0033C17.2405 18.9693 17.3138 18.873 17.3138 18.7597C17.3194 18.6804 17.3307 16.5054 15.4868 15.4405ZM13.5584 17.7062C13.6712 17.5419 13.8121 17.406 13.9587 17.338C14.111 17.2644 14.2576 17.2644 14.3929 17.3324C14.4719 17.372 14.5677 17.3663 14.641 17.3154C14.6467 17.3154 14.9342 17.1285 15.2275 17.2361C15.3966 17.2984 15.5489 17.4513 15.6786 17.6835C15.3853 17.6156 15.0527 17.5703 14.6636 17.5703C14.2407 17.5703 13.8742 17.6212 13.5584 17.7062ZM16.3326 17.9044C16.124 17.2927 15.8139 16.9076 15.4023 16.7603C15.0188 16.6243 14.6692 16.7376 14.4888 16.8226C14.2463 16.7433 13.9869 16.7603 13.7445 16.8792C13.3554 17.0661 13.034 17.474 12.8817 17.9724C12.769 18.029 12.6675 18.0914 12.5829 18.1537C12.6844 17.5023 13.0002 16.4827 14.0095 15.8937C14.2012 15.7804 14.4098 15.7294 14.6241 15.7294C14.8327 15.7294 15.047 15.7861 15.2387 15.8937C16.2481 16.4714 16.6089 17.4796 16.7386 18.1367C16.6202 18.0517 16.4905 17.9724 16.3326 17.9044Z" fill="#13131E"/>
<path d="M13.9024 14.2C13.9926 14.2 14.0828 14.1491 14.1279 14.0641C14.1956 13.9395 14.1449 13.7866 14.0208 13.7186C14.0095 13.7129 13.9701 13.6959 13.908 13.6619C14.0998 13.3391 14.2013 12.9653 14.2013 12.5858C14.2013 11.4133 13.2483 10.4561 12.0811 10.4561C10.9139 10.4561 9.96094 11.4133 9.96094 12.5858C9.96094 12.9426 10.0455 13.2824 10.209 13.5883C10.1921 13.594 10.1752 13.5996 10.1583 13.611C10.0286 13.6676 9.97221 13.8205 10.0286 13.9451C10.085 14.0698 10.2372 14.1321 10.3613 14.0754C12.0867 13.3108 13.7445 14.1547 13.7727 14.1717C13.8235 14.1887 13.8629 14.2 13.9024 14.2ZM10.6996 13.4127C10.553 13.1635 10.4741 12.8803 10.4741 12.5858C10.4741 11.6908 11.1958 10.9658 12.0867 10.9658C12.972 10.9658 13.6994 11.6908 13.6994 12.5858C13.6994 12.903 13.6035 13.2145 13.4287 13.4807C12.8198 13.2881 11.8104 13.0899 10.6996 13.4127Z" fill="#13131E"/>
<path d="M19.3831 13.9451C19.4395 13.8149 19.3831 13.6676 19.2534 13.611C19.2365 13.6053 19.2196 13.5996 19.2027 13.5883C19.3662 13.2824 19.4508 12.9426 19.4508 12.5858C19.4508 11.4133 18.4978 10.4561 17.3306 10.4561C16.1634 10.4561 15.2104 11.4133 15.2104 12.5858C15.2104 12.9653 15.3119 13.3391 15.5037 13.6619C15.4416 13.6903 15.4022 13.7129 15.3909 13.7186C15.2668 13.7866 15.2217 13.9395 15.2838 14.0641C15.3289 14.1491 15.4191 14.2 15.5093 14.2C15.5488 14.2 15.5882 14.1887 15.6277 14.1717C15.6446 14.1604 17.3081 13.3108 19.0391 14.0754C19.1745 14.1321 19.3267 14.0754 19.3831 13.9451ZM15.9942 13.4807C15.8194 13.2145 15.7236 12.9086 15.7236 12.5858C15.7236 11.6908 16.4453 10.9658 17.3362 10.9658C18.2272 10.9658 18.9489 11.6908 18.9489 12.5858C18.9489 12.8803 18.87 13.1635 18.7234 13.4127C17.6125 13.0899 16.6032 13.2881 15.9942 13.4807Z" fill="#13131E"/>
<path d="M26.3471 0.323058C26.0651 0.232432 25.7606 0.323058 25.5689 0.549623L21.3568 5.68131C21.1369 5.94752 21.2609 6.35534 21.588 6.45729L23.539 7.04636C23.866 7.14265 23.9901 7.53913 23.7814 7.81101L21.5034 10.4618C21.182 10.8753 21.6556 11.4417 22.118 11.1868L27.9315 7.38054C28.3037 7.17663 28.2529 6.62155 27.8413 6.49127L26.2738 5.9985C25.9016 5.87955 25.8114 5.3981 26.1215 5.15454L29.4709 2.5264C29.922 2.16956 29.798 1.45022 29.251 1.27463L26.3471 0.323058Z" fill="#FFDD4D"/>
<path d="M21.887 11.5042C21.6784 11.5042 21.481 11.4135 21.3344 11.238C21.1032 10.9661 21.0919 10.5866 21.3118 10.3034C21.3118 10.2977 21.3175 10.2977 21.3175 10.2921L23.5899 7.64691C23.635 7.58461 23.6463 7.51097 23.6237 7.43734C23.6012 7.36371 23.5448 7.30707 23.4715 7.28441L21.5205 6.69534C21.2837 6.62171 21.0976 6.44046 21.0243 6.20257C20.951 5.96467 21.0017 5.70979 21.1596 5.51721L25.3774 0.391188C25.6311 0.0796622 26.0427 -0.0392841 26.4262 0.0853263L29.3301 1.0369C29.6741 1.15018 29.9222 1.43905 29.9842 1.79589C30.0462 2.15273 29.9109 2.50957 29.6233 2.73613L26.2796 5.35861C26.1837 5.43791 26.1893 5.53986 26.195 5.57951C26.2006 5.61916 26.2344 5.72112 26.3529 5.76076L27.9204 6.25354C28.208 6.34417 28.4053 6.58772 28.4335 6.88792C28.4617 7.18246 28.3208 7.46 28.0614 7.60726L22.2535 11.4079C22.2479 11.4135 22.2422 11.4135 22.2366 11.4192C22.1351 11.4702 22.011 11.5042 21.887 11.5042ZM21.7122 10.6206C21.6107 10.7565 21.6953 10.8755 21.7235 10.9094C21.7517 10.9434 21.8532 11.0454 21.9998 10.9661L27.802 7.16546C27.8076 7.1598 27.8133 7.1598 27.8189 7.15414C27.943 7.08617 27.943 6.96722 27.9373 6.92757C27.9317 6.89359 27.9091 6.77464 27.7795 6.72933L26.2119 6.23655C25.9525 6.15159 25.7552 5.93635 25.71 5.66447C25.6649 5.3926 25.7608 5.12072 25.9807 4.9508L29.3245 2.32265C29.4598 2.21503 29.5275 2.04511 29.4936 1.87519C29.4598 1.70526 29.347 1.56932 29.1779 1.51268L26.2683 0.566776C26.0878 0.50447 25.8905 0.566776 25.7664 0.714043L21.5543 5.84573C21.5036 5.90803 21.4866 5.98733 21.5092 6.06096C21.5318 6.1346 21.5881 6.19124 21.6614 6.21389L23.6124 6.80296C23.8436 6.87093 24.0297 7.05218 24.103 7.28441C24.1763 7.51664 24.1312 7.77152 23.9846 7.9641C23.9846 7.96977 23.979 7.96977 23.979 7.97543L21.7122 10.6206Z" fill="#13131E"/>
<path opacity="0.1" d="M24.7853 8.12842L24.7966 8.11143C25.1011 7.71495 25.1519 7.17119 24.8981 6.71806C24.7346 6.42919 24.4639 6.21962 24.1482 6.12899L23.1388 5.82313C23.0768 5.80614 23.0543 5.73251 23.0937 5.68153L26.477 1.56372L28.6704 2.28306L25.8172 4.52605C25.4507 4.82058 25.2759 5.28504 25.3605 5.74383C25.4451 6.20263 25.7721 6.57646 26.2176 6.71806L26.4262 6.78603C26.5277 6.82001 26.5503 6.95595 26.4657 7.01826L24.3737 8.60421L24.7853 8.12842Z" fill="white"/>
<path opacity="0.1" d="M27.9427 7.38072L22.1292 11.187C21.6668 11.4419 21.1932 10.8811 21.5146 10.462L21.6048 10.36C23.0709 9.6407 25.4955 8.26432 27.3168 6.32153L27.8581 6.49146C28.2585 6.61607 28.3149 7.17681 27.9427 7.38072Z" fill="#8C7207"/>
<path opacity="0.25" d="M24.6667 2.60597C24.802 2.72491 24.8189 2.93449 24.7005 3.07042L23.8321 4.07864C23.7419 4.18059 23.6066 4.21457 23.4882 4.18059C23.4374 4.1636 23.3867 4.13528 23.3472 4.08996C23.2288 3.96535 23.2288 3.76711 23.3416 3.63684L24.2043 2.63995C24.3227 2.49835 24.5313 2.48136 24.6667 2.60597Z" fill="white"/>
<path opacity="0.25" d="M22.6932 5.20558C22.6481 5.19425 22.6086 5.17159 22.5748 5.13761C22.4395 5.01866 22.4226 4.80909 22.541 4.67315L22.744 4.44092C22.8624 4.30498 23.071 4.28799 23.2063 4.40694C23.3417 4.52588 23.3586 4.73545 23.2402 4.87139L23.0372 5.10362C22.9526 5.20558 22.8173 5.23956 22.6932 5.20558Z" fill="white"/>
<path d="M3.65712 0.323058C3.93905 0.232432 4.24354 0.323058 4.43526 0.549623L8.64738 5.68131C8.86729 5.94752 8.74324 6.35534 8.41619 6.45729L6.4652 7.04636C6.13815 7.14265 6.0141 7.53913 6.22273 7.81101L8.50077 10.4618C8.82218 10.8753 8.34853 11.4417 7.88615 11.1868L2.067 7.38054C1.69484 7.17663 1.74559 6.62155 2.15722 6.49127L3.72478 5.9985C4.09694 5.87955 4.18716 5.3981 3.87703 5.15454L0.533267 2.5264C0.0821698 2.16956 0.206222 1.45022 0.753177 1.27463L3.65712 0.323058Z" fill="#FFDD4D"/>
<path d="M8.11728 11.5042C7.99886 11.5042 7.87481 11.4759 7.7564 11.4079C7.75076 11.4022 7.74512 11.4022 7.73948 11.3966L1.93161 7.59594C1.67223 7.44867 1.53126 7.17679 1.55945 6.87659C1.58765 6.5764 1.785 6.33284 2.07257 6.24221L3.64014 5.74944C3.75855 5.70979 3.79238 5.6135 3.79802 5.56818C3.80366 5.52854 3.81494 5.42092 3.71344 5.34728L0.375321 2.73047C0.0933856 2.50957 -0.0475823 2.14706 0.0144436 1.79022C0.0764694 1.43338 0.330212 1.14451 0.668535 1.03123L3.57811 0.0853263C3.96154 -0.0392841 4.37317 0.0796622 4.62691 0.391188L8.83903 5.52287C8.99692 5.71545 9.04767 5.97034 8.97436 6.20823C8.90106 6.44612 8.72062 6.63304 8.47816 6.70101L6.52716 7.29007C6.45386 7.31273 6.39747 7.36937 6.37492 7.44301C6.35236 7.51664 6.36364 7.59027 6.40875 7.65258L8.68115 10.2977C8.68679 10.3034 8.68679 10.3034 8.68679 10.309C8.9067 10.5922 8.90106 10.9717 8.66423 11.2436C8.52327 11.4135 8.32591 11.5042 8.11728 11.5042ZM8.01014 10.9661C8.15675 11.0397 8.25825 10.9434 8.28644 10.9094C8.31463 10.8755 8.39921 10.7565 8.29772 10.6206L6.02531 7.97543C6.01968 7.96977 6.01968 7.96977 6.01968 7.9641C5.87307 7.77152 5.82796 7.51664 5.90126 7.28441C5.97457 7.05218 6.16064 6.87093 6.39183 6.80296L8.34283 6.21389C8.41613 6.19124 8.47252 6.1346 8.49507 6.06096C8.51763 5.98733 8.50071 5.90803 8.44996 5.84573L4.23784 0.714043C4.11379 0.566776 3.91643 0.510135 3.736 0.566776L0.832057 1.51835C0.668535 1.57499 0.550122 1.70526 0.516289 1.88085C0.482457 2.05644 0.550122 2.2207 0.685451 2.32831L4.02921 4.9508C4.24348 5.12072 4.35062 5.39826 4.29987 5.66447C4.24912 5.93069 4.0574 6.15725 3.79802 6.23655L2.23046 6.72933C2.09513 6.76898 2.07257 6.89359 2.07257 6.92757C2.06694 6.96156 2.06694 7.08617 2.19099 7.15414C2.19663 7.1598 2.20227 7.1598 2.2079 7.16546L8.01014 10.9661Z" fill="#13131E"/>
<path opacity="0.1" d="M5.2247 8.12842L5.21342 8.11143C4.90893 7.71495 4.85818 7.17119 5.11192 6.71806C5.27545 6.42919 5.54611 6.21962 5.86187 6.12899L6.8712 5.82313C6.93323 5.80614 6.95578 5.73251 6.91631 5.68153L3.53308 1.56372L1.33398 2.28306L4.18717 4.52605C4.55369 4.82058 4.72849 5.28504 4.64391 5.74383C4.55933 6.20263 4.23228 6.57646 3.78683 6.71806L3.57819 6.78603C3.4767 6.82001 3.45414 6.95595 3.53872 7.01826L5.63069 8.60421L5.2247 8.12842Z" fill="white"/>
<path opacity="0.1" d="M2.06686 7.38072L7.88038 11.187C8.34275 11.4419 8.81641 10.8811 8.495 10.462L8.40478 10.36C6.93871 9.6407 4.51407 8.26432 2.69276 6.32153L2.15144 6.49146C1.74546 6.61607 1.68907 7.17681 2.06686 7.38072Z" fill="#8C7207"/>
<path opacity="0.25" d="M5.33751 2.60597C5.20218 2.72491 5.18526 2.93449 5.30367 3.07042L6.17204 4.07864C6.26226 4.18059 6.39758 4.21457 6.516 4.18059C6.56675 4.1636 6.61749 4.13528 6.65697 4.08996C6.77538 3.96535 6.77538 3.76711 6.6626 3.63684L5.79988 2.63995C5.68711 2.49835 5.47284 2.48136 5.33751 2.60597Z" fill="white"/>
<path opacity="0.25" d="M7.31083 5.20558C7.35594 5.19425 7.39541 5.17159 7.42925 5.13761C7.56458 5.01866 7.58149 4.80909 7.46308 4.67315L7.26009 4.44092C7.14167 4.30498 6.93304 4.28799 6.79771 4.40694C6.66238 4.52588 6.64547 4.73545 6.76388 4.87139L6.96687 5.10362C7.05145 5.20558 7.18678 5.23956 7.31083 5.20558Z" fill="white"/>
</svg>
